<?xml version="1.0" standalone="no"?>
<!DOCTYPE svg PUBLIC "-//W3C//DTD SVG 1.1//EN" "http://www.w3.org/Graphics/SVG/1.1/DTD/svg11.dtd" >
<svg xmlns="http://www.w3.org/2000/svg">
<metadata>Generated by IcoMoon</metadata>
<defs>
<font id="icomoon" horiz-adv-x="1024">
<font-face units-per-em="1024" ascent="960" descent="-64" />
<missing-glyph horiz-adv-x="1024" />
<glyph unicode="&#x20;" horiz-adv-x="512" d="" />
<glyph unicode="&#xe900;" glyph-name="add-club" d="M563.2 944c-32 28.8-76.8 28.8-108.8 0-48-44.8-131.2-108.8-262.4-156.8-76.8-32-128-112-121.6-192 9.6-96 28.8-224 60.8-336 22.4-73.6 70.4-137.6 134.4-179.2 60.8-38.4 134.4-86.4 185.6-118.4 35.2-22.4 76.8-22.4 112 0 51.2 32 128 80 185.6 118.4 67.2 41.6 112 105.6 134.4 179.2 32 112 51.2 240 60.8 336 9.6 83.2-38.4 163.2-118.4 192-131.2 48-214.4 112-262.4 156.8zM512 19.2v0c0 0-3.2 0-6.4 0 0 0-3.2 0-6.4 3.2-51.2 35.2-128 83.2-185.6 118.4-25.6 19.2-48 41.6-67.2 70.4-16 22.4-25.6 44.8-32 70.4-16 57.6-28.8 121.6-38.4 179.2h3.2c-9.6 51.2-12.8 99.2-19.2 137.6-6.4 44.8 22.4 89.6 64 105.6 140.8 54.4 233.6 121.6 288 172.8v0 0 0c54.4-48 144-118.4 288-172.8 44.8-16 70.4-60.8 67.2-108.8-9.6-86.4-25.6-211.2-57.6-323.2-16-54.4-51.2-102.4-99.2-134.4-57.6-38.4-131.2-86.4-185.6-118.4-6.4 0-9.6 0-12.8 0zM608 428.8h-76.8v-76.8h-38.4v76.8h-76.8v38.4h76.8v76.8h38.4v-76.8h76.8v-38.4zM512 640c-25.6 0-51.2-6.4-73.6-16s-44.8-22.4-60.8-41.6c-38.4-35.2-57.6-83.2-57.6-134.4s19.2-99.2 57.6-134.4c19.2-19.2 38.4-32 60.8-41.6s48-16 73.6-16c51.2 0 99.2 19.2 134.4 57.6 35.2 35.2 57.6 86.4 57.6 134.4 0 25.6-6.4 51.2-16 73.6s-22.4 44.8-41.6 60.8c-19.2 19.2-38.4 32-60.8 41.6s-48 16-73.6 16v0z" />
<glyph unicode="&#xe901;" glyph-name="agenda" d="M371.2 560h112v-112h-112v112zM540.8 560h112v-112h-112v112zM707.2 560h112v-112h-112v112zM204.8 224h112v-112h-112v112zM371.2 224h112v-112h-112v112zM540.8 224h112v-112h-112v112zM371.2 390.4h112v-112h-112v112zM540.8 390.4h112v-112h-112v112zM707.2 390.4h112v-112h-112v112zM204.8 390.4h112v-112h-112v112zM819.2 896v-57.6h-112v57.6h-390.4v-57.6h-112v57.6h-112v-896h841.6v896h-115.2zM876.8 54.4h-729.6v617.6h726.4l3.2-617.6z" />
<glyph unicode="&#xe902;" glyph-name="andebol" d="M512 147.2v0c-35.2-9.6-67.2-16-102.4-25.6 0-9.6 0-19.2-3.2-28.8 0-3.2-3.2-3.2 0-6.4 64-19.2 131.2-19.2 195.2-3.2 0 3.2 0 9.6 0 12.8 0 6.4 0 12.8 0 19.2-28.8 12.8-57.6 22.4-89.6 32v0zM774.4 204.8v0c-41.6-28.8-83.2-57.6-124.8-86.4 0-6.4 0-12.8 0-22.4 54.4 22.4 102.4 54.4 140.8 99.2-3.2 6.4-9.6 9.6-16 9.6v0zM233.6 220.8v0c-6.4-3.2-9.6-6.4-12.8-9.6 38.4-48 86.4-83.2 144-108.8v16c-22.4 19.2-48 38.4-73.6 57.6-19.2 16-38.4 32-57.6 44.8zM368 371.2l-6.4 6.4c-16-3.2-35.2-9.6-51.2-12.8-12.8-3.2-25.6-6.4-38.4-12.8-3.2-19.2-3.2-35.2-3.2-54.4-3.2-16-3.2-28.8 0-44.8 38.4-28.8 83.2-60.8 124.8-92.8 25.6 6.4 51.2 12.8 76.8 19.2 6.4 3.2 16 3.2 22.4 6.4 0 22.4 3.2 41.6 0 64 0 9.6 0 22.4 0 32-41.6 32-83.2 60.8-124.8 89.6v0zM665.6 380.8c0 0-3.2 0-3.2 0-41.6-32-83.2-64-124.8-96-3.2-22.4 0-48 0-70.4 0-6.4 0-12.8 0-19.2 16-6.4 32-12.8 48-16 12.8-3.2 25.6-9.6 41.6-9.6 32 19.2 67.2 41.6 99.2 64 6.4 6.4 12.8 6.4 16 16 3.2 28.8 3.2 60.8 6.4 92.8 0 6.4 0 12.8 3.2 19.2 0 3.2 3.2 6.4 0 6.4-12.8 3.2-25.6 9.6-38.4 12.8-16-9.6-32-3.2-48 0v0zM848 438.4v0c-6.4-6.4-12.8-16-19.2-28.8-9.6-16-19.2-32-28.8-48-6.4-38.4-12.8-73.6-16-112 9.6-6.4 22.4-9.6 35.2-9.6 32 44.8 51.2 96 60.8 150.4 0 0-3.2 0-3.2 3.2-6.4 12.8-16 28.8-28.8 44.8v0zM169.6 438.4v0c-12.8-3.2-22.4-9.6-35.2-19.2 6.4-57.6 25.6-112 54.4-163.2 3.2 0 3.2-6.4 3.2-3.2 9.6 3.2 19.2 9.6 28.8 16l3.2 38.4c3.2 16 3.2 32 3.2 48-19.2 28.8-38.4 54.4-57.6 83.2v0zM444.8 547.2c-3.2 0-3.2 0-6.4 0-16-44.8-28.8-89.6-44.8-131.2 0 0 0-3.2 0-3.2 38.4-28.8 76.8-57.6 115.2-86.4 3.2 0 3.2-3.2 6.4-3.2 38.4 28.8 76.8 60.8 115.2 89.6-9.6 38.4-22.4 73.6-35.2 112-3.2 6.4-3.2 16-9.6 22.4-48 0-96-3.2-140.8 0zM691.2 640c0 0-3.2 0-3.2 0-12.8-12.8-25.6-28.8-35.2-44.8-6.4-12.8-19.2-22.4-22.4-35.2 9.6-35.2 22.4-70.4 35.2-102.4 3.2-9.6 6.4-19.2 9.6-28.8 32-12.8 64-19.2 96-28.8 6.4 9.6 12.8 19.2 16 25.6 16 22.4 25.6 48 35.2 73.6-12.8 35.2-25.6 70.4-38.4 105.6-19.2 6.4-38.4 16-57.6 22.4-12.8 3.2-25.6 9.6-35.2 12.8v0zM342.4 643.2c-12.8-3.2-28.8-6.4-41.6-9.6-19.2-6.4-35.2-9.6-54.4-16-16-38.4-28.8-76.8-41.6-115.2-3.2-6.4-3.2-9.6-6.4-16 9.6-16 19.2-32 28.8-48 6.4-12.8 16-25.6 28.8-35.2 25.6 6.4 48 12.8 73.6 19.2 9.6 0 16 6.4 19.2 12.8 16 44.8 32 89.6 44.8 137.6l-41.6 60.8c0-3.2-3.2 6.4-9.6 9.6v0zM832 646.4v0c-3.2-6.4-6.4-16-9.6-25.6 9.6-25.6 19.2-51.2 25.6-76.8 6.4-19.2 12.8-41.6 22.4-60.8 6.4-9.6 12.8-16 19.2-25.6-3.2 67.2-22.4 134.4-57.6 188.8v0zM195.2 652.8c-32-54.4-54.4-112-57.6-176 3.2 0 6.4 3.2 6.4 3.2 3.2 0 6.4 3.2 6.4 6.4 19.2 48 35.2 99.2 51.2 147.2 0 3.2 3.2 6.4 3.2 9.6-3.2 0-6.4 6.4-9.6 9.6v0zM457.6 755.2h-9.6c-12.8-16-28.8-32-38.4-48-9.6-12.8-19.2-25.6-28.8-38.4 6.4-9.6 9.6-19.2 16-28.8 9.6-16 19.2-32 32-44.8 3.2-3.2 12.8-6.4 19.2-6.4 48 0 96 0 144 0 12.8 16 28.8 35.2 41.6 54.4 3.2 6.4 12.8 12.8 12.8 19.2-19.2 28.8-38.4 57.6-57.6 86.4-41.6 3.2-86.4 6.4-131.2 6.4v0zM649.6 800v0c-6.4-9.6-12.8-19.2-16-28.8l22.4-35.2c9.6-16 22.4-32 35.2-44.8 28.8-16 60.8-28.8 92.8-38.4 6.4 16 9.6 32 9.6 48-38.4 41.6-89.6 76.8-144 99.2v0zM393.6 806.4v0 0c-64-22.4-121.6-60.8-166.4-112 6.4-9.6 16-22.4 25.6-32 16 6.4 35.2 12.8 51.2 16 12.8 3.2 28.8 6.4 38.4 16 22.4 25.6 41.6 54.4 60.8 80 0 9.6-3.2 22.4-9.6 32zM512 825.6c-22.4 0-44.8-3.2-67.2-6.4 3.2-6.4 6.4-12.8 9.6-19.2 44.8 0 89.6-3.2 137.6-3.2 3.2 6.4 6.4 12.8 9.6 19.2-28.8 6.4-57.6 9.6-89.6 9.6v0zM508.8 896c19.2 0 38.4 0 57.6-3.2 243.2-28.8 419.2-252.8 390.4-499.2-28.8-243.2-252.8-419.2-499.2-390.4s-419.2 252.8-390.4 499.2c25.6 220.8 214.4 390.4 441.6 393.6z" />
<glyph unicode="&#xe903;" glyph-name="android" d="M288 224c0-19.2 16-38.4 38.4-38.4h38.4v-131.2c0-32 25.6-54.4 54.4-54.4s54.4 25.6 54.4 54.4v131.2h73.6v-131.2c0-32 25.6-57.6 57.6-57.6s57.6 25.6 57.6 57.6v131.2h38.4c19.2 0 38.4 16 38.4 38.4v374.4h-451.2v-374.4zM195.2 598.4c-32 0-54.4-25.6-54.4-54.4 0 0 0 0 0 0v-262.4c0-32 25.6-57.6 57.6-57.6s57.6 25.6 57.6 57.6v262.4c-6.4 28.8-28.8 54.4-60.8 54.4 0 0 0 0 0 0zM828.8 598.4c-32 0-54.4-25.6-54.4-54.4 0 0 0 0 0 0v-262.4c0-32 25.6-57.6 57.6-57.6s57.6 25.6 57.6 57.6v0 262.4c-3.2 28.8-28.8 54.4-60.8 54.4 0 0 0 0 0 0zM643.2 816l48 48c6.4 6.4 6.4 19.2 0 25.6 0 0 0 0 0 0-6.4 6.4-19.2 6.4-25.6 0 0 0 0 0 0 0l-54.4-54.4c-32 16-64 22.4-99.2 22.4s-67.2-9.6-99.2-22.4l-54.4 54.4c-6.4 6.4-19.2 6.4-25.6 0 0 0 0 0 0 0-6.4-6.4-6.4-19.2 0-25.6 0 0 0 0 0 0l48-48c-57.6-41.6-92.8-108.8-92.8-182.4h448c0 73.6-35.2 140.8-92.8 182.4zM438.4 710.4h-38.4v35.2h38.4v-35.2zM624 710.4h-38.4v35.2h38.4v-35.2z" />
<glyph unicode="&#xe904;" glyph-name="arrow-down" d="M512 345.6l339.2 339.2c25.6 25.6 64 25.6 89.6 0 0 0 0 0 0 0 25.6-25.6 25.6-64 0-89.6l-384-384c-25.6-25.6-64-25.6-89.6-3.2l-384 387.2c-25.6 25.6-25.6 64 0 89.6s64 25.6 89.6 0v0l339.2-339.2z" />
<glyph unicode="&#xe905;" glyph-name="basquetebol" d="M99.2 624c22.4 54.4 54.4 102.4 96 144s89.6 73.6 144 96c112 48 236.8 48 348.8 0 108.8-44.8 192-131.2 236.8-236.8 48-112 48-236.8 0-348.8-44.8-108.8-131.2-192-236.8-236.8-70.4-28.8-147.2-41.6-224-32 0 0-3.2 0-3.2 0-3.2 0-6.4 0-9.6 3.2-54.4 9.6-105.6 25.6-153.6 51.2s-89.6 57.6-124.8 96c-35.2 41.6-64 86.4-83.2 134.4-38.4 102.4-35.2 220.8 9.6 329.6zM220.8 681.6c0 0 0 0 0 0 16-12.8 28.8-25.6 41.6-41.6 12.8-12.8 22.4-28.8 32-44.8 25.6-41.6 38.4-86.4 44.8-134.4 0-9.6 0-19.2 0-28.8 0-12.8 0-28.8-3.2-41.6 25.6-3.2 44.8-6.4 54.4-6.4 0 32-3.2 64-3.2 96 0 51.2 3.2 102.4 6.4 153.6 6.4 60.8 16 121.6 32 179.2-80-19.2-153.6-64-204.8-131.2v0zM723.2 758.4v0l-22.4-16c-16-12.8-28.8-25.6-41.6-38.4-16-16-32-35.2-48-54.4-16-22.4-28.8-48-41.6-73.6-16-35.2-22.4-73.6-22.4-108.8 0-22.4 3.2-44.8 6.4-64 28.8 6.4 57.6 12.8 86.4 25.6 83.2 28.8 160 70.4 230.4 121.6-19.2 80-73.6 156.8-147.2 208zM723.2 137.6c48 35.2 89.6 80 118.4 134.4s44.8 115.2 44.8 176c0 6.4 0 22.4-3.2 38.4-67.2-48-144-86.4-224-112-28.8-9.6-60.8-19.2-92.8-25.6 38.4-80 92.8-153.6 156.8-211.2zM483.2 73.6c6.4 0 22.4 0 28.8 0 57.6 0 115.2 12.8 166.4 38.4-70.4 64-124.8 140.8-160 227.2-28.8-3.2-54.4-6.4-73.6-6.4 6.4-86.4 19.2-172.8 38.4-259.2zM441.6 384c12.8 0 35.2 3.2 60.8 3.2-6.4 22.4-6.4 48-6.4 73.6 0 9.6 0 19.2 0 28.8 3.2 28.8 9.6 57.6 19.2 86.4 9.6 25.6 19.2 51.2 35.2 73.6 12.8 22.4 28.8 41.6 44.8 60.8 22.4 28.8 48 54.4 76.8 76.8-51.2 25.6-105.6 38.4-163.2 38.4-12.8 0-22.4 0-28.8 0-28.8-112-44.8-230.4-41.6-345.6 3.2-35.2 3.2-64 3.2-96v0zM428.8 83.2c-16 83.2-28.8 166.4-35.2 252.8-25.6 0-48 3.2-70.4 6.4-19.2-54.4-48-105.6-83.2-150.4 51.2-54.4 115.2-92.8 188.8-108.8v0zM204.8 233.6c28.8 35.2 51.2 76.8 67.2 118.4-44.8 12.8-89.6 28.8-131.2 51.2 6.4-60.8 28.8-118.4 64-169.6v0zM281.6 403.2c0 9.6 3.2 19.2 3.2 28.8 0 6.4 0 16 0 25.6-3.2 32-12.8 64-28.8 96s-38.4 60.8-67.2 86.4v0c-32-54.4-51.2-112-54.4-176 48-25.6 96-48 147.2-60.8v0z" />
<glyph unicode="&#xe906;" glyph-name="calendar-fill" d="M140.8 560h742.4c12.8 0 22.4-9.6 22.4-22.4v-454.4c0-44.8-38.4-83.2-83.2-83.2h-617.6c-44.8 0-83.2 38.4-83.2 83.2v454.4c0 12.8 6.4 22.4 19.2 22.4zM902.4 636.8v64c0 44.8-38.4 83.2-83.2 83.2h-83.2v89.6c0 12.8-9.6 22.4-22.4 22.4h-70.4c-12.8 0-22.4-9.6-22.4-22.4v-89.6h-224v89.6c0 12.8-9.6 22.4-22.4 22.4h-64c-12.8 0-22.4-9.6-22.4-22.4v-89.6h-83.2c-44.8 0-83.2-38.4-83.2-83.2v-64c0-12.8 9.6-22.4 22.4-22.4h742.4c9.6 3.2 16 9.6 16 22.4z" />
<glyph unicode="&#xe907;" glyph-name="calendar-outline" d="M809.6 0h-595.2c-51.2 0-96 44.8-96 96v438.4c0 22.4 12.8 38.4 35.2 38.4h716.8c19.2 0 38.4-16 38.4-38.4v-438.4c-3.2-54.4-44.8-96-99.2-96zM153.6 540.8c0 0-3.2 0-3.2-6.4v-438.4c0-35.2 28.8-64 64-64h595.2c35.2 0 64 28.8 64 64v438.4c0 3.2-3.2 6.4-6.4 6.4h-713.6zM873.6 592h-720c-19.2 0-38.4 16-38.4 38.4v60.8c0 51.2 44.8 96 96 96h64v70.4c3.2 22.4 19.2 38.4 41.6 38.4h60.8c22.4 0 38.4-16 38.4-38.4v-70.4h185.6v70.4c0 19.2 16 38.4 38.4 38.4h64c19.2 0 38.4-16 38.4-38.4v-70.4h67.2c51.2 0 96-44.8 96-96v-64c-3.2-16-12.8-28.8-32-35.2v0zM214.4 758.4c-35.2 0-64-28.8-64-64v-60.8c0-3.2 3.2-6.4 6.4-6.4h713.6c3.2 0 3.2 3.2 6.4 9.6v54.4c0 35.2-28.8 64-64 64h-99.2v102.4c-3.2 6.4-3.2 6.4-9.6 6.4h-67.2c-3.2 0-6.4-3.2-6.4-6.4v-102.4h-246.4v102.4c0 6.4-3.2 6.4-6.4 6.4h-60.8c-3.2 0-6.4 0-6.4-6.4v-102.4h-96z" />
<glyph unicode="&#xe908;" glyph-name="config" d="M931.2 339.2l-76.8 44.8c6.4 41.6 6.4 86.4 0 128l76.8 44.8c9.6 6.4 12.8 16 9.6 25.6-19.2 64-54.4 121.6-99.2 169.6-6.4 6.4-19.2 9.6-25.6 3.2l-80-44.8c-32 28.8-70.4 48-108.8 64v89.6c0 9.6-6.4 19.2-16 22.4-64 16-131.2 16-198.4 0-9.6-3.2-16-9.6-16-22.4v-89.6c-41.6-12.8-76.8-35.2-108.8-64l-76.8 44.8c-9.6 6.4-22.4 3.2-28.8-3.2-44.8-48-80-105.6-99.2-169.6-3.2-9.6 0-19.2 9.6-25.6l76.8-44.8c-6.4-41.6-6.4-86.4 0-128l-76.8-44.8c-9.6-6.4-12.8-16-9.6-25.6 19.2-64 54.4-121.6 99.2-169.6 6.4-6.4 19.2-9.6 25.6-3.2l80 44.8c32-28.8 70.4-48 108.8-64v-89.6c0-9.6 6.4-19.2 16-22.4 64-16 131.2-16 198.4 0 9.6 3.2 16 9.6 16 22.4v89.6c41.6 12.8 76.8 35.2 108.8 64l76.8-44.8c9.6-6.4 19.2-3.2 25.6 3.2 44.8 48 80 105.6 99.2 169.6 6.4 9.6 0 22.4-6.4 25.6v0zM512 304c-80 0-144 64-144 144s64 144 144 144c80 0 144-64 144-144v0c0-80-64-144-144-144v0z" />
<glyph unicode="&#xe909;" glyph-name="dropdown" d="M64 672l448-448 448 448h-896z" />
<glyph unicode="&#xe90a;" glyph-name="express" d="M752 512h-217.6l105.6 374.4c0 3.2 0 9.6-6.4 9.6-3.2 0-6.4 0-9.6-3.2l-364.8-483.2c-6.4-6.4-3.2-19.2 3.2-22.4 3.2-3.2 6.4-3.2 9.6-3.2h217.6l-105.6-374.4c0-3.2 0-9.6 6.4-9.6 3.2 0 6.4 0 9.6 3.2l368 480c6.4 6.4 3.2 19.2-3.2 22.4-6.4 6.4-9.6 6.4-12.8 6.4z" />
<glyph unicode="&#xe90b;" glyph-name="facebook" d="M960 448c0 246.4-204.8 448-451.2 444.8-246.4 0-444.8-201.6-444.8-451.2 0-217.6 160-403.2 377.6-438.4v313.6h-115.2v131.2h115.2v99.2c0 112 67.2 176 169.6 176 32 0 67.2-3.2 99.2-9.6v-112h-57.6c-54.4 0-73.6-35.2-73.6-70.4v-83.2h124.8l-19.2-131.2h-105.6v-313.6c220.8 35.2 380.8 224 380.8 444.8z" />
<glyph unicode="&#xe90c;" glyph-name="fan-fill" d="M308.672 498.88h-92.8v96h105.6v102.4l-121.6 9.6-134.4-137.6v-380.8h150.4v214.4h92.8v96zM398.272 700.48l-64-508.8h128l6.4 92.8h44.8l6.4-92.8h124.8l-70.4 508.8h-176zM465.472 374.080c3.2 44.8 12.8 115.2 22.4 214.4 6.4-86.4 12.8-156.8 19.2-214.4h-41.6zM855.872 700.48v-230.4l-70.4 230.4h-102.4v-508.8h102.4v230.4l64-230.4h108.8v508.8h-102.4z" />
<glyph unicode="&#xe90d;" glyph-name="fan-outline" d="M231.328 184.16h-166.4l-3.2 387.2 137.6 137.6 131.2-12.8v-118.4h-102.4v-76.8h92.8v-112h-92.8v-204.8zM84.128 203.36h131.2v208h92.8v76.8h-92.8v112h102.4v83.2l-108.8 9.6-128-128 3.2-361.6zM653.728 187.36h-140.8l-6.4 89.6h-28.8l-6.4-89.6h-144l64 515.2h192l70.4-515.2zM528.928 203.36h105.6l-67.2 480h-160l-60.8-480h105.6l6.4 89.6h60.8l9.6-89.6zM519.328 363.36h-60.8v9.6c3.2 32 9.6 102.4 22.4 208h16c3.2-32 6.4-64 6.4-92.8 3.2-44.8 6.4-83.2 9.6-115.2l6.4-9.6zM477.728 382.56h22.4c-3.2 32-6.4 67.2-9.6 108.8 0 3.2 0 3.2 0 6.4-6.4-54.4-9.6-92.8-12.8-115.2zM960.928 187.36h-121.6l-48 172.8v-172.8h-118.4v515.2h118.4l51.2-172.8v172.8h118.4v-515.2zM852.128 206.56h89.6v480h-83.2v-217.6l-16-3.2-64 217.6h-86.4v-480h83.2v217.6l16 3.2 60.8-217.6z" />
<glyph unicode="&#xe90e;" glyph-name="futebol" d="M960 470.4c0-6.4 0-16 0-22.4 0-246.4-201.6-448-448-448s-448 201.6-448 448c0 19.2 0 35.2 3.2 54.4 6.4 60.8 28.8 118.4 57.6 172.8 54.4 96 144 166.4 246.4 198.4 233.6 76.8 486.4-51.2 563.2-284.8 16-38.4 22.4-76.8 25.6-118.4zM838.4 470.4h44.8c-3.2 67.2-25.6 131.2-60.8 185.6h-150.4l-83.2 147.2 6.4 9.6c-60.8 12.8-124.8 9.6-185.6-6.4v-3.2l-83.2-147.2h-121.6c-32-48-51.2-102.4-60.8-156.8h41.6l83.2-147.2-64-112c48-70.4 115.2-121.6 195.2-147.2l51.2 89.6h169.6l41.6-73.6c57.6 25.6 108.8 67.2 144 118.4l-54.4 96 86.4 147.2zM428.8 598.4h169.6l83.2-147.2-83.2-147.2h-169.6l-83.2 147.2 83.2 147.2z" />
<glyph unicode="&#xe90f;" glyph-name="futsal" d="M508.8 604.8l-147.2-105.6 54.4-172.8h179.2l54.4 172.8-140.8 105.6zM764.8 188.8l-60.8-6.4-28.8-57.6c32 16 64 38.4 89.6 64zM345.6 124.8l-25.6 57.6-64 9.6c25.6-25.6 54.4-48 89.6-67.2zM361.6 198.4l48-102.4c64-19.2 134.4-19.2 201.6-3.2l54.4 105.6-54.4 73.6h-195.2l-54.4-73.6zM153.6 489.6l54.4 51.2-12.8 76.8c-19.2-41.6-32-83.2-41.6-128zM230.4 505.6l-83.2-76.8c3.2-67.2 22.4-131.2 57.6-185.6l115.2-19.2 51.2 73.6-57.6 182.4-83.2 25.6zM448 806.4l60.8-32 64 32c-38.4 6.4-83.2 6.4-124.8 0zM483.2 736l-96 51.2c-60.8-22.4-115.2-60.8-153.6-108.8l16-112 83.2-25.6 150.4 108.8v86.4zM835.2 611.2l-12.8-60.8 44.8-48c-3.2 38.4-12.8 73.6-32 108.8v0zM774.4 563.2l22.4 108.8c-41.6 51.2-92.8 89.6-153.6 112l-102.4-51.2v-86.4l150.4-108.8 83.2 25.6zM873.6 435.2l-83.2 83.2-86.4-28.8-60.8-182.4 54.4-73.6 112 12.8c38.4 57.6 60.8 121.6 64 188.8zM512 896c246.4 0 448-201.6 448-448s-201.6-448-448-448c-246.4 0-448 201.6-448 448 0 118.4 48 233.6 131.2 316.8s198.4 131.2 316.8 131.2z" />
<glyph unicode="&#xe910;" glyph-name="heart" d="M713.6 860.8c-76.8 0-150.4-35.2-201.6-96-51.2 60.8-124.8 92.8-201.6 96-134.4 3.2-246.4-105.6-246.4-240 0-3.2 0-3.2 0-6.4 0-172.8 153.6-307.2 384-521.6l64-57.6 64 57.6c230.4 211.2 384 348.8 384 521.6 3.2 134.4-105.6 246.4-240 246.4-3.2 0-3.2 0-6.4 0zM540.8 153.6l-9.6-9.6-19.2-16-19.2 16-9.6 9.6c-92.8 80-182.4 169.6-265.6 262.4-60.8 73.6-86.4 134.4-86.4 198.4 0 48 19.2 92.8 51.2 128 32 32 80 51.2 124.8 51.2 57.6 0 112-25.6 147.2-70.4l51.2-64 51.2 64c38.4 44.8 92.8 70.4 150.4 70.4 48 0 92.8-19.2 128-51.2 32-35.2 51.2-80 51.2-128 0-64-25.6-124.8-86.4-198.4-76.8-96-166.4-182.4-259.2-262.4z" />
<glyph unicode="&#xe911;" glyph-name="hoquei" d="M512 764.8c-256 0-448-83.2-448-188.8v-256c0-108.8 192-188.8 448-188.8s448 83.2 448 188.8v230.4c0 3.2 0 3.2-3.2 6.4 0 6.4 0 9.6 3.2 16 0 108.8-192 192-448 192zM512 681.6c208 0 336-60.8 336-105.6s-128-105.6-336-105.6-336 60.8-336 105.6 128 105.6 336 105.6zM512 217.6c-208 0-336 60.8-336 105.6v124.8c105.6-44.8 220.8-64 336-60.8 115.2-3.2 230.4 19.2 336 60.8v-128c0-41.6-128-102.4-336-102.4v0z" />
<glyph unicode="&#xe912;" glyph-name="information" d="M512.64 804.64c198.4 0 358.4-160 358.4-358.4s-160-358.4-358.4-358.4c-198.4 0-358.4 160-358.4 358.4 0 96 38.4 185.6 105.6 252.8 67.2 70.4 156.8 105.6 252.8 105.6zM512.64 897.44c-246.4 0-448-201.6-448-448s201.6-448 448-448c246.4 0 448 201.6 448 448s-201.6 444.8-448 448c0-3.2 0-3.2 0 0v0zM468.224 270.464h89.6v-89.6h-89.6v89.6zM557.824 315.264h-89.6c0 144 134.4 134.4 134.4 224 0 48-41.6 89.6-89.6 89.6s-89.6-41.6-89.6-89.6h-89.6c0 99.2 80 179.2 179.2 179.2s179.2-80 179.2-179.2c0-112-134.4-124.8-134.4-224z" />
<glyph unicode="&#xe913;" glyph-name="instagram" d="M512 896c-121.6 0-137.6 0-185.6-3.2-38.4 0-73.6-6.4-108.8-22.4-28.8-9.6-57.6-25.6-80-48s-38.4-51.2-51.2-80c-12.8-35.2-19.2-70.4-22.4-108.8 0-48 0-64 0-185.6s0-137.6 3.2-185.6c0-38.4 6.4-73.6 22.4-108.8 12.8-28.8 28.8-57.6 51.2-80s48-41.6 80-51.2c35.2-12.8 70.4-19.2 108.8-22.4 48-3.2 64-3.2 185.6-3.2s137.6 0 185.6 3.2c38.4 0 73.6 6.4 108.8 22.4 60.8 22.4 108.8 70.4 131.2 131.2 12.8 35.2 19.2 70.4 22.4 108.8 3.2 48 3.2 64 3.2 185.6s0 137.6-3.2 185.6c0 38.4-6.4 73.6-22.4 108.8-12.8 28.8-28.8 57.6-51.2 80s-48 41.6-80 51.2c-35.2 12.8-70.4 19.2-108.8 22.4-51.2 0-67.2 0-188.8 0zM512 816c118.4 0 134.4 0 182.4-3.2 28.8 0 57.6-6.4 83.2-16 38.4-16 70.4-44.8 86.4-86.4 9.6-25.6 16-54.4 16-83.2 3.2-48 3.2-60.8 3.2-182.4s0-134.4-3.2-182.4c0-28.8-6.4-57.6-16-83.2-6.4-19.2-19.2-38.4-32-51.2-16-16-32-25.6-51.2-32-25.6-9.6-54.4-16-83.2-16-48-3.2-60.8-3.2-182.4-3.2s-134.4 0-182.4 3.2c-28.8 0-57.6 6.4-83.2 16-19.2 6.4-38.4 19.2-51.2 32-16 12.8-25.6 32-32 51.2-9.6 25.6-16 54.4-16 83.2-3.2 48-3.2 60.8-3.2 182.4s0 134.4 3.2 182.4c0 28.8 6.4 57.6 16 83.2 6.4 19.2 19.2 38.4 32 51.2 12.8 16 32 25.6 51.2 32 25.6 9.6 54.4 16 83.2 16 44.8 6.4 57.6 6.4 179.2 6.4v0zM512 678.4c-128 0-230.4-102.4-230.4-230.4s102.4-230.4 230.4-230.4 230.4 102.4 230.4 230.4c0 128-102.4 230.4-230.4 230.4 0 0 0 0 0 0zM512 297.6c-83.2 0-150.4 67.2-150.4 150.4s67.2 150.4 150.4 150.4 150.4-67.2 150.4-150.4v0c0-83.2-67.2-150.4-150.4-150.4 0 0 0 0 0 0zM806.4 688c0-28.8-25.6-54.4-54.4-54.4s-54.4 25.6-54.4 54.4 25.6 54.4 54.4 54.4v0c28.8 0 54.4-25.6 54.4-54.4z" />
<glyph unicode="&#xe914;" glyph-name="like" d="M665.6 0h-6.4c-73.6 3.2-140.8 22.4-208 54.4-25.6 12.8-54.4 22.4-83.2 25.6-16 0-32 16-32 38.4v361.6c0 9.6 3.2 16 6.4 19.2l6.4 6.4c35.2 35.2 60.8 70.4 83.2 102.4s41.6 60.8 67.2 86.4c19.2 25.6 32 57.6 38.4 89.6 3.2 32 19.2 112 67.2 112 51.2 0 134.4-19.2 134.4-153.6 0-48-19.2-83.2-35.2-115.2-6.4-9.6-9.6-22.4-16-32h150.4c64 0 115.2-48 118.4-112 0-32-12.8-64-32-86.4 16-44.8 9.6-92.8-16-131.2 9.6-44.8 0-92.8-28.8-128 6.4-25.6 0-51.2-12.8-76.8-38.4-60.8-128-60.8-201.6-60.8zM368 486.4c0-3.2 0-3.2 0 0-3.2-6.4-3.2-6.4-3.2-6.4v-361.6c0-6.4 3.2-6.4 3.2-6.4 35.2-3.2 67.2-12.8 96-28.8 60.8-32 128-48 195.2-51.2h6.4c67.2 0 150.4 0 182.4 44.8 9.6 19.2 12.8 41.6 6.4 60.8l-3.2 9.6 6.4 6.4c25.6 28.8 35.2 73.6 25.6 112l-3.2 6.4 3.2 6.4c25.6 32 28.8 80 12.8 118.4l-3.2 9.6 6.4 6.4c19.2 19.2 28.8 44.8 28.8 73.6-3.2 48-38.4 83.2-86.4 83.2h-192l3.2 19.2c6.4 19.2 16 38.4 25.6 57.6 16 28.8 32 57.6 32 99.2 0 83.2-35.2 124.8-105.6 124.8-3.2 0-25.6-3.2-41.6-83.2-6.4-38.4-22.4-73.6-44.8-105.6-25.6-25.6-44.8-54.4-64-83.2-25.6-41.6-48-76.8-86.4-112zM252.8 0h-134.4c-32 0-54.4 25.6-54.4 57.6v406.4c0 28.8 25.6 54.4 54.4 54.4h134.4c32 0 54.4-25.6 54.4-57.6v-403.2c3.2-32-22.4-57.6-54.4-57.6zM118.4 489.6c-12.8 0-25.6-12.8-25.6-25.6v-403.2c0-16 9.6-28.8 25.6-28.8h134.4c12.8 0 25.6 12.8 25.6 25.6v403.2c0 16-9.6 28.8-25.6 28.8h-134.4zM185.6 67.2c-28.8 0-54.4 25.6-54.4 54.4s25.6 54.4 54.4 54.4 54.4-25.6 54.4-54.4c3.2-28.8-22.4-54.4-54.4-54.4zM185.6 147.2c-12.8 0-25.6-12.8-25.6-25.6s12.8-25.6 25.6-25.6 25.6 12.8 25.6 25.6c0 16-12.8 25.6-25.6 25.6z" />
<glyph unicode="&#xe915;" glyph-name="linkedin" d="M828.8 131.2h-131.2v208c0 48 0 112-70.4 112s-80-54.4-80-108.8v-211.2h-131.2v428.8h128v-57.6h3.2c25.6 44.8 73.6 70.4 124.8 70.4 134.4 0 160-89.6 160-204.8l-3.2-236.8zM262.4 617.6c-41.6 0-76.8 35.2-76.8 76.8s35.2 76.8 76.8 76.8c41.6 0 76.8-35.2 76.8-76.8s-32-76.8-76.8-76.8c0 0 0 0 0 0zM329.6 131.2h-134.4v428.8h134.4v-428.8zM892.8 896h-761.6c-38.4 0-67.2-28.8-67.2-64 0 0 0 0 0 0v-768c0-35.2 28.8-64 67.2-64 0 0 0 0 0 0h764.8c35.2 0 67.2 28.8 67.2 64v768c-3.2 35.2-32 64-70.4 64v0z" />
<glyph unicode="&#xe916;" glyph-name="locked" d="M851.2 521.6h-41.6v160c-6.4 115.2-99.2 204.8-211.2 211.2h-176c-115.2-6.4-201.6-96-208-208v-160h-44.8c-16-3.2-25.6-16-28.8-32v-473.6c0-9.6 16-16 28.8-16h681.6c12.8 0 35.2 6.4 35.2 16v473.6c-6.4 16-19.2 25.6-35.2 28.8zM601.6 73.6h-179.2l38.4 185.6c-22.4 19.2-38.4 48-38.4 76.8 0 51.2 41.6 89.6 89.6 92.8 48 0 89.6-38.4 89.6-86.4 0 0 0 0 0 0 0-32-12.8-60.8-38.4-80l38.4-188.8zM681.6 521.6h-336v160c-3.2 41.6 28.8 80 70.4 80 3.2 0 6.4 0 9.6 0h172.8c44.8 3.2 80-32 83.2-76.8 0-3.2 0-3.2 0-6.4v-156.8z" />
<glyph unicode="&#xe917;" glyph-name="login" d="M400 838.4v-112h448v-560h-448v-112h560v784h-560zM512 614.4v-112h-448v-112h448v-112l224 166.4-224 169.6z" />
<glyph unicode="&#xe918;" glyph-name="logout" d="M400 841.6v-112h448v-560h-448v-112h560v784h-560zM288 614.4l-224-166.4 224-166.4v112h448v112h-448v108.8z" />
<glyph unicode="&#xe919;" glyph-name="lugar-cativo" d="M812.8 0h-54.4c-22.4 0-44.8 19.2-44.8 44.8v172.8h-403.2v-172.8c0-22.4-19.2-44.8-41.6-44.8h-54.4c-22.4 0-44.8 19.2-44.8 44.8v176c-3.2 0-6.4 3.2-6.4 3.2-19.2 6.4-32 19.2-41.6 35.2s-9.6 35.2-3.2 51.2l19.2 54.4c12.8 28.8 38.4 48 67.2 48h611.2c32 0 60.8-19.2 67.2-48l19.2-60.8c0-6.4 0-9.6 0-12.8l3.2-3.2v-3.2c0-32-22.4-60.8-51.2-67.2v-176c0-22.4-19.2-41.6-41.6-41.6zM281.6 246.4h464v-204.8c0-6.4 6.4-12.8 12.8-12.8h54.4c6.4 0 12.8 6.4 12.8 12.8v204.8h16c22.4 0 35.2 16 38.4 35.2-3.2 6.4-3.2 12.8-3.2 19.2l-22.4 51.2c-3.2 16-19.2 25.6-38.4 25.6h-611.2c-22.4 0-35.2-19.2-38.4-28.8l-19.2-54.4c-3.2-9.6-3.2-19.2 3.2-28.8s12.8-16 25.6-19.2l6.4-3.2c3.2 0 3.2 0 6.4 0h16v-204.8c0-6.4 6.4-12.8 12.8-12.8h54.4c3.2 0 9.6 6.4 9.6 12.8v208zM796.8 432h-112v233.6c0 35.2-12.8 64-38.4 86.4v-320h-112v352h-48v-352h-112v320c-22.4-22.4-38.4-51.2-38.4-86.4v-16h-3.2v-217.6h-108.8v233.6c0 128 102.4 230.4 233.6 230.4h108.8c131.2 0 230.4-102.4 230.4-230.4v-233.6zM716.8 464h48v201.6c0 112-89.6 201.6-201.6 201.6h-108.8c-112-3.2-198.4-89.6-198.4-201.6v-201.6h48v214.4h3.2c3.2 48 32 89.6 73.6 115.2l22.4 12.8v-345.6h48v352h112v-352h48v348.8l28.8-16c48-28.8 76.8-73.6 76.8-131.2v-198.4z" />
<glyph unicode="&#xe91a;" glyph-name="mega-store" d="M908.8 844.8h-793.6v-99.2h796.8v99.2zM960 348.8v99.2l-51.2 249.6h-793.6l-51.2-249.6v-99.2h51.2v-297.6h499.2v297.6h198.4v-297.6h99.2v297.6h48zM512 150.4h-297.6v198.4h297.6v-198.4z" />
<glyph unicode="&#xe91b;" glyph-name="mensagem" d="M512 0c-67.2 0-124.8 57.6-124.8 124.8v16h246.4v-16c3.2-67.2-54.4-124.8-121.6-124.8zM419.2 108.8c9.6-44.8 48-76.8 92.8-76.8s83.2 35.2 92.8 76.8h-185.6zM832 163.2h-643.2c-38.4 0-67.2 28.8-67.2 67.2 0 19.2 6.4 35.2 19.2 48l6.4 9.6c32 32 80 86.4 80 240 0 134.4 89.6 243.2 217.6 275.2v22.4c0 41.6 32 70.4 70.4 70.4s67.2-32 67.2-70.4v-22.4c124.8-32 217.6-144 217.6-275.2 0-160 51.2-211.2 83.2-246.4l3.2-3.2c16-16 16-38.4 16-48-3.2-38.4-32-67.2-70.4-67.2zM515.2 864c-22.4 0-41.6-16-41.6-38.4v-51.2l-12.8-3.2c-118.4-22.4-204.8-124.8-204.8-246.4 0-166.4-57.6-227.2-89.6-262.4l-6.4-6.4c-6.4-6.4-12.8-16-12.8-25.6 0-22.4 19.2-38.4 38.4-38.4h646.4c22.4 0 38.4 19.2 41.6 38.4 0 9.6-3.2 19.2-6.4 25.6l-3.2 3.2c-35.2 35.2-92.8 92.8-92.8 265.6 0 121.6-86.4 224-204.8 246.4l-12.8 3.2v51.2c0 22.4-16 38.4-38.4 38.4z" />
<glyph unicode="&#xe91c;" glyph-name="meus-clubes" d="M562.512 943.046c-30.179 28.289-76.963 28.297-107.142 0-48.326-45.305-132.141-107.969-262.523-157.266-78.891-29.828-127.563-109.289-118.656-193.172 10.305-96.944 29.086-224.477 60.961-335.85 21.25-74.282 68.695-138.33 133.469-180.438 59.053-38.4 134.586-87.197 185.053-119.766 33.658-21.718 76.877-21.718 110.534 0 50.467 32.57 126 81.366 185.053 119.766 64.774 42.109 112.218 106.157 133.478 180.438 31.866 111.373 50.646 238.906 60.95 335.85 8.909 83.884-39.763 163.345-118.656 193.172-130.381 49.297-214.195 111.961-262.522 157.266zM511.811 18.416v-0.010c-1.536 0-3.533 0.189-5.731 0.864-1.552 0.477-3.203 1.197-4.864 2.269-52.077 33.61-126.419 81.642-184.819 119.61-27.903 18.141-51.46 41.744-69.408 69.104-14.432 20.995-25.501 44.32-32.612 69.178-16.672 58.272-29.422 120.765-39.086 179.421h2.157c-8.287 50.896-14.252 98.736-18.448 138.205-4.961 46.687 22.117 90.835 65.852 107.374 141.406 53.461 233.735 122.328 286.945 171.617l0.016-0.013c53.213-49.288 145.546-118.148 286.928-171.604 43.734-16.539 70.813-60.688 65.853-107.374-9.133-85.901-26.64-211.478-58.243-321.891-15.763-55.101-50.976-102.694-99.155-134.016-58.25-37.875-132.662-85.952-184.819-119.61-3.994-2.579-7.946-3.123-10.563-3.123zM512 640c-105.984 0-192-86.016-192-192s86.016-192 192-192c105.984 0 192 86.016 192 192s-86.016 192-192 192zM512 582.4c31.872 0 57.6-25.728 57.6-57.6s-25.728-57.6-57.6-57.6c-31.872 0-57.6 25.728-57.6 57.6s25.728 57.6 57.6 57.6zM512 309.76c-48 0-90.432 24.576-115.2 61.824 0.576 38.208 76.8 59.136 115.2 59.136 38.208 0 114.624-20.928 115.2-59.136-24.768-37.248-67.2-61.824-115.2-61.824z" />
<glyph unicode="&#xe91d;" glyph-name="user" d="M825.6-41.6h-627.2c-64 0-118.4 54.4-118.4 118.4v73.6c0 150.4 121.6 272 272 272h35.2l6.4-3.2c73.6-35.2 160-35.2 233.6 0l6.4 3.2h38.4c150.4 0 272-121.6 272-272v-73.6c0-64-54.4-118.4-118.4-118.4zM352 358.4c-115.2 0-208-92.8-208-208v-73.6c0-28.8 25.6-54.4 54.4-54.4h627.2c28.8 0 54.4 25.6 54.4 54.4v73.6c0 115.2-92.8 208-208 208h-22.4c-86.4-38.4-185.6-38.4-275.2 0h-22.4zM512 416v0c-70.4 0-134.4 25.6-185.6 76.8-48 48-73.6 115.2-73.6 182.4 0 144 118.4 259.2 259.2 259.2s259.2-115.2 259.2-259.2-115.2-259.2-259.2-259.2zM512 873.6c-108.8 0-195.2-89.6-195.2-195.2 0-108.8 89.6-195.2 195.2-195.2v0c108.8 0 195.2 89.6 195.2 195.2s-86.4 195.2-195.2 195.2z" />
<glyph unicode="&#xe91e;" glyph-name="add" d="M512 0c-22.4 0-44.8 19.2-44.8 44.8v806.4c0 22.4 19.2 44.8 44.8 44.8 22.4 0 44.8-19.2 44.8-44.8v-809.6c0-22.4-22.4-41.6-44.8-41.6zM915.2 403.2h-806.4c-22.4 0-44.8 19.2-44.8 44.8 0 22.4 19.2 44.8 44.8 44.8h809.6c22.4 0 44.8-19.2 44.8-44.8-3.2-22.4-22.4-44.8-48-44.8z" />
<glyph unicode="&#xe91f;" glyph-name="folder" d="M960 83.2h-896v729.6h393.6l112-112h390.4v-617.6zM70.4 89.6h886.4v608h-390.4l-112 112h-384v-720z" />
<glyph unicode="&#xe920;" glyph-name="grupo" d="M896 373.169c-35.446 35.446-82.708 55.138-131.938 55.138h-74.831l-3.938-1.969c-37.415-17.723-74.831-23.631-112.246-17.723 5.908 5.908 9.846 11.815 15.754 17.723 3.938 0 7.877 0 11.815 0 114.215 0 206.769 92.554 206.769 206.769s-94.523 204.8-208.738 204.8c-66.954 0-124.062-31.508-163.446-78.769-3.938 0-7.877 0-11.815 0-114.215 0-206.769-92.554-206.769-206.769 0-72.862 37.415-135.877 92.554-173.292-9.846-9.846-19.692-19.692-27.569-31.508h-23.631c-102.4 0-185.108-82.708-185.108-185.108v-19.692c0-45.292 37.415-82.708 82.708-82.708h533.662c45.292 0 80.738 35.446 82.708 78.769h94.523c45.292 0 82.708 37.415 82.708 82.708v19.692c0 49.231-19.692 96.492-53.169 131.938zM598.646 794.585c90.585 0 163.446-72.862 163.446-163.446 0-84.677-64.985-155.569-149.662-161.477 11.815 25.6 17.723 53.169 17.723 82.708 0 92.554-61.046 171.323-143.754 196.923 29.538 27.569 68.923 45.292 112.246 45.292zM261.908 552.369c0 84.677 64.985 155.569 149.662 161.477 3.938 0 9.846 0 13.785 0 11.815 0 21.662-1.969 33.477-3.938 74.831-15.754 129.969-80.738 129.969-159.508 0-29.538-7.877-57.108-21.662-80.738-7.877-13.785-17.723-25.6-29.538-37.415-3.938-3.938-9.846-7.877-13.785-11.815-27.569-19.692-61.046-33.477-98.462-33.477-25.6 0-51.2 5.908-72.862 17.723-55.138 29.538-90.585 84.677-90.585 147.692zM730.585 140.8c0-1.969 0-3.938 0-3.938-1.969-19.692-19.692-35.446-39.385-35.446h-533.662c-21.662 0-39.385 17.723-39.385 39.385v19.692c0 78.769 63.015 141.785 141.785 141.785h66.954c63.015-27.569 133.908-27.569 196.923 0h68.923c70.892-1.969 128-55.138 137.846-124.062 0-5.908 1.969-11.815 1.969-17.723v-19.692zM905.846 221.538c0-21.662-17.723-39.385-39.385-39.385h-92.554c-3.938 43.323-23.631 82.708-53.169 112.246-35.446 35.446-82.708 55.138-131.938 55.138h-74.831l-3.938-1.969c-53.169-23.631-116.185-23.631-169.354 0v0c3.938 3.938 9.846 7.877 13.785 11.815 21.662-7.877 45.292-11.815 70.892-11.815 37.415 0 72.862 9.846 104.369 27.569 55.138-17.723 116.185-13.785 169.354 9.846h68.923c76.8-1.969 139.815-64.985 137.846-141.785v-21.662z" />
<glyph unicode="&#xe921;" glyph-name="ver-mais" d="M313.6 448c0-79.529-64.471-144-144-144s-144 64.471-144 144c0 79.529 64.471 144 144 144s144-64.471 144-144zM656 448c0-79.529-64.471-144-144-144s-144 64.471-144 144c0 79.529 64.471 144 144 144s144-64.471 144-144zM998.4 448c0-79.529-64.471-144-144-144s-144 64.471-144 144c0 79.529 64.471 144 144 144s144-64.471 144-144z" />
<glyph unicode="&#xe922;" glyph-name="menu" d="M128 192h768v85.334h-768v-85.334zM128 405.334h768v85.331h-768v-85.331zM128 704v-85.334h768v85.334h-768z" />
<glyph unicode="&#xe923;" glyph-name="plataformas-digitais" d="M918.4 51.2c-48 0-96 19.2-131.2 51.2-22.4-6.4-38.4-6.4-57.6-6.4-128 0-230.4 92.8-230.4 204.8s102.4 204.8 230.4 204.8 230.4-89.6 230.4-204.8c0-41.6-16-86.4-44.8-121.6-3.2-6.4-6.4-16-6.4-25.6 0-28.8 16-51.2 41.6-64l9.6-3.2v-35.2l-12.8-3.2c-9.6 3.2-19.2 3.2-28.8 3.2zM793.6 137.6l6.4-6.4c32-32 73.6-48 112-51.2-22.4 19.2-35.2 44.8-35.2 76.8 0 16 3.2 32 12.8 41.6 25.6 28.8 38.4 67.2 38.4 102.4 0 96-89.6 176-201.6 176s-201.6-80-201.6-176c0-96 89.6-176 201.6-176 19.2 0 35.2 3.2 57.6 9.6l9.6 3.2zM128 96h-16v48l9.6 3.2c51.2 25.6 86.4 67.2 86.4 108.8 0 3.2 0 6.4 0 12.8-89.6 54.4-140.8 147.2-144 252.8 3.2 179.2 182.4 323.2 400 323.2 220.8 0 393.6-140.8 396.8-320v-22.4l-19.2 9.6c-102.4 41.6-217.6 25.6-294.4-44.8-48-41.6-76.8-102.4-76.8-166.4 0-32 6.4-60.8 19.2-89.6l9.6-22.4h-38.4c-16 0-35.2 0-54.4 3.2-89.6-86.4-195.2-96-278.4-96zM464 816c-201.6 0-364.8-134.4-368-297.6 3.2-96 51.2-179.2 134.4-230.4h3.2l3.2-3.2c3.2-9.6 3.2-22.4 3.2-28.8 0-48-35.2-99.2-89.6-128 73.6 3.2 166.4 19.2 240 92.8l6.4 6.4h6.4c12.8-3.2 28.8-3.2 44.8-3.2-9.6 25.6-12.8 51.2-12.8 80 0 73.6 32 144 89.6 192 80 70.4 195.2 92.8 304 57.6-16 144-176 262.4-364.8 262.4z" />
<glyph unicode="&#xe924;" glyph-name="quotas" d="M774.912 221.12c-6.4 6.4-19.2 3.2-25.6-3.2s-12.8-16-19.2-22.4c-6.4-6.4-9.6-9.6-16-16s-9.6-16-3.2-25.6c6.4-6.4 16-9.6 25.6-3.2 6.4 6.4 12.8 12.8 19.2 19.2 6.4 9.6 16 16 22.4 25.6s6.4 19.2-3.2 25.6c0 0 0 0 0 0zM700.864 142.912c-3.2 9.6-12.8 12.8-22.4 9.6 0 0 0 0 0 0v0c-9.6-3.2-12.8-12.8-9.6-22.4 3.2-6.4 9.6-9.6 16-9.6 3.2 0 3.2 0 6.4 0v0c9.6 3.2 12.8 12.8 9.6 22.4zM906.336 851.008h-790.4c-28.8 0-51.2-22.4-51.2-51.2v-489.6c0-28.8 22.4-51.2 51.2-51.2h368c12.8-54.4 41.6-105.6 83.2-144 32-32 70.4-57.6 115.2-67.2 44.8 9.6 86.4 32 115.2 67.2 41.6 38.4 67.2 89.6 83.2 144h25.6c28.8 0 51.2 22.4 51.2 51.2v489.6c3.2 25.6-22.4 51.2-51.2 51.2zM855.136 326.208c0-70.4-28.8-137.6-76.8-188.8-25.6-25.6-57.6-48-92.8-57.6-35.2 9.6-67.2 32-92.8 57.6-51.2 48-80 118.4-76.8 188.8v86.4c60.8 16 118.4 41.6 172.8 73.6 54.4-32 112-54.4 172.8-73.6v-86.4zM925.536 307.008c0-9.6-6.4-16-16-16h-19.2c0 12.8 3.2 25.6 3.2 35.2v99.2c0 6.4-6.4 16-12.8 16-64 19.2-128 44.8-185.6 76.8-6.4 3.2-12.8 3.2-19.2 0-57.6-35.2-121.6-60.8-185.6-76.8-6.4-3.2-12.8-9.6-12.8-16v-99.2c0-12.8 0-25.6 3.2-35.2h-361.6c-9.6 0-16 6.4-16 16v297.6h825.6v-297.6zM925.536 639.808h-825.6v70.4h825.6v-70.4zM925.536 745.408h-825.6v51.2c0 9.6 6.4 16 16 16h790.4c9.6 0 16-6.4 16-16l3.2-51.2zM275.424 483.296c-9.6 0-22.4-3.2-32-6.4-9.6 3.2-19.2 6.4-32 6.4-44.8 0-80-35.2-80-76.8 0-44.8 35.2-80 76.8-80 0 0 3.2 0 3.2 0 9.6 0 22.4 3.2 32 6.4 9.6-3.2 19.2-6.4 32-6.4 44.8 0 80 35.2 80 76.8s-35.2 80-80 80c0 0 0 0 0 0zM211.424 361.696c-25.6 0-44.8 19.2-44.8 44.8s19.2 44.8 44.8 44.8c25.6 0 44.8-19.2 44.8-44.8s-19.2-44.8-44.8-44.8c0 0 0 0 0 0v0zM278.624 361.696c9.6 12.8 12.8 28.8 12.8 44.8s-3.2 32-12.8 44.8c25.6-3.2 41.6-22.4 38.4-48 0-25.6-19.2-41.6-38.4-41.6v0zM240.224 560.704h-89.6c-9.6 0-16-6.4-16-16s6.4-16 16-16h89.6c9.6 0 16 6.4 16 16 3.2 9.6-6.4 16-16 16 0 0 0 0 0 0zM291.488 560.704v0c-9.6 0-19.2-6.4-19.2-16s6.4-16 16-16c0 0 0 0 0 0v0c9.6 0 16 6.4 16 16 6.4 9.6 0 16-12.8 16 3.2 0 0 0 0 0zM780.672 367.072c-6.4 6.4-19.2 6.4-25.6 0 0 0 0 0 0 0l-92.8-92.8-48 48c-6.4 6.4-19.2 6.4-25.6 0s-6.4-19.2 0-25.6c0 0 0 0 0 0l60.8-60.8c3.2-3.2 6.4-6.4 12.8-6.4 3.2 0 9.6 3.2 12.8 6.4l105.6 105.6c6.4 9.6 6.4 19.2 0 25.6z" />
<glyph unicode="&#xe925;" glyph-name="registo-atividades" d="M204.8 252.8h-112c-16 0-28.8-12.8-28.8-28.8 0 0 0 0 0 0v-112c0-16 12.8-28.8 28.8-28.8h112c16 0 28.8 12.8 28.8 28.8v112c-3.2 16-12.8 28.8-28.8 28.8 0 0 0 0 0 0zM204.8 812.8h-112c-16 0-28.8-12.8-28.8-28.8 0 0 0 0 0 0v-112c0-16 12.8-28.8 28.8-28.8h112c16 0 28.8 12.8 28.8 28.8 0 0 0 0 0 0v112c-3.2 16-12.8 28.8-28.8 28.8 0 0 0 0 0 0zM204.8 531.2h-112c-16 0-28.8-12.8-28.8-28.8 0 0 0 0 0 0v-112c0-16 12.8-28.8 28.8-28.8 0 0 0 0 0 0h112c16 0 28.8 12.8 28.8 28.8v0 112c0 16-12.8 28.8-28.8 28.8 0 0 0 0 0 0zM931.2 224h-560c-16 0-28.8-12.8-28.8-28.8v-57.6c0-16 12.8-28.8 28.8-28.8h560c16 0 28.8 12.8 28.8 28.8v54.4c0 19.2-12.8 32-28.8 32 0 0 0 0 0 0zM931.2 784h-560c-16 0-28.8-12.8-28.8-28.8v0-54.4c0-16 12.8-28.8 28.8-28.8v0h560c16 0 28.8 12.8 28.8 28.8v54.4c0 16-12.8 28.8-28.8 28.8 0 0 0 0 0 0zM931.2 505.6h-560c-16 0-28.8-12.8-28.8-28.8v0-57.6c0-16 12.8-28.8 28.8-28.8v0h560c16 0 28.8 12.8 28.8 28.8v54.4c0 19.2-12.8 28.8-28.8 32v0z" />
<glyph unicode="&#xe926;" glyph-name="reminder" d="M878.048 201.856h-729.6c-19.2 0-35.2 12.8-41.6 32s0 38.4 16 48c0 0 102.4 76.8 102.4 329.6 0 156.8 128 284.8 284.8 284.8s284.8-128 284.8-284.8c0-252.8 102.4-326.4 102.4-329.6 16-9.6 22.4-32 16-48 0-19.2-19.2-32-35.2-32zM238.048 288.256h544c-35.2 60.8-73.6 163.2-73.6 320 0 108.8-92.8 198.4-198.4 198.4-108.8 0-198.4-92.8-198.4-198.4 0-156.8-35.2-259.2-73.6-320zM510.048 0.256c-22.4 0-41.6 6.4-60.8 16s-38.4 28.8-48 48c-9.6 22.4-3.2 48 19.2 57.6s48 3.2 57.6-19.2c0-3.2 6.4-6.4 9.6-9.6 0 0 3.2 0 3.2-3.2 16-9.6 38.4-3.2 51.2 16s38.4 25.6 60.8 12.8c19.2-12.8 25.6-38.4 12.8-60.8-22.4-35.2-64-57.6-105.6-57.6z" />
<glyph unicode="&#xe927;" glyph-name="search" d="M700.8 336h-41.6l-16 12.8c51.2 60.8 80 137.6 80 217.6 0 182.4-147.2 329.6-329.6 326.4-182.4 0-329.6-150.4-329.6-332.8s150.4-329.6 332.8-329.6c80 0 156.8 28.8 217.6 80l16-12.8v-41.6l256-256 76.8 76.8-262.4 259.2zM396.8 336c-128 0-230.4 102.4-230.4 230.4s102.4 230.4 230.4 230.4 230.4-102.4 230.4-230.4c0 0 0 0 0 0 0-128-102.4-230.4-230.4-230.4 0 0 0 0 0 0z" />
<glyph unicode="&#xe928;" glyph-name="star" d="M243.2 19.2c-3.2 0-6.4 0-9.6 3.2s-6.4 9.6-6.4 16l51.2 291.2-211.2 204.8c-3.2 3.2-3.2 9.6-3.2 16 3.2 6.4 6.4 9.6 12.8 9.6l291.2 41.6 128 265.6c6.4 9.6 22.4 9.6 28.8 0l128-265.6 291.2-41.6c6.4 0 9.6-6.4 12.8-9.6 3.2-6.4 0-12.8-3.2-16l-211.2-204.8 51.2-288c0-6.4 0-12.8-6.4-16-3.2-3.2-9.6-3.2-16 0l-259.2 134.4-262.4-137.6c0 0-3.2-3.2-6.4-3.2zM112 534.4l195.2-188.8c3.2-3.2 6.4-9.6 3.2-12.8l-48-268.8 240 128c3.2 3.2 9.6 3.2 12.8 0l240-124.8-48 265.6c0 6.4 0 9.6 3.2 12.8l195.2 188.8-268.8 38.4c-6.4 0-9.6 3.2-12.8 9.6l-112 243.2-118.4-243.2c-3.2-3.2-6.4-6.4-12.8-9.6l-268.8-38.4z" />
<glyph unicode="&#xe929;" glyph-name="store" d="M812.8 19.2h-604.8c-60.8 0-108.8 48-108.8 108.8v265.6h-35.2v163.2h112l3.2 3.2 208 224c0 3.2 0 6.4 0 12.8-3.2 19.2 6.4 38.4 19.2 54.4s32 22.4 54.4 25.6h70.4c19.2 0 41.6-9.6 54.4-25.6s22.4-35.2 19.2-57.6v-6.4c0 0 0-3.2 0-3.2l208-224c3.2 0 3.2-3.2 6.4-3.2h140.8v-163.2h-41.6v-265.6c0-60.8-48-108.8-105.6-108.8zM96 425.6h38.4v-297.6c0-41.6 35.2-76.8 76.8-76.8h601.6c41.6 0 76.8 35.2 76.8 76.8v297.6h38.4v102.4h-137.6v9.6l-224 236.8v6.4c0 6.4 0 12.8 3.2 19.2 0 12.8-3.2 22.4-12.8 32s-19.2 16-32 16h-67.2c-12.8 0-22.4-6.4-32-16s-12.8-19.2-12.8-32c0-6.4 0-6.4 0-9.6l6.4-9.6-233.6-249.6h-89.6v-105.6zM774.4 96c-28.8 0-51.2 22.4-51.2 51.2v224c0 28.8 22.4 51.2 51.2 51.2s51.2-22.4 51.2-51.2v-224c0-28.8-22.4-51.2-51.2-51.2zM774.4 396.8c-12.8 0-22.4-9.6-22.4-22.4v-224c0-12.8 9.6-22.4 22.4-22.4s22.4 9.6 22.4 22.4v224c0 12.8-9.6 22.4-22.4 22.4zM608 96c-28.8 0-51.2 22.4-51.2 51.2v224c0 28.8 22.4 51.2 51.2 51.2s51.2-22.4 51.2-51.2v-224c0-28.8-22.4-51.2-51.2-51.2zM608 396.8c-12.8 0-22.4-9.6-22.4-22.4v-224c0-12.8 9.6-22.4 22.4-22.4s22.4 9.6 22.4 22.4v224c0 12.8-9.6 22.4-22.4 22.4zM419.2 96c-28.8 0-51.2 22.4-51.2 51.2v224c0 28.8 22.4 51.2 51.2 51.2s51.2-22.4 51.2-51.2v-224c0-28.8-22.4-51.2-51.2-51.2zM419.2 396.8c-12.8 0-22.4-9.6-22.4-22.4v-224c0-12.8 9.6-22.4 22.4-22.4s22.4 9.6 22.4 22.4v224c0 12.8-9.6 22.4-22.4 22.4zM249.6 96c-28.8 0-51.2 22.4-51.2 51.2v224c0 28.8 22.4 51.2 51.2 51.2s51.2-22.4 51.2-51.2v-224c0-28.8-22.4-51.2-51.2-51.2zM249.6 396.8c-12.8 0-22.4-9.6-22.4-22.4v-224c0-12.8 9.6-22.4 22.4-22.4s22.4 9.6 22.4 22.4v224c0 12.8-9.6 22.4-22.4 22.4zM742.4 528h-499.2l204.8 214.4 9.6-9.6v12.8h73.6l6.4-6.4 204.8-211.2zM316.8 556.8h355.2l-147.2 156.8h-57.6l-150.4-156.8z" />
<glyph unicode="&#xe92a;" glyph-name="ticket-fill" d="M265.6 368l291.2 332.8 201.6-172.8-291.2-332.8-201.6 172.8zM729.6 697.6c28.8-22.4 70.4-19.2 92.8 6.4v0l99.2-86.4c28.8-25.6 32-67.2 6.4-92.8v0l-432-502.4c-25.6-28.8-67.2-32-92.8-6.4 0 0 0 0 0 0l-99.2 86.4c25.6 28.8 22.4 70.4-6.4 92.8v0c-32 25.6-73.6 22.4-96-3.2l-99.2 86.4c-28.8 25.6-32 67.2-6.4 92.8l432 502.4c25.6 28.8 67.2 32 92.8 6.4 0 0 0 0 0 0l99.2-86.4c-19.2-28.8-19.2-70.4 9.6-96zM579.2 742.4c-12.8 12.8-35.2 9.6-48-3.2l-304-352c-12.8-12.8-9.6-35.2 3.2-48l217.6-188.8c12.8-12.8 35.2-9.6 48 3.2l304 352c12.8 12.8 9.6 35.2-3.2 48l-217.6 188.8z" />
<glyph unicode="&#xe92b;" glyph-name="ticket-outline" d="M422.4 3.2c-22.4 0-41.6 6.4-57.6 22.4l-105.6 102.4 9.6 9.6c19.2 19.2 19.2 51.2 0 70.4s-54.4 19.2-70.4 0l-9.6-9.6-102.4 102.4c-28.8 32-28.8 83.2 0 115.2l464 457.6c28.8 28.8 86.4 28.8 115.2 0l102.4-105.6-12.8-9.6c-9.6-9.6-16-22.4-16-35.2s3.2-25.6 12.8-35.2c19.2-19.2 51.2-19.2 70.4 0l9.6 9.6 102.4-102.4c32-32 32-83.2 0-115.2l-457.6-454.4c-12.8-16-35.2-22.4-54.4-22.4zM304 128l83.2-83.2c19.2-19.2 51.2-19.2 70.4 0l457.6 454.4c19.2 19.2 19.2 51.2 0 70.4l-83.2 86.4c-32-19.2-76.8-16-102.4 9.6v0c-16 16-22.4 38.4-22.4 57.6 0 16 6.4 32 16 44.8l-83.2 83.2c-19.2 19.2-54.4 19.2-70.4 0l-460.8-457.6c-19.2-19.2-19.2-51.2 0-70.4l83.2-83.2c32 19.2 76.8 16 102.4-9.6s28.8-70.4 9.6-102.4zM451.2 144c-12.8 0-25.6 6.4-35.2 12.8l-198.4 198.4c-9.6 9.6-12.8 22.4-12.8 35.2s6.4 25.6 12.8 35.2l320 320c16 16 51.2 16 67.2 0v0l198.4-198.4c9.6-9.6 12.8-22.4 12.8-35.2s-6.4-25.6-12.8-35.2l-320-320c-6.4-9.6-19.2-12.8-32-12.8zM572.8 726.4c-3.2 0-9.6-3.2-12.8-3.2l-320-320c-3.2-3.2-3.2-6.4-3.2-12.8 0-3.2 3.2-9.6 3.2-12.8l198.4-198.4c6.4-6.4 19.2-6.4 25.6 0l320 320c3.2 3.2 3.2 6.4 3.2 12.8 0 3.2-3.2 9.6-3.2 12.8l-198.4 198.4c-3.2 0-6.4 3.2-12.8 3.2zM451.2 182.4l-204.8 204.8 329.6 326.4 204.8-204.8-329.6-326.4zM291.2 387.2l160-160 281.6 281.6-160 160-281.6-281.6z" />
<glyph unicode="&#xe92c;" glyph-name="twitter" d="M867.2 630.4c0-6.4 0-16 0-22.4 0-243.2-185.6-521.6-521.6-521.6-99.2 0-198.4 28.8-281.6 83.2 16-3.2 28.8-3.2 44.8-3.2 83.2 0 163.2 28.8 227.2 76.8-80 0-147.2 51.2-172.8 128 12.8-3.2 22.4-3.2 35.2-3.2 16 0 32 3.2 48 6.4-86.4 16-147.2 92.8-147.2 179.2v3.2c25.6-12.8 54.4-22.4 83.2-22.4-80 54.4-105.6 160-57.6 246.4 92.8-115.2 230.4-185.6 377.6-192-3.2 12.8-3.2 28.8-3.2 41.6 0 102.4 83.2 182.4 185.6 182.4 51.2 0 99.2-22.4 134.4-57.6 41.6 6.4 80 22.4 115.2 44.8-12.8-41.6-41.6-80-80-102.4 35.2 3.2 73.6 12.8 105.6 28.8-25.6-38.4-57.6-70.4-92.8-96v0z" />
<glyph unicode="&#xe92d;" glyph-name="voleibol" d="M512 896c-246.4 0-448-201.6-448-448s201.6-448 448-448 448 201.6 448 448c0 246.4-201.6 448-448 448zM550.4 80c-57.6-3.2-115.2 6.4-166.4 28.8 16 19.2 70.4 57.6 96 118.4 32 64 48 134.4 54.4 208 51.2 25.6 105.6 41.6 160 48 19.2-201.6-16-272-144-403.2v0zM729.6 528c-76.8 0-150.4-19.2-217.6-54.4-48 28.8-89.6 70.4-121.6 115.2 115.2 105.6 278.4 134.4 422.4 76.8 32-51.2 54.4-105.6 67.2-166.4-48 22.4-99.2 32-150.4 28.8v0zM758.4 723.2c-140.8 16-268.8 12.8-390.4-96-25.6 38.4-41.6 83.2-41.6 131.2 57.6 32 121.6 54.4 188.8 57.6 89.6-3.2 176-35.2 243.2-92.8v0zM288 736c9.6-57.6 32-112 60.8-160 32-60.8 83.2-108.8 144-140.8-3.2-57.6-16-112-38.4-163.2-169.6 51.2-240 179.2-275.2 323.2 25.6 54.4 60.8 102.4 108.8 140.8v0zM150.4 380.8c-9.6 48-9.6 99.2 0 147.2 35.2-140.8 140.8-249.6 278.4-291.2-32-51.2-35.2-73.6-89.6-108.8-118.4 64-163.2 128-188.8 252.8zM624 99.2c102.4 99.2 144 246.4 112 384 51.2 0 102.4-12.8 147.2-38.4-6.4-198.4-128-297.6-259.2-345.6z" />
<glyph unicode="&#xe92e;" glyph-name="close" d="M810.669 686.507l-60.16 60.16-238.509-238.507-238.506 238.507-60.16-60.16 238.506-238.507-238.506-238.506 60.16-60.16 238.506 238.506 238.509-238.506 60.16 60.16-238.509 238.506 238.509 238.507z" />
<glyph unicode="&#xe92f;" glyph-name="registo-atividades-outline" d="M228.431 97.477v0h-102.4c-25.6 0-43.323 19.692-43.323 43.323v102.4c0 23.631 17.723 43.323 43.323 43.323h102.4c23.631 0 43.323-17.723 43.323-43.323v-102.4c0-11.815-5.908-21.662-13.785-29.538-7.877-9.846-17.723-13.785-29.538-13.785zM126.031 251.077c-5.908 0-9.846-5.908-9.846-9.846v-102.4c0-5.908 5.908-9.846 9.846-9.846h102.4c3.938 0 5.908 1.969 5.908 3.938 1.969 1.969 3.938 3.938 3.938 5.908v102.4c0 5.908-5.908 9.846-9.846 9.846 0 0-102.4 0-102.4 0zM897.969 123.077h-513.969c-23.631 0-43.323 17.723-43.323 43.323v51.2c0 23.631 17.723 43.323 43.323 43.323h513.969c23.631 0 43.323-17.723 43.323-43.323v-51.2c0-25.6-19.692-43.323-43.323-43.323zM384 225.477c-5.908 0-9.846-5.908-9.846-9.846v-51.2c0-5.908 5.908-9.846 9.846-9.846h513.969c5.908 0 9.846 5.908 9.846 9.846v51.2c0 5.908-5.908 9.846-9.846 9.846h-513.969zM228.431 353.477v0h-102.4c-25.6 0-43.323 19.692-43.323 43.323v102.4c0 23.631 17.723 43.323 43.323 43.323h102.4c23.631 0 43.323-17.723 43.323-43.323v-102.4c0-11.815-5.908-21.662-13.785-29.538s-17.723-13.785-29.538-13.785zM126.031 509.046c-5.908 0-9.846-5.908-9.846-9.846v-102.4c0-5.908 5.908-9.846 9.846-9.846h102.4c3.938 0 5.908 1.969 5.908 3.938 1.969 1.969 3.938 3.938 3.938 5.908v102.4c0 5.908-5.908 9.846-9.846 9.846 0 0-102.4 0-102.4 0zM897.969 381.046h-513.969c-23.631 0-43.323 17.723-43.323 43.323v51.2c0 23.631 17.723 43.323 43.323 43.323h513.969c23.631 0 43.323-17.723 43.323-43.323v-51.2c0-25.6-19.692-43.323-43.323-43.323zM384 483.446c-5.908 0-9.846-5.908-9.846-9.846v-51.2c0-5.908 5.908-9.846 9.846-9.846h513.969c5.908 0 9.846 5.908 9.846 9.846v51.2c0 5.908-5.908 9.846-9.846 9.846h-513.969zM228.431 611.446v0h-102.4c-25.6 0-43.323 19.692-43.323 43.323v102.4c0 25.6 17.723 43.323 43.323 43.323h102.4c23.631 0 43.323-17.723 43.323-43.323v-102.4c0-23.631-19.692-43.323-43.323-43.323zM126.031 767.015c-5.908 0-9.846-5.908-9.846-9.846v-102.4c0-5.908 5.908-9.846 9.846-9.846h102.4c5.908 0 9.846 5.908 9.846 9.846v102.4c0 5.908-5.908 9.846-9.846 9.846 0 0-102.4 0-102.4 0zM897.969 637.046h-513.969c-23.631 0-43.323 17.723-43.323 43.323v51.2c0 23.631 17.723 43.323 43.323 43.323h513.969c11.815 0 21.662-5.908 29.538-13.785s13.785-17.723 13.785-29.538v-51.2c0-25.6-19.692-43.323-43.323-43.323zM384 739.446c-5.908 0-9.846-5.908-9.846-9.846v-51.2c0-5.908 5.908-9.846 9.846-9.846h513.969c5.908 0 9.846 5.908 9.846 9.846v53.169c0 3.938-1.969 5.908-3.938 5.908-1.969 1.969-3.938 3.938-5.908 3.938v0l-513.969-1.969z" />
<glyph unicode="&#xe930;" glyph-name="dashboard" d="M281.509 154.761c-65.991 0-136.533 32.996-191.147 88.747-68.267 71.68-96.711 168.391-77.369 263.964 23.893 114.916 112.64 204.8 228.693 227.556v0c19.342 3.413 38.684 5.689 58.027 5.689 0 0 1.138 0 1.138 0 77.369 0 151.324-29.582 207.076-85.333 55.751-54.613 86.471-128.569 86.471-207.076 0-45.511-37.547-83.058-83.058-83.058h-87.609c-10.24 0-20.48-2.276-29.582-6.827-14.791-7.964-26.169-20.48-31.858-36.409s-3.413-32.996 3.413-47.787c12.516-23.893 12.516-52.338 0-77.369-11.378-21.618-31.858-36.409-54.613-40.96-9.102-1.138-19.342-1.138-29.582-1.138zM300.851 719.098c0 0-1.138 0-1.138 0-18.204 0-35.271-2.276-53.476-5.689v0c-105.813-21.618-188.871-103.538-210.489-209.351-18.204-88.747 9.102-178.631 71.68-244.622 56.889-59.164 135.396-89.884 200.249-79.644 15.929 2.276 30.72 12.516 38.684 28.444 9.102 17.067 9.102 38.684 0 55.751-10.24 20.48-12.516 43.236-5.689 65.991 6.827 21.618 22.756 39.822 43.236 50.062 12.516 5.689 25.031 9.102 38.684 9.102 0 0 1.138 0 1.138 0h87.609c32.996 0 60.302 27.307 60.302 60.302 0 72.818-28.444 139.947-80.782 191.147-51.2 50.062-118.329 78.507-190.009 78.507zM124.496 366.387v0c-26.169 0-46.649 20.48-46.649 46.649s20.48 46.649 46.649 46.649 46.649-20.48 46.649-46.649c0-26.169-21.618-46.649-46.649-46.649zM124.496 436.929c-13.653 0-23.893-10.24-23.893-23.893s10.24-23.893 23.893-23.893v0c13.653 0 23.893 10.24 23.893 23.893 0 12.516-11.378 23.893-23.893 23.893zM440.798 507.472v0c-3.413 0-6.827 0-10.24 1.138l-28.444 3.413 10.24 4.551c-11.378 9.102-18.204 21.618-18.204 36.409 0 26.169 20.48 46.649 46.649 46.649s46.649-20.48 46.649-46.649c0-12.516-4.551-23.893-13.653-32.996-7.964-7.964-19.342-12.516-32.996-12.516v0zM441.936 578.014c-13.653 0-23.893-10.24-23.893-23.893s10.24-23.893 23.893-23.893v0 0c6.827 0 12.516 2.276 17.067 6.827s6.827 10.24 6.827 17.067c0 12.516-11.378 23.893-23.893 23.893zM158.629 507.472v0c-3.413 0-5.689 0-9.102 1.138l-29.582 3.413 11.378 5.689c-11.378 9.102-18.204 21.618-18.204 36.409 0 26.169 20.48 46.649 46.649 46.649s46.649-20.48 46.649-46.649c0-12.516-4.551-23.893-13.653-32.996s-20.48-13.653-34.133-13.653v0zM159.767 578.014c-13.653 0-23.893-10.24-23.893-23.893s10.24-23.893 23.893-23.893l1.138-3.413v3.413c5.689 0 11.378 2.276 15.929 6.827s6.827 10.24 6.827 17.067c0 12.516-11.378 23.893-23.893 23.893zM283.785 576.876l1.138 2.276c-18.204 6.827-30.72 23.893-30.72 44.373 0 26.169 20.48 46.649 46.649 46.649s46.649-20.48 46.649-46.649c0-26.169-20.48-46.649-46.649-46.649h-17.067zM300.851 648.556c-13.653 0-23.893-10.24-23.893-23.893s10.24-23.893 23.893-23.893h1.138c12.516 1.138 22.756 11.378 22.756 23.893s-11.378 23.893-23.893 23.893zM583.020 154.761c-94.436 0-152.462 69.404-152.462 182.044v21.618l18.204-12.516c2.276-1.138 5.689-4.551 10.24-7.964 10.24-7.964 36.409-27.307 44.373-28.444 2.276 0 4.551 1.138 4.551 3.413 27.307 72.818 79.644 84.196 117.191 87.609h4.551l103.538-86.471 1.138-4.551c1.138-3.413 1.138-7.964 1.138-11.378-1.138-87.609-60.302-143.36-152.462-143.36zM454.451 312.912c4.551-50.062 27.307-135.396 128.569-135.396 79.644 0 129.707 46.649 129.707 120.604 0 1.138 0 2.276 0 4.551l-89.884 75.093c-31.858-2.276-70.542-14.791-92.16-71.68-4.551-11.378-14.791-18.204-26.169-18.204 0 0 0 0 0 0-12.516-1.138-27.307 7.964-50.062 25.031zM757.1 331.116c-9.102 0-18.204 1.138-27.307 3.413l-2.276 1.138-73.956 61.44-1.138 2.276c-6.827 14.791-10.24 30.72-10.24 47.787 0 52.338 18.204 68.267 135.396 170.667 30.72 27.307 69.404 60.302 117.191 103.538 13.653 12.516 31.858 20.48 51.2 20.48 37.547 1.138 69.404-28.444 71.68-65.991v-2.276c-1.138-19.342-6.827-38.684-17.067-55.751-121.742-225.28-166.116-286.72-243.484-286.72zM737.758 356.147c6.827-1.138 12.516-2.276 19.342-2.276 61.44 0 98.987 46.649 221.867 276.48 7.964 13.653 12.516 29.582 13.653 45.511-1.138 25.031-22.756 44.373-47.787 43.236v0c-13.653 0-27.307-5.689-36.409-14.791-47.787-42.098-86.471-76.231-117.191-103.538-118.329-103.538-127.431-112.64-127.431-153.6 0-12.516 2.276-23.893 7.964-35.271l65.991-55.751z" />
<glyph unicode="&#xe931;" glyph-name="next" d="M611.648 448.427l-332.373 332.373c-24.32 24.32-24.747 64-0.427 88.32 0 0 0 0 0.427 0.427 24.747 24.32 64.427 24.32 88.747 0l376.32-376.32c23.467-23.893 24.32-61.867 1.707-86.613l-378.027-378.88c-24.32-24.747-64-25.173-88.747-0.853s-25.173 64-0.853 88.747c0.427 0.427 0.427 0.427 0.853 0.853l332.373 331.947z" />
<glyph unicode="&#xe932;" glyph-name="prev" d="M412.395 447.573l332.373-332.373c24.32-24.32 24.747-64 0.427-88.32 0 0 0 0-0.427-0.427-24.747-24.32-64.427-24.32-88.747 0l-376.32 376.32c-23.467 23.893-24.32 61.867-1.707 86.613l378.027 378.88c24.32 24.747 64 25.173 88.747 0.853s25.173-64 0.853-88.747c-0.427-0.427-0.427-0.427-0.853-0.853l-332.373-331.947z" />
<glyph unicode="&#xe933;" glyph-name="back-cards" d="M77.227 882.773h405.76v-405.76h-405.76v405.76zM77.227 418.987h405.76v-405.76h-405.76v405.76zM541.013 882.773h405.76v-405.76h-405.76v405.76zM541.013 418.987h405.76v-405.76h-405.76v405.76z" />
<glyph unicode="&#xe934;" glyph-name="add-member" d="M937.54 515.311h-89.6v89.6c0 12.373-10.24 22.187-22.613 22.613h-44.8c-12.373 0-22.187-10.24-22.613-22.613v-89.6h-89.6c-12.373 0-22.187-10.24-22.613-22.613v-44.8c0-12.373 10.24-22.187 22.613-22.613h89.6v-89.6c0-12.373 10.24-22.187 22.613-22.613h44.8c12.373 0 22.187 10.24 22.613 22.613v89.6h89.6c12.373 0 22.187 10.24 22.613 22.613v44.8c0 12.373-10.24 22.613-22.613 22.613zM377.754 447.898c98.987 0 179.2 80.213 179.2 179.2s-80.213 179.2-179.2 179.2c-98.987 0-179.2-80.213-179.2-179.2v0c0-98.987 80.213-179.2 179.2-179.2 0 0 0 0 0 0zM503.194 403.098h-23.467c-64.853-29.867-139.52-29.867-203.947 0h-23.467c-104.107 0-188.16-84.053-188.16-188.16v-58.027c0-37.12 30.293-66.987 66.987-66.987h492.8c37.12 0 66.987 30.293 66.987 66.987v58.027c0.427 104.107-84.053 188.16-187.733 188.16v0z" />
<glyph unicode="&#xe935;" glyph-name="trash" d="M224.427 604.587v-522.667c0-29.013 23.467-52.053 52.48-52.053h470.613c29.013 0 52.053 23.467 52.48 52.48v522.24h-575.573zM381.44 134.4h-52.48v366.080h52.48v-366.080zM485.973 134.4h-52.48v366.080h52.48v-366.080zM590.507 134.4h-52.48v366.080h52.48v-366.080zM695.040 134.4h-52.48v366.080h52.48v-366.080zM812.373 761.6h-169.813v65.28c0 21.76-17.493 39.253-39.253 39.253h-182.613c-21.76 0-39.253-17.493-39.253-39.253v-65.28h-170.24c-21.333 0-38.827-17.493-38.827-39.253v-65.28h679.253v65.28c0 21.76-17.493 39.253-39.253 39.253zM590.507 761.6h-157.013v51.627h157.013v-51.627z" />
<glyph unicode="&#xe936;" glyph-name="grupo-perfil" d="M773.12 535.467l-11.093-19.627c-4.267-7.253-12.8-10.24-20.48-7.253-15.787 5.973-30.72 14.507-43.52 25.173-6.4 5.12-7.68 14.080-3.84 21.333l11.093 19.627c-9.387 11.093-16.64 23.467-21.76 37.12h-22.187c-8.107 0-15.36 5.973-16.64 14.080-2.987 16.64-2.987 33.707 0 50.347 1.28 8.107 8.533 14.080 16.64 14.080h22.613c4.693 13.653 12.373 26.453 21.76 37.12l-11.093 19.627c-4.267 7.253-2.56 16.213 3.84 21.333 13.227 11.093 27.733 19.627 43.52 25.6 7.68 2.987 16.213 0 20.48-7.253l11.093-19.627c14.080 2.56 29.013 2.56 43.093 0l11.093 19.627c4.267 7.253 12.8 10.24 20.48 7.253 15.787-5.973 30.72-14.507 43.52-25.173 6.4-5.12 7.68-14.080 3.84-21.333l-11.093-19.627c9.387-11.093 16.64-23.467 21.76-37.12h22.613c8.107 0 15.36-5.973 16.64-14.080 2.987-16.64 2.987-33.707 0-50.347-1.28-8.107-8.533-14.080-16.64-14.080h-22.613c-4.693-13.653-12.373-26.453-21.76-37.12l11.093-19.627c4.267-7.253 2.56-16.213-3.84-21.333-13.227-10.667-27.733-19.2-43.52-25.173-7.68-2.987-16.213 0-20.48 7.253l-11.093 19.627c-14.507-2.987-29.013-2.987-43.52-0.427v0zM759.040 615.253c20.48-19.2 52.48-18.347 71.68 2.133 18.347 19.627 18.347 50.347 0 69.547-20.48 19.2-52.48 17.92-71.68-2.56-18.347-19.2-18.347-49.493 0-69.12v0zM602.027 406.187l45.653-23.040c13.653-8.107 19.627-24.747 14.080-39.68-14.080-32.853-33.707-63.147-58.027-89.6-10.24-11.947-27.733-14.933-41.387-7.253l-39.68 23.040c-22.187-18.773-47.36-33.707-74.667-43.093v-45.653c0-15.787-11.093-29.44-26.88-32-34.133-5.973-69.12-5.973-103.253 0-15.787 2.56-27.307 16.213-27.307 32v45.653c-27.307 9.813-52.48 24.32-74.667 43.093l-39.68-22.613c-13.653-8.107-31.147-4.693-41.387 7.253-23.893 26.453-43.52 56.747-57.6 89.173-5.547 14.933 0.427 31.573 14.080 39.68l45.227 23.040c-5.12 28.587-5.12 57.6 0 86.187l-45.227 23.040c-13.653 7.68-19.627 24.747-14.080 39.253 14.080 32.853 33.28 63.147 57.6 89.6 10.24 11.947 27.733 14.933 41.387 7.253l39.68-23.040c23.040 18.773 48.64 33.707 75.947 43.093v45.653c0 15.787 11.093 29.013 26.453 32 34.133 5.973 69.12 5.973 103.253 0 15.787-2.56 27.307-16.213 27.307-32v-45.653c27.307-9.813 52.48-24.32 74.667-43.093l39.68 23.040c13.653 8.107 31.147 4.693 41.387-7.253 23.893-26.453 43.093-56.747 57.173-89.6 5.547-14.933 0-31.573-13.653-39.68l-45.653-23.040c5.12-28.16 5.12-57.173-0.427-85.76v0zM442.453 377.173c80.213 104.96-39.253 224.427-143.787 143.787-80.64-104.533 38.827-224 143.787-143.787v0zM773.12 128.853l-11.093-19.627c-4.267-7.253-12.8-10.24-20.48-7.253-15.787 5.973-30.72 14.507-43.52 25.173-6.4 5.12-7.68 14.080-3.84 21.333l11.093 19.627c-9.387 11.093-16.64 23.467-21.76 37.12h-22.187c-8.107 0-15.36 5.973-16.64 14.080-2.987 16.64-2.987 33.707 0 50.347 1.28 8.107 8.533 14.080 16.64 14.080h22.613c4.693 13.653 12.373 26.453 21.76 37.12l-11.093 19.627c-4.267 7.253-2.56 16.213 3.84 21.333 13.227 10.667 27.733 19.2 43.52 25.173 7.68 2.987 16.213 0 20.48-7.253l11.093-19.627c14.080 2.56 29.013 2.56 43.093 0l11.093 19.627c4.267 7.253 12.8 10.24 20.48 7.253 15.787-5.973 30.72-14.507 43.52-25.173 6.4-5.12 7.68-14.080 3.84-21.333l-11.093-19.627c9.387-11.093 16.64-23.467 21.76-37.12h22.613c8.107 0 15.36-5.973 16.64-14.080 2.987-16.64 2.987-33.707 0-50.347-1.28-8.107-8.533-14.080-16.64-14.080h-22.613c-4.693-13.653-12.373-26.453-21.76-37.12l11.093-19.627c4.267-7.253 2.56-16.213-3.84-21.333-13.227-10.667-27.733-19.2-43.52-25.173-7.68-2.987-16.213 0-20.48 7.253l-11.093 19.627c-14.507-2.56-29.013-2.56-43.52 0v0zM759.040 209.067c20.48-19.2 52.48-17.92 71.68 2.56 18.347 19.627 18.347 49.92 0 69.12-20.48 19.2-52.48 17.92-71.68-2.56-18.347-19.2-18.347-49.493 0-69.12z" />
<glyph unicode="&#xe937;" glyph-name="cartao-socio" d="M516.591 593.545h298.667v-34.133h-298.667v34.133zM516.591 465.545h298.667v-34.133h-298.667v34.133zM345.566 654.507v0c-61.44 0-112.64-51.2-112.64-112.64s49.493-112.64 112.64-112.64c61.44 0 112.64 51.2 112.64 112.64s-51.2 112.64-112.64 112.64zM345.566 465.067c-42.667 0-78.507 34.133-78.507 78.507s34.133 78.507 78.507 78.507 78.507-34.133 78.507-78.507-35.84-78.507-78.507-78.507zM345.566 654.507v0c-61.44 0-112.64-51.2-112.64-112.64s49.493-112.64 112.64-112.64c61.44 0 112.64 51.2 112.64 112.64s-51.2 112.64-112.64 112.64zM345.566 465.067c-42.667 0-78.507 34.133-78.507 78.507s34.133 78.507 78.507 78.507 78.507-34.133 78.507-78.507-35.84-78.507-78.507-78.507zM867.806 797.867h-713.387c-49.493 0-88.747-39.253-88.747-88.747v-522.24c0-49.493 39.253-88.747 88.747-88.747h713.387c49.493 0 88.747 39.253 88.747 88.747v522.24c0 49.493-39.253 88.747-88.747 88.747zM922.419 186.88c0-30.72-23.893-54.613-54.613-54.613h-713.387c-30.72 0-54.613 23.893-54.613 54.613v522.24c0 30.72 23.893 54.613 54.613 54.613h713.387c30.72 0 54.613-23.893 54.613-54.613v-522.24zM345.566 654.507v0c-61.44 0-112.64-51.2-112.64-112.64s49.493-112.64 112.64-112.64c61.44 0 112.64 51.2 112.64 112.64s-51.2 112.64-112.64 112.64zM345.566 465.067c-42.667 0-78.507 34.133-78.507 78.507s34.133 78.507 78.507 78.507 78.507-34.133 78.507-78.507-35.84-78.507-78.507-78.507zM345.566 654.507v0c-61.44 0-112.64-51.2-112.64-112.64s49.493-112.64 112.64-112.64c61.44 0 112.64 51.2 112.64 112.64s-51.2 112.64-112.64 112.64zM345.566 465.067c-42.667 0-78.507 34.133-78.507 78.507s34.133 78.507 78.507 78.507 78.507-34.133 78.507-78.507-35.84-78.507-78.507-78.507zM345.566 654.507v0c-61.44 0-112.64-51.2-112.64-112.64s49.493-112.64 112.64-112.64c61.44 0 112.64 51.2 112.64 112.64s-51.2 112.64-112.64 112.64zM345.566 465.067c-42.667 0-78.507 34.133-78.507 78.507s34.133 78.507 78.507 78.507 78.507-34.133 78.507-78.507-35.84-78.507-78.507-78.507zM526.473 337.067c-11.947 46.080-58.027 80.213-114.347 80.213h-10.24l-3.413-1.707c-34.133-13.653-71.68-13.653-105.813 0l-3.413 1.707h-10.24c-64.853 0-116.053-46.080-116.053-102.4v-29.013c1.707-25.6 23.893-44.373 47.787-44.373 1.707 0 1.707 0 3.413 0h264.533c25.6-1.707 49.493 17.067 51.2 44.373v17.067h286.72v34.133h-290.133zM495.753 287.573c0-6.827-6.827-13.653-17.067-11.947h-267.947c-8.533 0-15.36 5.12-15.36 11.947v29.013c0 37.547 37.547 68.267 81.92 68.267h3.413c39.253-15.36 85.333-15.36 124.587 0h3.413c46.080 0 81.92-30.72 81.92-68.267v-29.013z" />
<glyph unicode="&#xe938;" glyph-name="shopping-bag" d="M850.708 660.677h-143.754v17.723c0 108.308-86.646 194.954-194.954 194.954s-194.954-86.646-194.954-194.954v-17.723h-143.754c-19.692 0-33.477-15.754-33.477-33.477 0 0 0 0 0 0v-569.108c0-19.692 15.754-33.477 33.477-33.477 0 0 0 0 0 0h679.385c19.692 0 33.477 15.754 33.477 33.477 0 0 0 0 0 0v569.108c0 17.723-15.754 33.477-35.446 33.477 0 0 0 0 0 0zM393.846 676.431c0 64.985 53.169 118.154 120.123 118.154 64.985 0 118.154-53.169 118.154-118.154v-17.723h-238.277v17.723zM809.354 99.446h-594.708v484.431h102.4v-92.554c0-3.938 3.938-7.877 7.877-7.877h59.077c3.938 0 7.877 3.938 7.877 7.877v92.554h238.277v-92.554c0-3.938 3.938-7.877 7.877-7.877h59.077c3.938 0 7.877 3.938 7.877 7.877v92.554h102.4l1.969-484.431zM305.231 233.354h413.538v-31.508h-413.538v31.508zM305.231 323.938h413.538v-31.508h-413.538v31.508zM305.231 414.523h232.369v-31.508h-232.369v31.508z" />
<glyph unicode="&#xe939;" glyph-name="pdf-file" d="M797.538 658.708c7.877-9.846 15.754-19.692 19.692-31.508 5.908-11.815 7.877-23.631 7.877-35.446v-470.646c0-21.662-17.723-39.385-39.385-39.385 0 0 0 0 0 0h-547.446c-21.662 0-39.385 17.723-39.385 39.385 0 0 0 0 0 0v653.785c0 21.662 17.723 39.385 39.385 39.385 0 0 0 0 0 0h366.277c11.815 0 23.631-3.938 35.446-7.877s21.662-11.815 31.508-19.692l126.031-128zM616.369 757.169v-151.631h153.6c-1.969 5.908-3.938 11.815-9.846 15.754l-128 128c-3.938 3.938-9.846 7.877-15.754 7.877zM773.908 134.892v417.477h-169.354c-21.662 0-39.385 17.723-39.385 39.385 0 0 0 0 0 0v169.354h-315.077v-626.215h523.815zM563.2 377.108c11.815-7.877 21.662-15.754 33.477-23.631 15.754 1.969 31.508 1.969 47.262 1.969 39.385 0 64.985-5.908 72.862-19.692 3.938-5.908 3.938-13.785 0-21.662 0 0 0 0 0 0v0 0c-1.969-9.846-11.815-15.754-29.538-15.754-15.754 0-31.508 3.938-47.262 7.877-17.723 5.908-35.446 11.815-53.169 21.662-55.138-5.908-108.308-15.754-159.508-33.477-41.354-70.892-74.831-106.338-98.462-106.338-3.938 0-7.877 0-11.815 1.969l-9.846 3.938c0 0-1.969 0-1.969 1.969-3.938 3.938-3.938 9.846-1.969 13.785 3.938 13.785 11.815 27.569 23.631 37.415 15.754 15.754 33.477 29.538 53.169 39.385 1.969 1.969 5.908 1.969 7.877 0 0 0 0-1.969 0-1.969s0-1.969 0-1.969c13.785 23.631 29.538 49.231 43.323 80.738 17.723 33.477 31.508 70.892 43.323 106.338-5.908 21.662-9.846 43.323-11.815 64.985-1.969 17.723-1.969 35.446 1.969 51.2 3.938 11.815 7.877 15.754 17.723 15.754h9.846c5.908 0 9.846-1.969 13.785-5.908 5.908-7.877 5.908-17.723 3.938-27.569 0-1.969 0-1.969-1.969-3.938 0-1.969 0-1.969 0-3.938v-11.815c0-25.6-1.969-53.169-5.908-78.769 11.815-33.477 33.477-66.954 61.046-92.554v0zM328.862 209.723c23.631 15.754 43.323 39.385 55.138 64.985-13.785-9.846-25.6-21.662-35.446-33.477-7.877-11.815-15.754-21.662-19.692-31.508zM490.338 583.877c-3.938-17.723-3.938-35.446 0-53.169 0 1.969 1.969 7.877 1.969 17.723 0 0 0 5.908 1.969 17.723 0 1.969 0 1.969 1.969 3.938 0 0 0 0 0 0s0 0 0 0 0 0 0 0c0 5.908-1.969 11.815-5.908 13.785 0 1.969 0 1.969 0 0v0 0zM441.108 314.092c37.415 15.754 76.8 25.6 116.185 33.477-3.938 1.969-3.938 1.969-5.908 3.938s-3.938 3.938-5.908 5.908c-21.662 19.692-39.385 45.292-51.2 70.892-9.846-27.569-19.692-55.138-33.477-80.738-9.846-13.785-15.754-25.6-19.692-33.477v0zM703.015 321.969c-5.908 5.908-25.6 9.846-57.108 9.846 15.754-5.908 33.477-9.846 51.2-11.815 1.969 0 5.908 0 5.908 1.969 1.969-1.969 1.969-1.969 0 0z" />
<glyph unicode="&#xe93a;" glyph-name="arrow-next" d="M512 874.667c-235.093 0-426.667-191.573-426.667-426.667s191.573-426.667 426.667-426.667c235.093 0 426.667 191.573 426.667 426.667s-191.573 426.667-426.667 426.667zM512 98.987c-192.427 0-349.013 156.587-349.013 349.013s156.587 349.013 349.013 349.013c192.427 0 349.013-156.587 349.013-349.013s-156.587-349.013-349.013-349.013zM705.707 448c0-1.28 0-2.56 0-3.84s-0.427-2.56-0.427-3.84c0-0.853-0.427-2.133-0.853-2.987 0-0.427-0.427-0.853-0.427-1.28 0 0 0-0.427 0-0.427-0.427-0.853-0.427-1.707-0.853-2.56s-0.427-1.28-0.853-2.133c-0.853-1.707-1.707-3.413-2.56-4.693-0.427-0.853-1.28-1.707-1.707-2.56-0.853-1.28-2.133-2.56-2.987-3.413l-155.307-155.307c-7.68-7.68-17.493-11.52-27.307-11.52s-20.053 3.84-27.307 11.52c-15.36 15.36-15.36 39.68 0 55.040l88.747 88.747h-217.173c-21.333 0-38.827 17.493-38.827 38.827s17.493 38.827 38.827 38.827h216.747l-88.747 88.747c-15.36 14.933-15.36 39.68 0 55.040 14.933 14.933 39.68 14.933 54.613 0l154.027-154.027c0.427 0 0.427-0.427 0.853-0.427l0.853-0.853c0.853-0.853 1.707-1.707 2.56-2.56 0 0 0 0 0.427-0.427 0.853-0.853 1.707-2.133 2.133-2.987 0.853-1.28 1.28-2.133 1.707-3.413 0 0 0 0 0-0.427 0.427-1.28 1.28-2.133 1.28-3.413 0.427-0.853 0.853-2.133 1.28-2.987 0 0 0 0 0 0 0-0.427 0.427-0.853 0.427-1.28 0.427-0.853 0.427-2.133 0.853-2.987 0.427-1.28 0.427-2.56 0.427-3.84-0.427 0-0.427-1.28-0.427-2.56z" />
<glyph unicode="&#xe93b;" glyph-name="cancel" d="M512 788.48c188.16 0 340.053-152.747 340.053-340.48 0-188.16-152.747-340.053-340.48-340.053-188.16 0-340.053 152.747-340.053 340.48 0 90.453 35.84 176.64 99.84 240.64 63.573 64 150.187 99.84 240.64 99.413zM512 874.667c-235.52 0-426.667-191.147-426.667-426.667s191.147-426.667 426.667-426.667 426.667 191.147 426.667 426.667-191.147 426.667-426.667 426.667zM720.213 298.24l-58.027-58.027-150.187 149.76-149.76-149.76-58.027 58.027 149.76 149.76-149.76 149.76 58.027 58.027 149.76-149.76 149.76 149.76 58.027-58.027-149.76-149.76 150.187-149.76z" />
<glyph unicode="&#xe93c;" glyph-name="arrow-prev" d="M512 21.333c235.093 0 426.667 191.573 426.667 426.667s-191.573 426.667-426.667 426.667-426.667-191.573-426.667-426.667 191.573-426.667 426.667-426.667zM512 797.013c192.427 0 349.013-156.587 349.013-349.013s-156.587-349.013-349.013-349.013-349.013 156.587-349.013 349.013 156.587 349.013 349.013 349.013zM318.293 448c0 1.28 0 2.56 0 3.84s0.427 2.56 0.427 3.84c0 0.853 0.427 2.133 0.853 2.987 0 0.427 0.427 0.853 0.427 1.28v0.427c0.427 0.853 0.427 1.707 0.853 2.56s0.427 1.28 0.853 2.133c0.853 1.707 1.707 3.413 2.56 4.693 0.427 0.853 1.28 1.707 1.707 2.56 0.853 1.28 2.133 2.56 2.987 3.413l155.307 155.307c7.68 7.68 17.493 11.52 27.307 11.52s20.053-3.84 27.307-11.52c15.36-15.36 15.36-39.68 0-55.040l-88.747-88.747h217.173c21.333 0 38.827-17.493 38.827-38.827s-17.493-38.827-38.827-38.827h-216.747l88.747-88.747c15.36-14.933 15.36-39.68 0-55.040-14.933-14.933-39.68-14.933-54.613 0l-154.027 154.027c-0.427 0-0.427 0.427-0.853 0.427l-0.853 0.853c-0.853 0.853-1.707 1.707-2.56 2.56 0 0 0 0-0.427 0.427-0.853 0.853-1.707 2.133-2.133 2.987-0.853 1.28-1.28 2.133-1.707 3.413 0 0 0 0 0 0.427-0.427 1.28-1.28 2.133-1.28 3.413-0.427 0.853-0.853 2.133-1.28 2.987v0c0 0.427-0.427 0.853-0.427 1.28-0.427 0.853-0.427 2.133-0.853 2.987-0.427 1.28-0.427 2.56-0.427 3.84 0.427 0 0.427 1.28 0.427 2.56z" />
<glyph unicode="&#xe93d;" glyph-name="dislike" d="M355.2 896h6.4c73.6-3.2 140.8-22.4 208-54.4 25.6-12.8 54.4-22.4 83.2-25.6 16 0 32-16 32-38.4v-361.6c0-9.6-3.2-16-6.4-19.2l-6.4-6.4c-35.2-35.2-60.8-70.4-83.2-102.4s-41.6-60.8-67.2-86.4c-19.2-25.6-32-57.6-38.4-89.6-3.2-32-19.2-112-67.2-112-51.2 0-134.4 19.2-134.4 153.6 0 48 19.2 83.2 35.2 115.2 6.4 9.6 9.6 22.4 16 32h-150.4c-64 0-115.2 48-118.4 112 0 32 12.8 64 32 86.4-16 44.8-9.6 92.8 16 131.2-9.6 44.8 0 92.8 28.8 128-6.4 25.6 0 51.2 12.8 76.8 38.4 60.8 128 60.8 201.6 60.8zM652.8 409.6c0 3.2 0 3.2 0 0 3.2 6.4 3.2 6.4 3.2 6.4v361.6c0 6.4-3.2 6.4-3.2 6.4-35.2 3.2-67.2 12.8-96 28.8-60.8 32-128 48-195.2 51.2h-6.4c-67.2 0-150.4 0-182.4-44.8-9.6-19.2-12.8-41.6-6.4-60.8l3.2-9.6-6.4-6.4c-25.6-28.8-35.2-73.6-25.6-112l3.2-6.4-3.2-6.4c-25.6-32-28.8-80-12.8-118.4l3.2-9.6-6.4-6.4c-19.2-19.2-28.8-44.8-28.8-73.6 3.2-48 38.4-83.2 86.4-83.2h192l-3.2-19.2c-6.4-19.2-16-38.4-25.6-57.6-16-28.8-32-57.6-32-99.2 0-83.2 35.2-124.8 105.6-124.8 3.2 0 25.6 3.2 41.6 83.2 6.4 38.4 22.4 73.6 44.8 105.6 25.6 25.6 44.8 54.4 64 83.2 25.6 41.6 48 76.8 86.4 112zM768 896h134.4c32 0 54.4-25.6 54.4-57.6v-406.4c0-28.8-25.6-54.4-54.4-54.4h-134.4c-32 0-54.4 25.6-54.4 57.6v403.2c-3.2 32 22.4 57.6 54.4 57.6zM902.4 406.4c12.8 0 25.6 12.8 25.6 25.6v403.2c0 16-9.6 28.8-25.6 28.8h-134.4c-12.8 0-25.6-12.8-25.6-25.6v-403.2c0-16 9.6-28.8 25.6-28.8 0 0 134.4 0 134.4 0zM835.2 828.8c28.8 0 54.4-25.6 54.4-54.4s-25.6-54.4-54.4-54.4c-28.8 0-54.4 25.6-54.4 54.4-3.2 28.8 22.4 54.4 54.4 54.4zM835.2 748.8c12.8 0 25.6 12.8 25.6 25.6s-12.8 25.6-25.6 25.6c-12.8 0-25.6-12.8-25.6-25.6 0-16 12.8-25.6 25.6-25.6z" />
<glyph unicode="&#xe93e;" glyph-name="dislike-fill" d="M784 384h144c22.4 0 41.6 19.2 41.6 41.6v0 432c0 22.4-19.2 41.6-41.6 41.6v0h-144c-22.4 0-41.6-19.2-41.6-41.6v0-428.8c0-25.6 19.2-44.8 41.6-44.8v0zM857.6 828.8c22.4 0 41.6-19.2 41.6-41.6s-19.2-41.6-41.6-41.6c-22.4 0-41.6 19.2-41.6 41.6-3.2 22.4 16 41.6 41.6 41.6v0zM281.6 128c0 76.8 48 118.4 60.8 169.6h-182.4c-57.6 0-105.6 44.8-105.6 105.6 0 32 12.8 64 35.2 89.6v0c-19.2 48-12.8 102.4 16 144-12.8 48-3.2 96 28.8 134.4-9.6 25.6-3.2 57.6 9.6 80 35.2 51.2 128 54.4 204.8 54.4h6.4c73.6-3.2 147.2-22.4 214.4-57.6 28.8-16 60.8-25.6 96-28.8 12.8 0 22.4-9.6 22.4-22.4v-387.2c0-6.4-3.2-12.8-6.4-16-70.4-70.4-102.4-144-160-201.6-25.6-32-41.6-67.2-44.8-105.6-6.4-32-25.6-102.4-60.8-102.4-48 0-134.4 12.8-134.4 144z" />
<glyph unicode="&#xe93f;" glyph-name="photo" d="M652.8 403.2c0-76.8-64-140.8-140.8-140.8s-140.8 64-140.8 140.8c0 76.8 64 140.8 140.8 140.8s140.8-60.8 140.8-140.8c0 0 0 0 0 0zM377.6 848l-80-89.6h-140.8c-48 0-89.6-38.4-89.6-89.6v-531.2c0-48 38.4-89.6 89.6-89.6h710.4c48 0 89.6 38.4 89.6 89.6v531.2c0 48-38.4 89.6-89.6 89.6h-140.8l-80 89.6h-268.8zM512 182.4c-121.6 0-220.8 99.2-220.8 220.8s99.2 220.8 220.8 220.8 220.8-99.2 220.8-220.8v0c0-121.6-99.2-220.8-220.8-220.8z" />
<glyph unicode="&#xe940;" glyph-name="user-fill" d="M512 448c134.4 0 243.2 108.8 243.2 243.2s-108.8 243.2-243.2 243.2c-134.4 0-243.2-108.8-243.2-243.2s108.8-243.2 243.2-243.2c0 0 0 0 0 0zM681.6 387.2h-32c-86.4-41.6-188.8-41.6-275.2 0h-32c-140.8 0-256-115.2-256-256v-80c0-51.2 41.6-89.6 89.6-89.6h665.6c51.2 0 89.6 41.6 89.6 89.6v80c6.4 140.8-108.8 256-249.6 256z" />
<glyph unicode="&#xe941;" glyph-name="euro" d="M816 131.2c-3.2 12.8-16 22.4-28.8 19.2 0 0 0 0 0 0-28.8-6.4-60.8-9.6-92.8-9.6-108.8 0-208 67.2-243.2 172.8h227.2c12.8 0 22.4 6.4 22.4 19.2l12.8 57.6c3.2 12.8-6.4 25.6-19.2 28.8-3.2 0-3.2 0-6.4 0h-268.8c-3.2 28.8-3.2 57.6 0 86.4h294.4c12.8 0 22.4 6.4 22.4 19.2l12.8 60.8c3.2 12.8-6.4 25.6-19.2 28.8-3.2 0-3.2 0-6.4 0h-278.4c41.6 92.8 134.4 153.6 236.8 150.4 25.6 0 51.2-3.2 76.8-9.6 12.8-3.2 25.6 6.4 28.8 16l25.6 89.6c3.2 12.8-3.2 25.6-16 28.8 0 0 0 0-3.2 0-35.2 6.4-70.4 9.6-105.6 9.6-185.6 3.2-352-115.2-409.6-288h-64c-12.8-3.2-22.4-12.8-22.4-25.6 0 0 0 0 0 0v-60.8c0-12.8 9.6-25.6 25.6-25.6 0 0 0 0 0 0h44.8c-6.4-25.6-6.4-54.4-3.2-83.2h-44.8c-12.8 0-22.4-9.6-22.4-25.6 0 0 0 0 0 0v-57.6c0-12.8 9.6-25.6 25.6-25.6 0 0 0 0 0 0h60.8c51.2-188.8 220.8-316.8 416-313.6 41.6 0 83.2 6.4 121.6 16 12.8 3.2 19.2 16 19.2 28.8l-19.2 92.8z" />
<glyph unicode="&#xe942;" glyph-name="loading" d="M0 443.733c4.267 264.533 217.6 477.867 473.6 473.6 251.733-4.267 439.467-187.733 439.467-452.267h98.133c8.533-8.533 8.533-17.067 8.533-25.6s-4.267-17.067-8.533-25.6l-115.2-132.267c-4.267-4.267-8.533-4.267-12.8-8.533-4.267 0-8.533-4.267-12.8-4.267s-8.533 0-12.8 4.267c-4.267 0-8.533 4.267-12.8 8.533l-110.933 132.267c-8.533 8.533-8.533 17.067-8.533 25.6s4.267 17.067 8.533 25.6h93.867c0 217.6-145.067 362.667-354.133 362.667-213.333 4.267-384-166.4-388.267-388.267-4.267-213.333 157.867-392.533 362.667-401.067v-89.6c-251.733 12.8-452.267 230.4-448 494.933z" />
<glyph unicode="&#xe943;" glyph-name="view" d="M512 742.4c-200.107-0.853-382.293-114.773-471.040-294.4 126.72-260.267 440.32-368.213 700.587-241.493 104.96 51.2 190.293 136.107 241.493 241.493-88.747 179.627-270.933 293.547-471.040 294.4zM744.107 586.24c55.467-35.413 102.4-82.773 137.387-138.24-34.987-55.467-81.92-102.827-137.387-138.24-141.653-90.453-322.987-90.453-464.64 0-55.467 35.413-102.4 82.773-137.387 138.24 34.987 55.467 81.92 102.827 137.387 138.24 3.413 2.133 7.253 4.693 11.093 6.827-44.373-122.027 18.773-257.28 140.8-301.653s257.28 18.773 301.653 140.8c18.773 52.053 18.773 108.8 0 160.853 3.84-2.133 7.68-4.267 11.093-6.827v0zM512 536.32c0-48.64-39.68-88.32-88.32-88.32s-88.32 39.68-88.32 88.32c0 48.64 39.68 88.32 88.32 88.32v0c48.64 0 88.32-39.68 88.32-88.32z" />
<glyph unicode="&#xe944;" glyph-name="shopping-cart" d="M399.36 17.067c-40.96 0-74.24 33.28-74.24 74.24s33.28 74.24 74.24 74.24c40.96 0 74.24-33.28 74.24-74.24s-33.28-74.24-74.24-74.24zM399.36 92.16l0.853-0.853c0 0.427-0.427 0.853-0.853 0.853zM812.373 17.067c-40.96 0-74.24 33.28-74.24 74.24s33.28 74.24 74.24 74.24c40.96 0 74.24-33.28 74.24-74.24s-33.28-74.24-74.24-74.24zM812.373 92.16l0.853-0.853c0 0.427-0.427 0.853-0.853 0.853zM422.827 242.347c-52.48 0-98.56 37.547-108.8 90.027l-62.72 312.747c-0.427 1.28-0.427 2.56-0.853 3.84l-31.147 156.587h-120.32c-20.053 0-36.693 16.213-36.693 36.693s16.213 36.693 36.693 36.693h150.187c17.493 0 32.427-12.373 35.84-29.44l31.573-158.293h608.427c11.093 0 21.333-4.693 28.16-13.227s9.813-19.627 7.68-30.293l-59.733-314.88c-10.667-52.907-56.32-90.027-109.653-90.027-0.853 0-1.28 0-2.133 0h-364.373c-0.853-0.427-1.707-0.427-2.133-0.427zM331.52 617.813l54.187-271.36c3.84-18.347 19.2-30.72 38.4-31.147h365.653c18.347 0 35.413 12.8 39.253 31.147l51.627 271.36h-549.12z" />
<glyph unicode="&#xe945;" glyph-name="check-icon" d="M948.053 736c-26.88 28.587-71.68 29.867-100.267 2.56l-453.12-429.653-216.32 221.867c-27.307 28.16-72.107 28.587-100.693 1.28-28.16-27.307-28.587-72.107-1.28-100.693l264.96-272.213c14.080-14.507 32.427-21.76 50.773-21.76 17.493 0 35.413 6.4 49.067 19.627l504.32 478.293c28.587 27.307 29.44 72.107 2.56 100.693z" />
<glyph unicode="&#xe946;" glyph-name="aviso-notificacao" d="M733.013 273.412l-5.547 5.973c-12.8 13.653-28.587 30.293-42.24 56.747-2.133 4.267-4.267 8.533-6.4 13.227-1.707 4.267-3.413 8.533-5.12 13.227-9.813 0.853-19.2 2.133-28.587 4.267 1.707-4.693 2.987-9.387 4.693-14.080s3.84-9.387 5.547-14.080c16.64-38.4 37.547-60.587 53.333-77.227l5.547-5.973c5.973-6.4 8.96-14.507 8.96-23.040 0-18.773-15.36-34.133-34.133-34.133 0 0 0 0 0 0h-564.053c-8.96 0-17.493 3.413-23.893 9.813s-10.24 14.933-10.24 24.32c0 8.533 2.987 16.64 9.387 23.040l5.547 5.973c29.867 31.147 79.36 83.627 79.36 229.973 0 104.96 74.667 195.413 177.493 215.467l10.667 2.133v41.387c0 18.773 15.36 34.133 34.133 34.133s34.133-15.36 34.133-34.133v-41.387l10.667-2.133c0 0 0.427 0 0.427 0 4.267-0.853 8.533-1.707 12.8-2.987s8.533-2.133 12.8-3.84c3.84 8.107 7.68 15.787 12.373 23.040-4.267 1.28-8.533 2.987-12.8 3.84-3.413 0.853-6.827 1.707-10.24 2.56v20.053c0 32.853-26.88 59.733-59.733 59.733-33.28 0-59.733-26.88-59.733-59.733v-20.053c-109.653-26.027-188.16-125.013-188.16-238.507 0-135.68-43.52-181.76-72.107-212.053l-5.547-5.973c-10.667-11.093-16.213-25.6-16.213-40.96 0-16.213 6.4-31.147 17.493-42.667 11.52-11.52 26.453-17.493 42.24-17.493 0 0 0 0 0 0h564.48c16.213 0 31.147 6.4 42.24 17.493 11.52 11.52 17.493 26.453 17.493 42.24-0.853 16.213-6.4 30.72-17.067 41.813zM300.373 151.386v-12.8c0-58.88 48.213-107.093 107.093-107.093s107.093 48.213 107.093 107.093v12.8h-214.187zM407.040 57.092c-40.533 0-73.813 29.44-80.213 68.267h160c-5.973-38.4-39.253-68.267-79.787-68.267zM713.485 503.040c-0.427 1.28-0.427 2.56-0.853 3.84s-1.28 2.133-1.707 3.413c-0.427 0.853-1.707 2.133-2.56 2.987s-1.707 1.707-2.987 2.133c-1.28 0.853-2.133 1.28-3.413 1.707s-2.56 0.853-3.84 1.28c-2.56 0.427-5.12 0.427-7.68 0-1.28-0.427-2.56-0.853-3.84-1.28s-2.133-0.853-3.413-1.707c-0.853-0.853-2.133-1.28-2.987-2.133s-1.707-1.707-2.56-2.987c-0.853-0.853-1.28-2.133-1.707-3.413s-0.853-2.56-1.28-3.84c-0.427-1.28-0.427-2.56-0.427-3.84s0-2.56 0.427-3.84c0.427-1.28 0.427-2.56 1.28-3.84 0.427-1.28 0.853-2.133 1.707-3.413 0.853-0.853 1.28-1.707 2.56-2.987 3.413-3.84 8.533-5.547 13.653-5.547 1.28 0 2.56 0 3.84 0.427s2.56 0.853 3.84 1.28c1.28 0.427 2.133 1.28 3.413 1.707 0.853 0.853 2.133 1.707 2.987 2.56s1.707 1.707 2.56 2.987c0.853 1.28 1.28 2.133 1.707 3.413s0.853 2.56 0.853 3.84c0.427 1.28 0.427 2.56 0.427 3.84 0.427 0.853 0.427 2.133 0 3.413zM713.485 503.040c-0.427 1.28-0.427 2.56-0.853 3.84s-1.28 2.133-1.707 3.413c-0.427 0.853-1.707 2.133-2.56 2.987s-1.707 1.707-2.987 2.133c-1.28 0.853-2.133 1.28-3.413 1.707s-2.56 0.853-3.84 1.28c-2.56 0.427-5.12 0.427-7.68 0-1.28-0.427-2.56-0.853-3.84-1.28s-2.133-0.853-3.413-1.707c-0.853-0.853-2.133-1.28-2.987-2.133s-1.707-1.707-2.56-2.987c-0.853-0.853-1.28-2.133-1.707-3.413s-0.853-2.56-1.28-3.84c-0.427-1.28-0.427-2.56-0.427-3.84s0-2.56 0.427-3.84c0.427-1.28 0.427-2.56 1.28-3.84 0.427-1.28 0.853-2.133 1.707-3.413 0.853-0.853 1.28-1.707 2.56-2.987 3.413-3.84 8.533-5.547 13.653-5.547 1.28 0 2.56 0 3.84 0.427s2.56 0.853 3.84 1.28c1.28 0.427 2.133 1.28 3.413 1.707 0.853 0.853 2.133 1.707 2.987 2.56s1.707 1.707 2.56 2.987c0.853 1.28 1.28 2.133 1.707 3.413s0.853 2.56 0.853 3.84c0.427 1.28 0.427 2.56 0.427 3.84 0.427 0.853 0.427 2.133 0 3.413zM713.485 503.040c-0.427 1.28-0.427 2.56-0.853 3.84s-1.28 2.133-1.707 3.413c-0.427 0.853-1.707 2.133-2.56 2.987s-1.707 1.707-2.987 2.133c-1.28 0.853-2.133 1.28-3.413 1.707s-2.56 0.853-3.84 1.28c-2.56 0.427-5.12 0.427-7.68 0-1.28-0.427-2.56-0.853-3.84-1.28s-2.133-0.853-3.413-1.707c-0.853-0.853-2.133-1.28-2.987-2.133s-1.707-1.707-2.56-2.987c-0.853-0.853-1.28-2.133-1.707-3.413s-0.853-2.56-1.28-3.84c-0.427-1.28-0.427-2.56-0.427-3.84s0-2.56 0.427-3.84c0.427-1.28 0.427-2.56 1.28-3.84 0.427-1.28 0.853-2.133 1.707-3.413 0.853-0.853 1.28-1.707 2.56-2.987 3.413-3.84 8.533-5.547 13.653-5.547 1.28 0 2.56 0 3.84 0.427s2.56 0.853 3.84 1.28c1.28 0.427 2.133 1.28 3.413 1.707 0.853 0.853 2.133 1.707 2.987 2.56s1.707 1.707 2.56 2.987c0.853 1.28 1.28 2.133 1.707 3.413s0.853 2.56 0.853 3.84c0.427 1.28 0.427 2.56 0.427 3.84 0.427 0.853 0.427 2.133 0 3.413zM694.285 864.427c-96.427 0-181.333-52.053-227.413-129.28-5.547-9.387-10.24-18.773-14.933-28.587-14.507-32.427-22.187-68.693-22.187-106.24 0-132.693 98.133-242.773 225.707-261.547 9.813-1.28 19.627-2.133 29.867-2.56 2.987 0 5.973 0 8.96 0 145.92 0 264.533 118.613 264.533 264.533 0.427 145.067-118.613 263.68-264.533 263.68zM694.285 361.387c-6.827 0-13.653 0.427-20.48 0.853-9.813 0.853-19.2 2.133-28.587 4.267v0c-107.947 22.613-189.44 118.613-189.44 233.387 0 35.413 7.68 69.547 21.76 99.84 3.84 8.107 7.68 15.787 12.373 23.040 41.813 69.12 117.76 115.627 204.373 115.627 131.413 0 238.507-107.093 238.507-238.507 0.427-131.413-106.667-238.507-238.507-238.507zM713.911 700.587v-100.693c0-10.667-8.533-19.627-19.2-19.627s-19.2 8.533-19.2 19.627v100.693c0 10.667 8.533 19.2 19.2 19.2 10.667 0.427 19.2-8.533 19.2-19.2zM713.911 499.627c0-1.28 0-2.56-0.427-3.84s-0.427-2.56-0.853-3.84c-0.427-1.28-1.28-2.133-1.707-3.413-0.427-0.853-1.707-1.707-2.56-2.987-0.853-0.853-1.707-1.707-2.987-2.56-1.28-0.427-2.133-1.28-3.413-1.707s-2.56-0.853-3.84-1.28c-1.28-0.427-2.56-0.427-3.84-0.427-5.12 0-10.24 2.133-13.653 5.547-0.853 0.853-1.707 1.707-2.56 2.987s-1.28 2.133-1.707 3.413c-0.427 1.28-0.853 2.56-1.28 3.84s-0.427 2.56-0.427 3.84c0 1.28 0 2.56 0.427 3.84s0.427 2.56 1.28 3.84c0.427 1.28 0.853 2.133 1.707 3.413 0.853 0.853 1.28 2.133 2.56 2.987 0.853 0.853 1.707 1.707 2.987 2.133 0.853 0.853 2.133 1.28 3.413 1.707s2.133 0.853 3.84 1.28c2.56 0.427 5.12 0.427 7.68 0 1.28-0.427 2.56-0.853 3.84-1.28s2.133-0.853 3.413-1.707c0.853-0.853 2.133-1.28 2.987-2.133s1.707-1.707 2.56-2.987c0.853-0.853 1.28-2.133 1.707-3.413s0.853-2.56 0.853-3.84c0-1.28 0-2.56 0-3.413z" />
<glyph unicode="&#xe947;" glyph-name="ticketing-adepto" horiz-adv-x="2619" d="M1523.074 812.751c-2.248-52.83-20.233-67.442-71.939-57.326-19.109 3.372-38.217 7.868-57.326 10.116-7.868 1.124-15.737 0-23.605-2.248-10.116-3.372-19.109-19.109-28.101-7.868-10.116 11.24-1.124 26.977 5.62 39.341 4.496 6.744 10.116 12.364 15.737 16.861h55.078c26.977-2.248 52.83-13.488 79.807 0 7.868 1.124 16.861 1.124 24.729 1.124zM2012.031 275.46c0 52.83-1.124 105.66 0 159.614 3.372 15.737-6.744 31.473-23.605 34.845 0 0-1.124 0-1.124 0-82.055 24.729-82.055 25.853-55.078 104.536 13.488 38.217 13.488 39.341 49.458 24.729 83.179-34.845 177.598-33.721 259.653 4.496 22.481 10.116 31.473 4.496 35.969-16.861 3.372-13.488 8.992-26.977 14.613-40.465 16.861-49.458 16.861-49.458-32.597-68.566-55.078-20.233-55.078-20.233-55.078-78.683 0-95.543-1.124-192.211 0-287.754 0-21.357-5.62-28.101-26.977-28.101-48.334 1.124-96.667 1.124-145.001 0-17.985 0-22.481 5.62-22.481 22.481 2.248 57.326 2.248 113.528 2.248 169.73zM991.403 518.252c-1.124 24.729-5.62 47.21-37.093 55.078 32.597 22.481 47.21 62.946 34.845 101.164-8.992 32.597-39.341 55.078-73.063 53.954-56.202 2.248-112.404 2.248-168.606 2.248-10.116 0-26.977 6.744-29.225-7.868-2.248-17.985-11.24-40.465 6.744-53.954 7.868-4.496 11.24-12.364 11.24-21.357 0-42.714 0-85.427 0-128.141 0-7.868 1.124-14.613-10.116-22.481-19.109-12.364-8.992-34.845-7.868-52.83 1.124-15.737 17.985-8.992 28.101-8.992 32.597-1.124 65.194-1.124 98.915 0 8.992 0 23.605-5.62 23.605 10.116 1.124 16.861 7.868 44.962-4.496 48.334-28.101 7.868-19.109 25.853-20.233 41.589 0 7.868-5.62 21.357 7.868 22.481 12.364 3.372 25.853-2.248 31.473-13.488 2.248-7.868 4.496-15.737 4.496-23.605 3.372-28.101-14.613-67.442 8.992-82.055 21.357-13.488 57.326-2.248 87.675-3.372 19.109-1.124 22.481 5.62 24.729 23.605 4.496 25.853-17.985 39.341-17.985 59.574zM858.766 605.928c-26.977 0-7.868 22.481-16.861 29.225 4.496 13.488-8.992 32.597 17.985 32.597 21.357 0 24.729-13.488 24.729-30.349 1.124-17.985-3.372-31.473-25.853-31.473zM374.305 288.948c-8.992 41.589-42.714 74.187-84.303 84.303-32.597 5.62-65.194 7.868-98.915 5.62-29.225 0-52.83 1.124-75.311 0-8.992 0-24.729 6.744-25.853-5.62-2.248-17.985-11.24-41.589 5.62-53.954 7.868-4.496 13.488-13.488 12.364-23.605 0-42.714 0-85.427 0-128.141 1.124-8.992-3.372-19.109-12.364-22.481-15.737-10.116-6.744-33.721-5.62-50.582s17.985-8.992 26.977-8.992c46.086-1.124 92.171-1.124 138.257 0 56.202-2.248 106.784 34.845 120.272 89.923 7.868 37.093 7.868 76.435-1.124 113.528zM259.653 230.498c0-17.985 0-37.093 0-55.078 0-21.357-11.24-28.101-31.473-28.101-23.605 0-15.737 16.861-15.737 28.101-1.124 39.341 0 79.807 0 119.148 0 10.116-5.62 23.605 13.488 23.605 16.861 0 31.473-3.372 32.597-23.605 2.248-21.357 1.124-43.838 1.124-64.070v0zM1393.809 260.847c0 2.248 0 4.496 0 6.744-4.496 66.318-60.698 115.776-127.016 111.28-44.962 1.124-89.923 1.124-136.009 0-8.992 0-24.729 6.744-26.977-4.496-3.372-17.985-8.992-46.086 2.248-51.706 23.605-11.24 14.613-28.101 14.613-42.714 1.124-37.093 1.124-73.063 0-110.156 0-6.744 3.372-16.861-4.496-20.233-31.473-13.488-13.488-39.341-12.364-57.326 1.124-14.613 24.729-4.496 38.217-5.62 17.985-1.124 37.093 0 55.078 0h49.458c102.288 0 150.621 49.458 148.373 151.745 1.124 5.62 0 13.488-1.124 22.481zM1274.661 164.18c-1.124-16.861-19.109-17.985-34.845-16.861-16.861 1.124-11.24 14.613-11.24 23.605 0 21.357 0 42.714 0 64.070 0 19.109-1.124 39.341 0 58.45 0 10.116-6.744 24.729 12.364 24.729 15.737 0 32.597-1.124 33.721-19.109 2.248-44.962 2.248-89.923 0-134.885zM681.168 300.189c-11.24 43.838-47.21 77.559-92.171 84.303-29.225 6.744-59.574 6.744-88.799 0-51.706-7.868-92.171-48.334-98.915-100.040-4.496-22.481-5.62-46.086-3.372-69.69 8.992-89.923 53.954-131.513 145.001-131.513 74.187 0 120.272 29.225 137.133 88.799 13.488 43.838 13.488 86.551 1.124 128.141zM568.764 236.119v0-57.326c1.124-12.364-6.744-23.605-19.109-25.853-1.124 0-3.372 0-4.496 0-12.364-2.248-24.729 6.744-25.853 19.109 0 2.248 0 4.496 0 6.744v115.776c-2.248 13.488 6.744 24.729 20.233 26.977 2.248 0 4.496 0 5.62 0 17.985 0 24.729-11.24 24.729-28.101-1.124-19.109-1.124-38.217-1.124-57.326zM1738.889 736.316c-97.791 0-146.125-50.582-146.125-151.745s48.334-151.745 146.125-151.745c97.791 0 146.125 50.582 146.125 151.745s-48.334 151.745-146.125 151.745zM1745.633 500.268c-2.248 0-3.372 0-5.62 0-17.985 0-25.853 8.992-25.853 25.853 0 19.109 0 38.217 0 57.326v57.326c-2.248 12.364 6.744 24.729 19.109 25.853 2.248 0 4.496 0 6.744 0 12.364 1.124 22.481-6.744 23.605-19.109 0-2.248 0-3.372 0-5.62v-118.024c2.248-11.24-5.62-22.481-17.985-23.605zM2525.717 301.313c-7.868 32.597-30.349 58.45-60.698 73.063-114.652 55.078-221.436-10.116-221.436-134.885 0-7.868 0-16.861 0-24.729 3.372-78.683 49.458-124.768 127.016-129.265 94.419-5.62 147.249 31.473 160.738 113.528 5.62 33.721 4.496 68.566-5.62 102.288zM2414.437 179.917c0-15.737-7.868-28.101-25.853-26.977-17.985 0-24.729 12.364-25.853 28.101 0 19.109 0 39.341 0 58.45 0 17.985 0 37.093 0 55.078 0 16.861 6.744 28.101 24.729 28.101 13.488 1.124 24.729-7.868 26.977-20.233 0-2.248 0-3.372 0-5.62 0-40.465 0-78.683 0-116.9zM660.935 519.377c-8.992 35.969-19.109 70.814-29.225 105.66-10.116 33.721-10.116 79.807-32.597 98.915-24.729 20.233-70.814 3.372-106.784 6.744-23.605 2.248-31.473-7.868-35.969-29.225-14.613-59.574-31.473-118.024-48.334-176.474-2.248-11.24-7.868-22.481-16.861-29.225-14.613-11.24-6.744-34.845-4.496-51.706 2.248-15.737 17.985-7.868 28.101-8.992 24.729-1.124 49.458-1.124 74.187 0 10.116 0 26.977-6.744 25.853 11.24-1.124 16.861 13.488 40.465-10.116 50.582-14.613 6.744-10.116 15.737-6.744 21.357 12.364 17.985 31.473 8.992 48.334 6.744 7.868-1.124 10.116-13.488 7.868-23.605 0-1.124-2.248-2.248-4.496-3.372-33.721-8.992-14.613-35.969-14.613-53.954 0-19.109 21.357-8.992 32.597-10.116 13.488-1.124 26.977-1.124 40.465 0 16.861 0 34.845 1.124 51.706 0 17.985-1.124 21.357 5.62 25.853 23.605 4.496 29.225-19.109 41.589-24.729 61.822zM519.306 568.834c-7.868-1.124-13.488 1.124-11.24 12.364 4.496 19.109 7.868 37.093 12.364 56.202 2.248 0 4.496 1.124 6.744 2.248 5.62-21.357 8.992-42.714 11.24-64.070 1.124-11.24-12.364-5.62-19.109-6.744zM1559.043 520.501c-12.364 42.714-24.729 86.551-35.969 129.265-22.481 82.055-22.481 82.055-106.784 82.055-10.116 0-20.233 0-30.349 0-17.985 2.248-26.977-4.496-31.473-23.605-15.737-61.822-33.721-123.644-51.706-185.467-2.248-10.116-6.744-17.985-13.488-24.729-15.737-13.488-8.992-35.969-5.62-53.954 2.248-14.613 19.109-6.744 29.225-7.868 24.729-1.124 49.458-1.124 74.187 0 8.992 0 24.729-6.744 24.729 8.992 0 17.985 11.24 42.714-7.868 52.83-13.488 7.868-13.488 15.737-8.992 22.481 11.24 16.861 29.225 6.744 44.962 6.744 11.24 0 8.992-11.24 10.116-19.109 0-2.248-1.124-6.744-3.372-7.868-33.721-11.24-15.737-39.341-14.613-56.202 2.248-17.985 25.853-5.62 39.341-8.992 10.116-1.124 20.233-1.124 30.349 0 17.985 0 34.845 1.124 51.706 0 17.985-1.124 22.481 4.496 25.853 22.481 6.744 28.101-14.613 41.589-20.233 62.946zM1433.15 571.082c-7.868-2.248-15.737-2.248-23.605 0s-3.372 10.116-2.248 15.737c3.372 17.985 7.868 34.845 12.364 52.83 1.124 0 3.372 0 4.496 1.124 4.496-17.985 8.992-34.845 12.364-52.83 0-6.744 4.496-14.613-3.372-16.861zM1054.349 172.048c-15.737 60.698-33.721 121.396-49.458 182.094-4.496 19.109-12.364 25.853-33.721 24.729-30.349-2.248-61.822-2.248-92.171 0-1.124 0-2.248 0-2.248 0-12.364 1.124-23.605-8.992-24.729-21.357-15.737-60.698-33.721-121.396-49.458-182.094-2.248-7.868-2.248-20.233-7.868-22.481-23.605-12.364-14.613-33.721-16.861-51.706-1.124-13.488 4.496-17.985 16.861-16.861 29.225 1.124 59.574 0 89.923 1.124 7.868 0 23.605-7.868 23.605 10.116s11.24 38.217-6.744 50.582c-8.992 5.62-13.488 7.868-11.24 19.109 3.372 16.861 15.737 13.488 26.977 12.364 10.116-1.124 25.853 8.992 30.349-10.116 1.124-7.868 8.992-19.109-7.868-19.109-10.116 0-10.116-6.744-11.24-13.488-5.62-46.086-3.372-48.334 41.589-48.334h30.349c16.861 0 34.845 1.124 52.83 0 19.109-2.248 23.605 5.62 26.977 24.729 4.496 26.977-20.233 39.341-25.853 60.698zM927.333 218.134c-6.744-2.248-14.613-2.248-21.357 0-7.868 2.248-4.496 10.116-2.248 15.737 3.372 17.985 6.744 35.969 11.24 52.83 2.248 0 3.372 0 5.62 0 3.372-17.985 7.868-34.845 11.24-52.83 1.124-5.62 4.496-13.488-4.496-15.737zM1551.175 378.872c37.093 0 74.187 0 111.28 0 14.613 0 20.233-3.372 19.109-19.109-1.124-25.853-1.124-50.582 0-76.435 0-13.488-3.372-21.357-19.109-20.233-10.116 1.124-20.233 1.124-30.349 0-25.853-3.372-41.589 3.372-35.969 33.721 3.372 20.233-10.116 20.233-24.729 20.233-13.488 0-24.729 0-22.481-19.109 2.248-17.985-11.24-44.962 26.977-42.714 13.488 1.124 5.62-16.861 6.744-25.853 2.248-11.24-3.372-16.861-15.737-16.861-6.744 0-17.985 4.496-19.109-8.992 0-17.985-5.62-38.217 3.372-53.954 5.62-10.116 23.605-4.496 34.845-2.248 14.613 3.372 8.992 16.861 7.868 25.853-2.248 24.729 2.248 35.969 32.597 34.845 53.954-3.372 53.954-1.124 53.954-55.078 0-67.442 0-67.442-68.566-67.442-52.83 0-106.784 0-159.614 0-8.992 0-26.977-7.868-26.977 7.868-1.124 17.985-11.24 40.465 7.868 51.706 11.24 6.744 10.116 13.488 10.116 22.481 0 42.714 0 85.427 0 128.141 1.124 8.992-4.496 19.109-12.364 22.481-15.737 11.24-6.744 33.721-5.62 50.582s17.985 7.868 28.101 7.868c31.473 3.372 65.194 2.248 97.791 2.248zM206.823 582.323c0-17.985 0-37.093 0-55.078 0-15.737 6.744-28.101 24.729-28.101s28.101 11.24 25.853 26.977c-5.62 35.969 16.861 30.349 38.217 30.349 53.954 0 53.954 0 53.954-53.954 0-50.582 0-50.582-48.334-62.946-33.721-8.992-69.69-10.116-103.412-4.496-53.954 4.496-97.791 46.086-105.66 98.915-5.62 25.853-6.744 52.83-3.372 78.683 7.868 76.435 51.706 116.9 128.141 122.52 17.985 1.124 37.093 1.124 55.078-1.124 71.939-6.744 95.543-39.341 78.683-107.908-1.124-4.496-2.248-11.24-7.868-11.24-25.853-1.124-51.706-2.248-76.435 0-11.24 1.124-6.744 13.488-6.744 20.233 0 17.985-3.372 33.721-25.853 33.721-23.605 0-25.853-15.737-25.853-33.721s-1.124-34.845-1.124-52.83c0 0 0 0 0 0zM1890.634 378.872c-26.977 1.124-52.83 0-79.807 0 0 0 0 0 0 0-22.481 0-44.962 1.124-67.442 0-11.24 0-29.225 6.744-33.721-5.62-4.496-15.737-7.868-44.962 0-49.458 30.349-17.985 13.488-42.714 15.737-64.070 2.248-29.225 2.248-58.45 0-88.799 0-10.116 2.248-17.985-11.24-26.977-16.861-10.116-7.868-35.969-5.62-52.83 1.124-12.364 16.861-5.62 25.853-5.62 34.845-1.124 69.69-1.124 104.536 0 10.116 0 32.597-10.116 28.101 13.488-3.372 16.861 22.481 49.458-22.481 48.334-11.24 0-12.364 5.62-13.488 15.737-4.496 37.093-2.248 39.341 35.969 39.341 7.868 0 16.861 0 24.729 0 56.202 4.496 83.179 34.845 82.055 89.923 1.124 53.954-26.977 83.179-83.179 86.551zM1868.154 286.7c0-17.985-3.372-32.597-22.481-30.349-25.853 2.248-10.116 23.605-12.364 35.969-2.248 8.992-7.868 24.729 11.24 24.729 21.357 0 24.729-15.737 23.605-30.349zM1148.768 730.696c40.465 0 79.807-1.124 120.272 0 15.737 0 22.481-4.496 20.233-20.233-1.124-8.992-1.124-17.985 0-26.977 0-46.086 0-46.086-46.086-43.838-12.364 0-22.481 1.124-21.357 17.985 1.124 7.868-3.372 11.24-11.24 11.24-8.992 0-13.488-3.372-13.488-12.364 0-48.334 0-95.543 0-143.877 0-5.62 1.124-11.24 6.744-12.364 41.589-5.62 14.613-35.969 20.233-55.078 2.248-10.116-11.24-8.992-19.109-8.992-40.465 0-79.807 0-120.272 0-10.116 0-23.605-1.124-20.233 14.613s-12.364 39.341 11.24 47.21c13.488 4.496 14.613 8.992 14.613 20.233 0 43.838 0 87.675 0 131.513 0 6.744 4.496 16.861-8.992 17.985s-12.364-6.744-15.737-16.861c-8.992-26.977-32.597-7.868-49.458-11.24-14.613-3.372-15.737 6.744-15.737 19.109-4.496 73.063-4.496 73.063 67.442 73.063 26.977-1.124 53.954-1.124 80.931-1.124zM2109.822 603.679c-35.969-1.124-67.442 26.977-68.566 64.070-1.124 35.969 26.977 67.442 64.070 68.566 1.124 0 2.248 0 3.372 0 37.093 0 66.318-29.225 67.442-65.194 0-37.093-29.225-67.442-66.318-67.442v0z" />
</font>
</defs>
</svg>
