<svg xmlns="http://www.w3.org/2000/svg" width="262.083" height="220.347" viewBox="0 0 262.083 220.347">
  <g id="Grupo_611" data-name="Grupo 611" transform="translate(-1034.293 -522.861)">
    <g id="estadio" transform="translate(1034.543 523.111)">
      <rect id="Retângulo_73" data-name="Retângulo 73" width="143.302" height="94.565" transform="translate(58.101 43.94)" fill="#66b460"/>
      <g id="Grupo_17" data-name="Grupo 17" transform="translate(46.696 141.49)">
        <path id="Caminho_15" data-name="Caminho 15" d="M179.344,312.5h0a229.06,229.06,0,0,1-63.855-9.5,182,182,0,0,1-25.713-9.5.113.113,0,0,1-.057-.1V254.067a.1.1,0,0,1,.09-.112H258.05a.1.1,0,0,1,.09.112v40.987a.114.114,0,0,1-.058.1C234.035,306.666,207.541,312.5,179.344,312.5ZM89.9,293.326a184.023,184.023,0,0,0,25.636,9.463,228.974,228.974,0,0,0,63.81,9.49c28.154,0,54.6-5.822,78.618-17.3v-40.8H89.9v39.149Z" transform="translate(-89.718 -253.955)" fill="none" stroke="#ccc" stroke-miterlimit="10" stroke-width="0.5"/>
      </g>
      <g id="Grupo_18" data-name="Grupo 18" transform="translate(215.112 143.79)">
        <rect id="Retângulo_74" data-name="Retângulo 74" width="15.986" height="5.773" fill="none" stroke="#ccc" stroke-miterlimit="10" stroke-width="0.5"/>
      </g>
      <g id="Grupo_19" data-name="Grupo 19" transform="translate(215.112 150.894)">
        <rect id="Retângulo_75" data-name="Retângulo 75" width="15.986" height="5.773" fill="none" stroke="#ccc" stroke-miterlimit="10" stroke-width="0.5"/>
      </g>
      <g id="Grupo_20" data-name="Grupo 20" transform="translate(231.285 141.377)">
        <path id="Caminho_16" data-name="Caminho 16" d="M401.18,270.012H392.4a.09.09,0,0,1-.09-.09V253.859a.09.09,0,0,1,.09-.09h8.781a.09.09,0,0,1,.09.09v16.064A.09.09,0,0,1,401.18,270.012Zm-8.69-.179h8.6V253.949h-8.6Z" transform="translate(-392.31 -253.769)" fill="none" stroke="#ccc" stroke-miterlimit="10" stroke-width="0.5"/>
      </g>
      <g id="Grupo_24" data-name="Grupo 24" transform="translate(21.414 141.377)">
        <g id="Grupo_21" data-name="Grupo 21" transform="translate(9.147 2.413)">
          <rect id="Retângulo_76" data-name="Retângulo 76" width="15.986" height="5.773" fill="none" stroke="#ccc" stroke-miterlimit="10" stroke-width="0.5"/>
        </g>
        <g id="Grupo_22" data-name="Grupo 22" transform="translate(9.147 9.517)">
          <rect id="Retângulo_77" data-name="Retângulo 77" width="15.986" height="5.773" fill="none" stroke="#ccc" stroke-miterlimit="10" stroke-width="0.5"/>
        </g>
        <g id="Grupo_23" data-name="Grupo 23">
          <path id="Caminho_17" data-name="Caminho 17" d="M57.144,270.012h-8.78a.09.09,0,0,1-.09-.09V253.859a.09.09,0,0,1,.09-.09h8.781a.089.089,0,0,1,.09.09v16.064A.09.09,0,0,1,57.144,270.012Zm-8.69-.179h8.6V253.949h-8.6Z" transform="translate(-48.274 -253.769)" fill="none" stroke="#ccc" stroke-miterlimit="10" stroke-width="0.5"/>
        </g>
      </g>
      <g id="Grupo_28" data-name="Grupo 28" transform="translate(19.454 7.694)">
        <g id="Grupo_25" data-name="Grupo 25">
          <path id="Caminho_18" data-name="Caminho 18" d="M54.394,69.114H45.062V34.627h9.332Zm-9.153-.181h8.973V34.807H45.241Z" transform="translate(-45.062 -34.627)" fill="none" stroke="#ccc" stroke-miterlimit="10" stroke-width="0.5"/>
        </g>
        <g id="Grupo_26" data-name="Grupo 26" transform="translate(9.174)">
          <path id="Caminho_19" data-name="Caminho 19" d="M76.608,69.114H60.1V34.627H76.608Zm-16.327-.181H76.428V34.807H60.281V68.934Z" transform="translate(-60.101 -34.627)" fill="none" stroke="#ccc" stroke-miterlimit="10" stroke-width="0.5"/>
        </g>
        <g id="Grupo_27" data-name="Grupo 27" transform="translate(25.515)">
          <path id="Caminho_20" data-name="Caminho 20" d="M96.221,69.114H86.888V34.627h9.333Zm-9.153-.181H96.04V34.807H87.067Z" transform="translate(-86.888 -34.627)" fill="none" stroke="#ccc" stroke-miterlimit="10" stroke-width="0.5"/>
        </g>
      </g>
      <g id="Grupo_32" data-name="Grupo 32" transform="translate(203.95 7.686)">
        <g id="Grupo_29" data-name="Grupo 29">
          <path id="Caminho_21" data-name="Caminho 21" d="M356.834,69.1H347.5V34.613h9.333Zm-9.154-.18h8.974V34.793H347.68Z" transform="translate(-347.501 -34.613)" fill="none" stroke="#ccc" stroke-miterlimit="10" stroke-width="0.5"/>
        </g>
        <g id="Grupo_30" data-name="Grupo 30" transform="translate(9.175)">
          <path id="Caminho_22" data-name="Caminho 22" d="M379.048,69.1H362.541V34.613h16.507Zm-16.327-.18h16.147V34.793H362.72Z" transform="translate(-362.541 -34.613)" fill="none" stroke="#ccc" stroke-miterlimit="10" stroke-width="0.5"/>
        </g>
        <g id="Grupo_31" data-name="Grupo 31" transform="translate(25.516)">
          <path id="Caminho_23" data-name="Caminho 23" d="M398.66,69.1h-9.332V34.613h9.332Zm-9.153-.18h8.973V34.793h-8.973Z" transform="translate(-389.328 -34.613)" fill="none" stroke="#ccc" stroke-miterlimit="10" stroke-width="0.5"/>
        </g>
      </g>
      <g id="Grupo_33" data-name="Grupo 33" transform="translate(204.355 43.73)">
        <path id="Caminho_24" data-name="Caminho 24" d="M405.393,190.2H348.165V93.7h57.228Zm-57.063-.18h56.9V93.88h-56.9Z" transform="translate(-348.165 -93.7)" fill="none" stroke="#ccc" stroke-miterlimit="10" stroke-width="0.5"/>
      </g>
      <g id="Grupo_34" data-name="Grupo 34" transform="translate(0 43.73)">
        <path id="Caminho_25" data-name="Caminho 25" d="M68.53,190.2H13.171V93.7H68.53Zm-55.2-.18H68.373V93.88H13.328Z" transform="translate(-13.171 -93.7)" fill="none" stroke="#ccc" stroke-miterlimit="10" stroke-width="0.5"/>
      </g>
      <g id="Grupo_35" data-name="Grupo 35" transform="translate(56.763)">
        <path id="Caminho_26" data-name="Caminho 26" d="M251.313,22.014V64.042H106.221V22.014Zm-.18,41.849V22.194H106.4v41.67H251.133Z" transform="translate(-106.221 -22.014)" fill="none" stroke="#ccc" stroke-miterlimit="10" stroke-width="0.5"/>
      </g>
      <g id="Grupo_37" data-name="Grupo 37" transform="translate(112.982 45.387)">
        <rect id="Retângulo_78" data-name="Retângulo 78" width="33.448" height="6.14" transform="translate(0 0)" fill="#00122b"/>
        <g id="Grupo_36" data-name="Grupo 36" transform="translate(1.271 0.899)">
          <path id="Caminho_27" data-name="Caminho 27" d="M200.463,102.169V98h.566l2.187,3.269V98h.528v4.164h-.565L200.992,98.9v3.272Z" transform="translate(-200.463 -97.934)" fill="#fff"/>
          <path id="Caminho_28" data-name="Caminho 28" d="M206.609,102.169l1.6-4.164h.594l1.7,4.164h-.628l-.486-1.261h-1.741l-.458,1.261Zm1.2-1.71h1.411l-.434-1.154q-.2-.525-.3-.863a5.241,5.241,0,0,1-.224.795Z" transform="translate(-202.86 -97.934)" fill="#fff"/>
          <path id="Caminho_29" data-name="Caminho 29" d="M213.412,100.786l.52-.046a1.142,1.142,0,0,0,.172.513.935.935,0,0,0,.419.324,1.586,1.586,0,0,0,.639.123,1.538,1.538,0,0,0,.557-.093.772.772,0,0,0,.359-.257.6.6,0,0,0,.118-.357.539.539,0,0,0-.114-.342.842.842,0,0,0-.375-.246,7.456,7.456,0,0,0-.741-.2,3.8,3.8,0,0,1-.8-.26,1.138,1.138,0,0,1-.445-.387.951.951,0,0,1-.146-.519,1.06,1.06,0,0,1,.179-.589,1.11,1.11,0,0,1,.523-.416,1.983,1.983,0,0,1,.764-.142,2.1,2.1,0,0,1,.817.149,1.18,1.18,0,0,1,.544.439,1.258,1.258,0,0,1,.2.656l-.528.04a.855.855,0,0,0-.288-.6,1.122,1.122,0,0,0-.726-.2,1.165,1.165,0,0,0-.728.183A.55.55,0,0,0,214.1,99a.472.472,0,0,0,.162.369,2.208,2.208,0,0,0,.831.3,5.5,5.5,0,0,1,.922.265,1.265,1.265,0,0,1,.537.425,1.036,1.036,0,0,1,.173.592,1.135,1.135,0,0,1-.19.626,1.251,1.251,0,0,1-.547.457,1.9,1.9,0,0,1-.8.163,2.4,2.4,0,0,1-.947-.165,1.325,1.325,0,0,1-.6-.5A1.4,1.4,0,0,1,213.412,100.786Z" transform="translate(-205.513 -97.889)" fill="#fff"/>
          <path id="Caminho_30" data-name="Caminho 30" d="M222.949,100.664l.551.14a1.857,1.857,0,0,1-.623,1.035,1.717,1.717,0,0,1-1.1.356,1.978,1.978,0,0,1-1.094-.274,1.71,1.71,0,0,1-.642-.794,2.826,2.826,0,0,1-.22-1.116,2.457,2.457,0,0,1,.248-1.135,1.7,1.7,0,0,1,.708-.736,2.064,2.064,0,0,1,1.01-.251,1.71,1.71,0,0,1,1.051.318,1.65,1.65,0,0,1,.594.895l-.542.127a1.284,1.284,0,0,0-.42-.662,1.119,1.119,0,0,0-.693-.207,1.346,1.346,0,0,0-.8.23,1.212,1.212,0,0,0-.453.618,2.485,2.485,0,0,0-.131.8,2.543,2.543,0,0,0,.155.927,1.15,1.15,0,0,0,.482.592,1.349,1.349,0,0,0,.707.2,1.185,1.185,0,0,0,.784-.267A1.378,1.378,0,0,0,222.949,100.664Z" transform="translate(-208.012 -97.889)" fill="#fff"/>
          <path id="Caminho_31" data-name="Caminho 31" d="M226.984,102.169V98H230V98.5h-2.46v1.276h2.3v.489h-2.3v1.417h2.556v.492h-3.107Z" transform="translate(-210.805 -97.934)" fill="#fff"/>
          <path id="Caminho_32" data-name="Caminho 32" d="M233.316,102.169V98h.566l2.187,3.269V98h.528v4.164h-.565L233.844,98.9v3.272Z" transform="translate(-213.275 -97.934)" fill="#fff"/>
          <path id="Caminho_33" data-name="Caminho 33" d="M241.072,102.169V98.5H239.7V98H243V98.5h-1.378v3.673Z" transform="translate(-215.764 -97.934)" fill="#fff"/>
          <path id="Caminho_34" data-name="Caminho 34" d="M246.056,102.169V98h3.011V98.5h-2.46v1.276h2.3v.489h-2.3v1.417h2.556v.492h-3.107Z" transform="translate(-218.243 -97.934)" fill="#fff"/>
        </g>
      </g>
      <g id="Grupo_38" data-name="Grupo 38" transform="translate(117.103 131.693)">
        <rect id="Retângulo_79" data-name="Retângulo 79" width="25.207" height="6.14" fill="#00122b"/>
        <path id="Caminho_35" data-name="Caminho 35" d="M207.318,243.2v-4.163h1.571a3.838,3.838,0,0,1,.634.039,1.265,1.265,0,0,1,.514.194,1.019,1.019,0,0,1,.334.4,1.356,1.356,0,0,1-.212,1.467,1.622,1.622,0,0,1-1.221.368H207.87V243.2Zm.551-2.185h1.077a1.142,1.142,0,0,0,.758-.2.707.707,0,0,0,.224-.559.752.752,0,0,0-.132-.448.62.62,0,0,0-.348-.245,2.365,2.365,0,0,0-.514-.037h-1.065v1.488Z" transform="translate(-205.986 -238.339)" fill="#fff"/>
        <path id="Caminho_36" data-name="Caminho 36" d="M213.4,241.123a2.259,2.259,0,0,1,.557-1.623,1.894,1.894,0,0,1,1.437-.587,1.989,1.989,0,0,1,1.039.276,1.8,1.8,0,0,1,.706.768,2.5,2.5,0,0,1,.242,1.118,2.459,2.459,0,0,1-.255,1.133,1.744,1.744,0,0,1-.725.757,2.071,2.071,0,0,1-1.011.257,1.96,1.96,0,0,1-1.051-.284,1.819,1.819,0,0,1-.7-.775A2.353,2.353,0,0,1,213.4,241.123Zm.568.009a1.666,1.666,0,0,0,.405,1.185,1.413,1.413,0,0,0,2.04,0,1.768,1.768,0,0,0,.4-1.241,2.13,2.13,0,0,0-.172-.888,1.319,1.319,0,0,0-.5-.588,1.362,1.362,0,0,0-.742-.209,1.412,1.412,0,0,0-1.007.4A1.794,1.794,0,0,0,213.972,241.132Z" transform="translate(-208.359 -238.291)" fill="#fff"/>
        <path id="Caminho_37" data-name="Caminho 37" d="M221.115,243.2v-4.163h3.01v.491h-2.46V240.8h2.3v.489h-2.3v1.417h2.556v.492h-3.107Z" transform="translate(-211.366 -238.339)" fill="#fff"/>
        <path id="Caminho_38" data-name="Caminho 38" d="M227.446,243.2v-4.163h.565L230.2,242.3v-3.269h.529V243.2h-.566l-2.187-3.272V243.2Z" transform="translate(-213.835 -238.339)" fill="#fff"/>
        <path id="Caminho_39" data-name="Caminho 39" d="M235.2,243.2v-3.673H233.83v-.491h3.3v.491h-1.377V243.2Z" transform="translate(-216.325 -238.339)" fill="#fff"/>
        <path id="Caminho_40" data-name="Caminho 40" d="M240.186,243.2v-4.163H243.2v.491h-2.459V240.8h2.3v.489h-2.3v1.417h2.556v.492h-3.108Z" transform="translate(-218.803 -238.339)" fill="#fff"/>
      </g>
      <g id="Grupo_40" data-name="Grupo 40" transform="translate(59.101 81.074)">
        <rect id="Retângulo_80" data-name="Retângulo 80" width="6.14" height="22.299" fill="#00122b"/>
        <g id="Grupo_39" data-name="Grupo 39" transform="translate(0.91 1.206)">
          <path id="Caminho_41" data-name="Caminho 41" d="M115.83,186.76h-4.164v-.565l3.269-2.187h-3.269v-.528h4.164v.566l-3.272,2.187h3.272Z" transform="translate(-111.592 -167.261)" fill="#fff"/>
          <path id="Caminho_42" data-name="Caminho 42" d="M113.755,179.69a2.264,2.264,0,0,1-1.623-.557,1.892,1.892,0,0,1-.586-1.437,2,2,0,0,1,.276-1.04,1.8,1.8,0,0,1,.768-.706,2.491,2.491,0,0,1,1.118-.243,2.457,2.457,0,0,1,1.133.256,1.747,1.747,0,0,1,.757.725,2.069,2.069,0,0,1,.257,1.011,1.966,1.966,0,0,1-.284,1.051,1.823,1.823,0,0,1-.775.7A2.354,2.354,0,0,1,113.755,179.69Zm.009-.568a1.67,1.67,0,0,0,1.186-.4,1.412,1.412,0,0,0,0-2.039,1.769,1.769,0,0,0-1.241-.4,2.129,2.129,0,0,0-.888.172,1.324,1.324,0,0,0-.588.5,1.36,1.36,0,0,0-.209.743,1.409,1.409,0,0,0,.4,1.007A1.793,1.793,0,0,0,113.764,179.122Z" transform="translate(-111.545 -164.23)" fill="#fff"/>
          <path id="Caminho_43" data-name="Caminho 43" d="M115.83,172.184h-4.164v-1.846a2.469,2.469,0,0,1,.112-.847.928.928,0,0,1,.4-.463,1.184,1.184,0,0,1,.628-.173,1.049,1.049,0,0,1,.747.287,1.452,1.452,0,0,1,.386.886,1.448,1.448,0,0,1,.207-.332,2.885,2.885,0,0,1,.554-.458l1.133-.724v.693l-.866.551c-.25.161-.442.293-.574.4a1.258,1.258,0,0,0-.278.28.822.822,0,0,0-.111.251,1.642,1.642,0,0,0-.02.307v.639h1.849v.551Zm-2.326-.551v-1.184a1.784,1.784,0,0,0-.078-.591.632.632,0,0,0-.25-.324.677.677,0,0,0-.374-.11.62.62,0,0,0-.486.214,1,1,0,0,0-.19.678v1.318Z" transform="translate(-111.592 -161.425)" fill="#fff"/>
          <path id="Caminho_44" data-name="Caminho 44" d="M115.83,164.86h-3.673v1.372h-.492v-3.3h.492v1.378h3.673Z" transform="translate(-111.592 -159.248)" fill="#fff"/>
          <path id="Caminho_45" data-name="Caminho 45" d="M115.83,160h-4.164v-3.011h.492v2.46h1.275v-2.3h.489v2.3h1.418v-2.556h.492V160Z" transform="translate(-111.592 -156.893)" fill="#fff"/>
        </g>
      </g>
      <g id="Grupo_42" data-name="Grupo 42" transform="translate(194.35 81.074)">
        <path id="Caminho_316" data-name="Caminho 316" d="M0,0H6.139V22.3H0Z" fill="#00122b"/>
        <g id="Grupo_41" data-name="Grupo 41" transform="translate(1.076 5.561)">
          <path id="Caminho_46" data-name="Caminho 46" d="M334.936,164.032l.046.52a1.144,1.144,0,0,0-.512.172.93.93,0,0,0-.324.419,1.578,1.578,0,0,0-.124.639,1.527,1.527,0,0,0,.094.557.768.768,0,0,0,.257.359.6.6,0,0,0,.356.118.543.543,0,0,0,.343-.113.845.845,0,0,0,.246-.375,7.183,7.183,0,0,0,.2-.741,3.749,3.749,0,0,1,.261-.8,1.129,1.129,0,0,1,.388-.445.947.947,0,0,1,.518-.146,1.063,1.063,0,0,1,.59.179,1.113,1.113,0,0,1,.417.522,2,2,0,0,1,.141.764,2.088,2.088,0,0,1-.149.817,1.174,1.174,0,0,1-.439.544,1.258,1.258,0,0,1-.656.2l-.039-.528a.853.853,0,0,0,.6-.289,1.124,1.124,0,0,0,.2-.726,1.165,1.165,0,0,0-.184-.728.549.549,0,0,0-.442-.229.472.472,0,0,0-.369.162,2.2,2.2,0,0,0-.3.831,5.488,5.488,0,0,1-.266.922,1.265,1.265,0,0,1-.425.537,1.036,1.036,0,0,1-.592.173,1.135,1.135,0,0,1-.627-.19,1.255,1.255,0,0,1-.457-.547,1.9,1.9,0,0,1-.164-.8,2.4,2.4,0,0,1,.165-.947,1.329,1.329,0,0,1,.5-.6A1.408,1.408,0,0,1,334.936,164.032Z" transform="translate(-333.527 -164.032)" fill="#fff"/>
          <path id="Caminho_47" data-name="Caminho 47" d="M337.762,173.437v.551h-2.405a2.838,2.838,0,0,1-1-.142,1.211,1.211,0,0,1-.6-.512,1.811,1.811,0,0,1-.232-.973,1.985,1.985,0,0,1,.2-.957,1.15,1.15,0,0,1,.583-.531,2.777,2.777,0,0,1,1.044-.159h2.405v.551h-2.4a2.351,2.351,0,0,0-.8.1.767.767,0,0,0-.4.346,1.209,1.209,0,0,0-.139.6,1.151,1.151,0,0,0,.275.866,1.588,1.588,0,0,0,1.06.259h2.4Z" transform="translate(-333.527 -166.637)" fill="#fff"/>
          <path id="Caminho_48" data-name="Caminho 48" d="M333.644,177.549h4.164v.551h-3.673v2.051h-.492v-2.6Z" transform="translate(-333.572 -169.303)" fill="#fff"/>
        </g>
      </g>
      <g id="Grupo_43" data-name="Grupo 43" transform="translate(66.715 53.279)">
        <path id="Caminho_49" data-name="Caminho 49" d="M146.746,173.909a.856.856,0,1,1,.852-.856.856.856,0,0,1-.852.856" transform="translate(-131.643 -133.859)" fill="#fff"/>
        <path id="Caminho_50" data-name="Caminho 50" d="M305.489,173.909a.856.856,0,1,1,.858-.856.858.858,0,0,1-.858.856" transform="translate(-193.548 -133.859)" fill="#fff"/>
        <rect id="Retângulo_82" data-name="Retângulo 82" width="126.686" height="77.344" fill="none" stroke="#fff" stroke-miterlimit="10" stroke-width="1"/>
        <rect id="Retângulo_83" data-name="Retângulo 83" width="18.406" height="46.015" transform="translate(0.043 16.251)" fill="none" stroke="#fff" stroke-miterlimit="10" stroke-width="1"/>
        <rect id="Retângulo_84" data-name="Retângulo 84" width="6.462" height="20.364" transform="translate(0.043 28.587)" fill="none" stroke="#fff" stroke-miterlimit="10" stroke-width="1"/>
        <rect id="Retângulo_85" data-name="Retângulo 85" width="18.405" height="46.014" transform="translate(108.281 15.273)" fill="none" stroke="#fff" stroke-miterlimit="10" stroke-width="1"/>
        <rect id="Retângulo_86" data-name="Retângulo 86" width="6.461" height="20.363" transform="translate(120.225 28.588)" fill="none" stroke="#fff" stroke-miterlimit="10" stroke-width="1"/>
        <line id="Linha_6" data-name="Linha 6" y2="77.295" transform="translate(63.049)" fill="none" stroke="#fff" stroke-miterlimit="10" stroke-width="1"/>
        <circle id="Elipse_14" data-name="Elipse 14" cx="9.692" cy="9.692" r="9.692" transform="translate(53.357 28.979)" fill="none" stroke="#fff" stroke-miterlimit="10" stroke-width="1"/>
      </g>
    </g>
    <g id="Grupo_45" data-name="Grupo 45" transform="translate(1098.413 738.844)">
      <path id="Caminho_133" data-name="Caminho 133" d="M143.9,377a6.516,6.516,0,0,1,.963-.073,2.005,2.005,0,0,1,1.421.438,1.614,1.614,0,0,1,.495,1.259,1.855,1.855,0,0,1-.505,1.364,2.164,2.164,0,0,1-1.551.505,7.263,7.263,0,0,1-.822-.042V377Zm.453,3.1a2.86,2.86,0,0,0,.458.026,1.349,1.349,0,0,0,1.495-1.488,1.253,1.253,0,0,0-1.422-1.354,2.557,2.557,0,0,0-.531.047v2.77Z" transform="translate(-143.897 -376.152)"/>
      <path id="Caminho_134" data-name="Caminho 134" d="M150.037,376.965v3.509h-.453v-3.509Z" transform="translate(-146.115 -376.168)"/>
      <path id="Caminho_135" data-name="Caminho 135" d="M151.45,379.886a1.6,1.6,0,0,0,.812.229c.464,0,.734-.245.734-.6,0-.328-.187-.515-.661-.7-.573-.2-.927-.5-.927-.995a1.011,1.011,0,0,1,1.135-.953,1.6,1.6,0,0,1,.776.173l-.125.369a1.394,1.394,0,0,0-.666-.167c-.479,0-.661.286-.661.526,0,.328.214.489.7.676.594.229.9.516.9,1.03,0,.542-.4,1.01-1.229,1.01a1.811,1.811,0,0,1-.9-.224Z" transform="translate(-146.798 -376.132)"/>
      <path id="Caminho_136" data-name="Caminho 136" d="M155.835,376.991a5.237,5.237,0,0,1,.869-.068,1.439,1.439,0,0,1,.984.292.942.942,0,0,1,.307.733,1.035,1.035,0,0,1-.271.75,1.456,1.456,0,0,1-1.073.385,1.582,1.582,0,0,1-.364-.031v1.405h-.453v-3.467Zm.453,1.692a1.5,1.5,0,0,0,.375.037c.547,0,.88-.266.88-.75,0-.463-.328-.688-.828-.688a1.91,1.91,0,0,0-.427.037v1.363Z" transform="translate(-148.552 -376.152)"/>
      <path id="Caminho_137" data-name="Caminho 137" d="M163.244,378.647a1.644,1.644,0,0,1-1.629,1.848,1.609,1.609,0,0,1-1.578-1.781,1.667,1.667,0,0,1,1.629-1.844A1.6,1.6,0,0,1,163.244,378.647Zm-2.723.057c0,.75.406,1.421,1.119,1.421s1.124-.661,1.124-1.458c0-.7-.364-1.427-1.119-1.427S160.521,377.934,160.521,378.7Z" transform="translate(-150.191 -376.132)"/>
      <path id="Caminho_138" data-name="Caminho 138" d="M166.262,380.474v-3.509h.495l1.125,1.776a9.941,9.941,0,0,1,.63,1.141l.01-.006c-.041-.47-.052-.9-.052-1.442v-1.469h.427v3.509h-.458l-1.115-1.78a11.253,11.253,0,0,1-.656-1.171l-.015,0c.026.443.037.864.037,1.447v1.5Z" transform="translate(-152.619 -376.168)"/>
      <path id="Caminho_139" data-name="Caminho 139" d="M172.841,375.659l-.667.609h-.369l.479-.609Zm-.536.8v3.509h-.453v-3.509Z" transform="translate(-154.78 -375.659)"/>
      <path id="Caminho_140" data-name="Caminho 140" d="M174.454,380.474l-1.146-3.51h.489l.547,1.729c.151.473.281.9.375,1.312h.01c.1-.406.245-.849.4-1.307l.594-1.734h.484l-1.255,3.51h-.5Z" transform="translate(-155.366 -376.168)"/>
      <path id="Caminho_141" data-name="Caminho 141" d="M180.5,378.829h-1.364v1.265h1.52v.38h-1.973v-3.51h1.895v.381h-1.442v1.109H180.5v.375Z" transform="translate(-157.465 -376.168)"/>
      <path id="Caminho_142" data-name="Caminho 142" d="M182.889,376.965h.453v3.129h1.5v.38h-1.953Z" transform="translate(-159.103 -376.168)"/>
    </g>
    <g id="Grupo_46" data-name="Grupo 46" transform="translate(1133.413 738.844)">
      <path id="Caminho_143" data-name="Caminho 143" d="M201.725,376.965v3.509h-.453v-3.509Z" transform="translate(-201.272 -376.168)"/>
      <path id="Caminho_144" data-name="Caminho 144" d="M203.313,380.474v-3.509h.495l1.125,1.776a9.939,9.939,0,0,1,.63,1.141l.01-.006c-.041-.47-.052-.9-.052-1.442v-1.469h.427v3.509h-.458l-1.115-1.78a11.253,11.253,0,0,1-.656-1.171l-.015,0c.026.443.037.864.037,1.447v1.5Z" transform="translate(-202.068 -376.168)"/>
      <path id="Caminho_145" data-name="Caminho 145" d="M208.932,377a6.516,6.516,0,0,1,.963-.073,2.005,2.005,0,0,1,1.421.438,1.614,1.614,0,0,1,.495,1.259,1.857,1.857,0,0,1-.505,1.364,2.164,2.164,0,0,1-1.551.505,7.264,7.264,0,0,1-.822-.042V377Zm.453,3.1a2.859,2.859,0,0,0,.458.026,1.349,1.349,0,0,0,1.495-1.488,1.253,1.253,0,0,0-1.422-1.354,2.557,2.557,0,0,0-.531.047v2.77Z" transform="translate(-204.259 -376.152)"/>
      <path id="Caminho_146" data-name="Caminho 146" d="M215.072,376.965v3.509h-.453v-3.509Z" transform="translate(-206.477 -376.168)"/>
      <path id="Caminho_147" data-name="Caminho 147" d="M216.485,379.886a1.6,1.6,0,0,0,.812.229c.464,0,.734-.245.734-.6,0-.328-.187-.515-.661-.7-.573-.2-.927-.5-.927-.995a1.01,1.01,0,0,1,1.135-.953,1.594,1.594,0,0,1,.776.173l-.125.369a1.394,1.394,0,0,0-.666-.167c-.479,0-.661.286-.661.526,0,.328.214.489.7.676.594.229.9.516.9,1.03,0,.542-.4,1.01-1.229,1.01a1.811,1.811,0,0,1-.9-.224Z" transform="translate(-207.16 -376.132)"/>
      <path id="Caminho_148" data-name="Caminho 148" d="M220.87,376.991a5.232,5.232,0,0,1,.869-.068,1.44,1.44,0,0,1,.984.292.942.942,0,0,1,.307.733,1.035,1.035,0,0,1-.271.75,1.456,1.456,0,0,1-1.073.385,1.581,1.581,0,0,1-.364-.031v1.405h-.453v-3.467Zm.453,1.692a1.5,1.5,0,0,0,.375.037c.547,0,.88-.266.88-.75,0-.463-.328-.688-.828-.688a1.909,1.909,0,0,0-.427.037v1.363Z" transform="translate(-208.914 -376.152)"/>
      <path id="Caminho_149" data-name="Caminho 149" d="M228.279,378.647a1.644,1.644,0,0,1-1.629,1.848,1.609,1.609,0,0,1-1.578-1.781,1.668,1.668,0,0,1,1.631-1.844A1.6,1.6,0,0,1,228.279,378.647Zm-2.723.057c0,.75.405,1.421,1.119,1.421s1.124-.661,1.124-1.458c0-.7-.364-1.427-1.119-1.427S225.556,377.934,225.556,378.7Z" transform="translate(-210.553 -376.132)"/>
      <path id="Caminho_150" data-name="Caminho 150" d="M231.3,380.474v-3.509h.5l1.125,1.776a9.933,9.933,0,0,1,.63,1.141l.01-.006c-.042-.47-.052-.9-.052-1.442v-1.469h.427v3.509h-.459l-1.114-1.78a11.367,11.367,0,0,1-.656-1.171l-.015,0c.026.443.037.864.037,1.447v1.5Z" transform="translate(-212.981 -376.168)"/>
      <path id="Caminho_151" data-name="Caminho 151" d="M237.876,375.659l-.667.609h-.369l.478-.609Zm-.536.8v3.509h-.453v-3.509Z" transform="translate(-215.143 -375.659)"/>
      <path id="Caminho_152" data-name="Caminho 152" d="M239.488,380.474l-1.146-3.51h.49l.547,1.729c.151.473.281.9.375,1.312h.01c.1-.406.245-.849.4-1.307l.594-1.734h.484l-1.255,3.51h-.5Z" transform="translate(-215.728 -376.168)"/>
      <path id="Caminho_153" data-name="Caminho 153" d="M245.539,378.829h-1.363v1.265h1.52v.38h-1.973v-3.51h1.895v.381h-1.441v1.109h1.363Z" transform="translate(-217.826 -376.168)"/>
      <path id="Caminho_154" data-name="Caminho 154" d="M247.924,376.965h.453v3.129h1.5v.38h-1.952Z" transform="translate(-219.465 -376.168)"/>
    </g>
    <g id="Grupo_47" data-name="Grupo 47" transform="translate(1171.779 739.583)">
      <path id="Caminho_155" data-name="Caminho 155" d="M264.279,379.886a1.606,1.606,0,0,0,.813.229c.464,0,.733-.245.733-.6,0-.328-.187-.515-.661-.7-.572-.2-.927-.5-.927-.995a1.011,1.011,0,0,1,1.135-.953,1.588,1.588,0,0,1,.775.173l-.125.369a1.394,1.394,0,0,0-.666-.167c-.479,0-.661.286-.661.526,0,.328.214.489.7.676.594.229.9.516.9,1.03,0,.542-.4,1.01-1.229,1.01a1.813,1.813,0,0,1-.9-.224Z" transform="translate(-264.164 -376.871)"/>
      <path id="Caminho_156" data-name="Caminho 156" d="M270.483,378.829h-1.364v1.265h1.521v.38h-1.973v-3.51h1.9v.381h-1.443v1.109h1.364Z" transform="translate(-265.92 -376.907)"/>
      <path id="Caminho_157" data-name="Caminho 157" d="M272.867,376.965h.453v3.129h1.5v.38h-1.953Z" transform="translate(-267.558 -376.908)"/>
      <path id="Caminho_158" data-name="Caminho 158" d="M278.715,378.829h-1.364v1.265h1.52v.38H276.9v-3.51h1.895v.381h-1.442v1.109h1.364Z" transform="translate(-269.13 -376.907)"/>
      <path id="Caminho_159" data-name="Caminho 159" d="M283.418,380.324a2.26,2.26,0,0,1-.927.166,1.64,1.64,0,0,1-1.734-1.775,1.747,1.747,0,0,1,1.833-1.844,1.876,1.876,0,0,1,.833.157l-.11.37a1.648,1.648,0,0,0-.708-.146,1.3,1.3,0,0,0-1.37,1.448,1.276,1.276,0,0,0,1.349,1.41,1.815,1.815,0,0,0,.739-.146Z" transform="translate(-270.635 -376.871)"/>
      <path id="Caminho_160" data-name="Caminho 160" d="M286.5,376.965v3.509h-.453v-3.509Z" transform="translate(-272.7 -376.908)"/>
      <path id="Caminho_161" data-name="Caminho 161" d="M290.958,378.647a1.644,1.644,0,0,1-1.629,1.848,1.609,1.609,0,0,1-1.578-1.781,1.667,1.667,0,0,1,1.63-1.844A1.6,1.6,0,0,1,290.958,378.647Zm-2.723.057c0,.75.406,1.421,1.119,1.421s1.125-.661,1.125-1.458c0-.7-.365-1.427-1.119-1.427S288.235,377.934,288.235,378.7Z" transform="translate(-273.362 -376.871)"/>
      <path id="Caminho_162" data-name="Caminho 162" d="M293.977,380.474v-3.509h.5l1.124,1.776a9.934,9.934,0,0,1,.63,1.141l.01-.006c-.041-.47-.052-.9-.052-1.442v-1.469h.426v3.509h-.458l-1.114-1.78a11.237,11.237,0,0,1-.656-1.171l-.015,0c.026.443.036.864.036,1.447v1.5Z" transform="translate(-275.79 -376.908)"/>
      <path id="Caminho_163" data-name="Caminho 163" d="M299.993,379.37l-.365,1.1h-.469l1.193-3.509h.547l1.2,3.509h-.484l-.374-1.1Zm1.151-.354-.344-1.01c-.078-.229-.131-.438-.182-.641h-.012c-.051.208-.109.422-.176.635l-.344,1.015Z" transform="translate(-277.811 -376.908)"/>
      <path id="Caminho_164" data-name="Caminho 164" d="M304.822,377a6.515,6.515,0,0,1,.963-.073,2.006,2.006,0,0,1,1.421.438,1.614,1.614,0,0,1,.495,1.259,1.852,1.852,0,0,1-.505,1.364,2.163,2.163,0,0,1-1.551.505,7.283,7.283,0,0,1-.823-.042Zm.453,3.1a2.867,2.867,0,0,0,.458.026,1.349,1.349,0,0,0,1.5-1.488,1.253,1.253,0,0,0-1.422-1.354,2.559,2.559,0,0,0-.531.047Z" transform="translate(-280.019 -376.891)"/>
      <path id="Caminho_165" data-name="Caminho 165" d="M313.375,378.647a1.644,1.644,0,0,1-1.63,1.848,1.609,1.609,0,0,1-1.578-1.781,1.667,1.667,0,0,1,1.629-1.844A1.6,1.6,0,0,1,313.375,378.647Zm-2.723.057c0,.75.406,1.421,1.119,1.421s1.125-.661,1.125-1.458c0-.7-.365-1.427-1.119-1.427S310.652,377.934,310.652,378.7Z" transform="translate(-282.104 -376.871)"/>
      <path id="Caminho_169" data-name="Caminho 169" d="M278.715,378.829h-1.364v1.265h1.52v.38H276.9v-3.51h1.895v.381h-1.442v1.109h1.364Z" transform="translate(-269.13 -376.907)"/>
    </g>
    <circle id="select-setor" cx="4.423" cy="4.423" r="4.423" transform="translate(1182.913 727.421)" fill="#f78946" stroke="#00122b" stroke-miterlimit="10" stroke-width="0.5"/>
    <circle id="unavail-setor" cx="4.423" cy="4.423" r="4.423" transform="translate(1144.024 727.421)" fill="#737a83" stroke="#00122b" stroke-miterlimit="10" stroke-width="0.5"/>
    <circle id="avail-setor" cx="4.423" cy="4.423" r="4.423" transform="translate(1106.508 727.421)" fill="#fff" stroke="#000" stroke-miterlimit="10" stroke-width="0.5"/>
    <path id="z15-setor1" d="M115.628,294.477v5.578h2.255v1.395h-2.255v5.369h2.255V311H107.119V294.462Z" transform="translate(984.735 394.85)" fill="#737a83" stroke="#000" stroke-miterlimit="10" stroke-width="0.5"/>
    <path id="z15-setor2" d="M147.8,297.249v6.066h2.452V311H127.96v-4.182h2.254V301.45H127.96v-1.395h2.254v-5.578l20.039-.015v2.787Z" transform="translate(976.607 394.85)" fill="#d6d6d6" stroke="#000" stroke-miterlimit="10" stroke-width="0.5"/>
    <path id="z15-setor3" d="M170.113,297.249v6.065H167.66V311h22.294l-.01-16.523-22.284-.015v2.787Z" transform="translate(961.125 394.85)" fill="#737a83" stroke="#000" stroke-miterlimit="10" stroke-width="0.5"/>
    <path id="z14-setor7" d="M328.531,294.477v5.578h-2.255v1.395h2.255v5.368h-2.255V311H337.04V294.462Z" transform="translate(899.27 394.85)" fill="#737a83" stroke="#000" stroke-miterlimit="10" stroke-width="0.5"/>
    <path id="z14-setor6" d="M288.925,297.249v6.065h-2.451V311h22.293v-4.182h-2.256V301.45h2.256v-1.395h-2.256v-5.578l-20.038-.015v2.787Z" transform="translate(914.791 394.85)" fill="#737a83" stroke="#000" stroke-miterlimit="10" stroke-width="0.5"/>
    <path id="z14-setor5" d="M266.9,297.249v6.065h2.452V311H247.061l.01-16.523,22.283-.015v2.787Z" transform="translate(930.161 394.85)" fill="#737a83" stroke="#000" stroke-miterlimit="10" stroke-width="0.5"/>
    <rect id="Retângulo_101" data-name="Retângulo 101" width="14.941" height="14.569" transform="translate(1224.654 694.886)" fill="none"/>
    <text id="label-z14-setor7" transform="translate(1230.768 695.11)" fill="#fff" font-size="1" font-family="ArialMT, Arial"><tspan x="0" y="0">7</tspan></text>
    <rect id="Retângulo_102" data-name="Retângulo 102" width="14.94" height="14.568" transform="translate(1205.102 694.523)" fill="none"/>
    <text id="label-z14-setor6" transform="translate(1211.215 694.746)" fill="#fff" font-size="1" font-family="ArialMT, Arial"><tspan x="0" y="0">6</tspan></text>
    <rect id="Retângulo_103" data-name="Retângulo 103" width="14.94" height="14.568" transform="translate(1180.006 694.555)" fill="none"/>
    <text id="label-z14-setor5" transform="translate(1186.119 694.778)" fill="#fff" font-size="1" font-family="ArialMT, Arial"><tspan x="0" y="0">5</tspan></text>
    <path id="z1-setor7" d="M328.042,261.242v5.788h-2.263v11.138h10.865v-18.04H325.779v1.114Z" transform="translate(899.464 408.239)" fill="#737a83" stroke="#000" stroke-miterlimit="10" stroke-width="0.5"/>
    <path id="z1-setor6" d="M286.2,267.03v11.138h22.257v-11.11H306.11v-5.813h2.349v-1.117H286.2v1.114h2.264v5.788Z" transform="translate(914.897 408.239)" fill="#737a83" stroke="#000" stroke-miterlimit="10" stroke-width="0.5"/>
    <path id="z1-setor5" d="M246.627,267.03v11.138h22.256V267.059h-2.349v-5.814h2.349v-1.117H246.627v1.114h2.263v5.787Z" transform="translate(930.331 408.239)" fill="#737a83" stroke="#000" stroke-miterlimit="10" stroke-width="0.5"/>
    <path id="z1-setor4" d="M207.05,267.03v11.138h22.256V267.059h-2.349v-5.814h2.349v-1.116h-7.193v6.414h-7.645v-6.414H207.05v1.114h2.263v5.787Z" transform="translate(945.764 408.239)" fill="#737a83" stroke="#000" stroke-miterlimit="10" stroke-width="0.5"/>
    <path id="z1-setor3" d="M167.226,267.03v11.138h22.256V267.059h-2.348v-5.814h2.348v-1.116H167.226v1.114h2.263v5.787Z" transform="translate(961.295 408.239)" fill="#737a83" stroke="#000" stroke-miterlimit="10" stroke-width="0.5"/>
    <path id="z1-setor2" d="M127.649,267.03v11.138h22.257V267.059h-2.349v-5.814h2.349v-1.116H127.649v1.114h2.263v5.787Z" transform="translate(976.729 408.239)" fill="#737a83" stroke="#000" stroke-miterlimit="10" stroke-width="0.5"/>
    <path id="z1-setor1" d="M115.225,261.243v5.787h2.263v11.138H106.625V260.129h10.863v1.114Z" transform="translate(984.928 408.239)" fill="#737a83" stroke="#000" stroke-miterlimit="10" stroke-width="0.5"/>
    <path id="z7-setor5" d="M36.763,234.9H31.137v-2.149h-2.36V234.9H22.709v-2.149H16.036v10.262H36.782Z" transform="translate(1020.255 418.917)" fill="#737a83" stroke="#00122b" stroke-miterlimit="10" stroke-width="0.5"/>
    <path id="z7-setor4" d="M34.34,196.418H28.384v-2.459H16.036v21.634h6.673v-2.15h6.068v2.15h2.36v-2.15h5.626l.019-19.484H34.34Z" transform="translate(1020.255 434.043)" fill="#737a83" stroke="#00122b" stroke-miterlimit="10" stroke-width="0.5"/>
    <path id="z7-setor2" d="M34.34,136.085H28.384v2.458H16.036V116.909h6.673v2.15h6.068v-2.15h2.36v2.15h5.626l.019,19.484H34.34Z" transform="translate(1020.255 464.091)" fill="#737a83" stroke="#000" stroke-miterlimit="10" stroke-width="0.5"/>
    <path id="z7-setor3" d="M34.34,157.944H28.384v-2.458H16.036V177.12H28.37v-2.15h5.97v2.15H36.8l-.016-21.634H34.34Z" transform="translate(1020.255 449.047)" fill="#737a83" stroke="#000" stroke-miterlimit="10" stroke-width="0.5"/>
    <path id="z7-setor1" d="M36.763,104.826H31.137v2.15h-2.36v-2.15H22.709v2.15H16.036V96.713H36.782Z" transform="translate(1020.255 471.966)" fill="#737a83" stroke="#00122b" stroke-miterlimit="10" stroke-width="0.5"/>
    <path id="z6-setor5" d="M82.325,232.746H72.268V234.9H66.312v-2.149H53.4v10.262H82.351Z" transform="translate(1005.683 418.917)" fill="#737a83" stroke="#00122b" stroke-miterlimit="10" stroke-width="0.5"/>
    <path id="z6-setor4" d="M66.312,193.909H53.4v21.632h12.91v-1.932h5.9v1.932H82.351l-.026-21.632H72.268v2.15H66.312Z" transform="translate(1005.683 434.063)" fill="#737a83" stroke="#00122b" stroke-miterlimit="10" stroke-width="0.5"/>
    <path id="z6-setor3" d="M66.32,155.461l-12.91-.033-.043,21.631,12.909.033,0-1.931,5.9.015,0,1.931,10.14.026.017-21.632-10.058-.026,0,2.149-5.956-.015Z" transform="translate(1005.697 449.069)" fill="#737a83" stroke="#000" stroke-miterlimit="10" stroke-width="0.5"/>
    <path id="z6-setor2" d="M66.312,116.858H53.4V138.49h12.91v-1.932h5.9v1.932H82.351l-.026-21.632H72.268v2.15H66.312Z" transform="translate(1005.683 464.11)" fill="#737a83" stroke="#000" stroke-miterlimit="10" stroke-width="0.5"/>
    <path id="z6-setor1" d="M82.325,107.391H72.268v-2.15H66.312v2.15H53.4V97.128H82.351Z" transform="translate(1005.683 471.805)" fill="#737a83" stroke="#000" stroke-miterlimit="10" stroke-width="0.5"/>
    <path id="z16-setor5" d="M350.814,106.8H361.2v-2.292h6.154V106.8h13.336V95.856H350.786Z" transform="translate(889.711 472.301)" fill="#fff" stroke="#00122b" stroke-miterlimit="10" stroke-width="0.5"/>
    <path id="z16-setor4" d="M367.357,137.951h13.336V116.432H367.357v1.922h-6.1v-1.922H350.786l.028,21.519H361.2v-2.138h6.154Z" transform="translate(889.711 464.277)" fill="#fff" stroke="#00122b" stroke-miterlimit="10" stroke-width="0.5"/>
    <path id="z16-setor3" d="M367.357,176.171h13.336V154.652H367.357v1.922h-6.1v-1.922H350.786l.028,21.519H361.2v-2.138h6.154Z" transform="translate(889.711 449.372)" fill="#f78946" stroke="#00122b" stroke-miterlimit="10" stroke-width="0.5"/>
    <path id="z16-setor2" d="M367.357,214.6h13.336V193.08H367.357V195h-6.1V193.08H350.786l.028,21.518H361.2v-2.138h6.154Z" transform="translate(889.711 434.386)" fill="#fff" stroke="#00122b" stroke-miterlimit="10" stroke-width="0.5"/>
    <path id="z16-setor1" d="M350.814,231.246H361.2v2.139h6.154v-2.139h13.336v10.209H350.786Z" transform="translate(889.711 419.502)" fill="#fff" stroke="#00122b" stroke-miterlimit="10" stroke-width="0.5"/>
    <rect id="Retângulo_104" data-name="Retângulo 104" width="7.362" height="8.07" transform="translate(1041.694 655.803)" fill="none"/>
    <text id="label-z7-setor5" transform="translate(1044.019 656.027)" fill="#fff" font-size="1" font-family="ArialMT, Arial"><tspan x="0" y="0">5</tspan></text>
    <rect id="Retângulo_105" data-name="Retângulo 105" width="7.362" height="8.071" transform="translate(1041.694 636.58)" fill="none"/>
    <text id="label-z7-setor4" transform="translate(1044.019 636.804)" fill="#fff" font-size="1" font-family="ArialMT, Arial"><tspan x="0" y="0">4</tspan></text>
    <rect id="Retângulo_106" data-name="Retângulo 106" width="6.438" height="8.478" transform="translate(1041.97 613.149)" fill="none"/>
    <text id="label-z7-setor3" transform="translate(1043.832 613.373)" fill="#fff" font-size="1" font-family="ArialMT, Arial"><tspan x="0" y="0">3</tspan></text>
    <rect id="Retângulo_107" data-name="Retângulo 107" width="7.362" height="8.071" transform="translate(1041.694 590.258)" fill="#737a83"/>
    <text id="label-z7-setor2" transform="translate(1044.019 590.483)" fill="#fff" font-size="1" font-family="ArialMT, Arial"><tspan x="0" y="0">2</tspan></text>
    <rect id="Retângulo_108" data-name="Retângulo 108" width="7.362" height="8.071" transform="translate(1041.97 570.799)" fill="none"/>
    <text id="label-z7-setor1" transform="translate(1044.294 571.023)" fill="#fff" font-size="1" font-family="ArialMT, Arial"><tspan x="0" y="0">1</tspan></text>
    <path id="z5-setor5" d="M403.254,104.408h5.812v2.139H411.5v-2.139h6.268v2.139h6.894V96.338H403.234Z" transform="translate(869.258 472.113)" fill="#fff" stroke="#00122b" stroke-miterlimit="10" stroke-width="0.5"/>
    <path id="z5-setor4" d="M405.757,135.453h6.153V137.9h12.756V116.378h-6.894v2.139H411.5v-2.139h-2.438v2.139h-5.812l-.02,19.382h2.523Z" transform="translate(869.258 464.298)" fill="#fff" stroke="#00122b" stroke-miterlimit="10" stroke-width="0.5"/>
    <path id="z5-setor3" d="M405.747,173.727H411.9v2.445h12.756V154.651H411.914v2.138h-6.167v-2.138h-2.539l.016,21.521h2.523Z" transform="translate(869.268 449.372)" fill="#fff" stroke="#00122b" stroke-miterlimit="10" stroke-width="0.5"/>
    <path id="z5-setor2" d="M405.757,195.472h6.153v-2.446h12.756v21.521h-6.894v-2.138H411.5v2.138h-2.438v-2.138h-5.812l-.02-19.382h2.523Z" transform="translate(869.258 434.407)" fill="#fff" stroke="#00122b" stroke-miterlimit="10" stroke-width="0.5"/>
    <path id="z5-setor1" d="M403.254,233.8h5.812v-2.139H411.5V233.8h6.268v-2.139h6.894v10.209H403.234Z" transform="translate(869.258 419.341)" fill="#fff" stroke="#00122b" stroke-miterlimit="10" stroke-width="0.5"/>
    <rect id="z3-setor7" width="10.625" height="7.395" transform="translate(1093.8 539.396)" fill="#737a83" stroke="#00122b" stroke-miterlimit="10" stroke-width="0.5"/>
    <rect id="z3-setor6" width="21.79" height="7.395" transform="translate(1106.223 539.396)" fill="#737a83" stroke="#00122b" stroke-miterlimit="10" stroke-width="0.5"/>
    <rect id="z3-setor5" width="21.789" height="7.395" transform="translate(1129.622 539.396)" fill="#737a83" stroke="#00122b" stroke-miterlimit="10" stroke-width="0.5"/>
    <rect id="z3-setor4" width="21.789" height="7.395" transform="translate(1153.021 539.396)" fill="#737a83" stroke="#00122b" stroke-miterlimit="10" stroke-width="0.5"/>
    <rect id="z3-setor3" width="21.789" height="7.395" transform="translate(1176.491 539.396)" fill="#737a83" stroke="#00122b" stroke-miterlimit="10" stroke-width="0.5"/>
    <rect id="z3-setor2" width="21.79" height="7.395" transform="translate(1200.036 539.396)" fill="#737a83" stroke="#00122b" stroke-miterlimit="10" stroke-width="0.5"/>
    <rect id="z3-setor1" width="10.626" height="7.395" transform="translate(1223.508 539.396)" fill="#737a83" stroke="#00122b" stroke-miterlimit="10" stroke-width="0.5"/>
    <rect id="Retângulo_109" data-name="Retângulo 109" width="7.666" height="6.203" transform="translate(1094.73 541.179)" fill="none"/>
    <text id="label-z3-setor7" transform="translate(1097.207 541.403)" fill="#fff" font-size="1" font-family="ArialMT, Arial"><tspan x="0" y="0">7</tspan></text>
    <rect id="Retângulo_110" data-name="Retângulo 110" width="8.03" height="6.385" transform="translate(1113.138 541.017)" fill="none"/>
    <text id="label-z3-setor6" transform="translate(1115.796 541.241)" fill="#fff" font-size="1" font-family="ArialMT, Arial"><tspan x="0" y="0">6</tspan></text>
    <rect id="Retângulo_111" data-name="Retângulo 111" width="8.393" height="7.112" transform="translate(1136.492 541.017)" fill="none"/>
    <text id="label-z3-setor5" transform="translate(1139.331 541.241)" fill="#fff" font-size="1" font-family="ArialMT, Arial"><tspan x="0" y="0">5</tspan></text>
    <rect id="Retângulo_112" data-name="Retângulo 112" width="8.756" height="8.021" transform="translate(1159.397 541.017)" fill="none"/>
    <text id="label-z3-setor4" transform="translate(1162.418 541.241)" fill="#fff" font-size="1" font-family="ArialMT, Arial"><tspan x="0" y="0">4</tspan></text>
    <rect id="Retângulo_113" data-name="Retângulo 113" width="10.302" height="7.658" transform="translate(1182.32 541.113)" fill="none"/>
    <text id="label-z3-setor3" transform="translate(1186.113 541.337)" fill="#fff" font-size="1" font-family="ArialMT, Arial"><tspan x="0" y="0">3</tspan></text>
    <rect id="Retângulo_114" data-name="Retângulo 114" width="14.941" height="8.021" transform="translate(1203.367 540.932)" fill="none"/>
    <text id="label-z3-setor2" transform="translate(1209.481 541.155)" fill="#fff" font-size="1" font-family="ArialMT, Arial"><tspan x="0" y="0">2</tspan></text>
    <rect id="Retângulo_115" data-name="Retângulo 115" width="6.575" height="7.476" transform="translate(1226.686 541.113)" fill="none"/>
    <text id="label-z3-setor1" transform="translate(1228.616 541.337)" fill="#fff" font-size="1" font-family="ArialMT, Arial"><tspan x="0" y="0">1</tspan></text>
    <path id="z4-setor7" d="M118.785,37.733V33.672h2.186V32.656h-2.186V28.746h2.186V25.7H110.539V37.744Z" transform="translate(983.401 499.659)" fill="#737a83" stroke="#00122b" stroke-miterlimit="10" stroke-width="0.5"/>
    <path id="z4-setor6" d="M150.025,35.715V31.3H152.4V25.7H130.8v3.046h2.186v3.909H130.8v1.016h2.186v4.062l19.421.011V35.715Z" transform="translate(975.501 499.659)" fill="#737a83" stroke="#00122b" stroke-miterlimit="10" stroke-width="0.5"/>
    <path id="z4-setor5" d="M171.37,35.715V31.3h-2.377V25.7H190.6v3.047h-2.184v3.909H190.6v1.016h-2.184v4.062l-19.421.011V35.715Z" transform="translate(960.606 499.66)" fill="#737a83" stroke="#00122b" stroke-miterlimit="10" stroke-width="0.5"/>
    <path id="z4-setor4" d="M229.257,28.746V25.7H207.746v3.047h2.185v3.909h-2.185v1.016h2.185v4.062l8.564,0h.013l8.563,0V33.671h2.186V32.655H227.07V28.746Z" transform="translate(945.493 499.66)" fill="#737a83" stroke="#00122b" stroke-miterlimit="10" stroke-width="0.5"/>
    <path id="z4-setor3" d="M265.414,35.714V31.3h2.377V25.7h-21.6v3.047h2.185v3.909h-2.185v1.016h2.185v4.062l19.42.011v-2.03Z" transform="translate(930.503 499.66)" fill="#737a83" stroke="#00122b" stroke-miterlimit="10" stroke-width="0.5"/>
    <path id="z4-setor2" d="M286.8,35.714V31.3h-2.377V25.7h21.607v3.047h-2.185v3.909h2.185v1.016h-2.185v4.062l-19.423.011v-2.03Z" transform="translate(915.592 499.66)" fill="#737a83" stroke="#00122b" stroke-miterlimit="10" stroke-width="0.5"/>
    <path id="z4-setor1" d="M325.123,37.733V33.671h-2.185V32.655h2.185V28.746h-2.185V25.7h10.43V37.744Z" transform="translate(900.571 499.66)" fill="#737a83" stroke="#00122b" stroke-miterlimit="10" stroke-width="0.5"/>
    <rect id="Retângulo_116" data-name="Retângulo 116" width="8.03" height="6.022" transform="translate(1094.541 529.382)" fill="none"/>
    <text id="label-z4-setor7" transform="translate(1097.199 529.606)" fill="#fff" font-size="1" font-family="ArialMT, Arial"><tspan x="0" y="0">7</tspan></text>
    <rect id="Retângulo_117" data-name="Retângulo 117" width="8.03" height="5.975" transform="translate(1113.068 529.2)" fill="none"/>
    <text id="label-z4-setor6" transform="translate(1115.725 529.424)" fill="#fff" font-size="1" font-family="ArialMT, Arial"><tspan x="0" y="0">6</tspan></text>
    <rect id="Retângulo_118" data-name="Retângulo 118" width="9.121" height="6.203" transform="translate(1135.895 529.292)" fill="none"/>
    <text id="label-z4-setor5" transform="translate(1139.098 529.516)" fill="#fff" font-size="1" font-family="ArialMT, Arial"><tspan x="0" y="0">5</tspan></text>
    <rect id="Retângulo_119" data-name="Retângulo 119" width="14.941" height="4.93" transform="translate(1156.366 529.4)" fill="none"/>
    <text id="label-z4-setor4" transform="translate(1162.479 529.624)" fill="#fff" font-size="1" font-family="ArialMT, Arial"><tspan x="0" y="0">4</tspan></text>
    <rect id="Retângulo_120" data-name="Retângulo 120" width="7.028" height="6.385" transform="translate(1184.094 529.382)" fill="none"/>
    <text id="label-z4-setor3" transform="translate(1186.251 529.606)" fill="#fff" font-size="1" font-family="ArialMT, Arial"><tspan x="0" y="0">3</tspan></text>
    <rect id="Retângulo_121" data-name="Retângulo 121" width="6.575" height="6.338" transform="translate(1207.648 529.018)" fill="none"/>
    <text id="label-z4-setor2" transform="translate(1209.578 529.243)" fill="#fff" font-size="1" font-family="ArialMT, Arial"><tspan x="0" y="0">2</tspan></text>
    <rect id="Retângulo_122" data-name="Retângulo 122" width="6.575" height="6.566" transform="translate(1226.737 529.219)" fill="none"/>
    <text id="label-z4-setor1" transform="translate(1228.668 529.443)" fill="#fff" font-size="1" font-family="ArialMT, Arial"><tspan x="0" y="0">1</tspan></text>
    <path id="z2-setor7" d="M118.874,76.045V71.9h2.194V64.783H110.539V78.531h10.528V76.045Z" transform="translate(983.401 484.418)" fill="#737a83" stroke="#00122b" stroke-miterlimit="10" stroke-width="0.5"/>
    <path id="z2-setor6" d="M152.365,71.9V64.783H130.8v7.1h2.277v4.164H130.8v2.488h21.57V76.045h-2.193V71.9Z" transform="translate(975.502 484.418)" fill="#737a83" stroke="#00122b" stroke-miterlimit="10" stroke-width="0.5"/>
    <path id="z2-setor5" d="M190.721,71.9V64.783H169.15v7.1h2.277v4.164H169.15v2.488h21.571V76.045h-2.194V71.9Z" transform="translate(960.544 484.418)" fill="#737a83" stroke="#00122b" stroke-miterlimit="10" stroke-width="0.5"/>
    <path id="z2-setor4" d="M229.077,71.9V64.783H207.508v7.1h2.275v4.163h-2.275v2.488h21.569V76.045h-2.194V71.9Z" transform="translate(945.586 484.418)" fill="#737a83" stroke="#00122b" stroke-miterlimit="10" stroke-width="0.5"/>
    <path id="z2-setor3" d="M267.674,71.9V64.783H246.1v7.1h2.276v4.163H246.1v2.488h21.57V76.045H265.48V71.9Z" transform="translate(930.534 484.418)" fill="#737a83" stroke="#00122b" stroke-miterlimit="10" stroke-width="0.5"/>
    <path id="z2-setor2" d="M306.029,71.9V64.783H284.458v7.1h2.277v4.163h-2.277v2.488h21.571V76.045h-2.194V71.9Z" transform="translate(915.577 484.418)" fill="#737a83" stroke="#00122b" stroke-miterlimit="10" stroke-width="0.5"/>
    <path id="z2-setor1" d="M325.128,76.045V71.9h-2.194V64.783h10.529V78.531H322.934V76.045Z" transform="translate(900.573 484.418)" fill="#737a83" stroke="#00122b" stroke-miterlimit="10" stroke-width="0.5"/>
    <rect id="Retângulo_123" data-name="Retângulo 123" width="10.526" height="10.264" transform="translate(1093.15 552.835)" fill="none"/>
    <text id="label-z2-setor7" transform="translate(1097.056 553.059)" fill="#fff" font-size="1" font-family="ArialMT, Arial"><tspan x="0" y="0">7</tspan></text>
    <rect id="Retângulo_124" data-name="Retângulo 124" width="10.526" height="10.264" transform="translate(1111.88 552.643)" fill="none"/>
    <text id="label-z2-setor6" transform="translate(1115.786 552.867)" fill="#fff" font-size="1" font-family="ArialMT, Arial"><tspan x="0" y="0">6</tspan></text>
    <rect id="Retângulo_125" data-name="Retângulo 125" width="10.526" height="10.264" transform="translate(1135.299 552.643)" fill="none"/>
    <text id="label-z2-setor5" transform="translate(1139.206 552.867)" fill="#fff" font-size="1" font-family="ArialMT, Arial"><tspan x="0" y="0">5</tspan></text>
    <rect id="Retângulo_126" data-name="Retângulo 126" width="10.527" height="10.264" transform="translate(1158.668 552.643)" fill="none"/>
    <text id="label-z2-setor4" transform="translate(1162.573 552.867)" fill="#fff" font-size="1" font-family="ArialMT, Arial"><tspan x="0" y="0">4</tspan></text>
    <rect id="Retângulo_127" data-name="Retângulo 127" width="9.962" height="10.264" transform="translate(1182.623 552.643)" fill="none"/>
    <text id="label-z2-setor3" transform="translate(1186.247 552.867)" fill="#fff" font-size="1" font-family="ArialMT, Arial"><tspan x="0" y="0">3</tspan></text>
    <rect id="Retângulo_128" data-name="Retângulo 128" width="10.526" height="10.264" transform="translate(1205.59 552.643)" fill="none"/>
    <text id="label-z2-setor2" transform="translate(1209.496 552.867)" fill="#fff" font-size="1" font-family="ArialMT, Arial"><tspan x="0" y="0">2</tspan></text>
    <rect id="Retângulo_129" data-name="Retângulo 129" width="10.527" height="10.264" transform="translate(1224.691 552.518)" fill="none"/>
    <text id="label-z2-setor1" transform="translate(1228.598 552.742)" fill="#fff" font-size="1" font-family="ArialMT, Arial"><tspan x="0" y="0">1</tspan></text>
    <rect id="Retângulo_130" data-name="Retângulo 130" width="14.94" height="14.568" transform="translate(1223.747 675.246)" fill="none"/>
    <text id="label-z1-setor7" transform="translate(1229.859 675.47)" fill="#fff" font-size="1" font-family="ArialMT, Arial"><tspan x="0" y="0">7</tspan></text>
    <rect id="Retângulo_131" data-name="Retângulo 131" width="14.941" height="14.569" transform="translate(1205.284 675.064)" fill="none"/>
    <text id="label-z1-setor6" transform="translate(1211.397 675.288)" fill="#fff" font-size="1" font-family="ArialMT, Arial"><tspan x="0" y="0">6</tspan></text>
    <rect id="Retângulo_132" data-name="Retângulo 132" width="14.94" height="14.569" transform="translate(1180.097 675.005)" fill="none"/>
    <text id="label-z1-setor5" transform="translate(1186.21 675.229)" fill="#fff" font-size="1" font-family="ArialMT, Arial"><tspan x="0" y="0">5</tspan></text>
    <rect id="Retângulo_133" data-name="Retângulo 133" width="14.94" height="14.569" transform="translate(1156.33 677.791)" fill="none"/>
    <text id="label-z1-setor4" transform="translate(1162.443 678.015)" fill="#fff" font-size="1" font-family="ArialMT, Arial"><tspan x="0" y="0">4</tspan></text>
    <rect id="Retângulo_134" data-name="Retângulo 134" width="28.851" height="14.568" transform="translate(1126.038 674.973)" fill="none"/>
    <text id="label-z1-setor3" transform="translate(1139.107 675.197)" fill="#fff" font-size="1" font-family="ArialMT, Arial"><tspan x="0" y="0">3</tspan></text>
    <rect id="Retângulo_135" data-name="Retângulo 135" width="14.94" height="14.568" transform="translate(1108.719 674.906)" fill="none"/>
    <text id="label-z1-setor2" transform="translate(1114.831 675.13)" fill="#fff" font-size="1" font-family="ArialMT, Arial"><tspan x="0" y="0">2</tspan></text>
    <rect id="Retângulo_136" data-name="Retângulo 136" width="14.94" height="14.569" transform="translate(1089.167 674.882)" fill="none"/>
    <text id="label-z1-setor1" transform="translate(1095.28 675.106)" fill="#fff" font-size="1" font-family="ArialMT, Arial"><tspan x="0" y="0">1</tspan></text>
    <rect id="Retângulo_137" data-name="Retângulo 137" width="9.408" height="9.172" transform="translate(1091.62 694.7)" fill="none"/>
    <text id="label-z15-setor1" transform="translate(1094.967 694.924)" fill="#fff" font-size="1" font-family="ArialMT, Arial"><tspan x="0" y="0">1</tspan></text>
    <rect id="Retângulo_138" data-name="Retângulo 138" width="9.407" height="9.172" transform="translate(1111.757 694.527)" fill="#737a83"/>
    <text id="label-z15-setor2" transform="translate(1115.104 694.751)" fill="#fff" font-size="1" font-family="ArialMT, Arial"><tspan x="0" y="0">2</tspan></text>
    <rect id="Retângulo_139" data-name="Retângulo 139" width="9.407" height="9.172" transform="translate(1135.749 694.527)" fill="none"/>
    <text id="label-z15-setor3" transform="translate(1139.096 694.751)" fill="#fff" font-size="1" font-family="ArialMT, Arial"><tspan x="0" y="0">3</tspan></text>
    <rect id="Retângulo_140" data-name="Retângulo 140" width="8.019" height="8.223" transform="translate(1068.084 655.868)" fill="#737a83"/>
    <text id="label-z6-setor5" transform="translate(1070.737 656.092)" fill="#fff" font-size="1" font-family="ArialMT, Arial"><tspan x="0" y="0">5</tspan></text>
    <rect id="Retângulo_141" data-name="Retângulo 141" width="8.019" height="8.224" transform="translate(1068.812 636.499)" fill="none"/>
    <text id="label-z6-setor4" transform="translate(1071.464 636.722)" fill="#fff" font-size="1" font-family="ArialMT, Arial"><tspan x="0" y="0">4</tspan></text>
    <rect id="Retângulo_142" data-name="Retângulo 142" width="11.38" height="8.579" transform="translate(1067.04 613.227)" fill="none"/>
    <text id="label-z6-setor3" transform="translate(1071.373 613.451)" fill="#fff" font-size="1" font-family="ArialMT, Arial"><tspan x="0" y="0">3</tspan></text>
    <rect id="Retângulo_143" data-name="Retângulo 143" width="8.019" height="8.224" transform="translate(1068.539 590.064)" fill="#737a83"/>
    <text id="label-z6-setor2" transform="translate(1071.191 590.288)" fill="#fff" font-size="1" font-family="ArialMT, Arial"><tspan x="0" y="0">2</tspan></text>
    <rect id="Retângulo_144" data-name="Retângulo 144" width="8.019" height="8.223" transform="translate(1068.539 570.581)" fill="#737a83"/>
    <text id="label-z6-setor1" transform="translate(1071.191 570.805)" fill="#fff" font-size="1" font-family="ArialMT, Arial"><tspan x="0" y="0">1</tspan></text>
    <rect id="Retângulo_145" data-name="Retângulo 145" width="8.179" height="8.387" transform="translate(1279.573 571.03)" fill="none"/>
    <text id="label-z5-setor5" transform="translate(1282.305 571.255)" fill="#fff" font-size="1" font-family="ArialMT, Arial"><tspan x="0" y="0">5</tspan></text>
    <rect id="Retângulo_146" data-name="Retângulo 146" width="8.082" height="8.287" transform="translate(1280.118 589.498)" fill="none"/>
    <text id="label-z5-setor4" transform="translate(1282.802 589.722)" fill="#fff" font-size="1" font-family="ArialMT, Arial"><tspan x="0" y="0">4</tspan></text>
    <rect id="Retângulo_147" data-name="Retângulo 147" width="8.194" height="10.093" transform="translate(1279.929 611.788)" fill="none"/>
    <text id="label-z5-setor3" transform="translate(1282.669 612.012)" fill="#fff" font-size="1" font-family="ArialMT, Arial"><tspan x="0" y="0">3</tspan></text>
    <rect id="Retângulo_148" data-name="Retângulo 148" width="8.659" height="8.88" transform="translate(1279.3 635.313)" fill="none"/>
    <text id="label-z5-setor2" transform="translate(1282.272 635.537)" fill="#fff" font-size="1" font-family="ArialMT, Arial"><tspan x="0" y="0">2</tspan></text>
    <rect id="Retângulo_149" data-name="Retângulo 149" width="8.927" height="9.155" transform="translate(1279.839 655.289)" fill="none"/>
    <text id="label-z5-setor1" transform="translate(1282.946 655.513)" fill="#fff" font-size="1" font-family="ArialMT, Arial"><tspan x="0" y="0">1</tspan></text>
    <rect id="Retângulo_150" data-name="Retângulo 150" width="9.648" height="9.893" transform="translate(1251.671 570.38)" fill="none"/>
    <text id="label-z16-setor5" transform="translate(1255.138 570.604)" fill="#fff" font-size="1" font-family="ArialMT, Arial"><tspan x="0" y="0">5</tspan></text>
    <rect id="Retângulo_151" data-name="Retângulo 151" width="9.648" height="9.895" transform="translate(1251.757 588.665)" fill="none"/>
    <text id="label-z16-setor4" transform="translate(1255.224 588.889)" fill="#fff" font-size="1" font-family="ArialMT, Arial"><tspan x="0" y="0">4</tspan></text>
    <rect id="Retângulo_152" data-name="Retângulo 152" width="12.864" height="9.698" transform="translate(1249.89 612.113)" fill="none"/>
    <text id="label-z16-setor3" transform="translate(1254.965 612.336)" fill="#fff" font-size="1" font-family="ArialMT, Arial"><tspan x="0" y="0">3</tspan></text>
    <rect id="Retângulo_153" data-name="Retângulo 153" width="9.647" height="9.894" transform="translate(1251.849 635.496)" fill="none"/>
    <text id="label-z16-setor2" transform="translate(1255.315 635.72)" fill="#fff" font-size="1" font-family="ArialMT, Arial"><tspan x="0" y="0">2</tspan></text>
    <rect id="Retângulo_154" data-name="Retângulo 154" width="9.648" height="9.894" transform="translate(1251.667 655.026)" fill="none"/>
    <text id="label-z16-setor1" transform="translate(1255.133 655.25)" fill="#fff" font-size="1" font-family="ArialMT, Arial"><tspan x="0" y="0">1</tspan></text>
  </g>
</svg>
