<?xml version="1.0" encoding="utf-8"?>
<!-- Generator: Adobe Illustrator 25.2.0, SVG Export Plug-In . SVG Version: 6.00 Build 0)  -->
<svg version="1.1" id="Camada_1" xmlns="http://www.w3.org/2000/svg" xmlns:xlink="http://www.w3.org/1999/xlink" x="0px" y="0px"
	 viewBox="0 0 32 32" style="enable-background:new 0 0 32 32;" xml:space="preserve">
<style type="text/css">
	.st0{clip-path:url(#SVGID_2_);}
	.st1{fill-rule:evenodd;clip-rule:evenodd;fill:#707070;}
	.st2{fill:#707070;}
</style>
<g>
	<defs>
		<rect id="SVGID_1_" width="32" height="32"/>
	</defs>
	<clipPath id="SVGID_2_">
		<use xlink:href="#SVGID_1_"  style="overflow:visible;"/>
	</clipPath>
	<g class="st0">
		<path class="st1" d="M17.6,0.5c1.5,1.4,4.1,3.4,8.2,4.9c2.5,0.9,4,3.4,3.7,6c-0.3,3-0.9,7-1.9,10.5c-0.7,2.3-2.1,4.3-4.2,5.6
			c-1.8,1.2-4.2,2.7-5.8,3.7c-1.1,0.7-2.4,0.7-3.5,0c-1.6-1-3.9-2.5-5.8-3.7c-2-1.3-3.5-3.3-4.2-5.6c-1-3.5-1.6-7.5-1.9-10.5
			C2,8.9,3.6,6.4,6,5.4c4.1-1.5,6.7-3.5,8.2-4.9C15.2-0.4,16.6-0.4,17.6,0.5z M16,29.4L16,29.4c0,0-0.1,0-0.2,0c0,0-0.1,0-0.2-0.1
			c-1.6-1.1-4-2.6-5.8-3.7C9,25,8.3,24.3,7.7,23.4c-0.5-0.7-0.8-1.4-1-2.2c-0.5-1.8-0.9-3.8-1.2-5.6h0.1c-0.3-1.6-0.4-3.1-0.6-4.3
			C4.8,9.9,5.7,8.5,7,8c4.4-1.7,7.3-3.8,9-5.4l0,0l0,0v0c1.7,1.5,4.5,3.7,9,5.4c1.4,0.5,2.2,1.9,2.1,3.4c-0.3,2.7-0.8,6.6-1.8,10.1
			c-0.5,1.7-1.6,3.2-3.1,4.2c-1.8,1.2-4.1,2.7-5.8,3.7C16.2,29.4,16.1,29.4,16,29.4z"/>
		<path class="st2" d="M19,16.6h-2.4V19h-1.2v-2.4H13v-1.2h2.4V13h1.2v2.4H19V16.6z M16,10c-0.8,0-1.6,0.2-2.3,0.5
			c-0.7,0.3-1.4,0.7-1.9,1.3C10.6,12.9,10,14.4,10,16s0.6,3.1,1.8,4.2c0.6,0.6,1.2,1,1.9,1.3c0.7,0.3,1.5,0.5,2.3,0.5
			c1.6,0,3.1-0.6,4.2-1.8c1.1-1.1,1.8-2.7,1.8-4.2c0-0.8-0.2-1.6-0.5-2.3c-0.3-0.7-0.7-1.4-1.3-1.9c-0.6-0.6-1.2-1-1.9-1.3
			C17.6,10.2,16.8,10,16,10L16,10z"/>
	</g>
</g>
</svg>
