<?xml version="1.0" encoding="utf-8"?>
<!-- Generator: Adobe Illustrator 25.2.1, SVG Export Plug-In . SVG Version: 6.00 Build 0)  -->
<svg version="1.1" id="Camada_1" xmlns="http://www.w3.org/2000/svg" xmlns:xlink="http://www.w3.org/1999/xlink" x="0px" y="0px"
	 viewBox="0 0 240 240" style="enable-background:new 0 0 240 240;" xml:space="preserve">
<style type="text/css">
	.st0{fill:#737A83;}
</style>
<g id="Grupo_431" transform="translate(-3746.464 -4668.076)">
	<path id="Icon_awesome-user-plus" class="st0" d="M3966.2,4772.3h-21v-21c0-2.9-2.4-5.2-5.3-5.3h-10.5c-2.9,0-5.2,2.4-5.3,5.3v21
		h-21c-2.9,0-5.2,2.4-5.3,5.3v10.5c0,2.9,2.4,5.2,5.3,5.3h21v21c0,2.9,2.4,5.2,5.3,5.3h10.5c2.9,0,5.2-2.4,5.3-5.3v-21h21
		c2.9,0,5.2-2.4,5.3-5.3v-10.5C3971.5,4774.7,3969.1,4772.3,3966.2,4772.3z M3835,4788.1c23.2,0,42-18.8,42-42c0-23.2-18.8-42-42-42
		c-23.2,0-42,18.8-42,42l0,0C3793,4769.3,3811.8,4788.1,3835,4788.1C3835,4788.1,3835,4788.1,3835,4788.1z M3864.4,4798.6h-5.5
		c-15.2,7-32.7,7-47.8,0h-5.5c-24.4,0-44.1,19.7-44.1,44.1v13.6c0,8.7,7.1,15.7,15.7,15.7h115.5c8.7,0,15.7-7.1,15.7-15.7v-13.6
		C3908.5,4818.3,3888.7,4798.6,3864.4,4798.6L3864.4,4798.6z"/>
</g>
</svg>
