<?xml version="1.0" encoding="utf-8"?>
<!-- Generator: Adobe Illustrator 25.2.1, SVG Export Plug-In . SVG Version: 6.00 Build 0)  -->
<svg version="1.1" id="Camada_1" xmlns="http://www.w3.org/2000/svg" xmlns:xlink="http://www.w3.org/1999/xlink" x="0px" y="0px"
	 viewBox="0 0 32 32" style="enable-background:new 0 0 32 32;" xml:space="preserve">
<style type="text/css">
	.st0{fill:#737A83;}
</style>
<g id="Icon_feather-plus" transform="translate(1.5 1.5)">
	<g id="Caminho_216">
		<path class="st0" d="M14.5,28.5c-0.7,0-1.4-0.6-1.4-1.4V1.9c0-0.7,0.6-1.4,1.4-1.4c0.7,0,1.4,0.6,1.4,1.4v25.3
			C15.9,27.9,15.2,28.5,14.5,28.5z"/>
	</g>
	<g id="Caminho_217">
		<path class="st0" d="M27.1,15.9H1.9c-0.7,0-1.4-0.6-1.4-1.4c0-0.7,0.6-1.4,1.4-1.4h25.3c0.7,0,1.4,0.6,1.4,1.4
			C28.5,15.2,27.9,15.9,27.1,15.9z"/>
	</g>
</g>
</svg>
