<?xml version="1.0" encoding="utf-8"?>
<!-- Generator: Adobe Illustrator 25.2.1, SVG Export Plug-In . SVG Version: 6.00 Build 0)  -->
<svg version="1.1" id="Camada_1" xmlns="http://www.w3.org/2000/svg" xmlns:xlink="http://www.w3.org/1999/xlink" x="0px" y="0px"
	 viewBox="0 0 32 32" style="enable-background:new 0 0 32 32;" xml:space="preserve">
<style type="text/css">
	.st0{fill:none;stroke:#263F62;stroke-width:3;stroke-linecap:round;stroke-linejoin:round;}
	.st1{fill:none;stroke:#FFFFFF;}
	.st2{fill:#747A84;}
	.st3{fill:#737A83;}
	.st4{fill:none;stroke:#737A83;}
	.st5{fill:#F78946;stroke:#FFFFFF;stroke-linecap:round;stroke-linejoin:round;}
	.st6{fill:#F78946;stroke:#FFFFFF;stroke-width:2;stroke-linecap:round;stroke-linejoin:round;}
</style>
<path id="Icon_metro-calendar" class="st2" d="M11.6,12.5h3.5V16h-3.5V12.5z M16.9,12.5h3.5V16h-3.5V12.5z M22.1,12.5h3.5V16h-3.5
	V12.5z M6.4,23h3.5v3.5H6.4V23z M11.6,23h3.5v3.5h-3.5V23z M16.9,23h3.5v3.5h-3.5V23z M11.6,17.8h3.5v3.5h-3.5V17.8z M16.9,17.8h3.5
	v3.5h-3.5V17.8z M22.1,17.8h3.5v3.5h-3.5V17.8z M6.4,17.8h3.5v3.5H6.4L6.4,17.8z M25.6,2v1.8h-3.5V2H9.9v1.8H6.4V2H2.9v28h26.3V2
	H25.6L25.6,2z M27.4,28.3H4.6V9h22.7L27.4,28.3z"/>
</svg>
