<?xml version="1.0" encoding="utf-8"?>
<!-- Generator: Adobe Illustrator 25.2.1, SVG Export Plug-In . SVG Version: 6.00 Build 0)  -->
<svg version="1.1" id="Camada_1" xmlns="http://www.w3.org/2000/svg" xmlns:xlink="http://www.w3.org/1999/xlink" x="0px" y="0px"
	 viewBox="0 0 32 32" style="enable-background:new 0 0 32 32;" xml:space="preserve">
<style type="text/css">
	.st0{fill-rule:evenodd;clip-rule:evenodd;fill:#737A83;}
	.st1{fill:#737A83;}
</style>
<path id="andebol" class="st0" d="M16,25.4L16,25.4c-1.1,0.3-2.1,0.5-3.2,0.8c0,0.3,0,0.6-0.1,0.9c0,0.1-0.1,0.1,0,0.2
	c2,0.6,4.1,0.6,6.1,0.1c0-0.1,0-0.3,0-0.4c0-0.2,0-0.4,0-0.6C17.9,26,17,25.7,16,25.4L16,25.4z M24.2,23.6L24.2,23.6
	c-1.3,0.9-2.6,1.8-3.9,2.7c0,0.2,0,0.4,0,0.7c1.7-0.7,3.2-1.7,4.4-3.1C24.6,23.7,24.4,23.6,24.2,23.6L24.2,23.6z M7.3,23.1L7.3,23.1
	c-0.2,0.1-0.3,0.2-0.4,0.3c1.2,1.5,2.7,2.6,4.5,3.4l0-0.5c-0.7-0.6-1.5-1.2-2.3-1.8C8.5,24,7.9,23.5,7.3,23.1z M11.5,18.4l-0.2-0.2
	c-0.5,0.1-1.1,0.3-1.6,0.4c-0.4,0.1-0.8,0.2-1.2,0.4c-0.1,0.6-0.1,1.1-0.1,1.7c-0.1,0.5-0.1,0.9,0,1.4C9.6,23,11,24,12.3,25
	c0.8-0.2,1.6-0.4,2.4-0.6c0.2-0.1,0.5-0.1,0.7-0.2c0-0.7,0.1-1.3,0-2c0-0.3,0-0.7,0-1C14.1,20.2,12.8,19.3,11.5,18.4L11.5,18.4z
	 M20.8,18.1c0,0-0.1,0-0.1,0c-1.3,1-2.6,2-3.9,3c-0.1,0.7,0,1.5,0,2.2c0,0.2,0,0.4,0,0.6c0.5,0.2,1,0.4,1.5,0.5
	c0.4,0.1,0.8,0.3,1.3,0.3c1-0.6,2.1-1.3,3.1-2c0.2-0.2,0.4-0.2,0.5-0.5c0.1-0.9,0.1-1.9,0.2-2.9c0-0.2,0-0.4,0.1-0.6
	c0-0.1,0.1-0.2,0-0.2c-0.4-0.1-0.8-0.3-1.2-0.4C21.8,18.4,21.3,18.2,20.8,18.1L20.8,18.1z M26.5,16.3L26.5,16.3
	c-0.2,0.2-0.4,0.5-0.6,0.9c-0.3,0.5-0.6,1-0.9,1.5c-0.2,1.2-0.4,2.3-0.5,3.5c0.3,0.2,0.7,0.3,1.1,0.3c1-1.4,1.6-3,1.9-4.7
	c0,0-0.1,0-0.1-0.1C27.2,17.3,26.9,16.8,26.5,16.3L26.5,16.3z M5.3,16.3L5.3,16.3c-0.4,0.1-0.7,0.3-1.1,0.6C4.4,18.7,5,20.4,5.9,22
	C6,22,6,22.2,6,22.1c0.3-0.1,0.6-0.3,0.9-0.5L7,20.4c0.1-0.5,0.1-1,0.1-1.5C6.5,18,5.9,17.2,5.3,16.3L5.3,16.3z M13.9,12.9
	c-0.1,0-0.1,0-0.2,0c-0.5,1.4-0.9,2.8-1.4,4.1c0,0,0,0.1,0,0.1c1.2,0.9,2.4,1.8,3.6,2.7c0.1,0,0.1,0.1,0.2,0.1
	c1.2-0.9,2.4-1.9,3.6-2.8c-0.3-1.2-0.7-2.3-1.1-3.5c-0.1-0.2-0.1-0.5-0.3-0.7C16.8,12.9,15.3,13,13.9,12.9z M21.6,10
	c0,0-0.1,0-0.1,0c-0.4,0.4-0.8,0.9-1.1,1.4c-0.2,0.4-0.6,0.7-0.7,1.1c0.3,1.1,0.7,2.2,1.1,3.2c0.1,0.3,0.2,0.6,0.3,0.9
	c1,0.4,2,0.6,3,0.9c0.2-0.3,0.4-0.6,0.5-0.8c0.5-0.7,0.8-1.5,1.1-2.3c-0.4-1.1-0.8-2.2-1.2-3.3c-0.6-0.2-1.2-0.5-1.8-0.7
	C22.3,10.3,21.9,10.1,21.6,10L21.6,10z M10.7,9.9c-0.4,0.1-0.9,0.2-1.3,0.3c-0.6,0.2-1.1,0.3-1.7,0.5c-0.5,1.2-0.9,2.4-1.3,3.6
	c-0.1,0.2-0.1,0.3-0.2,0.5c0.3,0.5,0.6,1,0.9,1.5c0.2,0.4,0.5,0.8,0.9,1.1c0.8-0.2,1.5-0.4,2.3-0.6c0.3,0,0.5-0.2,0.6-0.4
	c0.5-1.4,1-2.8,1.4-4.3l-1.3-1.9C11,10.3,10.9,10,10.7,9.9L10.7,9.9z M26,9.8L26,9.8c-0.1,0.2-0.2,0.5-0.3,0.8
	c0.3,0.8,0.6,1.6,0.8,2.4c0.2,0.6,0.4,1.3,0.7,1.9c0.2,0.3,0.4,0.5,0.6,0.8C27.7,13.6,27.1,11.5,26,9.8L26,9.8z M6.1,9.6
	c-1,1.7-1.7,3.5-1.8,5.5c0.1,0,0.2-0.1,0.2-0.1c0.1,0,0.2-0.1,0.2-0.2c0.6-1.5,1.1-3.1,1.6-4.6c0-0.1,0.1-0.2,0.1-0.3
	C6.3,9.9,6.2,9.7,6.1,9.6L6.1,9.6z M14.3,6.4l-0.3,0c-0.4,0.5-0.9,1-1.2,1.5c-0.3,0.4-0.6,0.8-0.9,1.2c0.2,0.3,0.3,0.6,0.5,0.9
	c0.3,0.5,0.6,1,1,1.4c0.1,0.1,0.4,0.2,0.6,0.2c1.5,0,3,0,4.5,0c0.4-0.5,0.9-1.1,1.3-1.7c0.1-0.2,0.4-0.4,0.4-0.6
	c-0.6-0.9-1.2-1.8-1.8-2.7C17.1,6.5,15.7,6.4,14.3,6.4L14.3,6.4z M20.3,5L20.3,5c-0.2,0.3-0.4,0.6-0.5,0.9L20.5,7
	c0.3,0.5,0.7,1,1.1,1.4c0.9,0.5,1.9,0.9,2.9,1.2c0.2-0.5,0.3-1,0.3-1.5C23.6,6.8,22,5.7,20.3,5L20.3,5z M12.3,4.8L12.3,4.8L12.3,4.8
	c-2,0.7-3.8,1.9-5.2,3.5c0.2,0.3,0.5,0.7,0.8,1C8.4,9.1,9,8.9,9.5,8.8c0.4-0.1,0.9-0.2,1.2-0.5c0.7-0.8,1.3-1.7,1.9-2.5
	C12.6,5.5,12.5,5.1,12.3,4.8z M16,4.2c-0.7,0-1.4,0.1-2.1,0.2C14,4.6,14.1,4.8,14.2,5C15.6,5,17,5.1,18.5,5.1
	c0.1-0.2,0.2-0.4,0.3-0.6C17.9,4.3,17,4.2,16,4.2L16,4.2z M15.9,2c0.6,0,1.2,0,1.8,0.1C25.3,3,30.8,10,29.9,17.7
	C29,25.3,22,30.8,14.3,29.9S1.2,22,2.1,14.3C2.9,7.4,8.8,2.1,15.9,2z"/>
</svg>
