<?xml version="1.0" encoding="utf-8"?>
<!-- Generator: Adobe Illustrator 25.2.1, SVG Export Plug-In . SVG Version: 6.00 Build 0)  -->
<svg version="1.1" id="Camada_1" xmlns="http://www.w3.org/2000/svg" xmlns:xlink="http://www.w3.org/1999/xlink" x="0px" y="0px"
	 viewBox="0 0 32 32" style="enable-background:new 0 0 32 32;" xml:space="preserve">
<style type="text/css">
	.st0{fill:#ACC2D3;}
	.st1{fill:#FFFFFF;}
	.st2{fill:none;stroke:#FFFFFF;}
	.st3{fill:none;stroke:#737A83;}
	.st4{fill:#737A83;}
	.st5{fill:#263F62;}
	.st6{fill:none;stroke:#263F62;stroke-width:3;stroke-linecap:round;stroke-linejoin:round;}
	.st7{fill:none;stroke:#737A83;stroke-linecap:round;stroke-linejoin:round;}
	.st8{fill:#FFFFFF;stroke:#737A83;}
	.st9{fill:#747A84;}
	.st10{fill:#F78946;stroke:#FFFFFF;stroke-linecap:round;stroke-linejoin:round;}
	.st11{fill:#F78946;stroke:#FFFFFF;stroke-width:2;stroke-linecap:round;stroke-linejoin:round;}
</style>
<path id="Icon_material-android" class="st5" d="M9,23c0,0.6,0.5,1.2,1.2,1.2h1.2v4.1c0,1,0.8,1.7,1.7,1.7s1.7-0.8,1.7-1.7v-4.1h2.3
	v4.1c0,1,0.8,1.8,1.8,1.8s1.8-0.8,1.8-1.8v-4.1h1.2c0.6,0,1.2-0.5,1.2-1.2V11.3H9V23z M6.1,11.3c-1,0-1.7,0.8-1.7,1.7c0,0,0,0,0,0
	v8.2c0,1,0.8,1.8,1.8,1.8s1.8-0.8,1.8-1.8v-8.2C7.8,12.1,7.1,11.3,6.1,11.3C6.1,11.3,6.1,11.3,6.1,11.3z M25.9,11.3
	c-1,0-1.7,0.8-1.7,1.7c0,0,0,0,0,0v8.2c0,1,0.8,1.8,1.8,1.8s1.8-0.8,1.8-1.8l0,0v-8.2C27.7,12.1,26.9,11.3,25.9,11.3
	C25.9,11.3,25.9,11.3,25.9,11.3z M20.1,4.5L21.6,3c0.2-0.2,0.2-0.6,0-0.8c0,0,0,0,0,0c-0.2-0.2-0.6-0.2-0.8,0c0,0,0,0,0,0l-1.7,1.7
	c-1-0.5-2-0.7-3.1-0.7c-1.1,0-2.1,0.3-3.1,0.7l-1.7-1.7c-0.2-0.2-0.6-0.2-0.8,0c0,0,0,0,0,0c-0.2,0.2-0.2,0.6,0,0.8c0,0,0,0,0,0
	l1.5,1.5C10.1,5.8,9,7.9,9,10.2h14C23,7.9,21.9,5.8,20.1,4.5z M13.7,7.8h-1.2V6.7h1.2V7.8z M19.5,7.8h-1.2V6.7h1.2L19.5,7.8z"/>
</svg>
