<?xml version="1.0" encoding="utf-8"?>
<!-- Generator: Adobe Illustrator 25.2.1, SVG Export Plug-In . SVG Version: 6.00 Build 0)  -->
<svg version="1.1" id="Camada_1" xmlns="http://www.w3.org/2000/svg" xmlns:xlink="http://www.w3.org/1999/xlink" x="0px" y="0px"
	 viewBox="0 0 240 240" style="enable-background:new 0 0 240 240;" xml:space="preserve">
<style type="text/css">
	.st0{fill:#737A83;}
</style>
<g id="Icon_feather-arrow-right-circle" transform="translate(1.5 1.5)">
	<g id="Caminho_317">
		<path class="st0" d="M118.5,18.5c-55.1,0-100,44.9-100,100c0,55.1,44.9,100,100,100c55.1,0,100-44.9,100-100
			C218.5,63.4,173.6,18.5,118.5,18.5z M118.5,200.3c-45.1,0-81.8-36.7-81.8-81.8c0-45.1,36.7-81.8,81.8-81.8
			c45.1,0,81.8,36.7,81.8,81.8C200.3,163.6,163.6,200.3,118.5,200.3z"/>
	</g>
	<g id="Caminho_318">
		<path class="st0" d="M163.9,118.5c0,0.3,0,0.6,0,0.9c0,0.3-0.1,0.6-0.1,0.9c0,0.2-0.1,0.5-0.2,0.7c0,0.1-0.1,0.2-0.1,0.3
			c0,0,0,0.1,0,0.1c-0.1,0.2-0.1,0.4-0.2,0.6c-0.1,0.2-0.1,0.3-0.2,0.5c-0.2,0.4-0.4,0.8-0.6,1.1c-0.1,0.2-0.3,0.4-0.4,0.6
			c-0.2,0.3-0.5,0.6-0.7,0.8l-36.4,36.4c-1.8,1.8-4.1,2.7-6.4,2.7s-4.7-0.9-6.4-2.7c-3.6-3.6-3.6-9.3,0-12.9l20.8-20.8H82.1
			c-5,0-9.1-4.1-9.1-9.1c0-5,4.1-9.1,9.1-9.1h50.8l-20.8-20.8c-3.6-3.5-3.6-9.3,0-12.9c3.5-3.5,9.3-3.5,12.8,0l36.1,36.1
			c0.1,0,0.1,0.1,0.2,0.1l0.2,0.2c0.2,0.2,0.4,0.4,0.6,0.6c0,0,0,0,0.1,0.1c0.2,0.2,0.4,0.5,0.5,0.7c0.2,0.3,0.3,0.5,0.4,0.8
			c0,0,0,0,0,0.1c0.1,0.3,0.3,0.5,0.3,0.8c0.1,0.2,0.2,0.5,0.3,0.7c0,0,0,0,0,0c0,0.1,0.1,0.2,0.1,0.3c0.1,0.2,0.1,0.5,0.2,0.7
			c0.1,0.3,0.1,0.6,0.1,0.9C163.9,117.9,163.9,118.2,163.9,118.5z"/>
	</g>
</g>
</svg>
