<?xml version="1.0" encoding="utf-8"?>
<!-- Generator: Adobe Illustrator 25.2.1, SVG Export Plug-In . SVG Version: 6.00 Build 0)  -->
<svg version="1.1" id="Camada_1" xmlns="http://www.w3.org/2000/svg" xmlns:xlink="http://www.w3.org/1999/xlink" x="0px" y="0px"
	 viewBox="0 0 240 240" style="enable-background:new 0 0 240 240;" xml:space="preserve">
<style type="text/css">
	.st0{fill:#737A83;}
</style>
<g id="Grupo_953" transform="translate(-278 -2412.581)">
	<g id="Icon_awesome-bell">
		<path class="st0" d="M449.8,2573.5l-1.3-1.4c-3-3.2-6.7-7.1-9.9-13.3c-0.5-1-1-2-1.5-3.1c-0.4-1-0.8-2-1.2-3.1
			c-2.3-0.2-4.5-0.5-6.7-1c0.4,1.1,0.7,2.2,1.1,3.3c0.4,1.1,0.9,2.2,1.3,3.3c3.9,9,8.8,14.2,12.5,18.1l1.3,1.4
			c1.4,1.5,2.1,3.4,2.1,5.4c0,4.4-3.6,8-8,8c0,0,0,0,0,0H307.3c-2.1,0-4.1-0.8-5.6-2.3c-1.5-1.5-2.4-3.5-2.4-5.7
			c0-2,0.7-3.9,2.2-5.4l1.3-1.4c7-7.3,18.6-19.6,18.6-53.9c0-24.6,17.5-45.8,41.6-50.5l2.5-0.5v-9.7c0-4.4,3.6-8,8-8
			c4.4,0,8,3.6,8,8v9.7l2.5,0.5c0,0,0.1,0,0.1,0c1,0.2,2,0.4,3,0.7c1,0.3,2,0.5,3,0.9c0.9-1.9,1.8-3.7,2.9-5.4c-1-0.3-2-0.7-3-0.9
			c-0.8-0.2-1.6-0.4-2.4-0.6v-4.7c0-7.7-6.3-14-14-14c-7.8,0-14,6.3-14,14v4.7c-25.7,6.1-44.1,29.3-44.1,55.9
			c0,31.8-10.2,42.6-16.9,49.7l-1.3,1.4c-2.5,2.6-3.8,6-3.8,9.6c0,3.8,1.5,7.3,4.1,10c2.7,2.7,6.2,4.1,9.9,4.1c0,0,0,0,0,0h132.3
			c3.8,0,7.3-1.5,9.9-4.1c2.7-2.7,4.1-6.2,4.1-9.9C453.6,2579.5,452.3,2576.1,449.8,2573.5z M348.4,2602.1v3
			c0,13.8,11.3,25.1,25.1,25.1c13.8,0,25.1-11.3,25.1-25.1v-3H348.4z M373.4,2624.2c-9.5,0-17.3-6.9-18.8-16h37.5
			C390.7,2617.2,382.9,2624.2,373.4,2624.2z"/>
	</g>
	<g id="Icon_feather-alert-circle" transform="translate(307.223 2413.581)">
		<g id="Caminho_68">
			<path class="st0" d="M138,106.1c-0.1-0.3-0.1-0.6-0.2-0.9c-0.1-0.3-0.3-0.5-0.4-0.8c-0.1-0.2-0.4-0.5-0.6-0.7
				c-0.2-0.2-0.4-0.4-0.7-0.5c-0.3-0.2-0.5-0.3-0.8-0.4c-0.3-0.1-0.6-0.2-0.9-0.3c-0.6-0.1-1.2-0.1-1.8,0c-0.3,0.1-0.6,0.2-0.9,0.3
				c-0.3,0.1-0.5,0.2-0.8,0.4c-0.2,0.2-0.5,0.3-0.7,0.5c-0.2,0.2-0.4,0.4-0.6,0.7c-0.2,0.2-0.3,0.5-0.4,0.8
				c-0.1,0.3-0.2,0.6-0.3,0.9c-0.1,0.3-0.1,0.6-0.1,0.9c0,0.3,0,0.6,0.1,0.9c0.1,0.3,0.1,0.6,0.3,0.9c0.1,0.3,0.2,0.5,0.4,0.8
				c0.2,0.2,0.3,0.4,0.6,0.7c0.8,0.9,2,1.3,3.2,1.3c0.3,0,0.6,0,0.9-0.1c0.3-0.1,0.6-0.2,0.9-0.3c0.3-0.1,0.5-0.3,0.8-0.4
				c0.2-0.2,0.5-0.4,0.7-0.6c0.2-0.2,0.4-0.4,0.6-0.7c0.2-0.3,0.3-0.5,0.4-0.8c0.1-0.3,0.2-0.6,0.2-0.9c0.1-0.3,0.1-0.6,0.1-0.9
				C138.1,106.7,138.1,106.4,138,106.1z M138,106.1c-0.1-0.3-0.1-0.6-0.2-0.9c-0.1-0.3-0.3-0.5-0.4-0.8c-0.1-0.2-0.4-0.5-0.6-0.7
				c-0.2-0.2-0.4-0.4-0.7-0.5c-0.3-0.2-0.5-0.3-0.8-0.4c-0.3-0.1-0.6-0.2-0.9-0.3c-0.6-0.1-1.2-0.1-1.8,0c-0.3,0.1-0.6,0.2-0.9,0.3
				c-0.3,0.1-0.5,0.2-0.8,0.4c-0.2,0.2-0.5,0.3-0.7,0.5c-0.2,0.2-0.4,0.4-0.6,0.7c-0.2,0.2-0.3,0.5-0.4,0.8
				c-0.1,0.3-0.2,0.6-0.3,0.9c-0.1,0.3-0.1,0.6-0.1,0.9c0,0.3,0,0.6,0.1,0.9c0.1,0.3,0.1,0.6,0.3,0.9c0.1,0.3,0.2,0.5,0.4,0.8
				c0.2,0.2,0.3,0.4,0.6,0.7c0.8,0.9,2,1.3,3.2,1.3c0.3,0,0.6,0,0.9-0.1c0.3-0.1,0.6-0.2,0.9-0.3c0.3-0.1,0.5-0.3,0.8-0.4
				c0.2-0.2,0.5-0.4,0.7-0.6c0.2-0.2,0.4-0.4,0.6-0.7c0.2-0.3,0.3-0.5,0.4-0.8c0.1-0.3,0.2-0.6,0.2-0.9c0.1-0.3,0.1-0.6,0.1-0.9
				C138.1,106.7,138.1,106.4,138,106.1z M138,106.1c-0.1-0.3-0.1-0.6-0.2-0.9c-0.1-0.3-0.3-0.5-0.4-0.8c-0.1-0.2-0.4-0.5-0.6-0.7
				c-0.2-0.2-0.4-0.4-0.7-0.5c-0.3-0.2-0.5-0.3-0.8-0.4c-0.3-0.1-0.6-0.2-0.9-0.3c-0.6-0.1-1.2-0.1-1.8,0c-0.3,0.1-0.6,0.2-0.9,0.3
				c-0.3,0.1-0.5,0.2-0.8,0.4c-0.2,0.2-0.5,0.3-0.7,0.5c-0.2,0.2-0.4,0.4-0.6,0.7c-0.2,0.2-0.3,0.5-0.4,0.8
				c-0.1,0.3-0.2,0.6-0.3,0.9c-0.1,0.3-0.1,0.6-0.1,0.9c0,0.3,0,0.6,0.1,0.9c0.1,0.3,0.1,0.6,0.3,0.9c0.1,0.3,0.2,0.5,0.4,0.8
				c0.2,0.2,0.3,0.4,0.6,0.7c0.8,0.9,2,1.3,3.2,1.3c0.3,0,0.6,0,0.9-0.1c0.3-0.1,0.6-0.2,0.9-0.3c0.3-0.1,0.5-0.3,0.8-0.4
				c0.2-0.2,0.5-0.4,0.7-0.6c0.2-0.2,0.4-0.4,0.6-0.7c0.2-0.3,0.3-0.5,0.4-0.8c0.1-0.3,0.2-0.6,0.2-0.9c0.1-0.3,0.1-0.6,0.1-0.9
				C138.1,106.7,138.1,106.4,138,106.1z"/>
			<path class="st0" d="M133.5,21.4c-22.6,0-42.5,12.2-53.3,30.3c-1.3,2.2-2.4,4.4-3.5,6.7c-3.4,7.6-5.2,16.1-5.2,24.9
				c0,31.1,23,56.9,52.9,61.3c2.3,0.3,4.6,0.5,7,0.6c0.7,0,1.4,0,2.1,0c34.2,0,62-27.8,62-62C195.6,49.2,167.7,21.4,133.5,21.4z
				 M133.5,139.3c-1.6,0-3.2-0.1-4.8-0.2c-2.3-0.2-4.5-0.5-6.7-1v0c-25.3-5.3-44.4-27.8-44.4-54.7c0-8.3,1.8-16.3,5.1-23.4
				c0.9-1.9,1.8-3.7,2.9-5.4c9.8-16.2,27.6-27.1,47.9-27.1c30.8,0,55.9,25.1,55.9,55.9C189.5,114.2,164.4,139.3,133.5,139.3z"/>
		</g>
		<g id="Caminho_69">
			<path class="st0" d="M138.1,59.8v23.6c0,2.5-2,4.6-4.5,4.6c-2.5,0-4.5-2-4.5-4.6V59.8c0-2.5,2-4.5,4.5-4.5
				C136.1,55.2,138.1,57.3,138.1,59.8z"/>
		</g>
		<g id="Caminho_70">
			<path class="st0" d="M138.1,106.9c0,0.3,0,0.6-0.1,0.9c-0.1,0.3-0.1,0.6-0.2,0.9c-0.1,0.3-0.3,0.5-0.4,0.8
				c-0.1,0.2-0.4,0.4-0.6,0.7c-0.2,0.2-0.4,0.4-0.7,0.6c-0.3,0.1-0.5,0.3-0.8,0.4c-0.3,0.1-0.6,0.2-0.9,0.3
				c-0.3,0.1-0.6,0.1-0.9,0.1c-1.2,0-2.4-0.5-3.2-1.3c-0.2-0.2-0.4-0.4-0.6-0.7c-0.2-0.3-0.3-0.5-0.4-0.8c-0.1-0.3-0.2-0.6-0.3-0.9
				c-0.1-0.3-0.1-0.6-0.1-0.9c0-0.3,0-0.6,0.1-0.9c0.1-0.3,0.1-0.6,0.3-0.9c0.1-0.3,0.2-0.5,0.4-0.8c0.2-0.2,0.3-0.5,0.6-0.7
				c0.2-0.2,0.4-0.4,0.7-0.5c0.2-0.2,0.5-0.3,0.8-0.4c0.3-0.1,0.5-0.2,0.9-0.3c0.6-0.1,1.2-0.1,1.8,0c0.3,0.1,0.6,0.2,0.9,0.3
				c0.3,0.1,0.5,0.2,0.8,0.4c0.2,0.2,0.5,0.3,0.7,0.5c0.2,0.2,0.4,0.4,0.6,0.7c0.2,0.2,0.3,0.5,0.4,0.8c0.1,0.3,0.2,0.6,0.2,0.9
				C138.1,106.4,138.1,106.7,138.1,106.9z"/>
		</g>
	</g>
</g>
</svg>
