<?xml version="1.0" encoding="utf-8"?>
<!-- Generator: Adobe Illustrator 25.2.1, SVG Export Plug-In . SVG Version: 6.00 Build 0)  -->
<svg version="1.1" id="Camada_1" xmlns="http://www.w3.org/2000/svg" xmlns:xlink="http://www.w3.org/1999/xlink" x="0px" y="0px"
	 viewBox="0 0 32 32" style="enable-background:new 0 0 32 32;" xml:space="preserve">
<style type="text/css">
	.st0{fill-rule:evenodd;clip-rule:evenodd;fill:#737A83;}
</style>
<path id="basquetebol" class="st0" d="M3.1,10.5c0.7-1.7,1.7-3.2,3-4.5c1.3-1.3,2.8-2.3,4.5-3c3.5-1.5,7.4-1.5,10.9,0
	c3.4,1.4,6,4.1,7.4,7.4c1.5,3.5,1.5,7.4,0,10.9c-1.4,3.4-4.1,6-7.4,7.4c-2.2,0.9-4.6,1.3-7,1c0,0-0.1,0-0.1,0c-0.1,0-0.2,0-0.3-0.1
	c-1.7-0.3-3.3-0.8-4.8-1.6c-1.5-0.8-2.8-1.8-3.9-3c-1.1-1.3-2-2.7-2.6-4.2C1.6,17.6,1.7,13.9,3.1,10.5z M6.9,8.7
	C6.9,8.7,6.9,8.7,6.9,8.7C7.4,9.1,7.8,9.5,8.2,10c0.4,0.4,0.7,0.9,1,1.4c0.8,1.3,1.2,2.7,1.4,4.2c0,0.3,0,0.6,0,0.9
	c0,0.4,0,0.9-0.1,1.3c0.8,0.1,1.4,0.2,1.7,0.2c0-1-0.1-2-0.1-3c0-1.6,0.1-3.2,0.2-4.8c0.2-1.9,0.5-3.8,1-5.6
	C10.8,5.2,8.5,6.6,6.9,8.7L6.9,8.7z M22.6,6.3L22.6,6.3l-0.7,0.5C21.4,7.2,21,7.6,20.6,8c-0.5,0.5-1,1.1-1.5,1.7
	c-0.5,0.7-0.9,1.5-1.3,2.3c-0.5,1.1-0.7,2.3-0.7,3.4c0,0.7,0.1,1.4,0.2,2c0.9-0.2,1.8-0.4,2.7-0.8c2.6-0.9,5-2.2,7.2-3.8
	C26.6,10.3,24.9,7.9,22.6,6.3z M22.6,25.7c1.5-1.1,2.8-2.5,3.7-4.2c0.9-1.7,1.4-3.6,1.4-5.5c0-0.2,0-0.7-0.1-1.2
	c-2.1,1.5-4.5,2.7-7,3.5c-0.9,0.3-1.9,0.6-2.9,0.8C18.9,21.6,20.6,23.9,22.6,25.7z M15.1,27.7c0.2,0,0.7,0,0.9,0
	c1.8,0,3.6-0.4,5.2-1.2c-2.2-2-3.9-4.4-5-7.1c-0.9,0.1-1.7,0.2-2.3,0.2C14.1,22.3,14.5,25,15.1,27.7z M13.8,18
	c0.4,0,1.1-0.1,1.9-0.1c-0.2-0.7-0.2-1.5-0.2-2.3c0-0.3,0-0.6,0-0.9c0.1-0.9,0.3-1.8,0.6-2.7c0.3-0.8,0.6-1.6,1.1-2.3
	c0.4-0.7,0.9-1.3,1.4-1.9c0.7-0.9,1.5-1.7,2.4-2.4c-1.6-0.8-3.3-1.2-5.1-1.2c-0.4,0-0.7,0-0.9,0c-0.9,3.5-1.4,7.2-1.3,10.8
	C13.8,16.1,13.8,17,13.8,18L13.8,18z M13.4,27.4c-0.5-2.6-0.9-5.2-1.1-7.9c-0.8,0-1.5-0.1-2.2-0.2C9.5,21,8.6,22.6,7.5,24
	C9.1,25.7,11.1,26.9,13.4,27.4L13.4,27.4z M6.4,22.7C7.3,21.6,8,20.3,8.5,19c-1.4-0.4-2.8-0.9-4.1-1.6C4.6,19.3,5.3,21.1,6.4,22.7
	L6.4,22.7z M8.8,17.4c0-0.3,0.1-0.6,0.1-0.9c0-0.2,0-0.5,0-0.8c-0.1-1-0.4-2-0.9-3c-0.5-1-1.2-1.9-2.1-2.7l0,0
	c-1,1.7-1.6,3.5-1.7,5.5C5.7,16.3,7.2,17,8.8,17.4L8.8,17.4z"/>
</svg>
