<?xml version="1.0" encoding="utf-8"?>
<!-- Generator: Adobe Illustrator 25.2.1, SVG Export Plug-In . SVG Version: 6.00 Build 0)  -->
<svg version="1.1" id="Camada_1" xmlns="http://www.w3.org/2000/svg" xmlns:xlink="http://www.w3.org/1999/xlink" x="0px" y="0px"
	 viewBox="0 0 32 32" style="enable-background:new 0 0 32 32;" xml:space="preserve">
<style type="text/css">
	.st0{fill:none;stroke:#263F62;stroke-width:3;stroke-linecap:round;stroke-linejoin:round;}
	.st1{fill:none;stroke:#FFFFFF;}
	.st2{fill:#737A83;}
	.st3{fill:#F78946;stroke:#FFFFFF;stroke-linecap:round;stroke-linejoin:round;}
	.st4{fill:#F78946;stroke:#FFFFFF;stroke-width:2;stroke-linecap:round;stroke-linejoin:round;}
</style>
<path id="Icon_awesome-calendar-2" class="st2" d="M4.4,12.5h23.2c0.4,0,0.7,0.3,0.7,0.7v14.2c0,1.4-1.2,2.6-2.6,2.6H6.4
	c-1.4,0-2.6-1.2-2.6-2.6V13.2C3.8,12.8,4,12.5,4.4,12.5z M28.2,10.1v-2c0-1.4-1.2-2.6-2.6-2.6H23V2.7C23,2.3,22.7,2,22.3,2h-2.2
	c-0.4,0-0.7,0.3-0.7,0.7v2.8h-7V2.7c0-0.4-0.3-0.7-0.7-0.7H9.7C9.3,2,9,2.3,9,2.7v2.8H6.4c-1.4,0-2.6,1.2-2.6,2.6v2
	c0,0.4,0.3,0.7,0.7,0.7h23.2C28,10.7,28.2,10.5,28.2,10.1z"/>
</svg>
