<?xml version="1.0" encoding="utf-8"?>
<!-- Generator: Adobe Illustrator 25.2.1, SVG Export Plug-In . SVG Version: 6.00 Build 0)  -->
<svg version="1.1" id="Camada_1" xmlns="http://www.w3.org/2000/svg" xmlns:xlink="http://www.w3.org/1999/xlink" x="0px" y="0px"
	 viewBox="0 0 32 32" style="enable-background:new 0 0 32 32;" xml:space="preserve">
<style type="text/css">
	.st0{fill:#737A83;}
</style>
<g id="Icon_awesome-calendar">
	<path class="st0" d="M25.3,30H6.7c-1.6,0-3-1.4-3-3V13.3c0-0.7,0.4-1.2,1.1-1.2h22.4c0.6,0,1.2,0.5,1.2,1.2V27
		C28.3,28.7,27,30,25.3,30z M4.8,13.1c0,0-0.1,0-0.1,0.2V27c0,1.1,0.9,2,2,2h18.6c1.1,0,2-0.9,2-2V13.3c0-0.1-0.1-0.2-0.2-0.2H4.8z
		 M27.3,11.5H4.8c-0.6,0-1.2-0.5-1.2-1.2V8.4c0-1.6,1.4-3,3-3h2V3.2C8.7,2.5,9.2,2,9.9,2h1.9C12.5,2,13,2.5,13,3.2v2.2h5.8V3.2
		c0-0.6,0.5-1.2,1.2-1.2H22c0.6,0,1.2,0.5,1.2,1.2v2.2h2.1c1.6,0,3,1.4,3,3l0,2C28.2,10.9,27.9,11.3,27.3,11.5L27.3,11.5z M6.7,6.3
		c-1.1,0-2,0.9-2,2v1.9c0,0.1,0.1,0.2,0.2,0.2h22.3c0.1,0,0.1-0.1,0.2-0.3V8.4c0-1.1-0.9-2-2-2h-3.1V3.2C22.2,3,22.2,3,22,3h-2.1
		c-0.1,0-0.2,0.1-0.2,0.2v3.2H12V3.2C12,3,11.9,3,11.8,3H9.9C9.8,3,9.7,3,9.7,3.2v3.2H6.7z"/>
</g>
</svg>
