<?xml version="1.0" encoding="utf-8"?>
<!-- Generator: Adobe Illustrator 25.2.1, SVG Export Plug-In . SVG Version: 6.00 Build 0)  -->
<svg version="1.1" id="Camada_1" xmlns="http://www.w3.org/2000/svg" xmlns:xlink="http://www.w3.org/1999/xlink" x="0px" y="0px"
	 viewBox="0 0 240 240" style="enable-background:new 0 0 240 240;" xml:space="preserve">
<style type="text/css">
	.st0{fill:#263F62;}
</style>
<path id="Caminho_322" class="st0" d="M120,40.2c44.1,0,79.7,35.8,79.7,79.8c0,44.1-35.8,79.7-79.8,79.7
	c-44.1,0-79.7-35.8-79.7-79.8c0-21.2,8.4-41.4,23.4-56.4C78.5,48.5,98.8,40.1,120,40.2 M120,20C64.8,20,20,64.8,20,120
	s44.8,100,100,100s100-44.8,100-100S175.2,20,120,20z"/>
<path id="Caminho_323" class="st0" d="M168.8,155.1l-13.6,13.6L120,133.6l-35.1,35.1l-13.6-13.6l35.1-35.1L71.3,84.9l13.6-13.6
	l35.1,35.1l35.1-35.1l13.6,13.6L133.6,120L168.8,155.1z"/>
</svg>
