<?xml version="1.0" encoding="utf-8"?>
<!-- Generator: Adobe Illustrator 25.2.1, SVG Export Plug-In . SVG Version: 6.00 Build 0)  -->
<svg version="1.1" id="Camada_1" xmlns="http://www.w3.org/2000/svg" xmlns:xlink="http://www.w3.org/1999/xlink" x="0px" y="0px"
	 viewBox="0 0 240 240" style="enable-background:new 0 0 240 240;" xml:space="preserve">
<style type="text/css">
	.st0{fill:#1C8D87;}
	.st1{fill:#FFFFFF;}
</style>
<g id="Group_320" transform="translate(-925.73 -307.037)">
	<g id="Ellipse_55">
		<circle class="st0" cx="1046.2" cy="421" r="42.5"/>
	</g>
	<g id="check-icon">
		<path class="st1" d="M1068,406.6c-1.4-1.4-3.7-1.5-5.1-0.1l0,0l-22.9,21.7l-10.9-11.2c-1.4-1.4-3.7-1.3-5.1,0.1
			c-1.3,1.3-1.4,3.5-0.1,4.9l13.4,13.8c1.4,1.4,3.7,1.5,5.1,0.1l25.5-24.2C1069.3,410.3,1069.4,408.1,1068,406.6z"/>
	</g>
</g>
<g id="Icon_feather-shield">
	<path class="st0" d="M120,229.5c-0.5,0-1.1-0.1-1.6-0.4c-0.9-0.4-21.8-11-43.1-29.6C46.8,174.5,31.7,147,31.7,120V45.8
		c0-1.5,0.9-2.8,2.3-3.3l84.8-31.8c0.8-0.3,1.7-0.3,2.5,0L206,42.5c1.4,0.5,2.3,1.8,2.3,3.3V120c0,27-15.1,54.5-43.6,79.5
		c-21.3,18.6-42.2,29.2-43.1,29.6C121.1,229.3,120.5,229.5,120,229.5z M38.7,48.3V120c0,56,69.8,95.9,81.3,102
		c11.4-6.1,81.3-46,81.3-102V48.3L120,17.8L38.7,48.3z"/>
</g>
</svg>
