<?xml version="1.0" encoding="utf-8"?>
<!-- Generator: Adobe Illustrator 25.2.1, SVG Export Plug-In . SVG Version: 6.00 Build 0)  -->
<svg version="1.1" id="Camada_1" xmlns="http://www.w3.org/2000/svg" xmlns:xlink="http://www.w3.org/1999/xlink" x="0px" y="0px"
	 viewBox="0 0 240 240" style="enable-background:new 0 0 240 240;" xml:space="preserve">
<style type="text/css">
	.st0{fill:#FFFFFF;}
	.st1{fill:#F78946;}
</style>
<g id="Grupo_658" transform="translate(0.5 0.333)">
	<g id="Grupo_657">
		<g id="Elipse_77" transform="translate(-0.068)">
			<g>
				<circle class="st0" cx="119.6" cy="119.3" r="118"/>
			</g>
			<g>
				<path class="st0" d="M119.6,237.3c-65.1,0-118-52.9-118-118s52.9-118,118-118s118,52.9,118,118S184.7,237.3,119.6,237.3z
					 M119.6,6C57.2,6,6.3,56.8,6.3,119.3s50.8,113.3,113.3,113.3S233,181.7,233,119.3S182.1,6,119.6,6z"/>
			</g>
		</g>
		<g id="Icon_feather-clock" transform="translate(0 0.167)">
			<g id="Caminho_326">
				<path class="st1" d="M119.5,239.5c-66.2,0-120-53.8-120-120s53.8-120,120-120c66.2,0,120,53.8,120,120
					C239.5,185.7,185.7,239.5,119.5,239.5z M119.5,4.2C55.9,4.2,4.2,55.9,4.2,119.5s51.7,115.3,115.3,115.3s115.3-51.7,115.3-115.3
					C234.8,55.9,183.1,4.2,119.5,4.2z"/>
			</g>
			<g id="Caminho_327">
				<path class="st1" d="M166.7,145.8c-0.4,0-0.7-0.1-1.1-0.2l-47.4-23.7c-0.8-0.4-1.3-1.2-1.3-2.1V48.7c0-1.3,1.1-2.4,2.4-2.4
					c1.3,0,2.4,1.1,2.4,2.4v69.6l46.1,23c1.2,0.6,1.6,2,1.1,3.2C168.4,145.4,167.5,145.8,166.7,145.8z"/>
			</g>
		</g>
	</g>
</g>
</svg>
