<?xml version="1.0" encoding="utf-8"?>
<!-- Generator: Adobe Illustrator 25.2.1, SVG Export Plug-In . SVG Version: 6.00 Build 0)  -->
<svg version="1.1" id="Camada_1" xmlns="http://www.w3.org/2000/svg" xmlns:xlink="http://www.w3.org/1999/xlink" x="0px" y="0px"
	 viewBox="0 0 32 32" style="enable-background:new 0 0 32 32;" xml:space="preserve">
<style type="text/css">
	.st0{fill:#ACC2D3;}
	.st1{fill:#FFFFFF;}
	.st2{fill:none;stroke:#737A83;}
	.st3{fill:none;stroke:#FFFFFF;}
	.st4{fill:#737A83;}
	.st5{fill:#263F62;}
	.st6{fill:none;stroke:#263F62;stroke-width:3;stroke-linecap:round;stroke-linejoin:round;}
	.st7{fill:none;stroke:#737A83;stroke-linecap:round;stroke-linejoin:round;}
	.st8{clip-path:url(#SVGID_2_);}
	.st9{fill-rule:evenodd;clip-rule:evenodd;fill:#586B86;}
	.st10{fill:#586B86;}
	.st11{fill:#FFFFFF;stroke:#737A83;}
	.st12{clip-path:url(#SVGID_4_);}
	.st13{fill-rule:evenodd;clip-rule:evenodd;fill:#FFFFFF;}
	.st14{fill:#747A84;}
	.st15{fill:#F78946;stroke:#FFFFFF;stroke-linecap:round;stroke-linejoin:round;}
	.st16{fill:#F78946;stroke:#FFFFFF;stroke-width:2;stroke-linecap:round;stroke-linejoin:round;}
</style>
<path id="Icon_awesome-cog" class="st4" d="M29.1,19.4L26.7,18c0.2-1.3,0.2-2.7,0-4l2.4-1.4c0.3-0.2,0.4-0.5,0.3-0.8
	c-0.6-2-1.7-3.8-3.1-5.3c-0.2-0.2-0.6-0.3-0.8-0.1L23,7.8c-1-0.9-2.2-1.5-3.4-2V3c0-0.3-0.2-0.6-0.5-0.7c-2-0.5-4.1-0.5-6.2,0
	c-0.3,0.1-0.5,0.3-0.5,0.7v2.8C11.1,6.2,10,6.9,9,7.8L6.6,6.4C6.3,6.2,5.9,6.3,5.7,6.5C4.3,8,3.2,9.8,2.6,11.8
	c-0.1,0.3,0,0.6,0.3,0.8L5.3,14c-0.2,1.3-0.2,2.7,0,4l-2.4,1.4c-0.3,0.2-0.4,0.5-0.3,0.8c0.6,2,1.7,3.8,3.1,5.3
	c0.2,0.2,0.6,0.3,0.8,0.1L9,24.2c1,0.9,2.2,1.5,3.4,2V29c0,0.3,0.2,0.6,0.5,0.7c2,0.5,4.1,0.5,6.2,0c0.3-0.1,0.5-0.3,0.5-0.7v-2.8
	c1.3-0.4,2.4-1.1,3.4-2l2.4,1.4c0.3,0.2,0.6,0.1,0.8-0.1c1.4-1.5,2.5-3.3,3.1-5.3C29.5,19.9,29.3,19.5,29.1,19.4L29.1,19.4z
	 M16,20.5c-2.5,0-4.5-2-4.5-4.5s2-4.5,4.5-4.5c2.5,0,4.5,2,4.5,4.5v0C20.5,18.5,18.5,20.5,16,20.5L16,20.5z"/>
</svg>
