<?xml version="1.0" encoding="utf-8"?>
<!-- Generator: Adobe Illustrator 25.2.1, SVG Export Plug-In . SVG Version: 6.00 Build 0)  -->
<svg version="1.1" id="Camada_1" xmlns="http://www.w3.org/2000/svg" xmlns:xlink="http://www.w3.org/1999/xlink" x="0px" y="0px"
	 viewBox="0 0 90 90" style="enable-background:new 0 0 90 90;" xml:space="preserve">
<style type="text/css">
	.st0{fill:#737A83;}
</style>
<g id="Grupo_245" transform="translate(-1130.458 -1184.327)">
	<path class="st0" d="M1155.2,1255.1c-5.8,0-12-2.9-16.8-7.8c-6-6.3-8.5-14.8-6.8-23.2c2.1-10.1,9.9-18,20.1-20l0,0
		c1.7-0.3,3.4-0.5,5.1-0.5c0,0,0.1,0,0.1,0c6.8,0,13.3,2.6,18.2,7.5c4.9,4.8,7.6,11.3,7.6,18.2c0,4-3.3,7.3-7.3,7.3h-7.7
		c-0.9,0-1.8,0.2-2.6,0.6c-1.3,0.7-2.3,1.8-2.8,3.2c-0.5,1.4-0.3,2.9,0.3,4.2c1.1,2.1,1.1,4.6,0,6.8c-1,1.9-2.8,3.2-4.8,3.6
		C1157,1255.1,1156.1,1255.1,1155.2,1255.1z M1156.9,1205.5c0,0-0.1,0-0.1,0c-1.6,0-3.1,0.2-4.7,0.5l0,0
		c-9.3,1.9-16.6,9.1-18.5,18.4c-1.6,7.8,0.8,15.7,6.3,21.5c5,5.2,11.9,7.9,17.6,7c1.4-0.2,2.7-1.1,3.4-2.5c0.8-1.5,0.8-3.4,0-4.9
		c-0.9-1.8-1.1-3.8-0.5-5.8c0.6-1.9,2-3.5,3.8-4.4c1.1-0.5,2.2-0.8,3.4-0.8c0,0,0.1,0,0.1,0h7.7c2.9,0,5.3-2.4,5.3-5.3
		c0-6.4-2.5-12.3-7.1-16.8C1169.1,1208,1163.2,1205.5,1156.9,1205.5z M1141.4,1236.5L1141.4,1236.5c-2.3,0-4.1-1.8-4.1-4.1
		s1.8-4.1,4.1-4.1s4.1,1.8,4.1,4.1C1145.5,1234.7,1143.6,1236.5,1141.4,1236.5z M1141.4,1230.3c-1.2,0-2.1,0.9-2.1,2.1
		s0.9,2.1,2.1,2.1h0c1.2,0,2.1-0.9,2.1-2.1C1143.5,1231.3,1142.5,1230.3,1141.4,1230.3z M1169.2,1224.1L1169.2,1224.1
		c-0.3,0-0.6,0-0.9-0.1l-2.5-0.3l0.9-0.4c-1-0.8-1.6-1.9-1.6-3.2c0-2.3,1.8-4.1,4.1-4.1s4.1,1.8,4.1,4.1c0,1.1-0.4,2.1-1.2,2.9
		C1171.4,1223.7,1170.4,1224.1,1169.2,1224.1L1169.2,1224.1z M1169.3,1217.9c-1.2,0-2.1,0.9-2.1,2.1c0,1.2,0.9,2.1,2.1,2.1l0,0l0,0
		c0.6,0,1.1-0.2,1.5-0.6c0.4-0.4,0.6-0.9,0.6-1.5C1171.4,1218.9,1170.4,1217.9,1169.3,1217.9z M1144.4,1224.1L1144.4,1224.1
		c-0.3,0-0.5,0-0.8-0.1l-2.6-0.3l1-0.5c-1-0.8-1.6-1.9-1.6-3.2c0-2.3,1.8-4.1,4.1-4.1s4.1,1.8,4.1,4.1c0,1.1-0.4,2.1-1.2,2.9
		C1146.6,1223.7,1145.6,1224.1,1144.4,1224.1L1144.4,1224.1z M1144.5,1217.9c-1.2,0-2.1,0.9-2.1,2.1c0,1.2,0.9,2.1,2.1,2.1l0.1,0.3
		l0-0.3c0.5,0,1-0.2,1.4-0.6s0.6-0.9,0.6-1.5C1146.6,1218.9,1145.6,1217.9,1144.5,1217.9z M1155.4,1218l0.1-0.2
		c-1.6-0.6-2.7-2.1-2.7-3.9c0-2.3,1.8-4.1,4.1-4.1s4.1,1.8,4.1,4.1c0,2.3-1.8,4.1-4.1,4.1L1155.4,1218z M1156.9,1211.7
		c-1.2,0-2.1,0.9-2.1,2.1s0.9,2.1,2.1,2.1h0.1c1.1-0.1,2-1,2-2.1C1159,1212.7,1158,1211.7,1156.9,1211.7z"/>
	<path class="st0" d="M1181.7,1255.1c-8.3,0-13.4-6.1-13.4-16v-1.9l1.6,1.1c0.2,0.1,0.5,0.4,0.9,0.7c0.9,0.7,3.2,2.4,3.9,2.5
		c0.2,0,0.4-0.1,0.4-0.3c2.4-6.4,7-7.4,10.3-7.7l0.4,0l9.1,7.6l0.1,0.4c0.1,0.3,0.1,0.7,0.1,1
		C1195,1250.2,1189.8,1255.1,1181.7,1255.1z M1170.4,1241.2c0.4,4.4,2.4,11.9,11.3,11.9c7,0,11.4-4.1,11.4-10.6c0-0.1,0-0.2,0-0.4
		l-7.9-6.6c-2.8,0.2-6.2,1.3-8.1,6.3c-0.4,1-1.3,1.6-2.3,1.6c0,0,0,0,0,0C1173.7,1243.5,1172.4,1242.7,1170.4,1241.2z M1197,1239.6
		c-0.8,0-1.6-0.1-2.4-0.3l-0.2-0.1l-6.5-5.4l-0.1-0.2c-0.6-1.3-0.9-2.7-0.9-4.2c0-4.6,1.6-6,11.9-15c2.7-2.4,6.1-5.3,10.3-9.1
		c1.2-1.1,2.8-1.8,4.5-1.8c3.3-0.1,6.1,2.5,6.3,5.8l0,0.1l0,0.1c-0.1,1.7-0.6,3.4-1.5,4.9C1207.7,1234.2,1203.8,1239.6,1197,1239.6z
		 M1195.3,1237.4c0.6,0.1,1.1,0.2,1.7,0.2c5.4,0,8.7-4.1,19.5-24.3c0.7-1.2,1.1-2.6,1.2-4c-0.1-2.2-2-3.9-4.2-3.8l0,0
		c-1.2,0-2.4,0.5-3.2,1.3c-4.2,3.7-7.6,6.7-10.3,9.1c-10.4,9.1-11.2,9.9-11.2,13.5c0,1.1,0.2,2.1,0.7,3.1L1195.3,1237.4z"/>
</g>
</svg>
