<?xml version="1.0" encoding="utf-8"?>
<!-- Generator: Adobe Illustrator 25.2.1, SVG Export Plug-In . SVG Version: 6.00 Build 0)  -->
<svg version="1.1" id="Camada_1" xmlns="http://www.w3.org/2000/svg" xmlns:xlink="http://www.w3.org/1999/xlink" x="0px" y="0px"
	 viewBox="0 0 32 32" style="enable-background:new 0 0 32 32;" xml:space="preserve">
<style type="text/css">
	.st0{fill:#737A83;}
</style>
<path id="Icon_awesome-thumbs-up" class="st0" d="M24.5,18H29c0.7,0,1.3-0.6,1.3-1.3l0,0V3.2c0-0.7-0.6-1.3-1.3-1.3l0,0h-4.5
	c-0.7,0-1.3,0.6-1.3,1.3l0,0v13.4C23.2,17.4,23.8,18,24.5,18L24.5,18z M26.8,4.1c0.7,0,1.3,0.6,1.3,1.3c0,0.7-0.6,1.3-1.3,1.3
	c-0.7,0-1.3-0.6-1.3-1.3C25.4,4.7,26,4.1,26.8,4.1L26.8,4.1z M8.8,26c0-2.4,1.5-3.7,1.9-5.3H5c-1.8,0-3.3-1.4-3.3-3.3
	c0-1,0.4-2,1.1-2.8l0,0c-0.6-1.5-0.4-3.2,0.5-4.5c-0.4-1.5-0.1-3,0.9-4.2C3.9,5.1,4.1,4.1,4.5,3.4c1.1-1.6,4-1.7,6.4-1.7h0.2
	c2.3,0.1,4.6,0.7,6.7,1.8c0.9,0.5,1.9,0.8,3,0.9c0.4,0,0.7,0.3,0.7,0.7v12.1c0,0.2-0.1,0.4-0.2,0.5c-2.2,2.2-3.2,4.5-5,6.3
	c-0.8,1-1.3,2.1-1.4,3.3c-0.2,1-0.8,3.2-1.9,3.2C11.5,30.5,8.8,30.1,8.8,26z"/>
</svg>
