<?xml version="1.0" encoding="utf-8"?>
<!-- Generator: Adobe Illustrator 25.2.1, SVG Export Plug-In . SVG Version: 6.00 Build 0)  -->
<svg version="1.1" id="Camada_1" xmlns="http://www.w3.org/2000/svg" xmlns:xlink="http://www.w3.org/1999/xlink" x="0px" y="0px"
	 viewBox="0 0 32 32" style="enable-background:new 0 0 32 32;" xml:space="preserve">
<style type="text/css">
	.st0{fill:#FFFFFF;}
</style>
<g id="Icon_awesome-thumbs-up">
	<path class="st0" d="M11.1,2h0.2c2.3,0.1,4.4,0.7,6.5,1.7c0.8,0.4,1.7,0.7,2.6,0.8c0.5,0,1,0.5,1,1.2V17c0,0.3-0.1,0.5-0.2,0.6
		L21,17.8c-1.1,1.1-1.9,2.2-2.6,3.2c-0.7,1-1.3,1.9-2.1,2.7c-0.6,0.8-1,1.8-1.2,2.8C15,27.5,14.5,30,13,30c-1.6,0-4.2-0.6-4.2-4.8
		c0-1.5,0.6-2.6,1.1-3.6c0.2-0.3,0.3-0.7,0.5-1H5.7c-2,0-3.6-1.5-3.7-3.5c0-1,0.4-2,1-2.7c-0.5-1.4-0.3-2.9,0.5-4.1
		c-0.3-1.4,0-2.9,0.9-4c-0.2-0.8,0-1.6,0.4-2.4C6,2,8.8,2,11.1,2z M20.4,17.2C20.4,17.1,20.4,17.1,20.4,17.2
		c0.1-0.2,0.1-0.2,0.1-0.2V5.7c0-0.2-0.1-0.2-0.1-0.2c-1.1-0.1-2.1-0.4-3-0.9c-1.9-1-4-1.5-6.1-1.6h-0.2C9,3,6.4,3,5.4,4.4
		C5.1,5,5,5.7,5.2,6.3l0.1,0.3L5.1,6.8C4.3,7.7,4,9.1,4.3,10.3l0.1,0.2l-0.1,0.2c-0.8,1-0.9,2.5-0.4,3.7L4,14.7l-0.2,0.2
		c-0.6,0.6-0.9,1.4-0.9,2.3c0.1,1.5,1.2,2.6,2.7,2.6h6l-0.1,0.6c-0.2,0.6-0.5,1.2-0.8,1.8c-0.5,0.9-1,1.8-1,3.1
		c0,2.6,1.1,3.9,3.3,3.9c0.1,0,0.8-0.1,1.3-2.6c0.2-1.2,0.7-2.3,1.4-3.3c0.8-0.8,1.4-1.7,2-2.6C18.5,19.4,19.2,18.3,20.4,17.2z
		 M24,2h4.2c1,0,1.7,0.8,1.7,1.8v12.7c0,0.9-0.8,1.7-1.7,1.7H24c-1,0-1.7-0.8-1.7-1.8V3.8C22.2,2.8,23,2,24,2z M28.2,17.3
		c0.4,0,0.8-0.4,0.8-0.8V3.9C29,3.4,28.7,3,28.2,3H24c-0.4,0-0.8,0.4-0.8,0.8v12.6c0,0.5,0.3,0.9,0.8,0.9
		C24,17.3,28.2,17.3,28.2,17.3z M26.1,4.1c0.9,0,1.7,0.8,1.7,1.7c0,0.9-0.8,1.7-1.7,1.7c-0.9,0-1.7-0.8-1.7-1.7
		C24.3,4.9,25.1,4.1,26.1,4.1z M26.1,6.6c0.4,0,0.8-0.4,0.8-0.8S26.5,5,26.1,5c-0.4,0-0.8,0.4-0.8,0.8C25.3,6.3,25.7,6.6,26.1,6.6z"
		/>
</g>
</svg>
