<?xml version="1.0" encoding="utf-8"?>
<!-- Generator: Adobe Illustrator 25.2.1, SVG Export Plug-In . SVG Version: 6.00 Build 0)  -->
<svg version="1.1" id="Camada_1" xmlns="http://www.w3.org/2000/svg" xmlns:xlink="http://www.w3.org/1999/xlink" x="0px" y="0px"
	 viewBox="0 0 240 240" style="enable-background:new 0 0 240 240;" xml:space="preserve">
<style type="text/css">
	.st0{fill:#CD1417;}
</style>
<g>
	<g id="Icon_feather-shield">
		<path class="st0" d="M120,229.5c-0.5,0-1.1-0.1-1.6-0.4c-0.9-0.4-21.8-11-43.1-29.6c-28.5-25-43.6-52.5-43.6-79.5V45.8
			c0-1.5,0.9-2.8,2.3-3.3l84.8-31.8c0.8-0.3,1.7-0.3,2.5,0L206,42.5c1.4,0.5,2.3,1.8,2.3,3.3V120c0,27-15.1,54.5-43.6,79.5
			c-21.3,18.6-42.2,29.2-43.1,29.6C121.1,229.3,120.5,229.5,120,229.5z M38.7,48.3V120c0,56,69.8,95.9,81.3,102
			c11.4-6.1,81.3-46,81.3-102V48.3L120,17.8L38.7,48.3z"/>
	</g>
</g>
<g>
	<g>
		<path class="st0" d="M87.5,112.2v-8.2H72.2v-8l9.7-35.4H98v34.9h2.8v8.6H98v8.2H87.5z M81.4,95.5h6.1v-26L81.4,95.5z"/>
		<path class="st0" d="M109.9,109c-2.4-2.5-3.5-6-3.5-10.5V75.2c0-4.9,1.1-8.6,3.4-11.2c2.3-2.6,5.7-3.8,10.2-3.8
			c4.6,0,8,1.3,10.3,3.8c2.3,2.6,3.4,6.3,3.4,11.2v23.3c0,4.6-1.2,8.1-3.5,10.6c-2.4,2.4-5.7,3.7-10.1,3.7
			C115.6,112.7,112.2,111.5,109.9,109z M121.8,102.2c0.5-0.7,0.7-1.5,0.7-2.5V74.2c0-1.5-0.2-2.6-0.5-3.4c-0.3-0.8-1-1.2-2.1-1.2
			c-1,0-1.7,0.4-2,1.2c-0.3,0.8-0.5,1.9-0.5,3.4v25.4c0,1,0.2,1.8,0.7,2.5c0.5,0.7,1.1,1,1.8,1C120.7,103.2,121.3,102.9,121.8,102.2
			z"/>
		<path class="st0" d="M154.6,112.2v-8.2h-15.3v-8l9.7-35.4h16.1v34.9h2.8v8.6h-2.8v8.2H154.6z M148.4,95.5h6.1v-26L148.4,95.5z"/>
	</g>
	<g>
		<path class="st0" d="M76.6,159.5v-30.1h12v5.8h-5.9v5.8h5.7v5.7h-5.7v6.9H89v5.8H76.6z"/>
		<path class="st0" d="M93.8,129.4h9.2c1.5,0,2.6,0.3,3.4,1s1.3,1.6,1.6,2.8c0.3,1.2,0.4,2.7,0.4,4.6c0,1.7-0.2,3-0.7,4
			c-0.4,1-1.2,1.6-2.3,2c0.9,0.2,1.6,0.6,2,1.4c0.4,0.7,0.6,1.7,0.6,2.9l-0.1,11.4h-5.9v-11.8c0-0.8-0.2-1.4-0.5-1.6
			c-0.3-0.2-0.9-0.3-1.8-0.3v13.7h-6.1V129.4z M101.3,140.6c0.8,0,1.3-0.9,1.3-2.7c0-0.8,0-1.4-0.1-1.8c-0.1-0.4-0.2-0.7-0.4-0.8
			c-0.2-0.2-0.5-0.2-0.8-0.2h-1.4v5.6H101.3z"/>
		<path class="st0" d="M112.1,129.4h9.2c1.5,0,2.6,0.3,3.4,1s1.3,1.6,1.6,2.8c0.3,1.2,0.4,2.7,0.4,4.6c0,1.7-0.2,3-0.7,4
			c-0.4,1-1.2,1.6-2.3,2c0.9,0.2,1.6,0.6,2,1.4c0.4,0.7,0.6,1.7,0.6,2.9l-0.1,11.4h-5.9v-11.8c0-0.8-0.2-1.4-0.5-1.6
			c-0.3-0.2-0.9-0.3-1.8-0.3v13.7h-6.1V129.4z M119.6,140.6c0.8,0,1.3-0.9,1.3-2.7c0-0.8,0-1.4-0.1-1.8c-0.1-0.4-0.2-0.7-0.4-0.8
			c-0.2-0.2-0.5-0.2-0.8-0.2h-1.4v5.6H119.6z"/>
		<path class="st0" d="M132.2,157.6c-1.3-1.5-1.9-3.6-1.9-6.2V137c0-2.6,0.6-4.5,1.9-5.9c1.3-1.3,3.1-2,5.5-2s4.3,0.7,5.5,2
			s1.9,3.3,1.9,5.9v14.3c0,2.7-0.6,4.8-1.9,6.3s-3.1,2.2-5.5,2.2S133.5,159,132.2,157.6z M138.8,153.6c0.2-0.5,0.3-1.1,0.3-2v-14.7
			c0-0.7-0.1-1.2-0.3-1.6s-0.5-0.6-1.1-0.6c-1,0-1.5,0.8-1.5,2.3v14.7c0,0.9,0.1,1.5,0.3,2s0.6,0.7,1.2,0.7
			C138.3,154.3,138.7,154,138.8,153.6z"/>
		<path class="st0" d="M148.7,129.4h9.2c1.5,0,2.6,0.3,3.4,1s1.3,1.6,1.6,2.8c0.3,1.2,0.4,2.7,0.4,4.6c0,1.7-0.2,3-0.7,4
			c-0.4,1-1.2,1.6-2.3,2c0.9,0.2,1.6,0.6,2,1.4c0.4,0.7,0.6,1.7,0.6,2.9l-0.1,11.4h-5.9v-11.8c0-0.8-0.2-1.4-0.5-1.6
			c-0.3-0.2-0.9-0.3-1.8-0.3v13.7h-6.1V129.4z M156.3,140.6c0.8,0,1.3-0.9,1.3-2.7c0-0.8,0-1.4-0.1-1.8c-0.1-0.4-0.2-0.7-0.4-0.8
			c-0.2-0.2-0.5-0.2-0.8-0.2h-1.4v5.6H156.3z"/>
	</g>
</g>
</svg>
