<?xml version="1.0" encoding="utf-8"?>
<!-- Generator: Adobe Illustrator 25.2.1, SVG Export Plug-In . SVG Version: 6.00 Build 0)  -->
<svg version="1.1" id="Camada_1" xmlns="http://www.w3.org/2000/svg" xmlns:xlink="http://www.w3.org/1999/xlink" x="0px" y="0px"
	 viewBox="0 0 233 237" style="enable-background:new 0 0 233 237;" xml:space="preserve">
<style type="text/css">
	.st0{fill:none;}
	.st1{fill:none;stroke:#8D1C22;stroke-width:6;}
	.st2{fill:#8D1C22;}
	.st3{fill:none;stroke:#FFFFFF;stroke-width:5;stroke-linecap:round;stroke-linejoin:round;}
</style>
<g id="Group_322" transform="translate(-832 -216)">
	<g id="Group_321">
		<g id="Ellipse_54_1_" transform="translate(832 216)">
			<circle id="Elipse_82" class="st0" cx="116.5" cy="116.6" r="116.5"/>
			<circle id="Elipse_83" class="st1" cx="116.5" cy="116.6" r="113.5"/>
		</g>
		<g id="tickets" transform="translate(874.996 263.996)">
			<g id="Group_319" transform="translate(0.004 0.004)">
				<g id="Group_318">
					<path id="Path_262" class="st2" d="M146.9,54.2l-17-52.1c-0.5-1.5-2.1-2.3-3.6-1.8c0,0,0,0,0,0l0,0L2,40.6
						c-1.5,0.5-2.3,2.1-1.8,3.6c0,0,0,0,0,0l0,0l8,24.7v55c0,1.6,1.3,2.9,2.9,2.9c0,0,0,0,0,0h130.7c1.6,0,2.9-1.3,2.9-2.9V69.1
						c0-1.6-1.3-2.9-2.9-2.9h-22.5l25.8-8.4C146.5,57.3,147.3,55.7,146.9,54.2z M138.9,72v49.1h-125V72h15.9v32
						c0,1.6,1.3,2.9,2.9,2.9c1.6,0,2.9-1.3,2.9-2.9c0,0,0,0,0,0V72L138.9,72z M100.7,66.2H13.3l-6.8-21l15.1-4.9l5.8,17.6
						c0.4,1.2,1.5,2,2.7,2c0.3,0,0.6-0.1,0.9-0.1c1.5-0.5,2.3-2.1,1.8-3.6c0,0,0,0,0,0L27,38.6l98.2-32l15.2,46.7L100.7,66.2z"/>
					<path id="Path_263" class="st2" d="M121,19.2c-0.5-1.5-2.1-2.3-3.6-1.8c0,0,0,0,0,0l0,0L42.5,41.6c-1.5,0.5-2.3,2.1-1.8,3.6
						c0,0,0,0,0,0l0,0c0.4,1.2,1.5,2,2.7,2c0.3,0,0.6-0.1,0.9-0.1l74.8-24.3c1.5-0.4,2.4-2,1.9-3.5C121,19.3,121,19.3,121,19.2z"/>
					<path id="Path_264" class="st2" d="M108.4,37.8l14.2-4.6c1.5-0.5,2.3-2.1,1.8-3.6c-0.5-1.5-2.1-2.3-3.6-1.8l0,0l0,0l-14.2,4.6
						c-1.5,0.5-2.3,2.1-1.8,3.6c0,0,0,0,0,0l0,0c0.4,1.2,1.5,2,2.7,2C107.8,38,108.1,38,108.4,37.8z"/>
					<path id="Path_265" class="st2" d="M120.3,51c0.4,1.2,1.5,2,2.7,2c0.3,0,0.6-0.1,0.9-0.1l4.5-1.5c1.5-0.5,2.3-2.1,1.8-3.6
						s-2.1-2.3-3.6-1.8l0,0l-4.5,1.5C120.6,48,119.8,49.6,120.3,51C120.3,51,120.3,51,120.3,51z"/>
					<path id="Path_266" class="st2" d="M112.2,50.7l-4.5,1.5c-1.5,0.5-2.3,2.1-1.8,3.6c0,0,0,0,0,0l0,0c0.4,1.2,1.5,2,2.7,2
						c0.3,0,0.6-0.1,0.9-0.1l4.5-1.6c1.5-0.5,2.3-2.1,1.8-3.6C115.3,51.1,113.7,50.3,112.2,50.7z"/>
					<path id="Path_267" class="st2" d="M72.1,43.6l-26.2,8.5c-1.5,0.5-2.3,2.1-1.8,3.6c0,0,0,0,0,0l0,0c0.4,1.2,1.5,2,2.7,2
						c0.3,0,0.6-0.1,0.9-0.1l26.2-8.5c1.5-0.5,2.3-2.2,1.8-3.7C75.2,44,73.6,43.2,72.1,43.6z"/>
					<path id="Path_268" class="st2" d="M32.7,110.6c-1.6,0-2.9,1.3-2.9,2.9l0,0v1.1c0,1.6,1.3,2.9,2.9,2.9c1.6,0,2.9-1.3,2.9-2.9
						l0,0v-1.1C35.6,112,34.3,110.7,32.7,110.6z"/>
					<path id="Path_269" class="st2" d="M46.4,82.6c0,1.6,1.3,2.9,2.9,2.9c0,0,0,0,0,0H128c1.6,0,2.9-1.3,2.9-2.9s-1.3-2.9-2.9-2.9
						H49.3C47.7,79.7,46.4,81,46.4,82.6C46.4,82.6,46.4,82.6,46.4,82.6z"/>
					<path id="Path_270" class="st2" d="M128,90.7h-14.9c-1.6,0-2.9,1.3-2.9,2.9s1.3,2.9,2.9,2.9l0,0H128c1.6,0,2.9-1.3,2.9-2.9
						C130.9,92.1,129.6,90.8,128,90.7z"/>
					<path id="Path_271" class="st2" d="M128,109.8h-4.7c-1.6,0-2.9,1.3-2.9,2.9s1.3,2.9,2.9,2.9l0,0h4.7c1.6,0,2.9-1.3,2.9-2.9
						C130.9,111.2,129.6,109.9,128,109.8z"/>
					<path id="Path_272" class="st2" d="M112.7,109.8H108c-1.6,0-2.9,1.3-2.9,2.9s1.3,2.9,2.9,2.9l0,0h4.7c1.6,0,2.9-1.3,2.9-2.9
						S114.3,109.8,112.7,109.8L112.7,109.8z"/>
					<path id="Path_273" class="st2" d="M76.8,90.7H49.2c-1.6,0-2.9,1.3-2.9,2.9s1.3,2.9,2.9,2.9h27.6c1.6,0,2.9-1.3,2.9-2.9
						S78.4,90.7,76.8,90.7z"/>
				</g>
			</g>
		</g>
	</g>
	<g id="Group_238" transform="translate(0.402 -0.098)">
		<circle id="Elipse_84" class="st2" cx="1014" cy="410.6" r="42.3"/>
		<g id="close" transform="translate(4.607 5.107)">
			<line id="Line_22" class="st3" x1="1022.7" y1="392.2" x2="996.1" y2="418.8"/>
			<line id="Line_23" class="st3" x1="996.1" y1="392.2" x2="1022.7" y2="418.8"/>
		</g>
	</g>
</g>
</svg>
