<?xml version="1.0" encoding="utf-8"?>
<!-- Generator: Adobe Illustrator 25.2.1, SVG Export Plug-In . SVG Version: 6.00 Build 0)  -->
<svg version="1.1" id="Camada_1" xmlns="http://www.w3.org/2000/svg" xmlns:xlink="http://www.w3.org/1999/xlink" x="0px" y="0px"
	 viewBox="0 0 240 240" style="enable-background:new 0 0 240 240;" xml:space="preserve">
<style type="text/css">
	.st0{fill:#CD1417;}
</style>
<g>
	<g id="Icon_feather-shield">
		<path class="st0" d="M120,229.5c-0.5,0-1.1-0.1-1.6-0.4c-0.9-0.4-21.8-11-43.1-29.6c-28.5-25-43.6-52.5-43.6-79.5V45.8
			c0-1.5,0.9-2.8,2.3-3.3l84.8-31.8c0.8-0.3,1.7-0.3,2.5,0L206,42.5c1.4,0.5,2.3,1.8,2.3,3.3V120c0,27-15.1,54.5-43.6,79.5
			c-21.3,18.6-42.2,29.2-43.1,29.6C121.1,229.3,120.5,229.5,120,229.5z M38.7,48.3V120c0,56,69.8,95.9,81.3,102
			c11.4-6.1,81.3-46,81.3-102V48.3L120,17.8L38.7,48.3z"/>
	</g>
	<path class="st0" d="M120.5,66.2c-26.9,0-48.8,21.8-48.8,48.8s21.8,48.8,48.8,48.8c26.9,0,48.8-21.8,48.8-48.8
		S147.4,66.2,120.5,66.2z M137.6,138.7l-17.2-17.1l-17.1,17.1l-6.6-6.6l17.1-17.1L96.7,97.9l6.6-6.6l17.1,17.1l17.1-17.1l6.6,6.6
		L127.1,115l17.2,17.1L137.6,138.7z"/>
</g>
</svg>
