<?xml version="1.0" encoding="utf-8"?>
<!-- Generator: Adobe Illustrator 25.2.1, SVG Export Plug-In . SVG Version: 6.00 Build 0)  -->
<svg version="1.1" id="Camada_1" xmlns="http://www.w3.org/2000/svg" xmlns:xlink="http://www.w3.org/1999/xlink" x="0px" y="0px"
	 viewBox="0 0 32 32" style="enable-background:new 0 0 32 32;" xml:space="preserve">
<style type="text/css">
	.st0{fill:#737A83;}
</style>
<path id="Icon_awesome-euro-sign" class="st0" d="M25.5,25.9c-0.1-0.4-0.5-0.7-0.9-0.6c0,0,0,0,0,0c-0.9,0.2-1.9,0.3-2.9,0.3
	c-3.4,0-6.5-2.1-7.6-5.4h7.1c0.4,0,0.7-0.2,0.7-0.6l0.4-1.8c0.1-0.4-0.2-0.8-0.6-0.9c-0.1,0-0.1,0-0.2,0h-8.4
	c-0.1-0.9-0.1-1.8,0-2.7h9.2c0.4,0,0.7-0.2,0.7-0.6l0.4-1.9c0.1-0.4-0.2-0.8-0.6-0.9c-0.1,0-0.1,0-0.2,0h-8.7
	c1.3-2.9,4.2-4.8,7.4-4.7c0.8,0,1.6,0.1,2.4,0.3c0.4,0.1,0.8-0.2,0.9-0.5l0.8-2.8c0.1-0.4-0.1-0.8-0.5-0.9c0,0,0,0-0.1,0
	c-1.1-0.2-2.2-0.3-3.3-0.3c-5.8-0.1-11,3.6-12.8,9H6.7C6.3,11,6,11.3,6,11.7c0,0,0,0,0,0v1.9c0,0.4,0.3,0.8,0.8,0.8c0,0,0,0,0,0h1.4
	C8,15.2,8,16.1,8.1,17H6.7C6.3,17,6,17.3,6,17.8c0,0,0,0,0,0v1.8c0,0.4,0.3,0.8,0.8,0.8c0,0,0,0,0,0h1.9c1.6,5.9,6.9,9.9,13,9.8
	c1.3,0,2.6-0.2,3.8-0.5c0.4-0.1,0.6-0.5,0.6-0.9L25.5,25.9L25.5,25.9z"/>
</svg>
