<?xml version="1.0" encoding="utf-8"?>
<!-- Generator: Adobe Illustrator 25.2.1, SVG Export Plug-In . SVG Version: 6.00 Build 0)  -->
<svg version="1.1" id="Camada_1" xmlns="http://www.w3.org/2000/svg" xmlns:xlink="http://www.w3.org/1999/xlink" x="0px" y="0px"
	 viewBox="0 0 32 32" style="enable-background:new 0 0 32 32;" xml:space="preserve">
<style type="text/css">
	.st0{fill:#ACC2D3;}
	.st1{fill:#FFFFFF;}
	.st2{fill:none;stroke:#FFFFFF;}
	.st3{fill:none;stroke:#737A83;}
	.st4{fill:#737A83;}
	.st5{fill:#263F62;}
	.st6{fill:none;stroke:#263F62;stroke-width:3;stroke-linecap:round;stroke-linejoin:round;}
	.st7{fill:none;stroke:#737A83;stroke-linecap:round;stroke-linejoin:round;}
	.st8{fill:#FFFFFF;stroke:#737A83;}
	.st9{fill:#747A84;}
	.st10{fill:#F78946;stroke:#FFFFFF;stroke-linecap:round;stroke-linejoin:round;}
	.st11{fill:#F78946;stroke:#FFFFFF;stroke-width:2;stroke-linecap:round;stroke-linejoin:round;}
</style>
<path id="Icon_ionic-ios-flash" class="st5" d="M23.5,14h-6.8L20,2.3c0-0.1,0-0.3-0.2-0.3c-0.1,0-0.2,0-0.3,0.1L8.1,17.2
	c-0.2,0.2-0.1,0.6,0.1,0.7C8.3,18,8.4,18,8.5,18h6.8L12,29.7c0,0.1,0,0.3,0.2,0.3c0.1,0,0.2,0,0.3-0.1l11.5-15
	c0.2-0.2,0.1-0.6-0.1-0.7C23.7,14,23.6,14,23.5,14z"/>
</svg>
