<?xml version="1.0" encoding="utf-8"?>
<!-- Generator: Adobe Illustrator 25.2.1, SVG Export Plug-In . SVG Version: 6.00 Build 0)  -->
<svg version="1.1" id="Camada_1" xmlns="http://www.w3.org/2000/svg" xmlns:xlink="http://www.w3.org/1999/xlink" x="0px" y="0px"
	 viewBox="0 0 32 32" style="enable-background:new 0 0 32 32;" xml:space="preserve">
<style type="text/css">
	.st0{fill:#FFFFFF;}
	.st1{fill:none;stroke:#263F62;stroke-width:3;stroke-linecap:round;stroke-linejoin:round;}
	.st2{fill:none;stroke:#FFFFFF;}
	.st3{fill:#FFFFFF;stroke:#737A83;}
	.st4{fill:#747A84;}
	.st5{fill:#737A83;}
	.st6{fill:none;stroke:#737A83;}
	.st7{fill:#F78946;stroke:#FFFFFF;stroke-linecap:round;stroke-linejoin:round;}
	.st8{fill:#F78946;stroke:#FFFFFF;stroke-width:2;stroke-linecap:round;stroke-linejoin:round;}
</style>
<g id="Grupo_401" transform="translate(237.446 6.31)">
	<path id="Caminho_36" class="st0" d="M-227.8,8.1h-2.9v-3h3.3V1.9l-3.8-0.3l-4.2,4.3l0,11.9h4.7v-6.7h2.9L-227.8,8.1z"/>
	<path id="Caminho_37" class="st0" d="M-225,1.8l-2,15.9h4l0.2-2.9h1.4l0.2,2.9h3.9l-2.2-15.9H-225z M-222.9,12
		c0.1-1.4,0.4-3.6,0.7-6.7c0.2,2.7,0.4,4.9,0.6,6.7L-222.9,12z"/>
	<path id="Caminho_38" class="st0" d="M-210.7,1.8v7.2l-2.2-7.2h-3.2v15.9h3.2v-7.2l2,7.2h3.4V1.8H-210.7z"/>
</g>
</svg>
