<?xml version="1.0" encoding="utf-8"?>
<!-- Generator: Adobe Illustrator 25.2.1, SVG Export Plug-In . SVG Version: 6.00 Build 0)  -->
<svg version="1.1" id="Camada_1" xmlns="http://www.w3.org/2000/svg" xmlns:xlink="http://www.w3.org/1999/xlink" x="0px" y="0px"
	 viewBox="0 0 32 32" style="enable-background:new 0 0 32 32;" xml:space="preserve">
<style type="text/css">
	.st0{fill:#737A83;}
</style>
<g id="Grupo_381" transform="translate(600.329 323.445)">
	<g id="Caminho_36-2">
		<path class="st0" d="M-593.1-299.2h-5.2l-0.1-12.1l4.3-4.3l4.1,0.4v3.7h-3.2v2.4h2.9v3.5h-2.9V-299.2z M-597.7-299.8h4.1v-6.5h2.9
			v-2.4h-2.9v-3.5h3.2v-2.6l-3.4-0.3l-4,4L-597.7-299.8z"/>
	</g>
	<g id="Caminho_37-2">
		<path class="st0" d="M-579.9-299.3h-4.4l-0.2-2.8h-0.9l-0.2,2.8h-4.5l2-16.1h6L-579.9-299.3z M-583.8-299.8h3.3l-2.1-15h-5
			l-1.9,15h3.3l0.2-2.8h1.9L-583.8-299.8z M-584.1-304.8h-1.9l0-0.3c0.1-1,0.3-3.2,0.7-6.5l0.5,0c0.1,1,0.2,2,0.2,2.9
			c0.1,1.4,0.2,2.6,0.3,3.6L-584.1-304.8z M-585.4-305.4h0.7c-0.1-1-0.2-2.1-0.3-3.4c0-0.1,0-0.1,0-0.2
			C-585.2-307.3-585.3-306.1-585.4-305.4z"/>
	</g>
	<g id="Caminho_38-2">
		<path class="st0" d="M-570.3-299.3h-3.8l-1.5-5.4v5.4h-3.7v-16.1h3.7l1.6,5.4v-5.4h3.7V-299.3z M-573.7-299.9h2.8v-15h-2.6v6.8
			l-0.5,0.1l-2-6.8h-2.7v15h2.6v-6.8l0.5-0.1L-573.7-299.9z"/>
	</g>
</g>
</svg>
