<?xml version="1.0" encoding="utf-8"?>
<!-- Generator: Adobe Illustrator 25.2.1, SVG Export Plug-In . SVG Version: 6.00 Build 0)  -->
<svg version="1.1" id="Camada_1" xmlns="http://www.w3.org/2000/svg" xmlns:xlink="http://www.w3.org/1999/xlink" x="0px" y="0px"
	 viewBox="0 0 32 32" style="enable-background:new 0 0 32 32;" xml:space="preserve">
<style type="text/css">
	.st0{fill-rule:evenodd;clip-rule:evenodd;fill:#737A83;}
</style>
<path id="futebol" class="st0" d="M30,15.3c0,0.2,0,0.5,0,0.7c0,7.7-6.3,14-14,14S2,23.7,2,16c0-0.6,0-1.1,0.1-1.7
	c0.2-1.9,0.9-3.7,1.8-5.4c1.7-3,4.5-5.2,7.7-6.2c7.3-2.4,15.2,1.6,17.6,8.9C29.7,12.8,29.9,14,30,15.3z M26.2,15.3h1.4
	c-0.1-2.1-0.8-4.1-1.9-5.8h-4.7l-2.6-4.6l0.2-0.3c-1.9-0.4-3.9-0.3-5.8,0.2l0,0.1l-2.6,4.6H6.4c-1,1.5-1.6,3.2-1.9,4.9h1.3L8.4,19
	l-2,3.5c1.5,2.2,3.6,3.8,6.1,4.6l1.6-2.8h5.3l1.3,2.3c1.8-0.8,3.4-2.1,4.5-3.7l-1.7-3L26.2,15.3L26.2,15.3z M13.4,11.3h5.3l2.6,4.6
	l-2.6,4.6h-5.3l-2.6-4.6L13.4,11.3z"/>
</svg>
