<?xml version="1.0" encoding="utf-8"?>
<!-- Generator: Adobe Illustrator 25.2.1, SVG Export Plug-In . SVG Version: 6.00 Build 0)  -->
<svg version="1.1" id="Camada_1" xmlns="http://www.w3.org/2000/svg" xmlns:xlink="http://www.w3.org/1999/xlink" x="0px" y="0px"
	 viewBox="0 0 32 32" style="enable-background:new 0 0 32 32;" xml:space="preserve">
<style type="text/css">
	.st0{fill-rule:evenodd;clip-rule:evenodd;fill:#737A83;}
</style>
<path id="futsal" class="st0" d="M15.9,11.1l-4.6,3.3l1.7,5.4h5.6l1.7-5.4L15.9,11.1z M23.9,24.1L22,24.3l-0.9,1.8
	C22.1,25.6,23.1,24.9,23.9,24.1z M10.8,26.1L10,24.3l-2-0.3C8.8,24.8,9.7,25.5,10.8,26.1z M11.3,23.8l1.5,3.2c2,0.6,4.2,0.6,6.3,0.1
	l1.7-3.3l-1.7-2.3H13L11.3,23.8L11.3,23.8z M4.8,14.7l1.7-1.6l-0.4-2.4C5.5,12,5.1,13.3,4.8,14.7z M7.2,14.2l-2.6,2.4
	c0.1,2.1,0.7,4.1,1.8,5.8l3.6,0.6l1.6-2.3l-1.8-5.7L7.2,14.2L7.2,14.2z M14,4.8l1.9,1l2-1C16.7,4.6,15.3,4.6,14,4.8z M15.1,7l-3-1.6
	c-1.9,0.7-3.6,1.9-4.8,3.4l0.5,3.5l2.6,0.8l4.7-3.4L15.1,7z M26.1,10.9l-0.4,1.9l1.4,1.5C27,13.1,26.7,12,26.1,10.9L26.1,10.9z
	 M24.2,12.4L24.9,9c-1.3-1.6-2.9-2.8-4.8-3.5l-3.2,1.6v2.7l4.7,3.4L24.2,12.4L24.2,12.4z M27.3,16.4l-2.6-2.6l-2.7,0.9l-1.9,5.7
	l1.7,2.3l3.5-0.4C26.5,20.5,27.2,18.5,27.3,16.4z M16,2c7.7,0,14,6.3,14,14c0,7.7-6.3,14-14,14C8.3,30,2,23.7,2,16
	c0-3.7,1.5-7.3,4.1-9.9C8.7,3.5,12.3,2,16,2z"/>
</svg>
