<?xml version="1.0" encoding="utf-8"?>
<!-- Generator: Adobe Illustrator 25.2.1, SVG Export Plug-In . SVG Version: 6.00 Build 0)  -->
<svg version="1.1" id="Camada_1" xmlns="http://www.w3.org/2000/svg" xmlns:xlink="http://www.w3.org/1999/xlink" x="0px" y="0px"
	 viewBox="0 0 185.8 185.8" style="enable-background:new 0 0 185.8 185.8;" xml:space="preserve">
<style type="text/css">
	.st0{fill:#F0F4F6;}
	.st1{fill:#737A83;}
	.st2{fill:#20B46B;}
</style>
<g id="grafico-quotas" transform="translate(-36.446 -49.97)">
	<g id="Grupo_197" transform="translate(36.446 82.596)">
		<path id="Caminho_203" class="st0" d="M27.1,22.5l0.1-0.1C27.1,22.4,27.1,22.4,27.1,22.5z"/>
		<path id="Caminho_204" class="st0" d="M165.4,2.2L165.4,2.2c-0.1-0.1-0.2-0.2-0.3-0.4C165.2,2,165.3,2.1,165.4,2.2z"/>
		<path id="Caminho_205" class="st0" d="M164.1,0.6c-0.2-0.2-0.3-0.4-0.5-0.6C163.8,0.2,163.9,0.4,164.1,0.6z"/>
		<path id="Caminho_206" class="st1" d="M84.6,135.8c-17.9-1.1-31.7-8.1-45.4-21.8c-20.6-20.6-27.6-51.2-18-78.7c0,0.1,0-0.1,0,0
			L5.4,29.2c-17.2,48.4,8.1,101.4,56.5,118.6c6.8,2.4,13.8,4,20.9,4.8L84.6,135.8z"/>
	</g>
	<path id="Caminho_207" class="st2" d="M129.4,50C89,50,54.5,76.2,41.7,112.2l15.8,6.1C71.1,78.6,114.3,57.4,154,71
		s60.9,56.7,47.3,96.4c-10.5,30.7-39.4,51.4-71.9,51.4c-1.9,0-6.5-0.3-8.3-0.5l-1.9,16.8c3.4,0.4,6.8,0.6,10.2,0.6
		c51.3,0,92.9-41.6,92.9-92.9C222.3,91.6,180.7,50,129.4,50C129.4,50,129.4,50,129.4,50z"/>
</g>
</svg>
