<?xml version="1.0" encoding="utf-8"?>
<!-- Generator: Adobe Illustrator 25.2.1, SVG Export Plug-In . SVG Version: 6.00 Build 0)  -->
<svg version="1.1" id="Camada_1" xmlns="http://www.w3.org/2000/svg" xmlns:xlink="http://www.w3.org/1999/xlink" x="0px" y="0px"
	 viewBox="0 0 52 52" style="enable-background:new 0 0 52 52;" xml:space="preserve">
<style type="text/css">
	.st0{fill:#737A83;}
</style>
<g id="Grupo_399" transform="translate(1648.809 -2942.078)">
	<g id="Grupo_396" transform="translate(-1647.809 2943.078)">
		<g id="Grupo_187" transform="translate(0 0)">
			<g id="Icon_awesome-user-alt-2">
				<path class="st0" d="M44.5,28.8c-1.8-1.8-4.2-2.8-6.7-2.8l-3.8,0l-0.2,0.1C31.9,27,30,27.3,28.1,27c0.3-0.3,0.5-0.6,0.8-0.9
					c0.2,0,0.4,0,0.6,0c5.8,0,10.5-4.7,10.5-10.5S35.2,5.2,29.4,5.2c-3.4,0-6.3,1.6-8.3,4c-0.2,0-0.4,0-0.6,0
					c-5.8,0-10.5,4.7-10.5,10.5c0,3.7,1.9,6.9,4.7,8.8c-0.5,0.5-1,1-1.4,1.6h-1.2c-5.2,0-9.4,4.2-9.4,9.4v1c0,2.3,1.9,4.2,4.2,4.2
					h27.1c2.3,0,4.1-1.8,4.2-4H43c2.3,0,4.2-1.9,4.2-4.2v-1C47.2,33,46.2,30.6,44.5,28.8z M29.4,7.4c4.6,0,8.3,3.7,8.3,8.3
					c0,4.3-3.3,7.9-7.6,8.2c0.6-1.3,0.9-2.7,0.9-4.2c0-4.7-3.1-8.7-7.3-10C25.2,8.3,27.2,7.4,29.4,7.4z M12.3,19.7
					c0-4.3,3.3-7.9,7.6-8.2c0.2,0,0.5,0,0.7,0c0.6,0,1.1,0.1,1.7,0.2c3.8,0.8,6.6,4.1,6.6,8.1c0,1.5-0.4,2.9-1.1,4.1
					c-0.4,0.7-0.9,1.3-1.5,1.9c-0.2,0.2-0.5,0.4-0.7,0.6c-1.4,1-3.1,1.7-5,1.7c-1.3,0-2.6-0.3-3.7-0.9
					C14.1,25.7,12.3,22.9,12.3,19.7z M36.1,40.6c0,0.1,0,0.2,0,0.2c-0.1,1-1,1.8-2,1.8H7c-1.1,0-2-0.9-2-2v-1c0-4,3.2-7.2,7.2-7.2
					h3.4c3.2,1.4,6.8,1.4,10,0h3.5c3.6,0.1,6.5,2.8,7,6.3c0,0.3,0.1,0.6,0.1,0.9V40.6z M45,36.5c0,1.1-0.9,2-2,2h-4.7
					c-0.2-2.2-1.2-4.2-2.7-5.7c-1.8-1.8-4.2-2.8-6.7-2.8h-3.8l-0.2,0.1c-2.7,1.2-5.9,1.2-8.6,0l0,0c0.2-0.2,0.5-0.4,0.7-0.6
					c1.1,0.4,2.3,0.6,3.6,0.6c1.9,0,3.7-0.5,5.3-1.4c2.8,0.9,5.9,0.7,8.6-0.5H38c3.9,0.1,7.1,3.3,7,7.2V36.5z"/>
			</g>
		</g>
	</g>
</g>
</svg>
