<?xml version="1.0" encoding="utf-8"?>
<!-- Generator: Adobe Illustrator 25.2.1, SVG Export Plug-In . SVG Version: 6.00 Build 0)  -->
<svg version="1.1" id="Camada_1" xmlns="http://www.w3.org/2000/svg" xmlns:xlink="http://www.w3.org/1999/xlink" x="0px" y="0px"
	 viewBox="0 0 32 32" style="enable-background:new 0 0 32 32;" xml:space="preserve">
<style type="text/css">
	.st0{fill:#737A83;}
</style>
<g id="Grupo_536" transform="translate(-170.391 -1026.499)">
	<g id="Grupo_187" transform="translate(171.391 1027.499)">
		<g id="Icon_awesome-user-alt-2">
			<path class="st0" d="M27.1,17.6c-1.1-1.1-2.5-1.7-4-1.7h-2.4l-0.1,0c-1.3,0.6-2.8,0.8-4.2,0.5c0.3-0.3,0.6-0.6,0.9-1
				c0.2,0,0.3,0,0.5,0c3.5,0,6.4-2.9,6.4-6.4c0-3.5-2.9-6.4-6.4-6.4c-2.1,0-3.9,1-5.1,2.6c-0.2,0-0.3,0-0.5,0
				c-3.5,0-6.4,2.9-6.4,6.4c0,2.3,1.3,4.4,3.2,5.5c-0.5,0.4-0.9,0.8-1.2,1.3H6.9c-3.2,0-5.7,2.6-5.7,5.7v0.7c0,1.3,1.1,2.4,2.4,2.4
				h17.2c1.3,0,2.4-1.1,2.4-2.4v-0.1h3.2c1.3,0,2.4-1.1,2.4-2.4v-0.7C28.8,20.1,28.2,18.7,27.1,17.6z M17.8,3.6c3,0,5.5,2.5,5.5,5.5
				c0,3-2.4,5.5-5.4,5.5c0.5-0.9,0.7-1.9,0.7-2.9c0-3-2.1-5.5-4.8-6.2C14.7,4.3,16.2,3.6,17.8,3.6z M6.7,11.7c0-3,2.4-5.5,5.4-5.5h0
				c0.3,0,0.6,0,1,0.1c2.6,0.5,4.5,2.7,4.5,5.4c0,1-0.3,2-0.8,2.9c-0.2,0.3-0.4,0.5-0.6,0.8c-0.3,0.3-0.6,0.6-0.9,0.8
				c-0.4,0.3-0.9,0.5-1.4,0.7c-0.6,0.2-1.2,0.3-1.8,0.3c-0.4,0-0.7,0-1.1-0.1c0,0,0,0,0,0c-0.5-0.1-0.9-0.2-1.3-0.4
				C8,15.7,6.7,13.8,6.7,11.7z M22.3,24.8c0,0.8-0.7,1.5-1.5,1.5H3.6c-0.8,0-1.5-0.7-1.5-1.5v-0.7c0-2.7,2.2-4.8,4.8-4.8h2.2
				c2,0.9,4.2,0.9,6.2,0h2.2c1.3,0,2.5,0.5,3.4,1.4c0.8,0.8,1.3,1.9,1.4,3.1c0,0.1,0,0.2,0,0.3V24.8z M27.9,22.3
				c0,0.8-0.7,1.5-1.5,1.5h-3.2c-0.1-1.4-0.6-2.7-1.6-3.7c-1.1-1.1-2.5-1.7-4.1-1.7h-2.4l-0.1,0c-1.8,0.8-3.9,0.8-5.6,0l-0.1,0H8.9
				C9,18.4,9,18.3,9.1,18.2c0.2-0.2,0.5-0.5,0.8-0.6c0.7,0.3,1.5,0.4,2.3,0.4c1.2,0,2.3-0.3,3.3-0.9c1.8,0.6,3.7,0.5,5.4-0.3h2.2
				c1.3,0,2.5,0.5,3.4,1.4c0.9,0.9,1.4,2.1,1.4,3.4V22.3z"/>
		</g>
	</g>
</g>
</svg>
