<?xml version="1.0" encoding="utf-8"?>
<!-- Generator: Adobe Illustrator 25.2.1, SVG Export Plug-In . SVG Version: 6.00 Build 0)  -->
<svg version="1.1" id="Camada_1" xmlns="http://www.w3.org/2000/svg" xmlns:xlink="http://www.w3.org/1999/xlink" x="0px" y="0px"
	 viewBox="0 0 240 240" style="enable-background:new 0 0 240 240;" xml:space="preserve">
<style type="text/css">
	.st0{fill:#737A83;}
</style>
<path id="Icon_awesome-cogs" class="st0" d="M181.2,99.5l-2.6,4.6c-1,1.7-3,2.4-4.8,1.7c-3.7-1.4-7.2-3.4-10.2-5.9
	c-1.5-1.2-1.8-3.3-0.9-5l2.6-4.6c-2.2-2.6-3.9-5.5-5.1-8.7H155c-1.9,0-3.6-1.4-3.9-3.3c-0.7-3.9-0.7-7.9,0-11.8
	c0.3-1.9,2-3.3,3.9-3.3h5.3c1.1-3.2,2.9-6.2,5.1-8.7l-2.6-4.6c-1-1.7-0.6-3.8,0.9-5c3.1-2.6,6.5-4.6,10.2-6c1.8-0.7,3.8,0,4.8,1.7
	l2.6,4.6c3.3-0.6,6.8-0.6,10.1,0l2.6-4.6c1-1.7,3-2.4,4.8-1.7c3.7,1.4,7.2,3.4,10.2,5.9c1.5,1.2,1.8,3.3,0.9,5l-2.6,4.6
	c2.2,2.6,3.9,5.5,5.1,8.7h5.3c1.9,0,3.6,1.4,3.9,3.3c0.7,3.9,0.7,7.9,0,11.8c-0.3,1.9-2,3.3-3.9,3.3h-5.3c-1.1,3.2-2.9,6.2-5.1,8.7
	l2.6,4.6c1,1.7,0.6,3.8-0.9,5c-3.1,2.5-6.5,4.5-10.2,5.9c-1.8,0.7-3.8,0-4.8-1.7l-2.6-4.6C188,100.1,184.6,100.1,181.2,99.5
	L181.2,99.5z M177.9,80.8c4.8,4.5,12.3,4.3,16.8-0.5c4.3-4.6,4.3-11.8,0-16.3c-4.8-4.5-12.3-4.2-16.8,0.6
	C173.6,69.1,173.6,76.2,177.9,80.8L177.9,80.8z M141.1,129.8l10.7,5.4c3.2,1.9,4.6,5.8,3.3,9.3c-3.3,7.7-7.9,14.8-13.6,21
	c-2.4,2.8-6.5,3.5-9.7,1.7l-9.3-5.4c-5.2,4.4-11.1,7.9-17.5,10.1v10.7c0,3.7-2.6,6.9-6.3,7.5c-8,1.4-16.2,1.4-24.2,0
	c-3.7-0.6-6.4-3.8-6.4-7.5v-10.7c-6.4-2.3-12.3-5.7-17.5-10.1l-9.3,5.3c-3.2,1.9-7.3,1.1-9.7-1.7c-5.6-6.2-10.2-13.3-13.5-20.9
	c-1.3-3.5,0.1-7.4,3.3-9.3l10.6-5.4c-1.2-6.7-1.2-13.5,0-20.2l-10.6-5.4c-3.2-1.8-4.6-5.8-3.3-9.2c3.3-7.7,7.8-14.8,13.5-21
	c2.4-2.8,6.5-3.5,9.7-1.7l9.3,5.4C56,73.3,62,69.8,68.4,67.6V56.9c0-3.7,2.6-6.8,6.2-7.5c8-1.4,16.2-1.4,24.2,0
	c3.7,0.6,6.4,3.8,6.4,7.5v10.7c6.4,2.3,12.3,5.7,17.5,10.1l9.3-5.4c3.2-1.9,7.3-1.1,9.7,1.7c5.6,6.2,10.1,13.3,13.4,21
	c1.3,3.5,0,7.4-3.2,9.3l-10.7,5.4C142.4,116.3,142.4,123.1,141.1,129.8L141.1,129.8z M103.7,136.6C122.5,112,94.5,84,70,102.9
	C51.1,127.4,79.1,155.4,103.7,136.6L103.7,136.6z M181.2,194.8l-2.6,4.6c-1,1.7-3,2.4-4.8,1.7c-3.7-1.4-7.2-3.4-10.2-5.9
	c-1.5-1.2-1.8-3.3-0.9-5l2.6-4.6c-2.2-2.6-3.9-5.5-5.1-8.7H155c-1.9,0-3.6-1.4-3.9-3.3c-0.7-3.9-0.7-7.9,0-11.8
	c0.3-1.9,2-3.3,3.9-3.3h5.3c1.1-3.2,2.9-6.2,5.1-8.7l-2.6-4.6c-1-1.7-0.6-3.8,0.9-5c3.1-2.5,6.5-4.5,10.2-5.9c1.8-0.7,3.8,0,4.8,1.7
	l2.6,4.6c3.3-0.6,6.8-0.6,10.1,0l2.6-4.6c1-1.7,3-2.4,4.8-1.7c3.7,1.4,7.2,3.4,10.2,5.9c1.5,1.2,1.8,3.3,0.9,5l-2.6,4.6
	c2.2,2.6,3.9,5.5,5.1,8.7h5.3c1.9,0,3.6,1.4,3.9,3.3c0.7,3.9,0.7,7.9,0,11.8c-0.3,1.9-2,3.3-3.9,3.3h-5.3c-1.1,3.2-2.9,6.2-5.1,8.7
	l2.6,4.6c1,1.7,0.6,3.8-0.9,5c-3.1,2.5-6.5,4.5-10.2,5.9c-1.8,0.7-3.8,0-4.8-1.7l-2.6-4.6C188,195.4,184.6,195.4,181.2,194.8
	L181.2,194.8z M177.9,176c4.8,4.5,12.3,4.2,16.8-0.6c4.3-4.6,4.3-11.7,0-16.2c-4.8-4.5-12.3-4.2-16.8,0.6
	C173.6,164.3,173.6,171.4,177.9,176z"/>
</svg>
