<?xml version="1.0" encoding="utf-8"?>
<!-- Generator: Adobe Illustrator 25.2.1, SVG Export Plug-In . SVG Version: 6.00 Build 0)  -->
<svg version="1.1" id="Camada_1" xmlns="http://www.w3.org/2000/svg" xmlns:xlink="http://www.w3.org/1999/xlink" x="0px" y="0px"
	 viewBox="0 0 240 240" style="enable-background:new 0 0 240 240;" xml:space="preserve">
<style type="text/css">
	.st0{fill:#00122B;}
	.st1{fill:#F0F4F6;}
</style>
<g id="Grupo_500" transform="translate(-171.391 -1027.499)">
	<g id="Grupo_187" transform="translate(171.391 1027.499)">
		<path id="Icon_awesome-user-alt" class="st0" d="M142.1,120.4c25.8,0,46.7-20.9,46.7-46.7c0-25.8-20.9-46.7-46.7-46.7
			S95.4,48,95.4,73.8c0,0,0,0,0,0C95.4,99.5,116.3,120.4,142.1,120.4z M183.5,130.8h-17.9c-15,6.9-32.3,6.9-47.2,0h-17.9
			c-22.9,0-41.5,18.6-41.5,41.5c0,0,0,0,0,0v5.2c0,8.6,7,15.5,15.5,15.5h134.8c8.6,0,15.5-7,15.5-15.5v-5.2
			C225,149.4,206.4,130.8,183.5,130.8L183.5,130.8z"/>
		<path id="Icon_awesome-user-alt-2" class="st1" d="M98,140.3c25.8,0,46.7-20.9,46.7-46.7C144.6,67.9,123.7,47,98,47
			S51.3,67.9,51.3,93.7c0,0,0,0,0,0C51.3,119.4,72.2,140.3,98,140.3z M139.4,150.7h-17.9c-15,6.9-32.3,6.9-47.2,0H56.5
			c-22.9,0-41.5,18.6-41.5,41.5c0,0,0,0,0,0v5.2c0,8.6,7,15.5,15.5,15.5h134.8c8.6,0,15.5-7,15.5-15.5v-5.2
			C180.9,169.3,162.3,150.7,139.4,150.7L139.4,150.7z"/>
	</g>
</g>
</svg>
