<?xml version="1.0" encoding="utf-8"?>
<!-- Generator: Adobe Illustrator 25.2.1, SVG Export Plug-In . SVG Version: 6.00 Build 0)  -->
<svg version="1.1" id="Camada_1" xmlns="http://www.w3.org/2000/svg" xmlns:xlink="http://www.w3.org/1999/xlink" x="0px" y="0px"
	 viewBox="0 0 32 32" style="enable-background:new 0 0 32 32;" xml:space="preserve">
<style type="text/css">
	.st0{fill:#ACC2D3;}
	.st1{fill:#FFFFFF;}
	.st2{fill:none;stroke:#FFFFFF;}
	.st3{fill:none;stroke:#737A83;}
	.st4{fill:#737A83;}
	.st5{fill:none;stroke:#263F62;stroke-width:3;stroke-linecap:round;stroke-linejoin:round;}
	.st6{fill:#FFFFFF;stroke:#737A83;}
	.st7{fill:#747A84;}
	.st8{fill:#F78946;stroke:#FFFFFF;stroke-linecap:round;stroke-linejoin:round;}
	.st9{fill:#F78946;stroke:#FFFFFF;stroke-width:2;stroke-linecap:round;stroke-linejoin:round;}
</style>
<path id="Icon_ionic-md-heart-empty" class="st0" d="M22.3,3.1c-2.4,0-4.7,1.1-6.3,3c-1.6-1.9-3.9-2.9-6.3-3C5.5,3,2,6.4,2,10.6
	c0,0.1,0,0.1,0,0.2c0,5.4,4.8,9.6,12,16.3l2,1.8l2-1.8c7.2-6.6,12-10.9,12-16.3c0.1-4.2-3.3-7.7-7.5-7.7C22.4,3.1,22.4,3.1,22.3,3.1
	z M16.9,25.2l-0.3,0.3L16,26l-0.6-0.5l-0.3-0.3c-2.9-2.5-5.7-5.3-8.3-8.2c-1.9-2.3-2.7-4.2-2.7-6.2c0-1.5,0.6-2.9,1.6-4
	c1-1,2.5-1.6,3.9-1.6c1.8,0,3.5,0.8,4.6,2.2l1.6,2l1.6-2c1.2-1.4,2.9-2.2,4.7-2.2c1.5,0,2.9,0.6,4,1.6c1,1.1,1.6,2.5,1.6,4
	c0,2-0.8,3.9-2.7,6.2C22.6,20,19.8,22.7,16.9,25.2z"/>
</svg>
