<?xml version="1.0" encoding="utf-8"?>
<!-- Generator: Adobe Illustrator 25.2.1, SVG Export Plug-In . SVG Version: 6.00 Build 0)  -->
<svg version="1.1" id="Camada_1" xmlns="http://www.w3.org/2000/svg" xmlns:xlink="http://www.w3.org/1999/xlink" x="0px" y="0px"
	 viewBox="0 0 32 32" style="enable-background:new 0 0 32 32;" xml:space="preserve">
<style type="text/css">
	.st0{fill-rule:evenodd;clip-rule:evenodd;fill:#737A83;}
	.st1{fill:#737A83;}
</style>
<path id="hoquei" class="st1" d="M16,6.1C8,6.1,2,8.7,2,12V20c0,3.4,6,5.9,14,5.9s14-2.6,14-5.9v-7.2c0-0.1,0-0.1-0.1-0.2
	c0-0.2,0-0.3,0.1-0.5C30,8.7,24,6.1,16,6.1z M16,8.7c6.5,0,10.5,1.9,10.5,3.3s-4,3.3-10.5,3.3S5.5,13.4,5.5,12S9.5,8.7,16,8.7z
	 M16,23.2c-6.5,0-10.5-1.9-10.5-3.3V16c3.3,1.4,6.9,2,10.5,1.9c3.6,0.1,7.2-0.6,10.5-1.9V20C26.5,21.3,22.5,23.2,16,23.2L16,23.2z"
	/>
</svg>
