<?xml version="1.0" encoding="utf-8"?>
<!-- Generator: Adobe Illustrator 25.2.1, SVG Export Plug-In . SVG Version: 6.00 Build 0)  -->
<svg version="1.1" id="Camada_1" xmlns="http://www.w3.org/2000/svg" xmlns:xlink="http://www.w3.org/1999/xlink" x="0px" y="0px"
	 viewBox="0 0 32 32" style="enable-background:new 0 0 32 32;" xml:space="preserve">
<style type="text/css">
	.st0{fill:#ACC2D3;}
	.st1{fill:#FFFFFF;}
	.st2{fill:none;stroke:#FFFFFF;}
	.st3{fill:none;stroke:#737A83;}
	.st4{fill:#737A83;}
	.st5{fill:none;stroke:#263F62;stroke-width:3;stroke-linecap:round;stroke-linejoin:round;}
	.st6{fill:#FFFFFF;stroke:#737A83;}
	.st7{fill:#747A84;}
	.st8{fill:#F78946;stroke:#FFFFFF;stroke-linecap:round;stroke-linejoin:round;}
	.st9{fill:#F78946;stroke:#FFFFFF;stroke-width:2;stroke-linecap:round;stroke-linejoin:round;}
</style>
<g id="Icon_ionic-md-help-circle-outline" transform="translate(277.82 132.855)">
	<path id="Caminho_188" d="M-261.8-128c6.2,0,11.2,5,11.2,11.2c0,6.2-5,11.2-11.2,11.2c-6.2,0-11.2-5-11.2-11.2c0-3,1.2-5.8,3.3-7.9
		C-267.6-126.9-264.8-128-261.8-128 M-261.8-130.9c-7.7,0-14,6.3-14,14s6.3,14,14,14c7.7,0,14-6.3,14-14
		C-247.8-124.6-254.1-130.8-261.8-130.9C-261.8-130.8-261.8-130.8-261.8-130.9L-261.8-130.9z"/>
	<g id="Grupo_165" transform="translate(7.912 6.393)">
		<path id="Caminho_189" d="M-271.1-117.7h2.8v2.8h-2.8V-117.7z"/>
		<path id="Caminho_190" d="M-268.3-119.1h-2.8c0-4.5,4.2-4.2,4.2-7c0-1.5-1.3-2.8-2.8-2.8c-1.5,0-2.8,1.3-2.8,2.8h-2.8
			c0-3.1,2.5-5.6,5.6-5.6s5.6,2.5,5.6,5.6C-264.1-122.6-268.3-122.2-268.3-119.1z"/>
	</g>
</g>
</svg>
