<?xml version="1.0" encoding="utf-8"?>
<!-- Generator: Adobe Illustrator 25.2.1, SVG Export Plug-In . SVG Version: 6.00 Build 0)  -->
<svg version="1.1" id="Camada_1" xmlns="http://www.w3.org/2000/svg" xmlns:xlink="http://www.w3.org/1999/xlink" x="0px" y="0px"
	 viewBox="0 0 32 32" style="enable-background:new 0 0 32 32;" xml:space="preserve">
<style type="text/css">
	.st0{fill:#ACC2D3;}
</style>
<path id="Icon_simple-instagram" class="st0" d="M16,2c-3.8,0-4.3,0-5.8,0.1c-1.2,0-2.3,0.2-3.4,0.7C5.9,3.1,5,3.6,4.3,4.3
	C3.6,5,3.1,5.9,2.7,6.8c-0.4,1.1-0.6,2.2-0.7,3.4C2,11.7,2,12.2,2,16s0,4.3,0.1,5.8c0,1.2,0.2,2.3,0.7,3.4c0.4,0.9,0.9,1.8,1.6,2.5
	c0.7,0.7,1.5,1.3,2.5,1.6c1.1,0.4,2.2,0.6,3.4,0.7c1.5,0.1,2,0.1,5.8,0.1s4.3,0,5.8-0.1c1.2,0,2.3-0.2,3.4-0.7
	c1.9-0.7,3.4-2.2,4.1-4.1c0.4-1.1,0.6-2.2,0.7-3.4c0.1-1.5,0.1-2,0.1-5.8s0-4.3-0.1-5.8c0-1.2-0.2-2.3-0.7-3.4
	c-0.4-0.9-0.9-1.8-1.6-2.5c-0.7-0.7-1.5-1.3-2.5-1.6c-1.1-0.4-2.2-0.6-3.4-0.7C20.3,2,19.8,2,16,2z M16,4.5c3.7,0,4.2,0,5.7,0.1
	c0.9,0,1.8,0.2,2.6,0.5c1.2,0.5,2.2,1.4,2.7,2.7c0.3,0.8,0.5,1.7,0.5,2.6c0.1,1.5,0.1,1.9,0.1,5.7s0,4.2-0.1,5.7
	c0,0.9-0.2,1.8-0.5,2.6c-0.2,0.6-0.6,1.2-1,1.6c-0.5,0.5-1,0.8-1.6,1c-0.8,0.3-1.7,0.5-2.6,0.5c-1.5,0.1-1.9,0.1-5.7,0.1
	s-4.2,0-5.7-0.1c-0.9,0-1.8-0.2-2.6-0.5c-0.6-0.2-1.2-0.6-1.6-1c-0.5-0.4-0.8-1-1-1.6c-0.3-0.8-0.5-1.7-0.5-2.6
	c-0.1-1.5-0.1-1.9-0.1-5.7s0-4.2,0.1-5.7c0-0.9,0.2-1.8,0.5-2.6c0.2-0.6,0.6-1.2,1-1.6c0.4-0.5,1-0.8,1.6-1c0.8-0.3,1.7-0.5,2.6-0.5
	C11.8,4.5,12.2,4.5,16,4.5L16,4.5z M16,8.8c-4,0-7.2,3.2-7.2,7.2s3.2,7.2,7.2,7.2s7.2-3.2,7.2-7.2C23.2,12,20,8.8,16,8.8
	C16,8.8,16,8.8,16,8.8z M16,20.7c-2.6,0-4.7-2.1-4.7-4.7s2.1-4.7,4.7-4.7s4.7,2.1,4.7,4.7l0,0C20.7,18.6,18.6,20.7,16,20.7
	C16,20.7,16,20.7,16,20.7z M25.2,8.5c0,0.9-0.8,1.7-1.7,1.7c-0.9,0-1.7-0.8-1.7-1.7s0.8-1.7,1.7-1.7l0,0C24.4,6.8,25.2,7.6,25.2,8.5
	z"/>
</svg>
