<?xml version="1.0" encoding="utf-8"?>
<!-- Generator: Adobe Illustrator 25.2.1, SVG Export Plug-In . SVG Version: 6.00 Build 0)  -->
<svg version="1.1" id="Camada_1" xmlns="http://www.w3.org/2000/svg" xmlns:xlink="http://www.w3.org/1999/xlink" x="0px" y="0px"
	 viewBox="0 0 32 32" style="enable-background:new 0 0 32 32;" xml:space="preserve">
<style type="text/css">
	.st0{fill:#737A83;}
</style>
<path id="Icon_awesome-thumbs-up" class="st0" d="M7.5,14.2H3c-0.7,0-1.3,0.6-1.3,1.3c0,0,0,0,0,0V29c0,0.7,0.6,1.3,1.3,1.3
	c0,0,0,0,0,0h4.5c0.7,0,1.3-0.6,1.3-1.3c0,0,0,0,0,0V15.6C8.8,14.8,8.2,14.2,7.5,14.2C7.5,14.2,7.5,14.2,7.5,14.2z M5.2,28.1
	c-0.7,0-1.3-0.6-1.3-1.3c0-0.7,0.6-1.3,1.3-1.3s1.3,0.6,1.3,1.3C6.6,27.5,6,28.1,5.2,28.1C5.2,28.1,5.2,28.1,5.2,28.1z M23.2,6.2
	c0,2.4-1.5,3.7-1.9,5.3H27c1.8,0,3.3,1.4,3.3,3.3c0,1-0.4,2-1.1,2.8l0,0c0.6,1.5,0.4,3.2-0.5,4.5c0.4,1.5,0.1,3-0.9,4.2
	c0.3,0.8,0.1,1.8-0.3,2.5c-1.1,1.6-4,1.7-6.4,1.7h-0.2c-2.3-0.1-4.6-0.7-6.7-1.8c-0.9-0.5-1.9-0.8-3-0.9c-0.4,0-0.7-0.3-0.7-0.7V15
	c0-0.2,0.1-0.4,0.2-0.5c2.2-2.2,3.2-4.5,5-6.3c0.8-1,1.3-2.1,1.4-3.3c0.2-1,0.8-3.2,1.9-3.2C20.5,1.7,23.2,2.1,23.2,6.2z"/>
</svg>
