<?xml version="1.0" encoding="utf-8"?>
<!-- Generator: Adobe Illustrator 25.2.1, SVG Export Plug-In . SVG Version: 6.00 Build 0)  -->
<svg version="1.1" id="Camada_1" xmlns="http://www.w3.org/2000/svg" xmlns:xlink="http://www.w3.org/1999/xlink" x="0px" y="0px"
	 viewBox="0 0 32 32" style="enable-background:new 0 0 32 32;" xml:space="preserve">
<style type="text/css">
	.st0{fill:#FFFFFF;}
</style>
<g id="Icon_awesome-thumbs-up">
	<path class="st0" d="M20.8,30h-0.2c-2.3-0.1-4.4-0.7-6.5-1.7c-0.8-0.4-1.7-0.7-2.6-0.8c-0.5,0-1-0.5-1-1.2V15
		c0-0.3,0.1-0.5,0.2-0.6l0.2-0.2c1.1-1.1,1.9-2.2,2.6-3.2c0.7-1,1.3-1.9,2.1-2.7c0.6-0.8,1-1.8,1.2-2.8C16.9,4.5,17.4,2,18.9,2
		c1.6,0,4.2,0.6,4.2,4.8c0,1.5-0.6,2.6-1.1,3.6c-0.2,0.3-0.3,0.7-0.5,1h4.7c2,0,3.6,1.5,3.7,3.5c0,1-0.4,2-1,2.7
		c0.5,1.4,0.3,2.9-0.5,4.1c0.3,1.4,0,2.9-0.9,4c0.2,0.8,0,1.6-0.4,2.4C25.9,30,23.1,30,20.8,30z M11.5,14.8
		C11.5,14.9,11.5,14.9,11.5,14.8C11.4,15,11.4,15,11.4,15v11.3c0,0.2,0.1,0.2,0.1,0.2c1.1,0.1,2.1,0.4,3,0.9c1.9,1,4,1.5,6.1,1.6
		h0.2c2.1,0,4.7,0,5.7-1.4c0.3-0.6,0.4-1.3,0.2-1.9l-0.1-0.3l0.2-0.2c0.8-0.9,1.1-2.3,0.8-3.5l-0.1-0.2l0.1-0.2
		c0.8-1,0.9-2.5,0.4-3.7l-0.1-0.3l0.2-0.2c0.6-0.6,0.9-1.4,0.9-2.3c-0.1-1.5-1.2-2.6-2.7-2.6h-6l0.1-0.6c0.2-0.6,0.5-1.2,0.8-1.8
		c0.5-0.9,1-1.8,1-3.1c0-2.6-1.1-3.9-3.3-3.9c-0.1,0-0.8,0.1-1.3,2.6c-0.2,1.2-0.7,2.3-1.4,3.3c-0.8,0.8-1.4,1.7-2,2.6
		C13.4,12.6,12.7,13.7,11.5,14.8z M7.9,30H3.7c-1,0-1.7-0.8-1.7-1.8V15.5c0-0.9,0.8-1.7,1.7-1.7h4.2c1,0,1.7,0.8,1.7,1.8v12.6
		C9.7,29.2,8.9,30,7.9,30z M3.7,14.7c-0.4,0-0.8,0.4-0.8,0.8v12.6c0,0.5,0.3,0.9,0.8,0.9h4.2c0.4,0,0.8-0.4,0.8-0.8V15.6
		c0-0.5-0.3-0.9-0.8-0.9H3.7z M5.8,27.9c-0.9,0-1.7-0.8-1.7-1.7c0-0.9,0.8-1.7,1.7-1.7s1.7,0.8,1.7,1.7C7.6,27.1,6.8,27.9,5.8,27.9z
		 M5.8,25.4c-0.4,0-0.8,0.4-0.8,0.8c0,0.4,0.4,0.8,0.8,0.8s0.8-0.4,0.8-0.8C6.6,25.7,6.2,25.4,5.8,25.4z"/>
</g>
</svg>
