<?xml version="1.0" encoding="utf-8"?>
<!-- Generator: Adobe Illustrator 25.2.1, SVG Export Plug-In . SVG Version: 6.00 Build 0)  -->
<svg version="1.1" id="Camada_1" xmlns="http://www.w3.org/2000/svg" xmlns:xlink="http://www.w3.org/1999/xlink" x="0px" y="0px"
	 viewBox="0 0 32 32" style="enable-background:new 0 0 32 32;" xml:space="preserve">
<style type="text/css">
	.st0{fill:#ACC2D3;}
</style>
<path id="Icon_simple-linkedin" class="st0" d="M25.9,25.9h-4.1v-6.5c0-1.5,0-3.5-2.2-3.5c-2.2,0-2.5,1.7-2.5,3.4v6.6h-4.1V12.5h4
	v1.8h0.1c0.8-1.4,2.3-2.2,3.9-2.2c4.2,0,5,2.8,5,6.4L25.9,25.9L25.9,25.9z M8.2,10.7c-1.3,0-2.4-1.1-2.4-2.4s1.1-2.4,2.4-2.4
	c1.3,0,2.4,1.1,2.4,2.4C10.6,9.6,9.6,10.7,8.2,10.7C8.2,10.7,8.2,10.7,8.2,10.7z M10.3,25.9H6.1V12.5h4.2L10.3,25.9z M27.9,2H4.1
	C2.9,2,2,2.9,2,4c0,0,0,0,0,0v24c0,1.1,0.9,2,2.1,2c0,0,0,0,0,0h23.9c1.1,0,2.1-0.9,2.1-2V4C30,2.9,29.1,2,27.9,2L27.9,2z"/>
</svg>
