<?xml version="1.0" encoding="utf-8"?>
<!-- Generator: Adobe Illustrator 25.2.1, SVG Export Plug-In . SVG Version: 6.00 Build 0)  -->
<svg version="1.1" id="Camada_1" xmlns="http://www.w3.org/2000/svg" xmlns:xlink="http://www.w3.org/1999/xlink" x="0px" y="0px"
	 viewBox="0 0 32 32" style="enable-background:new 0 0 32 32;" xml:space="preserve">
<style type="text/css">
	.st0{fill:#ACC2D3;}
	.st1{fill:#FFFFFF;}
	.st2{fill:none;stroke:#FFFFFF;}
	.st3{fill:none;stroke:#737A83;}
	.st4{fill:#737A83;}
	.st5{fill:#263F62;}
	.st6{fill:none;stroke:#263F62;stroke-width:3;stroke-linecap:round;stroke-linejoin:round;}
	.st7{fill:none;stroke:#737A83;stroke-linecap:round;stroke-linejoin:round;}
	.st8{fill:#FFFFFF;stroke:#737A83;}
	.st9{fill:#747A84;}
	.st10{fill:#F78946;stroke:#FFFFFF;stroke-linecap:round;stroke-linejoin:round;}
	.st11{fill:#F78946;stroke:#FFFFFF;stroke-width:2;stroke-linecap:round;stroke-linejoin:round;}
</style>
<path id="Icon_map-locksmith" d="M26.6,13.7h-1.3v-5c-0.2-3.6-3.1-6.4-6.6-6.6h-5.5C9.6,2.3,6.9,5.1,6.7,8.6v5H5.3
	c-0.5,0.1-0.8,0.5-0.9,1v14.8c0,0.3,0.5,0.5,0.9,0.5h21.3c0.4,0,1.1-0.2,1.1-0.5V14.6C27.5,14.1,27.1,13.8,26.6,13.7z M18.8,27.7
	h-5.6l1.2-5.8c-0.7-0.6-1.2-1.5-1.2-2.4c0-1.6,1.3-2.8,2.8-2.9c1.5,0,2.8,1.2,2.8,2.7c0,0,0,0,0,0c0,1-0.4,1.9-1.2,2.5L18.8,27.7z
	 M21.3,13.7H10.8v-5c-0.1-1.3,0.9-2.5,2.2-2.5c0.1,0,0.2,0,0.3,0h5.4c1.4-0.1,2.5,1,2.6,2.4c0,0.1,0,0.1,0,0.2V13.7z"/>
</svg>
