<?xml version="1.0" encoding="utf-8"?>
<!-- Generator: Adobe Illustrator 25.2.1, SVG Export Plug-In . SVG Version: 6.00 Build 0)  -->
<svg version="1.1" id="Camada_1" xmlns="http://www.w3.org/2000/svg" xmlns:xlink="http://www.w3.org/1999/xlink" x="0px" y="0px"
	 viewBox="0 0 32 32" style="enable-background:new 0 0 32 32;" xml:space="preserve">
<style type="text/css">
	.st0{fill:#737A83;}
</style>
<g id="Icon_awesome-chair">
	<path class="st0" d="M25.4,30h-1.7c-0.7,0-1.4-0.6-1.4-1.4v-5.4H9.7v5.4c0,0.7-0.6,1.4-1.3,1.4H6.7c-0.7,0-1.4-0.6-1.4-1.4v-5.5
		c-0.1,0-0.2-0.1-0.2-0.1c-0.6-0.2-1-0.6-1.3-1.1c-0.3-0.5-0.3-1.1-0.1-1.6l0.6-1.7c0.4-0.9,1.2-1.5,2.1-1.5h19.1
		c1,0,1.9,0.6,2.1,1.5l0.6,1.9c0,0.2,0,0.3,0,0.4l0.1,0.1v0.1c0,1-0.7,1.9-1.6,2.1v5.5C26.7,29.4,26.1,30,25.4,30z M8.8,22.3h14.5
		v6.4c0,0.2,0.2,0.4,0.4,0.4h1.7c0.2,0,0.4-0.2,0.4-0.4v-6.4h0.5c0.7,0,1.1-0.5,1.2-1.1c-0.1-0.2-0.1-0.4-0.1-0.6L26.7,19
		c-0.1-0.5-0.6-0.8-1.2-0.8H6.4c-0.7,0-1.1,0.6-1.2,0.9l-0.6,1.7c-0.1,0.3-0.1,0.6,0.1,0.9c0.2,0.3,0.4,0.5,0.8,0.6l0.2,0.1
		c0.1,0,0.1,0,0.2,0h0.5v6.4c0,0.2,0.2,0.4,0.4,0.4h1.7c0.1,0,0.3-0.2,0.3-0.4V22.3z M24.9,16.5h-3.5V9.2c0-1.1-0.4-2-1.2-2.7v10
		h-3.5v-11h-1.5v11h-3.5v-10c-0.7,0.7-1.2,1.6-1.2,2.7v0.5h-0.1v6.8H7V9.2C7,5.2,10.2,2,14.3,2h3.4c4.1,0,7.2,3.2,7.2,7.2V16.5z
		 M22.4,15.5h1.5V9.2c0-3.5-2.8-6.3-6.3-6.3h-3.4C10.7,3,8,5.7,8,9.2v6.3h1.5V8.8h0.1c0.1-1.5,1-2.8,2.3-3.6l0.7-0.4v10.8h1.5v-11
		h3.5v11h1.5V4.7L20,5.2c1.5,0.9,2.4,2.3,2.4,4.1V15.5z"/>
</g>
</svg>
