<?xml version="1.0" encoding="utf-8"?>
<!-- Generator: Adobe Illustrator 25.2.1, SVG Export Plug-In . SVG Version: 6.00 Build 0)  -->
<svg version="1.1" id="Camada_1" xmlns="http://www.w3.org/2000/svg" xmlns:xlink="http://www.w3.org/1999/xlink" x="0px" y="0px"
	 viewBox="0 0 240 240" style="enable-background:new 0 0 240 240;" xml:space="preserve">
<style type="text/css">
	.st0{fill:#737A83;}
</style>
<g>
	<g id="Icon_feather-shield">
		<path class="st0" d="M133.6,110c0,3.8-1.5,7.2-4,9.6c-2.4,2.4-5.8,4-9.6,4c-7.5,0-13.6-6-13.6-13.6c0-7.5,6-13.5,13.6-13.5
			S133.6,102.5,133.6,110z"/>
		<path class="st0" d="M206,42.5l-84.7-31.8c-0.8-0.3-1.7-0.3-2.5,0L34,42.5c-1.4,0.5-2.3,1.8-2.3,3.3V120c0,27,15.1,54.5,43.6,79.5
			c21.3,18.6,42.2,29.2,43.1,29.6c0.5,0.3,1.1,0.4,1.6,0.4s1.1-0.2,1.6-0.4c0.9-0.4,21.8-11,43.1-29.6c28.5-25,43.6-52.5,43.6-79.5
			V45.8C208.3,44.3,207.4,43,206,42.5z M152.2,116l7.2,4.2c0.6,0.3,1.2,1.5,0.6,2.4c-1.8,6-5.1,11.4-9.3,16
			c-0.6,0.6-1.5,0.9-2.4,0.3l-7.2-4.2c-3,2.7-6.3,4.8-10.2,6v8.4c0,1.2-0.6,1.8-1.5,2.1c-6.3,1.5-12.7,1.5-18.7,0
			c-0.9-0.3-1.5-1.2-1.5-2.1v-8.4c-3.6-1.5-7.2-3.3-10.2-6l-7.5,4.2c-0.6,0.6-1.8,0.3-2.4-0.3c-4.2-4.5-7.5-9.9-9.3-16
			c-0.3-0.9,0-1.8,0.9-2.4l7.2-4.2c-0.6-3.9-0.6-8.1,0-12.1l-7.2-4.2c-0.9-0.6-1.2-1.5-0.9-2.4c1.8-6,5.1-11.5,9.3-16
			c0.6-0.6,1.8-0.9,2.7-0.3l7.2,4.2c3-2.7,6.3-4.8,10.2-6v-8.4c0-1.2,0.6-1.8,1.5-2.1c6.3-1.5,12.7-1.5,18.7,0
			c0.9,0.3,1.5,1.2,1.5,2.1v8.4c3.6,1.5,7.2,3.3,10.2,6l7.5-4.2c0.6-0.6,1.8-0.3,2.4,0.3c4.2,4.5,7.5,9.9,9.3,16
			c0.3,0.9,0,1.8-0.9,2.4l-7.2,4.2C152.8,107.9,152.8,112.1,152.2,116z"/>
	</g>
</g>
</svg>
