<?xml version="1.0" encoding="utf-8"?>
<!-- Generator: Adobe Illustrator 25.2.1, SVG Export Plug-In . SVG Version: 6.00 Build 0)  -->
<svg version="1.1" id="Camada_1" xmlns="http://www.w3.org/2000/svg" xmlns:xlink="http://www.w3.org/1999/xlink" x="0px" y="0px"
	 viewBox="0 0 32 32" style="enable-background:new 0 0 32 32;" xml:space="preserve">
<style type="text/css">
	.st0{fill:none;stroke:#263F62;stroke-width:3;stroke-linecap:round;stroke-linejoin:round;}
	.st1{fill:none;stroke:#FFFFFF;}
	.st2{fill:#FFFFFF;}
</style>
<g id="Icon_awesome-bell">
	<path class="st2" d="M16,30c-2.1,0-3.9-1.8-3.9-3.9v-0.5h7.7v0.5C19.9,28.2,18.1,30,16,30z M13.1,26.6C13.4,28,14.6,29,16,29
		c1.4,0,2.6-1.1,2.9-2.4H13.1z M26,24.9H5.9c-1.2,0-2.1-0.9-2.1-2.1c0-0.6,0.2-1.1,0.6-1.5L4.6,21c1-1,2.5-2.7,2.5-7.5
		c0-4.2,2.8-7.6,6.8-8.6V4.2c0-1.3,1-2.2,2.2-2.2c1.2,0,2.1,1,2.1,2.2v0.7c3.9,1,6.8,4.5,6.8,8.6c0,5,1.6,6.6,2.6,7.7l0.1,0.1
		c0.5,0.5,0.5,1.2,0.5,1.5C28.1,24,27.2,24.9,26,24.9z M16.1,3c-0.7,0-1.3,0.5-1.3,1.2v1.6l-0.4,0.1c-3.7,0.7-6.4,3.9-6.4,7.7
		c0,5.2-1.8,7.1-2.8,8.2l-0.2,0.2c-0.2,0.2-0.4,0.5-0.4,0.8c0,0.7,0.6,1.2,1.2,1.2H26c0.7,0,1.2-0.6,1.3-1.2c0-0.3-0.1-0.6-0.2-0.8
		l-0.1-0.1c-1.1-1.1-2.9-2.9-2.9-8.3c0-3.8-2.7-7-6.4-7.7l-0.4-0.1V4.2C17.3,3.5,16.8,3,16.1,3z"/>
</g>
</svg>
