<svg width="32" height="32" viewBox="0 0 32 32" fill="none" xmlns="http://www.w3.org/2000/svg">
<g clip-path="url(#clip0)">
<path fill-rule="evenodd" clip-rule="evenodd" d="M17.5785 0.529804C19.0887 1.94558 21.7079 3.90383 25.7823 5.44436C28.2477 6.37648 29.7687 8.85964 29.4903 11.481C29.1683 14.5105 28.5814 18.4959 27.5856 21.9763C26.9212 24.2976 25.4386 26.2991 23.4144 27.615C21.569 28.815 19.2086 30.3399 17.6315 31.3577C16.5797 32.0364 15.2291 32.0364 14.1773 31.3577C12.6002 30.3399 10.2398 28.815 8.39439 27.615C6.37022 26.2991 4.88755 24.2976 4.22349 21.9763C3.2274 18.4959 2.64048 14.5105 2.31846 11.481C2.04014 8.85964 3.56114 6.37648 6.02647 5.44436C10.1009 3.90383 12.7201 1.94558 14.2303 0.529804C15.1734 -0.354473 16.6354 -0.354229 17.5785 0.529804ZM15.9941 29.4245V29.4248C15.9461 29.4248 15.8837 29.4189 15.815 29.3978C15.7665 29.3829 15.7149 29.3604 15.663 29.3269C14.0356 28.2766 11.7124 26.7756 9.88741 25.5891C9.01543 25.0222 8.27927 24.2846 7.7184 23.4296C7.26741 22.7735 6.92149 22.0446 6.69926 21.2678C6.17826 19.4468 5.77982 17.4939 5.47782 15.6609H5.54522C5.28625 14.0704 5.09983 12.5754 4.96871 11.342C4.81368 9.88304 5.65987 8.5034 7.02657 7.98655C11.4455 6.3159 14.3308 4.1638 15.9936 2.62352L15.9938 2.62373L15.9941 2.62352V2.62394C17.657 4.1642 20.5424 6.31605 24.9606 7.98655C26.3273 8.5034 27.1735 9.88304 27.0185 11.342C26.7331 14.0264 26.186 17.9507 25.1984 21.4011C24.7058 23.123 23.6054 24.6103 22.0998 25.5891C20.2795 26.7727 17.9541 28.2751 16.3242 29.3269C16.1994 29.4075 16.0759 29.4245 15.9941 29.4245Z" fill="black"/>
<path d="M16 10C12.688 10 10 12.688 10 16C10 19.312 12.688 22 16 22C19.312 22 22 19.312 22 16C22 12.688 19.312 10 16 10ZM16 11.8C16.996 11.8 17.8 12.604 17.8 13.6C17.8 14.596 16.996 15.4 16 15.4C15.004 15.4 14.2 14.596 14.2 13.6C14.2 12.604 15.004 11.8 16 11.8ZM16 20.32C14.5 20.32 13.174 19.552 12.4 18.388C12.418 17.194 14.8 16.54 16 16.54C17.194 16.54 19.582 17.194 19.6 18.388C18.826 19.552 17.5 20.32 16 20.32Z" fill="black"/>
</g>
<defs>
<clipPath id="clip0">
<rect width="32" height="32" fill="white"/>
</clipPath>
</defs>
</svg>
