<?xml version="1.0" encoding="utf-8"?>
<!-- Generator: Adobe Illustrator 25.2.1, SVG Export Plug-In . SVG Version: 6.00 Build 0)  -->
<svg version="1.1" id="Camada_1" xmlns="http://www.w3.org/2000/svg" xmlns:xlink="http://www.w3.org/1999/xlink" x="0px" y="0px"
	 viewBox="0 0 32 32" style="enable-background:new 0 0 32 32;" xml:space="preserve">
<style type="text/css">
	.st0{fill:#FFFFFF;}
	.st1{fill:#F78946;}
</style>
<g id="Icon_feather-alert-circle" transform="translate(555.631 172.156)">
	<g id="Caminho_68">
		<circle class="st0" cx="-539.6" cy="-156.2" r="14.9"/>
	</g>
	<path class="st1" d="M-539.6-155.1c-0.7,0-1.1-0.4-1.1-1.1v-6.2c0-0.7,0.4-1.1,1.1-1.1s1.1,0.4,1.1,1.1v6.2
		C-538.5-155.5-538.9-155.1-539.6-155.1z"/>
	<path class="st1" d="M-539.6-148.9c-0.3,0-0.6-0.1-0.8-0.3s-0.3-0.4-0.3-0.8c0-0.3,0.1-0.6,0.3-0.8c0.4-0.4,1.1-0.4,1.5,0
		c0.2,0.2,0.3,0.4,0.3,0.8c0,0.3-0.1,0.6-0.3,0.8C-539-149-539.3-148.9-539.6-148.9z"/>
</g>
</svg>
