<?xml version="1.0" encoding="utf-8"?>
<!-- Generator: Adobe Illustrator 25.2.1, SVG Export Plug-In . SVG Version: 6.00 Build 0)  -->
<svg version="1.1" id="Camada_1" xmlns="http://www.w3.org/2000/svg" xmlns:xlink="http://www.w3.org/1999/xlink" x="0px" y="0px"
	 viewBox="0 0 32 32" style="enable-background:new 0 0 32 32;" xml:space="preserve">
<style type="text/css">
	.st0{fill:#F78946;}
	.st1{fill:#FFFFFF;}
</style>
<g id="Icon_feather-alert-circle" transform="translate(555.631 172.156)">
	<g id="Caminho_68">
		<path class="st0" d="M-525.6-156.2c0,7.7-6.3,14-14,14s-14-6.3-14-14s6.3-14,14-14l0,0C-531.9-170.2-525.6-163.9-525.6-156.2z"/>
		<path class="st1" d="M-539.6-141.7c-8,0-14.5-6.5-14.5-14.5s6.5-14.5,14.5-14.5s14.5,6.5,14.5,14.5S-531.6-141.7-539.6-141.7z
			 M-539.6-169.7c-7.4,0-13.5,6.1-13.5,13.5s6.1,13.5,13.5,13.5s13.5-6.1,13.5-13.5C-526.1-163.6-532.2-169.7-539.6-169.7z"/>
	</g>
	<path class="st1" d="M-539.6-155.2c-0.6,0-1-0.4-1-1v-5.6c0-0.6,0.4-1,1-1s1,0.4,1,1v5.6C-538.6-155.6-539-155.2-539.6-155.2z"/>
	<path class="st1" d="M-539.6-149.6c-0.3,0-0.5-0.1-0.7-0.3s-0.3-0.4-0.3-0.7s0.1-0.5,0.3-0.7c0.4-0.4,1-0.4,1.4,0
		c0.2,0.2,0.3,0.4,0.3,0.7s-0.1,0.5-0.3,0.7C-539.1-149.7-539.3-149.6-539.6-149.6z"/>
</g>
</svg>
