<?xml version="1.0" encoding="utf-8"?>
<!-- Generator: Adobe Illustrator 25.2.1, SVG Export Plug-In . SVG Version: 6.00 Build 0)  -->
<svg version="1.1" id="Camada_1" xmlns="http://www.w3.org/2000/svg" xmlns:xlink="http://www.w3.org/1999/xlink" x="0px" y="0px"
	 viewBox="0 0 52 52" style="enable-background:new 0 0 52 52;" xml:space="preserve">
<style type="text/css">
	.st0{fill:#00122B;}
</style>
<path id="Icon_metro-file-pdf" class="st0" d="M40.5,15.3c0.4,0.5,0.8,1,1,1.6c0.3,0.6,0.4,1.2,0.4,1.8v23.9c0,1.1-0.9,2-2,2
	c0,0,0,0,0,0H12.1c-1.1,0-2-0.9-2-2c0,0,0,0,0,0V9.4c0-1.1,0.9-2,2-2c0,0,0,0,0,0h18.6c0.6,0,1.2,0.2,1.8,0.4c0.6,0.2,1.1,0.6,1.6,1
	L40.5,15.3z M31.3,10.3V18h7.8c-0.1-0.3-0.2-0.6-0.5-0.8l-6.5-6.5C31.9,10.5,31.6,10.3,31.3,10.3z M39.3,41.9V20.7h-8.6
	c-1.1,0-2-0.9-2-2c0,0,0,0,0,0v-8.6H12.7v31.8H39.3z M28.6,29.6c0.6,0.4,1.1,0.8,1.7,1.2c0.8-0.1,1.6-0.1,2.4-0.1c2,0,3.3,0.3,3.7,1
	c0.2,0.3,0.2,0.7,0,1.1c0,0,0,0,0,0l0,0v0c-0.1,0.5-0.6,0.8-1.5,0.8c-0.8,0-1.6-0.2-2.4-0.4c-0.9-0.3-1.8-0.6-2.7-1.1
	c-2.8,0.3-5.5,0.8-8.1,1.7c-2.1,3.6-3.8,5.4-5,5.4c-0.2,0-0.4,0-0.6-0.1l-0.5-0.2c0,0-0.1,0-0.1-0.1c-0.2-0.2-0.2-0.5-0.1-0.7
	c0.2-0.7,0.6-1.4,1.2-1.9c0.8-0.8,1.7-1.5,2.7-2c0.1-0.1,0.3-0.1,0.4,0c0,0,0,0.1,0,0.1c0,0,0,0.1,0,0.1c0.7-1.2,1.5-2.5,2.2-4.1
	c0.9-1.7,1.6-3.6,2.2-5.4c-0.3-1.1-0.5-2.2-0.6-3.3c-0.1-0.9-0.1-1.8,0.1-2.6c0.2-0.6,0.4-0.8,0.9-0.8H25c0.3,0,0.5,0.1,0.7,0.3
	c0.3,0.4,0.3,0.9,0.2,1.4c0,0.1,0,0.1-0.1,0.2c0,0.1,0,0.1,0,0.2v0.6c0,1.3-0.1,2.7-0.3,4C26.1,26.6,27.2,28.3,28.6,29.6L28.6,29.6z
	 M16.7,38.1c1.2-0.8,2.2-2,2.8-3.3c-0.7,0.5-1.3,1.1-1.8,1.7C17.3,37.1,16.9,37.6,16.7,38.1z M24.9,19.1c-0.2,0.9-0.2,1.8,0,2.7
	c0-0.1,0.1-0.4,0.1-0.9c0,0,0-0.3,0.1-0.9c0-0.1,0-0.1,0.1-0.2c0,0,0,0,0,0c0,0,0,0,0,0c0,0,0,0,0,0C25.2,19.5,25.1,19.2,24.9,19.1
	C24.9,19,24.9,19,24.9,19.1L24.9,19.1L24.9,19.1z M22.4,32.8c1.9-0.8,3.9-1.3,5.9-1.7C28.1,31,28.1,31,28,30.9
	c-0.1-0.1-0.2-0.2-0.3-0.3c-1.1-1-2-2.3-2.6-3.6c-0.5,1.4-1,2.8-1.7,4.1C22.9,31.8,22.6,32.4,22.4,32.8L22.4,32.8z M35.7,32.4
	c-0.3-0.3-1.3-0.5-2.9-0.5c0.8,0.3,1.7,0.5,2.6,0.6C35.5,32.5,35.7,32.5,35.7,32.4C35.8,32.5,35.8,32.5,35.7,32.4z"/>
</svg>
