<?xml version="1.0" encoding="utf-8"?>
<!-- Generator: Adobe Illustrator 25.2.1, SVG Export Plug-In . SVG Version: 6.00 Build 0)  -->
<svg version="1.1" id="Camada_1" xmlns="http://www.w3.org/2000/svg" xmlns:xlink="http://www.w3.org/1999/xlink" x="0px" y="0px"
	 viewBox="0 0 32 32" style="enable-background:new 0 0 32 32;" xml:space="preserve">
<path id="Caminho_373" d="M20.4,17.4c0,2.4-2,4.4-4.4,4.4c-2.4,0-4.4-2-4.4-4.4c0-2.4,2-4.4,4.4-4.4C18.4,13,20.4,14.9,20.4,17.4
	C20.4,17.4,20.4,17.4,20.4,17.4z"/>
<path id="Caminho_374" d="M11.8,3.5L9.3,6.3H4.9c-1.5,0-2.8,1.2-2.8,2.8v16.6c0,1.5,1.2,2.8,2.8,2.8h22.2c1.5,0,2.8-1.2,2.8-2.8V9.1
	c0-1.5-1.2-2.8-2.8-2.8h-4.4l-2.5-2.8H11.8z M16,24.3c-3.8,0-6.9-3.1-6.9-6.9c0-3.8,3.1-6.9,6.9-6.9s6.9,3.1,6.9,6.9v0
	C22.9,21.2,19.8,24.3,16,24.3z"/>
</svg>
