<?xml version="1.0" encoding="utf-8"?>
<!-- Generator: Adobe Illustrator 25.2.1, SVG Export Plug-In . SVG Version: 6.00 Build 0)  -->
<svg version="1.1" id="Camada_1" xmlns="http://www.w3.org/2000/svg" xmlns:xlink="http://www.w3.org/1999/xlink" x="0px" y="0px"
	 viewBox="0 0 32 32" style="enable-background:new 0 0 32 32;" xml:space="preserve">
<style type="text/css">
	.st0{fill:#737A83;}
</style>
<g id="Icon_metro-bubbles">
	<path class="st0" d="M28.7,28.4c-1.5,0-3-0.6-4.1-1.6C23.9,27,23.4,27,22.8,27c-4,0-7.2-2.9-7.2-6.4s3.2-6.4,7.2-6.4S30,17,30,20.6
		c0,1.3-0.5,2.7-1.4,3.8c-0.1,0.2-0.2,0.5-0.2,0.8c0,0.9,0.5,1.6,1.3,2l0.3,0.1v1.1l-0.4,0.1C29.3,28.4,29,28.4,28.7,28.4z
		 M24.8,25.7l0.2,0.2c1,1,2.3,1.5,3.5,1.6c-0.7-0.6-1.1-1.4-1.1-2.4c0-0.5,0.1-1,0.4-1.3c0.8-0.9,1.2-2.1,1.2-3.2
		c0-3-2.8-5.5-6.3-5.5s-6.3,2.5-6.3,5.5c0,3,2.8,5.5,6.3,5.5c0.6,0,1.1-0.1,1.8-0.3L24.8,25.7z M4,27H3.5v-1.5l0.3-0.1
		c1.6-0.8,2.7-2.1,2.7-3.4c0-0.1,0-0.2,0-0.4c-2.8-1.7-4.4-4.6-4.5-7.9C2.1,8.1,7.7,3.6,14.5,3.6c6.9,0,12.3,4.4,12.4,10l0,0.7
		L26.3,14c-3.2-1.3-6.8-0.8-9.2,1.4c-1.5,1.3-2.4,3.2-2.4,5.2c0,1,0.2,1.9,0.6,2.8l0.3,0.7h-1.2c-0.5,0-1.1,0-1.7-0.1
		C9.9,26.7,6.6,27,4,27z M14.5,4.5C8.2,4.5,3.1,8.7,3,13.8c0.1,3,1.6,5.6,4.2,7.2L7.3,21l0.1,0.1c0.1,0.3,0.1,0.7,0.1,0.9
		c0,1.5-1.1,3.1-2.8,4c2.3-0.1,5.2-0.6,7.5-2.9l0.2-0.2l0.2,0c0.4,0.1,0.9,0.1,1.4,0.1c-0.3-0.8-0.4-1.6-0.4-2.5c0-2.3,1-4.5,2.8-6
		c2.5-2.2,6.1-2.9,9.5-1.8C25.4,8.2,20.4,4.5,14.5,4.5z"/>
</g>
</svg>
