<?xml version="1.0" encoding="utf-8"?>
<!-- Generator: Adobe Illustrator 25.2.1, SVG Export Plug-In . SVG Version: 6.00 Build 0)  -->
<svg version="1.1" id="Camada_1" xmlns="http://www.w3.org/2000/svg" xmlns:xlink="http://www.w3.org/1999/xlink" x="0px" y="0px"
	 viewBox="0 0 32 32" style="enable-background:new 0 0 32 32;" xml:space="preserve">
<style type="text/css">
	.st0{fill:none;stroke:#263F62;stroke-width:3;stroke-linecap:round;stroke-linejoin:round;}
	.st1{fill:none;stroke:#FFFFFF;}
	.st2{fill:#737A83;}
	.st3{fill:#F78946;stroke:#FFFFFF;stroke-linecap:round;stroke-linejoin:round;}
	.st4{fill:#F78946;stroke:#FFFFFF;stroke-width:2;stroke-linecap:round;stroke-linejoin:round;}
</style>
<g id="icon-payCard" transform="translate(471.023 319.406)">
	<g id="Grupo_19" transform="translate(24.793 23.984)">
		<g id="Grupo_18">
			<path id="Caminho_39" class="st2" d="M-471.6-320.3c-0.2-0.2-0.6-0.1-0.8,0.1c-0.2,0.2-0.4,0.5-0.6,0.7c-0.2,0.2-0.3,0.3-0.5,0.5
				c-0.2,0.2-0.3,0.5-0.1,0.8c0.2,0.2,0.5,0.3,0.8,0.1c0.2-0.2,0.4-0.4,0.6-0.6c0.2-0.3,0.5-0.5,0.7-0.8
				C-471.3-319.8-471.3-320.1-471.6-320.3C-471.6-320.3-471.6-320.3-471.6-320.3z"/>
		</g>
	</g>
	<g id="Grupo_21" transform="translate(23.079 26.728)">
		<g id="Grupo_20">
			<path id="Caminho_40" class="st2" d="M-472.2-320.6c-0.1-0.3-0.4-0.4-0.7-0.3c0,0,0,0,0,0l0,0c-0.3,0.1-0.4,0.4-0.3,0.7
				c0.1,0.2,0.3,0.3,0.5,0.3c0.1,0,0.1,0,0.2,0l0,0C-472.2-320-472.1-320.3-472.2-320.6z"/>
		</g>
	</g>
	<g id="Grupo_23">
		<g id="Grupo_22">
			<path id="Caminho_41" class="st2" d="M-442.7-316h-24.7c-0.9,0-1.6,0.7-1.6,1.6v15.3c0,0.9,0.7,1.6,1.6,1.6h11.5
				c0.4,1.7,1.3,3.3,2.6,4.5c1,1,2.2,1.8,3.6,2.1c1.4-0.3,2.7-1,3.6-2.1c1.3-1.2,2.1-2.8,2.6-4.5h0.8c0.9,0,1.6-0.7,1.6-1.6v-15.3
				C-441-315.2-441.8-316-442.7-316z M-444.3-299.6c0,2.2-0.9,4.3-2.4,5.9c-0.8,0.8-1.8,1.5-2.9,1.8c-1.1-0.3-2.1-1-2.9-1.8
				c-1.6-1.5-2.5-3.7-2.4-5.9v-2.7c1.9-0.5,3.7-1.3,5.4-2.3c1.7,1,3.5,1.7,5.4,2.3V-299.6z M-442.1-299c0,0.3-0.2,0.5-0.5,0.5h-0.6
				c0-0.4,0.1-0.8,0.1-1.1v-3.1c0-0.2-0.2-0.5-0.4-0.5c-2-0.6-4-1.4-5.8-2.4c-0.2-0.1-0.4-0.1-0.6,0c-1.8,1.1-3.8,1.9-5.8,2.4
				c-0.2,0.1-0.4,0.3-0.4,0.5v3.1c0,0.4,0,0.8,0.1,1.1h-11.3c-0.3,0-0.5-0.2-0.5-0.5v-9.3h25.8V-299z M-442.1-309.4h-25.8v-2.2h25.8
				V-309.4z M-442.1-312.7h-25.8v-1.6c0-0.3,0.2-0.5,0.5-0.5h24.7c0.3,0,0.5,0.2,0.5,0.5L-442.1-312.7L-442.1-312.7z"/>
		</g>
	</g>
	<g id="Grupo_25" transform="translate(2.684 14.091)">
		<g id="Grupo_24">
			<path id="Caminho_42" class="st2" d="M-465.1-318.6c-0.3,0-0.7,0.1-1,0.2c-0.3-0.1-0.6-0.2-1-0.2c-1.4,0-2.5,1.1-2.5,2.4
				c0,1.4,1.1,2.5,2.4,2.5c0,0,0.1,0,0.1,0c0.3,0,0.7-0.1,1-0.2c0.3,0.1,0.6,0.2,1,0.2c1.4,0,2.5-1.1,2.5-2.4
				C-462.6-317.4-463.7-318.6-465.1-318.6C-465.1-318.6-465.1-318.6-465.1-318.6z M-467.1-314.8c-0.8,0-1.4-0.6-1.4-1.4
				c0-0.8,0.6-1.4,1.4-1.4c0.8,0,1.4,0.6,1.4,1.4C-465.7-315.4-466.3-314.8-467.1-314.8C-467.1-314.8-467.1-314.8-467.1-314.8
				L-467.1-314.8z M-465-314.8c0.3-0.4,0.4-0.9,0.4-1.4c0-0.5-0.1-1-0.4-1.4c0.8,0.1,1.3,0.7,1.2,1.5
				C-463.8-315.3-464.4-314.8-465-314.8L-465-314.8z"/>
		</g>
	</g>
	<g id="Grupo_27" transform="translate(2.684 11.072)">
		<g id="Grupo_26">
			<path id="Caminho_43" class="st2" d="M-466.2-318h-2.8c-0.3,0-0.5,0.2-0.5,0.5c0,0.3,0.2,0.5,0.5,0.5h2.8c0.3,0,0.5-0.2,0.5-0.5
				C-465.6-317.8-465.9-318-466.2-318C-466.2-318-466.2-318-466.2-318z"/>
		</g>
	</g>
	<g id="Grupo_29" transform="translate(8.086 11.072)">
		<g id="Grupo_28">
			<path id="Caminho_44" class="st2" d="M-470-318L-470-318c-0.3,0-0.6,0.2-0.6,0.5c0,0.3,0.2,0.5,0.5,0.5c0,0,0,0,0,0h0
				c0.3,0,0.5-0.2,0.5-0.5C-469.4-317.8-469.6-318-470-318C-469.9-318-470-318-470-318z"/>
		</g>
	</g>
	<g id="Grupo_31" transform="translate(19.873 18.323)">
		<g id="Grupo_30">
			<path id="Caminho_45" class="st2" d="M-466.5-319.2c-0.2-0.2-0.6-0.2-0.8,0c0,0,0,0,0,0l-2.9,2.9l-1.5-1.5
				c-0.2-0.2-0.6-0.2-0.8,0c-0.2,0.2-0.2,0.6,0,0.8c0,0,0,0,0,0l1.9,1.9c0.1,0.1,0.2,0.2,0.4,0.2c0.1,0,0.3-0.1,0.4-0.2l3.3-3.3
				C-466.3-318.7-466.3-319-466.5-319.2z"/>
		</g>
	</g>
</g>
</svg>
