<?xml version="1.0" encoding="utf-8"?>
<!-- Generator: Adobe Illustrator 25.2.1, SVG Export Plug-In . SVG Version: 6.00 Build 0)  -->
<svg version="1.1" id="Camada_1" xmlns="http://www.w3.org/2000/svg" xmlns:xlink="http://www.w3.org/1999/xlink" x="0px" y="0px"
	 viewBox="0 0 32 32" style="enable-background:new 0 0 32 32;" xml:space="preserve">
<style type="text/css">
	.st0{fill:#FFFFFF;}
	.st1{fill:none;stroke:#263F62;stroke-width:3;stroke-linecap:round;stroke-linejoin:round;}
	.st2{fill:none;stroke:#FFFFFF;}
	.st3{fill:#737A83;}
	.st4{fill:#FFFFFF;stroke:#737A83;}
	.st5{fill:#747A84;}
	.st6{fill:none;stroke:#737A83;}
	.st7{fill:#F78946;stroke:#FFFFFF;stroke-linecap:round;stroke-linejoin:round;}
	.st8{fill:#F78946;stroke:#FFFFFF;stroke-width:2;stroke-linecap:round;stroke-linejoin:round;}
</style>
<path id="Icon_awesome-list" class="st3" d="M6.4,22.1H2.9C2.4,22.1,2,22.5,2,23c0,0,0,0,0,0v3.5c0,0.5,0.4,0.9,0.9,0.9h3.5
	c0.5,0,0.9-0.4,0.9-0.9V23C7.2,22.5,6.9,22.1,6.4,22.1C6.4,22.1,6.4,22.1,6.4,22.1z M6.4,4.6H2.9C2.4,4.6,2,5,2,5.5c0,0,0,0,0,0V9
	c0,0.5,0.4,0.9,0.9,0.9h3.5c0.5,0,0.9-0.4,0.9-0.9c0,0,0,0,0,0V5.5C7.2,5,6.9,4.6,6.4,4.6C6.4,4.6,6.4,4.6,6.4,4.6z M6.4,13.4H2.9
	c-0.5,0-0.9,0.4-0.9,0.9c0,0,0,0,0,0v3.5c0,0.5,0.4,0.9,0.9,0.9c0,0,0,0,0,0h3.5c0.5,0,0.9-0.4,0.9-0.9l0,0v-3.5
	C7.3,13.8,6.9,13.4,6.4,13.4C6.4,13.4,6.4,13.4,6.4,13.4z M29.1,23H11.6c-0.5,0-0.9,0.4-0.9,0.9v1.8c0,0.5,0.4,0.9,0.9,0.9h17.5
	c0.5,0,0.9-0.4,0.9-0.9v-1.7C30,23.4,29.6,23,29.1,23C29.1,23,29.1,23,29.1,23z M29.1,5.5H11.6c-0.5,0-0.9,0.4-0.9,0.9l0,0v1.7
	c0,0.5,0.4,0.9,0.9,0.9l0,0h17.5C29.6,9,30,8.6,30,8.1V6.4C30,5.9,29.6,5.5,29.1,5.5C29.1,5.5,29.1,5.5,29.1,5.5z M29.1,14.2H11.6
	c-0.5,0-0.9,0.4-0.9,0.9l0,0v1.8c0,0.5,0.4,0.9,0.9,0.9l0,0h17.5c0.5,0,0.9-0.4,0.9-0.9v-1.7C30,14.6,29.6,14.3,29.1,14.2L29.1,14.2
	z"/>
</svg>
