<?xml version="1.0" encoding="utf-8"?>
<!-- Generator: Adobe Illustrator 25.2.1, SVG Export Plug-In . SVG Version: 6.00 Build 0)  -->
<svg version="1.1" id="Camada_1" xmlns="http://www.w3.org/2000/svg" xmlns:xlink="http://www.w3.org/1999/xlink" x="0px" y="0px"
	 viewBox="0 0 52 52" style="enable-background:new 0 0 52 52;" xml:space="preserve">
<style type="text/css">
	.st0{fill:#737A83;}
</style>
<g id="Icon_awesome-list">
	<path class="st0" d="M8.8,47.3L8.8,47.3H2.6c-1.5,0-2.6-1.2-2.6-2.6v-6.2c0-1.4,1.1-2.6,2.6-2.6h6.2c1.4,0,2.6,1.1,2.6,2.6v6.2
		c0,0.7-0.3,1.3-0.8,1.8C10.1,47,9.5,47.3,8.8,47.3z M2.6,37.9c-0.3,0-0.6,0.3-0.6,0.6v6.2c0,0.3,0.3,0.6,0.6,0.6h6.2l0,0
		c0.2,0,0.3-0.1,0.4-0.2c0.1-0.1,0.2-0.2,0.2-0.4v-6.2c0-0.3-0.3-0.6-0.6-0.6C8.8,37.9,2.6,37.9,2.6,37.9z M49.4,45.7H18.2
		c-1.4,0-2.6-1.1-2.6-2.6V40c0-1.4,1.1-2.6,2.6-2.6h31.2c1.4,0,2.6,1.1,2.6,2.6v3.1C52,44.6,50.8,45.7,49.4,45.7z M18.2,39.5
		c-0.3,0-0.6,0.3-0.6,0.6v3.1c0,0.3,0.3,0.6,0.6,0.6h31.2c0.3,0,0.6-0.3,0.6-0.6v-3.1c0-0.3-0.3-0.6-0.6-0.6H18.2z M8.8,31.7
		L8.8,31.7H2.6c-1.5,0-2.6-1.2-2.6-2.6v-6.2c0-1.4,1.1-2.6,2.6-2.6h6.2c1.4,0,2.6,1.1,2.6,2.6v6.2c0,0.7-0.3,1.3-0.8,1.8
		C10.1,31.4,9.5,31.7,8.8,31.7z M2.6,22.3c-0.3,0-0.6,0.3-0.6,0.6v6.2c0,0.3,0.3,0.6,0.6,0.6h6.2l0,0c0.2,0,0.3-0.1,0.4-0.2
		c0.1-0.1,0.2-0.2,0.2-0.4v-6.2c0-0.3-0.3-0.6-0.6-0.6H2.6z M49.4,30.1H18.2c-1.4,0-2.6-1.1-2.6-2.6v-3.1c0-1.4,1.1-2.6,2.6-2.6
		h31.2c1.4,0,2.6,1.1,2.6,2.6v3.1C52,29,50.8,30.1,49.4,30.1z M18.2,23.9c-0.3,0-0.6,0.3-0.6,0.6v3.1c0,0.3,0.3,0.6,0.6,0.6h31.2
		c0.3,0,0.6-0.3,0.6-0.6v-3.1c0-0.3-0.3-0.6-0.6-0.6H18.2z M8.8,16.1L8.8,16.1H2.6c-1.5,0-2.6-1.2-2.6-2.6V7.3
		c0-1.5,1.1-2.6,2.6-2.6h6.2c1.4,0,2.6,1.1,2.6,2.6v6.2C11.4,14.9,10.2,16.1,8.8,16.1z M2.6,6.7C2.3,6.7,2,7,2,7.3v6.2
		c0,0.3,0.3,0.6,0.6,0.6h6.2l0,0c0.3,0,0.6-0.3,0.6-0.6V7.3c0-0.3-0.3-0.6-0.6-0.6H2.6z M49.4,14.5H18.2c-1.4,0-2.6-1.1-2.6-2.6V8.8
		c0-1.4,1.1-2.6,2.6-2.6h31.2c0.7,0,1.3,0.3,1.8,0.8S52,8.1,52,8.8v3.1C52,13.4,50.8,14.5,49.4,14.5z M18.2,8.3
		c-0.3,0-0.6,0.3-0.6,0.6V12c0,0.3,0.3,0.6,0.6,0.6h31.2c0.3,0,0.6-0.3,0.6-0.6V8.8c0-0.2-0.1-0.3-0.2-0.4c-0.1-0.1-0.2-0.2-0.4-0.2
		v-1v1H18.2V8.3z"/>
</g>
</svg>
