<?xml version="1.0" encoding="utf-8"?>
<!-- Generator: Adobe Illustrator 25.2.1, SVG Export Plug-In . SVG Version: 6.00 Build 0)  -->
<svg version="1.1" id="Camada_1" xmlns="http://www.w3.org/2000/svg" xmlns:xlink="http://www.w3.org/1999/xlink" x="0px" y="0px"
	 viewBox="0 0 32 32" style="enable-background:new 0 0 32 32;" xml:space="preserve">
<style type="text/css">
	.st0{fill:#263F62;}
</style>
<g id="Icon_feather-bell" transform="translate(349.939 194.792)">
	<g id="Caminho_186">
		<path class="st0" d="M-322.5-171.1h-22.8c-0.6,0-1.1-0.4-1.3-1c-0.2-0.6,0-1.2,0.5-1.5c0,0,3.2-2.4,3.2-10.3c0-4.9,4-8.9,8.9-8.9
			c4.9,0,8.9,4,8.9,8.9c0,7.9,3.2,10.2,3.2,10.3c0.5,0.3,0.7,1,0.5,1.5C-321.4-171.5-322-171.1-322.5-171.1z M-342.5-173.8h17
			c-1.1-1.9-2.3-5.1-2.3-10c0-3.4-2.9-6.2-6.2-6.2c-3.4,0-6.2,2.9-6.2,6.2C-340.2-178.9-341.3-175.7-342.5-173.8z"/>
	</g>
	<g id="Caminho_187">
		<path class="st0" d="M-334-164.8c-0.7,0-1.3-0.2-1.9-0.5c-0.6-0.3-1.2-0.9-1.5-1.5c-0.3-0.7-0.1-1.5,0.6-1.8
			c0.7-0.3,1.5-0.1,1.8,0.6c0,0.1,0.2,0.2,0.3,0.3c0,0,0.1,0,0.1,0.1c0.5,0.3,1.2,0.1,1.6-0.5c0.4-0.6,1.2-0.8,1.9-0.4
			c0.6,0.4,0.8,1.2,0.4,1.9C-331.4-165.5-332.7-164.8-334-164.8z"/>
	</g>
</g>
</svg>
