<?xml version="1.0" encoding="utf-8"?>
<!-- Generator: Adobe Illustrator 25.2.1, SVG Export Plug-In . SVG Version: 6.00 Build 0)  -->
<svg version="1.1" id="Camada_1" xmlns="http://www.w3.org/2000/svg" xmlns:xlink="http://www.w3.org/1999/xlink" x="0px" y="0px"
	 viewBox="0 0 32 32" style="enable-background:new 0 0 32 32;" xml:space="preserve">
<style type="text/css">
	.st0{fill:#ACC2D3;}
	.st1{fill:#FFFFFF;}
	.st2{fill:none;stroke:#FFFFFF;}
	.st3{fill:none;stroke:#737A83;}
	.st4{fill:#737A83;}
	.st5{fill:#263F62;}
	.st6{fill:none;stroke:#263F62;stroke-width:3;stroke-linecap:round;stroke-linejoin:round;}
	.st7{fill:none;stroke:#737A83;stroke-linecap:round;stroke-linejoin:round;}
	.st8{fill:#FFFFFF;stroke:#737A83;}
	.st9{fill:#747A84;}
	.st10{fill:#F78946;stroke:#FFFFFF;stroke-linecap:round;stroke-linejoin:round;}
	.st11{fill:#F78946;stroke:#FFFFFF;stroke-width:2;stroke-linecap:round;stroke-linejoin:round;}
</style>
<path id="Icon_ionic-md-search" class="st5" d="M21.9,19.5h-1.3l-0.5-0.4c1.6-1.9,2.5-4.3,2.5-6.8C22.6,6.6,18,2,12.3,2.1
	C6.6,2.1,2,6.8,2,12.5c0,5.7,4.7,10.3,10.4,10.3c2.5,0,4.9-0.9,6.8-2.5l0.5,0.4v1.3l8,8l2.4-2.4L21.9,19.5z M12.4,19.5
	c-4,0-7.2-3.2-7.2-7.2s3.2-7.2,7.2-7.2s7.2,3.2,7.2,7.2c0,0,0,0,0,0C19.6,16.3,16.4,19.5,12.4,19.5C12.4,19.5,12.4,19.5,12.4,19.5z"
	/>
</svg>
