<?xml version="1.0" encoding="utf-8"?>
<!-- Generator: Adobe Illustrator 25.2.1, SVG Export Plug-In . SVG Version: 6.00 Build 0)  -->
<svg version="1.1" id="Camada_1" xmlns="http://www.w3.org/2000/svg" xmlns:xlink="http://www.w3.org/1999/xlink" x="0px" y="0px"
	 viewBox="0 0 240 240" style="enable-background:new 0 0 240 240;" xml:space="preserve">
<g>
	<g id="Caminho_209">
		<path d="M93.6,221c-9.6,0-17.4-7.8-17.4-17.4c0-9.6,7.8-17.4,17.4-17.4c9.6,0,17.4,7.8,17.4,17.4C111,213.2,103.2,221,93.6,221z
			 M93.6,203.4l0.2,0.2C93.8,203.5,93.7,203.4,93.6,203.4z"/>
	</g>
	<g id="Caminho_210">
		<path d="M190.4,221c-9.6,0-17.4-7.8-17.4-17.4c0-9.6,7.8-17.4,17.4-17.4c9.6,0,17.4,7.8,17.4,17.4C207.8,213.2,200,221,190.4,221z
			 M190.4,203.4l0.2,0.2C190.6,203.5,190.5,203.4,190.4,203.4z"/>
	</g>
	<g id="Caminho_211">
		<path d="M99.1,168.2c-12.3,0-23.1-8.8-25.5-21.1L58.9,73.8c-0.1-0.3-0.1-0.6-0.2-0.9l-7.3-36.7H23.2c-4.7,0-8.6-3.8-8.6-8.6
			s3.8-8.6,8.6-8.6h35.2c4.1,0,7.6,2.9,8.4,6.9L74.2,63h142.6c2.6,0,5,1.1,6.6,3.1c1.6,2,2.3,4.6,1.8,7.1L211.2,147
			c-2.5,12.4-13.2,21.1-25.7,21.1c-0.2,0-0.3,0-0.5,0l-85.4,0C99.4,168.2,99.2,168.2,99.1,168.2z M77.7,80.2l12.7,63.6
			c0.9,4.3,4.5,7.2,9,7.3l85.7,0c4.3,0,8.3-3,9.2-7.3l12.1-63.6H77.7z"/>
	</g>
</g>
</svg>
