<?xml version="1.0" encoding="utf-8"?>
<!-- Generator: Adobe Illustrator 25.2.1, SVG Export Plug-In . SVG Version: 6.00 Build 0)  -->
<svg version="1.1" id="Camada_1" xmlns="http://www.w3.org/2000/svg" xmlns:xlink="http://www.w3.org/1999/xlink" x="0px" y="0px"
	 viewBox="0 0 52 52" style="enable-background:new 0 0 52 52;" xml:space="preserve">
<style type="text/css">
	.st0{enable-background:new    ;}
	.st1{fill:#737A83;}
</style>
<g id="Grupo_610" transform="translate(-320 -1321)">
	<g id="shopping" class="st0">
		<path class="st1" d="M363.2,1336.2h-7.3v-0.9c0-5.5-4.4-9.9-9.9-9.9s-9.9,4.4-9.9,9.9v0.9h-7.3c-1,0-1.7,0.8-1.7,1.7c0,0,0,0,0,0
			v28.9c0,1,0.8,1.7,1.7,1.7c0,0,0,0,0,0h34.5c1,0,1.7-0.8,1.7-1.7c0,0,0,0,0,0v-28.9C365,1337,364.2,1336.2,363.2,1336.2
			C363.2,1336.2,363.2,1336.2,363.2,1336.2z M340,1335.4c0-3.3,2.7-6,6.1-6c3.3,0,6,2.7,6,6v0.9H340V1335.4z M361.1,1364.7h-30.2
			v-24.6h5.2v4.7c0,0.2,0.2,0.4,0.4,0.4h3c0.2,0,0.4-0.2,0.4-0.4v-4.7H352v4.7c0,0.2,0.2,0.4,0.4,0.4h3c0.2,0,0.4-0.2,0.4-0.4v-4.7
			h5.2L361.1,1364.7z"/>
	</g>
	<g id="Linha_57">
		<rect x="335.5" y="1357.9" class="st1" width="21" height="1.6"/>
	</g>
	<g id="Linha_58">
		<rect x="335.5" y="1353.3" class="st1" width="21" height="1.6"/>
	</g>
	<g id="Linha_59">
		<rect x="335.5" y="1348.7" class="st1" width="11.8" height="1.6"/>
	</g>
</g>
</svg>
