<?xml version="1.0" encoding="utf-8"?>
<!-- Generator: Adobe Illustrator 25.2.0, SVG Export Plug-In . SVG Version: 6.00 Build 0)  -->
<svg version="1.1" id="Camada_1" xmlns="http://www.w3.org/2000/svg" xmlns:xlink="http://www.w3.org/1999/xlink" x="0px" y="0px"
	 viewBox="0 0 130 41" style="enable-background:new 0 0 130 41;" xml:space="preserve">
<style type="text/css">
	.st0{clip-path:url(#SVGID_2_);}
	.st1{fill:#1A7DD7;}
	.st2{fill:#F37402;}
</style>
<g>
	<defs>
		<rect id="SVGID_1_" width="130" height="40.7"/>
	</defs>
	<clipPath id="SVGID_2_">
		<use xlink:href="#SVGID_1_"  style="overflow:visible;"/>
	</clipPath>
	<g class="st0">
		<path class="st1" d="M9.4,11.3C8.3,10.6,7.6,10,7.3,9.5C7.1,9,7,8.2,7,7.3c0-0.8,0.1-1.3,0.4-1.7C7.5,5.2,7.9,5,8.3,5
			C8.7,5,9,5.1,9.2,5.4c0.2,0.3,0.3,0.9,0.3,1.9v2.2h6.9V8.4c0-2.3-0.2-4-0.7-5c-0.4-1-1.3-1.8-2.7-2.4c-1.4-0.7-3-1-4.9-1
			C6.3,0,4.8,0.3,3.6,0.9C2.3,1.5,1.4,2.3,0.8,3.3C0.3,4.4,0,6,0,8.3c0,1.6,0.2,2.8,0.6,3.8s0.9,1.8,1.5,2.4
			c0.6,0.6,1.8,1.5,3.7,2.7c1.8,1.2,3,2.1,3.5,2.7c0.5,0.5,0.7,1.7,0.7,3.4c0,0.8-0.1,1.4-0.4,1.8c-0.2,0.4-0.6,0.6-1.1,0.6
			c-0.5,0-0.8-0.1-1-0.5c-0.2-0.3-0.3-1-0.3-2.1v-3.6H0.2v1.9c0,2.2,0.2,3.9,0.7,5.1c0.4,1.2,1.4,2.2,2.8,3c1.4,0.8,3.1,1.2,5.1,1.2
			c1.8,0,3.4-0.3,4.8-1c1.4-0.7,2.3-1.5,2.8-2.5c0.5-1,0.7-2.5,0.7-4.6c0-2.9-0.4-5-1.3-6.3C14.8,14.9,12.8,13.3,9.4,11.3z"/>
		<path class="st1" d="M30.9,14.4l-1.1-7.5c-0.3-2.4-0.6-4.5-0.9-6.2h-9.6V30h6.5V10.7L28.6,30h4.6l2.6-19.8V30h6.5V0.6h-9.7
			L30.9,14.4z"/>
		<path class="st1" d="M47.4,0.6L43.6,30h7.7l0.4-5.3h2.7l0.4,5.3h7.6L58.1,0.6H47.4z M51.6,19.5c0.2-2.6,0.7-6.7,1.4-12.3
			c0.4,4.9,0.8,9,1.1,12.3H51.6z"/>
		<path class="st1" d="M80.1,17.9c-0.1-0.5-0.4-1.1-1-1.7c-0.5-0.6-1.5-1.1-3-1.5c1.6-0.1,2.7-0.6,3.3-1.4c0.5-0.8,0.8-2.3,0.8-4.6
			c0-2.5-0.4-4.3-1.2-5.5c-0.8-1.1-1.8-1.8-3-2.1c-1.2-0.3-3.6-0.4-7.1-0.4h-5.3v29.4h7.4V16.8c1,0,1.7,0.2,1.9,0.6
			c0.2,0.4,0.4,1.3,0.4,2.9v9.8h2.4l4.5-4.3v-3.4C80.2,19.9,80.2,18.5,80.1,17.9z M73.3,9.6c0,1.3-0.2,2.1-0.5,2.3
			c-0.3,0.2-0.9,0.4-1.8,0.4V5.7c0.9,0,1.5,0.1,1.8,0.4c0.3,0.3,0.5,0.9,0.5,1.8V9.6z"/>
		<path class="st1" d="M98.1,6.5V0.6H81.8v5.9h4.4v13.4l7.4-7.1V6.5H98.1z"/>
		<path class="st2" d="M98.4,26h-4.6v-4.5h5.1v-4.7L93,16.3l-6.6,6.3l0.1,17.8h7.4v-9.9h4.6V26z"/>
		<path class="st2" d="M102.6,16.7l-3.1,23.7h6.2l0.4-4.3h2.1l0.3,4.3h6.1l-3.4-23.7H102.6z M106,31.9c0.2-2.1,0.5-5.4,1.1-9.9
			c0.3,4,0.6,7.3,0.9,9.9H106z"/>
		<path class="st2" d="M125,16.6v10.7l-3.3-10.7h-5v23.7h5V29.5l3.1,10.8h5.2V16.6H125z"/>
	</g>
</g>
</svg>
