<svg width="167" height="48" viewBox="0 0 167 48" fill="none" xmlns="http://www.w3.org/2000/svg">
<path d="M19.7976 34.641L12.3952 30.4V26.5639L15.7108 28.4723L20.0482 30.9591L22.6699 29.4554L18.294 26.9494L12.3952 23.5566V21.6097L16.6361 19.1615L13.2241 17.2145L8.98313 19.6434L8.96385 23.5566L8.98313 32.347L20.0482 38.7085L23.4795 40.6747L26.8916 38.7085L19.7976 34.641Z" fill="white"/>
<path d="M21.9952 14.4193L16.6169 11.3156L13.2048 13.2819L16.6361 15.2482L20.0482 17.2144L27.7012 21.6096V25.4265L24.3663 23.5181L20.0482 21.0313L17.4265 22.5349L24.3663 26.5253L27.7012 28.4337V30.4L23.4602 32.8289L26.8723 34.7952L31.1133 32.347V28.4337V19.6434L21.9952 14.4193Z" fill="white"/>
<path d="M49.4265 23.3831C49.0024 22.7856 47.8265 22.2265 46.4771 22.2265C44.7229 22.2265 43.894 22.8434 43.894 23.6145C43.894 24.5205 45.1662 24.7711 46.6699 24.9253C49.2723 25.1952 51.6819 25.7542 51.6819 28.241C51.6819 30.5542 49.2144 31.5566 46.4385 31.5566C43.894 31.5566 41.9277 30.9012 41.0024 28.9928L42.9687 28.1446C43.5277 29.2819 44.9542 29.8024 46.4771 29.8024C47.9614 29.8024 49.3494 29.3783 49.3494 28.241C49.3494 27.2578 48.1156 26.853 46.4578 26.7181C43.9132 26.4675 41.5614 25.9084 41.5614 23.5759C41.5614 21.4362 44.0867 20.5687 46.3807 20.5494C48.3277 20.5494 50.3325 21.0121 51.2771 22.6121L49.4265 23.3831Z" fill="white"/>
<path d="M98.2169 22.6506H94.265V20.8771H104.52V22.6506H100.569V31.2675H98.2169V22.6506Z" fill="white"/>
<path d="M133.61 26.1205C133.571 28.8193 131.605 31.4988 127.21 31.4988C122.834 31.4988 120.79 28.8771 120.79 26.1398C120.79 23.4025 122.892 20.6651 127.21 20.6651C131.508 20.6651 133.648 23.4024 133.61 26.1205ZM123.123 26.1784C123.181 27.894 124.28 29.7061 127.21 29.7061C130.14 29.7061 131.258 27.8555 131.296 26.1591C131.335 24.4049 130.159 22.4386 127.21 22.4386C124.28 22.4386 123.065 24.4241 123.123 26.1784Z" fill="white"/>
<path d="M64.0193 20.8771L60.7807 24.5976L62.1108 26.2362L64.347 23.7301V31.2868H66.6988V20.8771H64.0193Z" fill="white"/>
<path d="M60.0868 25.3109L56.2121 20.8771H53.5133V31.2868H55.8651V23.7301L59.8362 28.2603H60.2988L61.4362 26.988L60.0868 25.3109Z" fill="white"/>
<path d="M75.7783 20.8771H73.2145L67.6241 31.2675H70.1687L71.2482 29.3012H76.6265L75.6626 27.4892H72.1928L74.506 23.0554L76.8193 27.4892L78.053 29.841L78.8048 31.2675H81.3687L75.7783 20.8771Z" fill="white"/>
<path d="M89.6964 27.5855C92.0675 27.1807 92.8386 25.7349 92.8386 24.3084C92.8386 22.5157 91.2964 20.8771 88.347 20.8578C86.3614 20.8578 84.3952 20.8386 82.4096 20.8386V31.2482H84.7614V28.6843V26.0048V22.6699H88.347C89.8313 22.6699 90.4867 23.4988 90.4867 24.3277C90.4867 25.1566 89.8506 25.9855 88.347 25.9855H85.7831V27.759H87.0554L90.6795 31.2289H93.4747V31.094L89.6964 27.5855Z" fill="white"/>
<path d="M112.559 25.3494L108.665 20.8771H105.966V31.2868H108.299V23.7301L112.27 28.2603H112.733L113.928 26.9301L112.559 25.3494Z" fill="white"/>
<path d="M116.453 20.8771L113.234 24.5976L114.602 26.1976L116.8 23.7301V31.2868H119.152V20.8771H116.453Z" fill="white"/>
<path d="M142.015 30.3229L146.718 20.8771H144.077L140.858 27.7591L142.015 30.3229Z" fill="white"/>
<path d="M140.299 28.9542V28.9735L136.54 20.8771H133.899L139.084 31.306H141.378L140.299 28.9542Z" fill="white"/>
<path d="M157.436 20.8771H148.106V31.2675H157.436V29.3398H150.438V26.988V25.1567V22.7663H157.436V20.8771Z" fill="white"/>
<path d="M157.186 25.1566H151.441V26.9879H157.186V25.1566Z" fill="white"/>
<path d="M41.6217 14.2648V16.2427H41.2678V11.3328H42.5343C43.1103 11.3328 43.544 11.4589 43.8355 11.711C44.1293 11.9632 44.2762 12.3229 44.2762 12.7901C44.2762 13.0053 44.2357 13.2031 44.1547 13.3835C44.0761 13.5639 43.9616 13.7201 43.8112 13.8519C43.6608 13.9815 43.4781 14.0833 43.263 14.1573C43.0478 14.229 42.8049 14.2648 42.5343 14.2648H41.6217ZM41.6217 13.9803H42.5343C42.7517 13.9803 42.946 13.9502 43.1172 13.8901C43.2884 13.83 43.433 13.7467 43.551 13.6403C43.6713 13.5339 43.7626 13.4089 43.8251 13.2655C43.8899 13.1198 43.9222 12.9613 43.9222 12.7901C43.9222 12.4131 43.8054 12.1228 43.5718 11.9192C43.3405 11.7156 42.9946 11.6139 42.5343 11.6139H41.6217V13.9803Z" fill="white"/>
<path d="M46.331 12.7346C46.5786 12.7346 46.7995 12.7774 46.9938 12.863C47.1904 12.9463 47.3558 13.0654 47.49 13.2204C47.6242 13.3754 47.7259 13.5628 47.7953 13.7825C47.867 14 47.9029 14.244 47.9029 14.5147C47.9029 14.7853 47.867 15.0294 47.7953 15.2468C47.7259 15.4643 47.6242 15.6505 47.49 15.8055C47.3558 15.9605 47.1904 16.0796 46.9938 16.1629C46.7995 16.2461 46.5786 16.2878 46.331 16.2878C46.0835 16.2878 45.8615 16.2461 45.6648 16.1629C45.4705 16.0796 45.3051 15.9605 45.1686 15.8055C45.0345 15.6505 44.9315 15.4643 44.8598 15.2468C44.7904 15.0294 44.7557 14.7853 44.7557 14.5147C44.7557 14.244 44.7904 14 44.8598 13.7825C44.9315 13.5628 45.0345 13.3754 45.1686 13.2204C45.3051 13.0654 45.4705 12.9463 45.6648 12.863C45.8615 12.7774 46.0835 12.7346 46.331 12.7346ZM46.331 16.0275C46.5369 16.0275 46.7162 15.9928 46.8689 15.9234C47.0239 15.8517 47.1522 15.75 47.254 15.6181C47.3581 15.4862 47.4356 15.3278 47.4865 15.1427C47.5374 14.9553 47.5629 14.746 47.5629 14.5147C47.5629 14.2857 47.5374 14.0775 47.4865 13.8901C47.4356 13.7027 47.3581 13.5431 47.254 13.4113C47.1522 13.2771 47.0239 13.1741 46.8689 13.1024C46.7162 13.0307 46.5369 12.9949 46.331 12.9949C46.1252 12.9949 45.9447 13.0307 45.7897 13.1024C45.6371 13.1741 45.5087 13.2771 45.4046 13.4113C45.3028 13.5431 45.2253 13.7027 45.1721 13.8901C45.1212 14.0775 45.0958 14.2857 45.0958 14.5147C45.0958 14.746 45.1212 14.9553 45.1721 15.1427C45.2253 15.3278 45.3028 15.4862 45.4046 15.6181C45.5087 15.75 45.6371 15.8517 45.7897 15.9234C45.9447 15.9928 46.1252 16.0275 46.331 16.0275Z" fill="white"/>
<path d="M48.2847 12.7901H48.538C48.5704 12.7901 48.597 12.7994 48.6178 12.8179C48.6386 12.8341 48.6525 12.8526 48.6594 12.8734L49.5304 15.5973C49.5466 15.6505 49.5593 15.7014 49.5686 15.75C49.5778 15.7985 49.5871 15.8471 49.5963 15.8957C49.6079 15.8471 49.6206 15.7985 49.6345 15.75C49.6484 15.7014 49.6646 15.6505 49.6831 15.5973L50.6095 12.8491C50.6257 12.7982 50.6581 12.7728 50.7067 12.7728H50.842C50.8929 12.7728 50.9264 12.7982 50.9426 12.8491L51.8552 15.5973C51.8899 15.7014 51.9177 15.802 51.9385 15.8992C51.9477 15.8506 51.957 15.802 51.9662 15.7534C51.9778 15.7025 51.9928 15.6505 52.0113 15.5973L52.8858 12.8734C52.9043 12.8179 52.9436 12.7901 53.0037 12.7901H53.2466L52.0912 16.2427H51.8483C51.8112 16.2427 51.7846 16.2184 51.7685 16.1698L50.8212 13.3661C50.8096 13.3314 50.7992 13.2967 50.7899 13.262C50.7807 13.2273 50.7726 13.1927 50.7657 13.158C50.7587 13.1927 50.7506 13.2273 50.7414 13.262C50.7344 13.2967 50.7252 13.3314 50.7136 13.3661L49.7559 16.1698C49.742 16.2184 49.7143 16.2427 49.6726 16.2427H49.4402L48.2847 12.7901Z" fill="white"/>
<path d="M55.1884 12.7346C55.3827 12.7346 55.562 12.7682 55.7262 12.8353C55.8928 12.9023 56.0362 13.0007 56.1565 13.1302C56.2791 13.2574 56.3739 13.4147 56.441 13.6021C56.5104 13.7895 56.5451 14.0046 56.5451 14.2475C56.5451 14.2984 56.537 14.3331 56.5208 14.3516C56.507 14.3701 56.4838 14.3793 56.4514 14.3793H53.9566V14.4453C53.9566 14.7044 53.9867 14.9322 54.0468 15.1288C54.107 15.3255 54.1925 15.4909 54.3036 15.625C54.4146 15.7569 54.5488 15.8564 54.7061 15.9234C54.8634 15.9905 55.0392 16.0241 55.2335 16.0241C55.407 16.0241 55.5574 16.0056 55.6846 15.9686C55.8118 15.9292 55.9182 15.8864 56.0038 15.8402C56.0917 15.7916 56.1611 15.7488 56.212 15.7118C56.2629 15.6725 56.2999 15.6528 56.3231 15.6528C56.3531 15.6528 56.3763 15.6644 56.3924 15.6875L56.4827 15.7985C56.4271 15.8679 56.3531 15.9327 56.2606 15.9928C56.1704 16.053 56.0686 16.105 55.9552 16.149C55.8442 16.1906 55.7239 16.2242 55.5944 16.2496C55.4671 16.2751 55.3388 16.2878 55.2092 16.2878C54.9733 16.2878 54.7581 16.2473 54.5638 16.1663C54.3695 16.0831 54.203 15.9628 54.0642 15.8055C53.9254 15.6482 53.8178 15.4562 53.7415 15.2295C53.6674 15.0005 53.6304 14.7391 53.6304 14.4453C53.6304 14.1978 53.6651 13.9699 53.7345 13.7617C53.8062 13.5512 53.908 13.3708 54.0399 13.2204C54.174 13.0677 54.3371 12.9486 54.5291 12.863C54.7234 12.7774 54.9432 12.7346 55.1884 12.7346ZM55.1919 12.981C55.0137 12.981 54.8541 13.0087 54.713 13.0643C54.5719 13.1198 54.4493 13.1996 54.3452 13.3037C54.2434 13.4078 54.1602 13.5327 54.0954 13.6784C54.0329 13.8242 53.9913 13.9873 53.9705 14.1677H56.2467C56.2467 13.9826 56.2213 13.8172 56.1704 13.6715C56.1195 13.5234 56.0478 13.3985 55.9552 13.2967C55.8627 13.195 55.7517 13.1175 55.6221 13.0643C55.4926 13.0087 55.3492 12.981 55.1919 12.981Z" fill="white"/>
<path d="M57.4316 16.2427V12.7901H57.6051C57.6444 12.7901 57.6722 12.7982 57.6884 12.8144C57.7069 12.8306 57.7173 12.8584 57.7196 12.8977L57.7474 13.6264C57.8584 13.3465 58.0065 13.1279 58.1915 12.9706C58.3766 12.811 58.6044 12.7312 58.8751 12.7312C58.9792 12.7312 59.0752 12.7427 59.1631 12.7659C59.251 12.7867 59.3343 12.8179 59.4129 12.8595L59.3678 13.0886C59.3609 13.1256 59.3377 13.1441 59.2984 13.1441C59.2845 13.1441 59.2649 13.1394 59.2394 13.1302C59.214 13.1209 59.1816 13.1105 59.1423 13.099C59.1053 13.0874 59.059 13.077 59.0035 13.0677C58.948 13.0585 58.8843 13.0539 58.8126 13.0539C58.5512 13.0539 58.3361 13.1348 58.1672 13.2967C58.0007 13.4587 57.8654 13.6923 57.7613 13.9977V16.2427H57.4316Z" fill="white"/>
<path d="M61.4911 12.7346C61.6854 12.7346 61.8647 12.7682 62.0289 12.8353C62.1955 12.9023 62.3389 13.0007 62.4592 13.1302C62.5818 13.2574 62.6767 13.4147 62.7437 13.6021C62.8131 13.7895 62.8478 14.0046 62.8478 14.2475C62.8478 14.2984 62.8397 14.3331 62.8235 14.3516C62.8097 14.3701 62.7865 14.3793 62.7541 14.3793H60.2593V14.4453C60.2593 14.7044 60.2894 14.9322 60.3495 15.1288C60.4097 15.3255 60.4953 15.4909 60.6063 15.625C60.7173 15.7569 60.8515 15.8564 61.0088 15.9234C61.1661 15.9905 61.3419 16.0241 61.5362 16.0241C61.7097 16.0241 61.8601 16.0056 61.9873 15.9686C62.1145 15.9292 62.2209 15.8864 62.3065 15.8402C62.3944 15.7916 62.4638 15.7488 62.5147 15.7118C62.5656 15.6725 62.6026 15.6528 62.6258 15.6528C62.6558 15.6528 62.679 15.6644 62.6952 15.6875L62.7854 15.7985C62.7299 15.8679 62.6558 15.9327 62.5633 15.9928C62.4731 16.053 62.3713 16.105 62.258 16.149C62.1469 16.1906 62.0266 16.2242 61.8971 16.2496C61.7699 16.2751 61.6415 16.2878 61.5119 16.2878C61.276 16.2878 61.0608 16.2473 60.8665 16.1663C60.6722 16.0831 60.5057 15.9628 60.3669 15.8055C60.2281 15.6482 60.1205 15.4562 60.0442 15.2295C59.9701 15.0005 59.9331 14.7391 59.9331 14.4453C59.9331 14.1978 59.9678 13.9699 60.0372 13.7617C60.1089 13.5512 60.2107 13.3708 60.3426 13.2204C60.4767 13.0677 60.6398 12.9486 60.8318 12.863C61.0261 12.7774 61.2459 12.7346 61.4911 12.7346ZM61.4946 12.981C61.3165 12.981 61.1568 13.0087 61.0157 13.0643C60.8746 13.1198 60.752 13.1996 60.6479 13.3037C60.5461 13.4078 60.4629 13.5327 60.3981 13.6784C60.3356 13.8242 60.294 13.9873 60.2732 14.1677H62.5494C62.5494 13.9826 62.524 13.8172 62.4731 13.6715C62.4222 13.5234 62.3505 13.3985 62.258 13.2967C62.1654 13.195 62.0544 13.1175 61.9248 13.0643C61.7953 13.0087 61.6519 12.981 61.4946 12.981Z" fill="white"/>
<path d="M66.1806 16.2427C66.1228 16.2427 66.0892 16.2126 66.08 16.1525L66.0453 15.6077C65.8926 15.8159 65.7133 15.9813 65.5074 16.1039C65.3039 16.2265 65.0749 16.2878 64.8204 16.2878C64.3971 16.2878 64.0663 16.1409 63.828 15.8471C63.5921 15.5533 63.4741 15.1127 63.4741 14.5251C63.4741 14.2729 63.5065 14.0381 63.5713 13.8207C63.6383 13.6009 63.7355 13.4113 63.8627 13.2516C63.9923 13.0897 64.1496 12.9625 64.3346 12.87C64.522 12.7774 64.7371 12.7312 64.98 12.7312C65.2137 12.7312 65.4161 12.7751 65.5873 12.863C65.7584 12.9486 65.9065 13.0747 66.0314 13.2412V11.194H66.3645V16.2427H66.1806ZM64.9141 16.0206C65.1431 16.0206 65.3501 15.9616 65.5352 15.8436C65.7203 15.7257 65.8857 15.5614 66.0314 15.3509V13.5292C65.8972 13.3326 65.7492 13.1938 65.5873 13.1128C65.4276 13.0319 65.246 12.9914 65.0425 12.9914C64.8389 12.9914 64.6608 13.0284 64.5081 13.1024C64.3554 13.1765 64.2271 13.2817 64.123 13.4182C64.0212 13.5524 63.9437 13.7143 63.8905 13.904C63.8396 14.0913 63.8141 14.2984 63.8141 14.5251C63.8141 15.0386 63.909 15.4168 64.0987 15.6597C64.2884 15.9003 64.5602 16.0206 64.9141 16.0206Z" fill="white"/>
<path d="M68.8993 16.2427V11.194H69.2324V13.3939C69.3851 13.1903 69.5621 13.0296 69.7633 12.9116C69.9646 12.7936 70.1913 12.7346 70.4434 12.7346C70.8667 12.7346 71.1964 12.8815 71.4323 13.1753C71.6706 13.4668 71.7897 13.9063 71.7897 14.4939C71.7897 14.746 71.7562 14.982 71.6891 15.2017C71.6243 15.4192 71.5272 15.6088 71.3976 15.7708C71.2704 15.9304 71.1131 16.0565 70.9257 16.149C70.7407 16.2415 70.5267 16.2878 70.2838 16.2878C70.0432 16.2878 69.8362 16.2415 69.6627 16.149C69.4892 16.0541 69.34 15.9153 69.2151 15.7326L69.1942 16.1559C69.1873 16.2138 69.1561 16.2427 69.1006 16.2427H68.8993ZM70.3497 12.9983C70.1207 12.9983 69.9137 13.0573 69.7286 13.1753C69.5435 13.2933 69.3781 13.4575 69.2324 13.668V15.4897C69.3643 15.6887 69.51 15.8286 69.6696 15.9096C69.8292 15.9882 70.0131 16.0275 70.2213 16.0275C70.4249 16.0275 70.603 15.9905 70.7557 15.9165C70.9084 15.8425 71.0356 15.7384 71.1374 15.6042C71.2415 15.4677 71.319 15.3058 71.3699 15.1184C71.4231 14.9287 71.4497 14.7206 71.4497 14.4939C71.4497 13.9803 71.3548 13.6033 71.1651 13.3627C70.9755 13.1198 70.7036 12.9983 70.3497 12.9983Z" fill="white"/>
<path d="M73.345 17.353C73.3311 17.3854 73.3126 17.412 73.2895 17.4328C73.2686 17.4537 73.2374 17.4641 73.1958 17.4641H72.9598L73.5671 16.1143L72.1062 12.7901H72.3804C72.4151 12.7901 72.4417 12.7994 72.4602 12.8179C72.481 12.8341 72.496 12.8526 72.5053 12.8734L73.6677 15.5591C73.6816 15.5938 73.6931 15.6297 73.7024 15.6667C73.7139 15.7014 73.7244 15.7372 73.7336 15.7742C73.7452 15.7372 73.7567 15.7014 73.7683 15.6667C73.7822 15.6297 73.7961 15.5938 73.8099 15.5591L74.9585 12.8734C74.97 12.848 74.9862 12.8283 75.0071 12.8144C75.0279 12.7982 75.051 12.7901 75.0765 12.7901H75.3298L73.345 17.353Z" fill="white"/>
<path d="M75.9148 15.9755C75.9148 15.9315 75.9229 15.8899 75.9391 15.8506C75.9553 15.8113 75.9773 15.7777 76.005 15.75C76.0351 15.7199 76.0686 15.6967 76.1056 15.6806C76.145 15.662 76.1878 15.6528 76.234 15.6528C76.278 15.6528 76.3196 15.662 76.359 15.6806C76.3983 15.6967 76.4318 15.7199 76.4596 15.75C76.4897 15.7777 76.5128 15.8113 76.529 15.8506C76.5475 15.8899 76.5567 15.9315 76.5567 15.9755C76.5567 16.0218 76.5475 16.0646 76.529 16.1039C76.5128 16.1409 76.4897 16.1744 76.4596 16.2045C76.4318 16.2323 76.3983 16.2542 76.359 16.2704C76.3196 16.2866 76.278 16.2947 76.234 16.2947C76.1438 16.2947 76.0675 16.2647 76.005 16.2045C75.9449 16.142 75.9148 16.0657 75.9148 15.9755ZM75.9148 13.21C75.9148 13.166 75.9229 13.1244 75.9391 13.0851C75.9553 13.0458 75.9773 13.0122 76.005 12.9845C76.0351 12.9544 76.0686 12.9313 76.1056 12.9151C76.145 12.8966 76.1878 12.8873 76.234 12.8873C76.278 12.8873 76.3196 12.8966 76.359 12.9151C76.3983 12.9313 76.4318 12.9544 76.4596 12.9845C76.4897 13.0122 76.5128 13.0458 76.529 13.0851C76.5475 13.1244 76.5567 13.166 76.5567 13.21C76.5567 13.2563 76.5475 13.2991 76.529 13.3384C76.5128 13.3754 76.4897 13.4089 76.4596 13.439C76.4318 13.4668 76.3983 13.4887 76.359 13.5049C76.3196 13.5211 76.278 13.5292 76.234 13.5292C76.1438 13.5292 76.0675 13.4992 76.005 13.439C75.9449 13.3766 75.9148 13.3002 75.9148 13.21Z" fill="white"/>
</svg>
