<svg xmlns="http://www.w3.org/2000/svg" viewBox="0 0 770.2 156.45"><defs><style>.cls-1{fill:#c91617;}.cls-2{fill:#12100b;}.cls-3{font-size:36px;fill:#1d1d1b;font-family:Lato-Light, Lato;font-weight:300;}.cls-4{letter-spacing:-0.02em;}.cls-5{letter-spacing:-0.01em;}.cls-6{letter-spacing:0em;}</style></defs><g id="Camada_2" data-name="Camada 2"><g id="original"><polygon class="cls-1" points="56.17 125.19 56.17 125.2 17.74 103.13 17.74 83.31 34.99 93.21 34.99 93.22 57.45 106.12 71.04 98.32 48.35 85.29 48.36 85.28 17.74 67.7 17.74 57.53 39.75 44.9 22.05 34.73 0.04 47.37 0 67.67 0.04 113.29 57.45 146.26 57.46 146.25 75.23 156.45 92.93 146.29 56.17 125.19"/><polygon class="cls-1" points="67.58 20.23 67.58 20.23 39.68 4.21 21.98 14.36 39.75 24.57 39.74 24.57 57.44 34.73 57.45 34.73 97.16 57.53 97.16 77.37 79.9 67.46 79.9 67.44 57.45 54.54 43.82 62.37 79.9 83.08 79.9 83.06 97.16 92.97 97.16 103.13 75.15 115.77 92.85 125.93 114.85 113.3 114.84 113.3 114.86 113.3 114.86 92.99 114.86 47.37 67.58 20.23"/><path class="cls-2" d="M209.81,66.76c-2.21-3.09-8.31-6-15.33-6-9,0-13.39,3.16-13.39,7.16,0,4.7,6.65,6,14.41,6.79C209,76.09,221.55,79,221.55,91.89c0,12-12.75,17.19-27.16,17.19-13.21,0-23.37-3.39-28.17-13.26l10.16-4.39c2.86,5.93,10.34,8.55,18.19,8.55,7.67,0,14.87-2.24,14.87-8.09,0-5.09-6.37-7.17-15-7.94-13.21-1.31-25.4-4.24-25.4-16.34,0-11.11,13.11-15.65,25-15.73,10.07,0,20.51,2.39,25.4,10.71Z"/><polygon class="cls-2" points="462.94 62.98 442.43 62.98 442.43 53.73 495.64 53.73 495.64 62.98 475.13 62.98 475.13 107.69 462.94 107.69 462.94 62.98"/><path class="cls-2" d="M646.54,81c-.18,14-10.44,27.9-33.16,27.9s-33.25-13.64-33.25-27.83S591,52.65,613.38,52.65,646.72,66.91,646.54,81m-54.4.23c.27,8.87,6,18.35,21.24,18.35s21-9.56,21.15-18.43c.19-9.1-5.91-19.27-21.15-19.27s-21.52,10.25-21.24,19.35"/><polygon class="cls-2" points="285.54 53.8 268.76 73.05 275.65 81.57 287.3 68.6 287.3 107.77 299.49 107.77 299.49 53.8 285.54 53.8"/><polygon class="cls-2" points="265.13 76.79 245.09 53.8 231.04 53.8 231.04 107.77 243.24 107.77 243.24 68.53 263.84 92.04 266.24 92.04 272.14 85.47 265.13 76.79"/><polygon class="cls-2" points="346.58 53.73 333.28 53.73 304.28 107.69 317.49 107.69 323.03 97.51 350.98 97.51 345.98 88.03 327.93 88.03 339.93 65.06 351.94 88.03 358.32 100.29 362.29 107.69 375.59 107.69 346.58 53.73"/><path class="cls-2" d="M418.8,88.57c12.29-2.08,16.35-9.55,16.35-17,0-9.32-8-17.8-23.27-17.88-10.26,0-20.51-.08-30.77-.08v54h12.2V94.4h0V80.48h0V63.21h18.57c7.66,0,11.08,4.32,11.08,8.64s-3.33,8.63-11.08,8.63H398.49v9.17H405l18.84,18h14.5V107Z"/><polygon class="cls-2" points="537.38 77 537.38 77.01 517.15 53.8 503.11 53.8 503.11 107.77 515.3 107.77 515.3 68.53 535.9 92.04 538.3 92.04 544.43 85.22 537.38 77"/><polygon class="cls-2" points="557.61 53.8 540.82 73.06 547.92 81.33 559.36 68.6 559.36 107.77 571.55 107.77 571.55 53.8 557.61 53.8"/><polygon class="cls-1" points="690.17 102.79 714.51 53.73 700.84 53.73 684.16 89.52 690.17 102.79"/><polygon class="cls-2" points="681.28 95.7 681.26 95.74 661.77 53.73 648.1 53.73 674.98 107.92 686.81 107.92 681.28 95.7"/><polygon class="cls-2" points="770.2 53.73 721.79 53.73 721.79 107.69 770.2 107.69 770.2 97.67 733.9 97.67 733.9 85.48 733.9 85.48 733.9 76.01 733.9 76.01 733.9 63.59 770.2 63.59 770.2 53.73"/><rect class="cls-2" x="739.08" y="76.01" width="29.82" height="9.48"/><text class="cls-3" transform="translate(163.22 30.73)"><tspan class="cls-4">P</tspan><tspan x="20.83" y="0">owered </tspan><tspan class="cls-5" x="144.52" y="0">b</tspan><tspan class="cls-6" x="163.85" y="0">y:</tspan></text></g></g></svg>