<svg width="109" height="32" viewBox="0 0 109 32" fill="none" xmlns="http://www.w3.org/2000/svg">
<path d="M12.9069 23.094L8.08097 20.2667V17.7092L10.2426 18.9815L13.0703 20.6394L14.7795 19.637L11.9267 17.9663L8.08097 15.7044V14.4064L10.8458 12.7743L8.62138 11.4763L5.8565 13.0956L5.84393 15.7044L5.8565 21.5647L13.0703 25.8056L15.3073 27.1165L17.5318 25.8056L12.9069 23.094Z" fill="#212121"/>
<path d="M14.3397 9.61284L10.8333 7.54376L8.60883 8.85461L10.8459 10.1654L13.0703 11.4763L18.0597 14.4064V16.951L15.8855 15.6787L13.0703 14.0209L11.3611 15.0233L15.8855 17.6835L18.0597 18.9558V20.2667L15.2948 21.8859L17.5193 23.1968L20.2841 21.5646V18.9558V13.0956L14.3397 9.61284Z" fill="#212121"/>
<path d="M32.2233 15.5888C31.9468 15.1904 31.1802 14.8177 30.3005 14.8177C29.1568 14.8177 28.6164 15.2289 28.6164 15.743C28.6164 16.347 29.4459 16.5141 30.4262 16.6169C32.1228 16.7968 33.6937 17.1695 33.6937 18.8273C33.6937 20.3695 32.0851 21.0378 30.2754 21.0378C28.6164 21.0378 27.3345 20.6008 26.7313 19.3285L28.0132 18.7631C28.3776 19.5213 29.3077 19.8683 30.3005 19.8683C31.2682 19.8683 32.1731 19.5856 32.1731 18.8273C32.1731 18.1719 31.3687 17.902 30.2879 17.8121C28.629 17.645 27.0958 17.2723 27.0958 15.7173C27.0958 14.2908 28.7421 13.7125 30.2377 13.6996C31.507 13.6996 32.814 14.008 33.4298 15.0747L32.2233 15.5888Z" fill="#212121"/>
<path d="M64.032 15.1004H61.4556V13.9181H68.1416V15.1004H65.5652V20.845H64.032V15.1004Z" fill="#212121"/>
<path d="M87.1061 17.4137C87.081 19.2129 85.7991 20.9992 82.9337 20.9992C80.0808 20.9992 78.7487 19.2514 78.7487 17.4265C78.7487 15.6016 80.1185 13.7767 82.9337 13.7767C85.7362 13.7767 87.1312 15.6016 87.1061 17.4137ZM80.2693 17.4522C80.307 18.596 81.0234 19.804 82.9337 19.804C84.8439 19.804 85.5729 18.5703 85.598 17.4394C85.6231 16.2699 84.8565 14.9591 82.9337 14.9591C81.0234 14.9591 80.2316 16.2828 80.2693 17.4522Z" fill="#212121"/>
<path d="M41.737 13.9181L39.6257 16.3984L40.4928 17.4908L41.9507 15.8201V20.8578H43.4839V13.9181H41.737Z" fill="#212121"/>
<path d="M39.1733 16.8739L36.6472 13.9181H34.8877V20.8578H36.4209V15.8201L39.0099 18.8402H39.3115L40.053 17.992L39.1733 16.8739Z" fill="#212121"/>
<path d="M49.4033 13.9181H47.7318L44.0872 20.845H45.7461L46.4499 19.5342H49.9563L49.3279 18.3261H47.0657L48.5738 15.3703L50.0819 18.3261L50.8863 19.894L51.3764 20.845H53.0479L49.4033 13.9181Z" fill="#212121"/>
<path d="M58.4771 18.3904C60.0229 18.1205 60.5256 17.1567 60.5256 16.2056C60.5256 15.0105 59.5202 13.9181 57.5974 13.9052C56.3029 13.9052 55.021 13.8924 53.7266 13.8924V20.8322H55.2598V19.1229V17.3366V15.1133H57.5974C58.5651 15.1133 58.9924 15.6659 58.9924 16.2185C58.9924 16.7711 58.5777 17.3237 57.5974 17.3237H55.9259V18.506H56.7554L59.1181 20.8193H60.9404V20.7293L58.4771 18.3904Z" fill="#212121"/>
<path d="M73.3823 16.8996L70.8436 13.9181H69.0842V20.8578H70.6048V15.8201L73.1938 18.8402H73.4954L74.2746 17.9534L73.3823 16.8996Z" fill="#212121"/>
<path d="M75.921 13.9181L73.8222 16.3984L74.7145 17.4651L76.1472 15.8201V20.8578H77.6804V13.9181H75.921Z" fill="#212121"/>
<path d="M92.5857 20.2153L95.6522 13.9181H93.9304L91.8316 18.506L92.5857 20.2153Z" fill="#212121"/>
<path d="M91.4671 19.3028V19.3157L89.0164 13.9181H87.2946L90.6753 20.8707H92.1709L91.4671 19.3028Z" fill="#212121"/>
<path d="M102.64 13.9181H96.5569V20.845H102.64V19.5599H98.0776V17.992V16.7711V15.1775H102.64V13.9181Z" fill="#212121"/>
<path d="M102.476 16.7711H98.7312V17.992H102.476V16.7711Z" fill="#212121"/>
<path d="M27.1351 9.50991V10.8285H26.9043V7.55521H27.73C28.1055 7.55521 28.3883 7.63926 28.5783 7.80735C28.7699 7.97545 28.8656 8.21526 28.8656 8.52677C28.8656 8.67019 28.8392 8.80205 28.7865 8.92234C28.7352 9.04263 28.6605 9.14673 28.5625 9.23463C28.4645 9.32099 28.3453 9.38885 28.2051 9.4382C28.0648 9.486 27.9065 9.50991 27.73 9.50991H27.1351ZM27.1351 9.32022H27.73C27.8718 9.32022 27.9985 9.30017 28.1101 9.26007C28.2217 9.21998 28.3159 9.16446 28.3928 9.09352C28.4713 9.02258 28.5308 8.9393 28.5715 8.84369C28.6138 8.74653 28.6349 8.64089 28.6349 8.52677C28.6349 8.2754 28.5587 8.08186 28.4064 7.94615C28.2556 7.81044 28.0301 7.74258 27.73 7.74258H27.1351V9.32022Z" fill="#212121"/>
<path d="M30.2053 8.48976C30.3667 8.48976 30.5107 8.51829 30.6374 8.57535C30.7656 8.63087 30.8734 8.71029 30.9609 8.81362C31.0483 8.91694 31.1147 9.04186 31.1599 9.18836C31.2067 9.33333 31.2301 9.49603 31.2301 9.67646C31.2301 9.85689 31.2067 10.0196 31.1599 10.1646C31.1147 10.3095 31.0483 10.4337 30.9609 10.537C30.8734 10.6403 30.7656 10.7197 30.6374 10.7753C30.5107 10.8308 30.3667 10.8585 30.2053 10.8585C30.0439 10.8585 29.8991 10.8308 29.771 10.7753C29.6443 10.7197 29.5364 10.6403 29.4475 10.537C29.36 10.4337 29.2929 10.3095 29.2461 10.1646C29.2009 10.0196 29.1783 9.85689 29.1783 9.67646C29.1783 9.49603 29.2009 9.33333 29.2461 9.18836C29.2929 9.04186 29.36 8.91694 29.4475 8.81362C29.5364 8.71029 29.6443 8.63087 29.771 8.57535C29.8991 8.51829 30.0439 8.48976 30.2053 8.48976ZM30.2053 10.685C30.3395 10.685 30.4564 10.6619 30.5559 10.6156C30.657 10.5678 30.7407 10.5 30.807 10.4121C30.8749 10.3242 30.9254 10.2185 30.9586 10.0952C30.9918 9.97024 31.0084 9.83068 31.0084 9.67646C31.0084 9.52379 30.9918 9.38499 30.9586 9.26007C30.9254 9.13516 30.8749 9.02875 30.807 8.94085C30.7407 8.8514 30.657 8.78277 30.5559 8.73497C30.4564 8.68716 30.3395 8.66326 30.2053 8.66326C30.0711 8.66326 29.9534 8.68716 29.8524 8.73497C29.7529 8.78277 29.6692 8.8514 29.6013 8.94085C29.5349 9.02875 29.4844 9.13516 29.4497 9.26007C29.4166 9.38499 29.4 9.52379 29.4 9.67646C29.4 9.83068 29.4166 9.97024 29.4497 10.0952C29.4844 10.2185 29.5349 10.3242 29.6013 10.4121C29.6692 10.5 29.7529 10.5678 29.8524 10.6156C29.9534 10.6619 30.0711 10.685 30.2053 10.685Z" fill="#212121"/>
<path d="M31.479 8.52677H31.6441C31.6652 8.52677 31.6826 8.53294 31.6961 8.54528C31.7097 8.55607 31.7188 8.56841 31.7233 8.58229L32.2911 10.3982C32.3016 10.4337 32.3099 10.4676 32.316 10.5C32.322 10.5324 32.328 10.5647 32.3341 10.5971C32.3416 10.5647 32.3499 10.5324 32.359 10.5C32.368 10.4676 32.3786 10.4337 32.3906 10.3982L32.9946 8.5661C33.0052 8.53217 33.0263 8.51521 33.058 8.51521H33.1462C33.1794 8.51521 33.2012 8.53217 33.2118 8.5661L33.8067 10.3982C33.8294 10.4676 33.8475 10.5347 33.861 10.5994C33.8671 10.5671 33.8731 10.5347 33.8791 10.5023C33.8867 10.4684 33.8965 10.4337 33.9085 10.3982L34.4786 8.58229C34.4907 8.54528 34.5163 8.52677 34.5555 8.52677H34.7139L33.9606 10.8285H33.8022C33.7781 10.8285 33.7607 10.8123 33.7502 10.7799L33.1326 8.91077C33.1251 8.88764 33.1183 8.86451 33.1123 8.84138C33.1062 8.81824 33.1009 8.79511 33.0964 8.77198C33.0919 8.79511 33.0866 8.81824 33.0806 8.84138C33.0761 8.86451 33.07 8.88764 33.0625 8.91077L32.4381 10.7799C32.4291 10.8123 32.411 10.8285 32.3838 10.8285H32.2323L31.479 8.52677Z" fill="#212121"/>
<path d="M35.9798 8.48976C36.1065 8.48976 36.2234 8.51212 36.3304 8.55685C36.439 8.60157 36.5325 8.66711 36.6109 8.75347C36.6909 8.83829 36.7527 8.94316 36.7964 9.06807C36.8417 9.19299 36.8643 9.33641 36.8643 9.49834C36.8643 9.53227 36.859 9.5554 36.8485 9.56774C36.8394 9.58008 36.8243 9.58624 36.8032 9.58624H35.1767V9.6302C35.1767 9.80292 35.1963 9.95482 35.2355 10.0859C35.2748 10.217 35.3306 10.3273 35.4029 10.4167C35.4753 10.5046 35.5628 10.5709 35.6654 10.6156C35.7679 10.6604 35.8825 10.6827 36.0092 10.6827C36.1223 10.6827 36.2203 10.6704 36.3033 10.6457C36.3862 10.6195 36.4556 10.591 36.5114 10.5601C36.5687 10.5277 36.614 10.4992 36.6471 10.4745C36.6803 10.4483 36.7045 10.4352 36.7195 10.4352C36.7391 10.4352 36.7542 10.4429 36.7648 10.4583L36.8236 10.5324C36.7874 10.5786 36.7391 10.6218 36.6788 10.6619C36.62 10.702 36.5536 10.7367 36.4797 10.766C36.4074 10.7938 36.3289 10.8161 36.2445 10.8331C36.1615 10.8501 36.0778 10.8585 35.9934 10.8585C35.8395 10.8585 35.6993 10.8315 35.5726 10.7776C35.4459 10.7221 35.3373 10.6419 35.2469 10.537C35.1564 10.4321 35.0862 10.3041 35.0365 10.153C34.9882 10.0003 34.9641 9.82605 34.9641 9.6302C34.9641 9.46518 34.9867 9.31328 35.032 9.17448C35.0787 9.03415 35.1451 8.91386 35.231 8.81362C35.3185 8.71183 35.4248 8.63241 35.55 8.57535C35.6767 8.51829 35.8199 8.48976 35.9798 8.48976ZM35.9821 8.654C35.8659 8.654 35.7619 8.67251 35.6699 8.70952C35.5779 8.74653 35.498 8.79974 35.4301 8.86914C35.3637 8.93853 35.3094 9.02181 35.2672 9.11897C35.2265 9.21612 35.1994 9.32485 35.1858 9.44514H36.6698C36.6698 9.32176 36.6532 9.2115 36.62 9.11434C36.5868 9.01564 36.5401 8.93236 36.4797 8.86451C36.4194 8.79665 36.347 8.74499 36.2626 8.70952C36.1781 8.67251 36.0846 8.654 35.9821 8.654Z" fill="#212121"/>
<path d="M37.4423 10.8285V8.52677H37.5554C37.581 8.52677 37.5991 8.53217 37.6097 8.54297C37.6217 8.55376 37.6285 8.57227 37.63 8.59848L37.6481 9.08427C37.7205 8.89767 37.817 8.75193 37.9377 8.64706C38.0583 8.54065 38.2069 8.48745 38.3833 8.48745C38.4512 8.48745 38.5138 8.49516 38.5711 8.51058C38.6284 8.52446 38.6827 8.54528 38.734 8.57304L38.7046 8.72571C38.7 8.75039 38.6849 8.76273 38.6593 8.76273C38.6503 8.76273 38.6374 8.75964 38.6209 8.75347C38.6043 8.7473 38.5831 8.74036 38.5575 8.73265C38.5334 8.72494 38.5032 8.718 38.467 8.71183C38.4308 8.70566 38.3894 8.70258 38.3426 8.70258C38.1722 8.70258 38.0319 8.75656 37.9218 8.86451C37.8133 8.97246 37.725 9.12822 37.6572 9.33179V10.8285H37.4423Z" fill="#212121"/>
<path d="M40.0888 8.48976C40.2155 8.48976 40.3324 8.51212 40.4395 8.55685C40.548 8.60157 40.6415 8.66711 40.72 8.75347C40.7999 8.83829 40.8617 8.94316 40.9055 9.06807C40.9507 9.19299 40.9733 9.33641 40.9733 9.49834C40.9733 9.53227 40.9681 9.5554 40.9575 9.56774C40.9484 9.58008 40.9334 9.58624 40.9123 9.58624H39.2858V9.6302C39.2858 9.80292 39.3054 9.95482 39.3446 10.0859C39.3838 10.217 39.4396 10.3273 39.512 10.4167C39.5844 10.5046 39.6718 10.5709 39.7744 10.6156C39.8769 10.6604 39.9916 10.6827 40.1182 10.6827C40.2313 10.6827 40.3294 10.6704 40.4123 10.6457C40.4953 10.6195 40.5646 10.591 40.6204 10.5601C40.6777 10.5277 40.723 10.4992 40.7562 10.4745C40.7893 10.4483 40.8135 10.4352 40.8286 10.4352C40.8482 10.4352 40.8632 10.4429 40.8738 10.4583L40.9326 10.5324C40.8964 10.5786 40.8482 10.6218 40.7878 10.6619C40.729 10.702 40.6627 10.7367 40.5888 10.766C40.5164 10.7938 40.438 10.8161 40.3535 10.8331C40.2706 10.8501 40.1869 10.8585 40.1024 10.8585C39.9486 10.8585 39.8083 10.8315 39.6816 10.7776C39.555 10.7221 39.4464 10.6419 39.3559 10.537C39.2654 10.4321 39.1953 10.3041 39.1455 10.153C39.0972 10.0003 39.0731 9.82605 39.0731 9.6302C39.0731 9.46518 39.0957 9.31328 39.141 9.17448C39.1877 9.03415 39.2541 8.91386 39.34 8.81362C39.4275 8.71183 39.5338 8.63241 39.659 8.57535C39.7857 8.51829 39.929 8.48976 40.0888 8.48976ZM40.0911 8.654C39.975 8.654 39.8709 8.67251 39.7789 8.70952C39.6869 8.74653 39.607 8.79974 39.5391 8.86914C39.4728 8.93853 39.4185 9.02181 39.3762 9.11897C39.3355 9.21612 39.3084 9.32485 39.2948 9.44514H40.7788C40.7788 9.32176 40.7622 9.2115 40.729 9.11434C40.6958 9.01564 40.6491 8.93236 40.5888 8.86451C40.5284 8.79665 40.456 8.74499 40.3716 8.70952C40.2871 8.67251 40.1936 8.654 40.0911 8.654Z" fill="#212121"/>
<path d="M43.1461 10.8285C43.1084 10.8285 43.0865 10.8084 43.0805 10.7683L43.0579 10.4051C42.9584 10.5439 42.8415 10.6542 42.7073 10.7359C42.5745 10.8177 42.4252 10.8585 42.2593 10.8585C41.9834 10.8585 41.7677 10.7606 41.6124 10.5647C41.4585 10.3689 41.3816 10.0751 41.3816 9.6834C41.3816 9.5153 41.4027 9.35877 41.445 9.21381C41.4887 9.0673 41.552 8.94085 41.635 8.83444C41.7194 8.72648 41.822 8.64167 41.9426 8.57998C42.0648 8.51829 42.205 8.48745 42.3634 8.48745C42.5157 8.48745 42.6477 8.51675 42.7593 8.57535C42.8709 8.63241 42.9674 8.71646 43.0488 8.8275V7.46268H43.266V10.8285H43.1461ZM42.3204 10.6804C42.4697 10.6804 42.6047 10.6411 42.7253 10.5624C42.846 10.4838 42.9538 10.3743 43.0488 10.234V9.0195C42.9614 8.88841 42.8648 8.79588 42.7593 8.74191C42.6552 8.68793 42.5368 8.66094 42.4041 8.66094C42.2714 8.66094 42.1553 8.68562 42.0557 8.73497C41.9562 8.78432 41.8725 8.85448 41.8046 8.94547C41.7383 9.03492 41.6878 9.14287 41.6531 9.26933C41.6199 9.39424 41.6033 9.53227 41.6033 9.6834C41.6033 10.0258 41.6651 10.2779 41.7888 10.4398C41.9125 10.6002 42.0897 10.6804 42.3204 10.6804Z" fill="#212121"/>
<path d="M44.9186 10.8285V7.46268H45.1357V8.92928C45.2353 8.79357 45.3506 8.68639 45.4818 8.60774C45.613 8.52909 45.7608 8.48976 45.9252 8.48976C46.2012 8.48976 46.4161 8.58769 46.5699 8.78354C46.7253 8.97786 46.8029 9.27087 46.8029 9.66258C46.8029 9.83068 46.7811 9.98798 46.7373 10.1345C46.6951 10.2794 46.6318 10.4059 46.5473 10.5139C46.4644 10.6203 46.3618 10.7043 46.2397 10.766C46.119 10.8277 45.9795 10.8585 45.8212 10.8585C45.6643 10.8585 45.5293 10.8277 45.4162 10.766C45.3031 10.7028 45.2059 10.6102 45.1244 10.4884L45.1108 10.7706C45.1063 10.8092 45.086 10.8285 45.0498 10.8285H44.9186ZM45.8641 8.66557C45.7148 8.66557 45.5799 8.70489 45.4592 8.78354C45.3386 8.8622 45.2307 8.97169 45.1357 9.11203V10.3265C45.2217 10.4591 45.3167 10.5524 45.4208 10.6064C45.5248 10.6588 45.6447 10.685 45.7804 10.685C45.9132 10.685 46.0293 10.6604 46.1288 10.611C46.2284 10.5617 46.3113 10.4923 46.3777 10.4028C46.4455 10.3118 46.496 10.2039 46.5292 10.079C46.5639 9.95251 46.5813 9.81371 46.5813 9.66258C46.5813 9.32022 46.5194 9.06885 46.3958 8.90846C46.2721 8.74653 46.0949 8.66557 45.8641 8.66557Z" fill="#212121"/>
<path d="M47.8169 11.5687C47.8078 11.5903 47.7958 11.608 47.7807 11.6219C47.7671 11.6358 47.7468 11.6427 47.7196 11.6427H47.5658L47.9617 10.7429L47.0093 8.52677H47.188C47.2106 8.52677 47.228 8.53294 47.24 8.54528C47.2536 8.55607 47.2634 8.56841 47.2694 8.58229L48.0273 10.3727C48.0363 10.3959 48.0439 10.4198 48.0499 10.4445C48.0574 10.4676 48.0642 10.4915 48.0703 10.5162C48.0778 10.4915 48.0853 10.4676 48.0929 10.4445C48.1019 10.4198 48.111 10.3959 48.12 10.3727L48.8688 8.58229C48.8763 8.56533 48.8869 8.55222 48.9005 8.54297C48.914 8.53217 48.9291 8.52677 48.9457 8.52677H49.1109L47.8169 11.5687Z" fill="#212121"/>
<path d="M49.4923 10.6503C49.4923 10.621 49.4976 10.5933 49.5081 10.5671C49.5187 10.5408 49.533 10.5185 49.5511 10.5C49.5707 10.4799 49.5926 10.4645 49.6167 10.4537C49.6423 10.4414 49.6702 10.4352 49.7004 10.4352C49.7291 10.4352 49.7562 10.4414 49.7818 10.4537C49.8075 10.4645 49.8293 10.4799 49.8474 10.5C49.867 10.5185 49.8821 10.5408 49.8927 10.5671C49.9047 10.5933 49.9108 10.621 49.9108 10.6503C49.9108 10.6812 49.9047 10.7097 49.8927 10.7359C49.8821 10.7606 49.867 10.783 49.8474 10.803C49.8293 10.8215 49.8075 10.8362 49.7818 10.847C49.7562 10.8578 49.7291 10.8632 49.7004 10.8632C49.6416 10.8632 49.5918 10.8431 49.5511 10.803C49.5119 10.7614 49.4923 10.7105 49.4923 10.6503ZM49.4923 8.80668C49.4923 8.77738 49.4976 8.74962 49.5081 8.7234C49.5187 8.69718 49.533 8.67482 49.5511 8.65632C49.5707 8.63627 49.5926 8.62085 49.6167 8.61005C49.6423 8.59771 49.6702 8.59154 49.7004 8.59154C49.7291 8.59154 49.7562 8.59771 49.7818 8.61005C49.8075 8.62085 49.8293 8.63627 49.8474 8.65632C49.867 8.67482 49.8821 8.69718 49.8927 8.7234C49.9047 8.74962 49.9108 8.77738 49.9108 8.80668C49.9108 8.83752 49.9047 8.86605 49.8927 8.89227C49.8821 8.91694 49.867 8.9393 49.8474 8.95935C49.8293 8.97786 49.8075 8.99251 49.7818 9.0033C49.7562 9.0141 49.7291 9.0195 49.7004 9.0195C49.6416 9.0195 49.5918 8.99945 49.5511 8.95935C49.5119 8.91771 49.4923 8.86682 49.4923 8.80668Z" fill="#212121"/>
</svg>
