<?xml version="1.0" encoding="utf-8"?>
<!-- Generator: Adobe Illustrator 25.2.1, SVG Export Plug-In . SVG Version: 6.00 Build 0)  -->
<svg version="1.1" id="Camada_1" xmlns="http://www.w3.org/2000/svg" xmlns:xlink="http://www.w3.org/1999/xlink" x="0px" y="0px"
	 viewBox="0 0 32 32" style="enable-background:new 0 0 32 32;" xml:space="preserve">
<style type="text/css">
	.st0{fill:#737A83;}
</style>
<g id="Icon_feather-star">
	<path class="st0" d="M7.6,29.4c-0.1,0-0.2,0-0.3-0.1c-0.1-0.1-0.2-0.3-0.2-0.5l1.6-9.1l-6.6-6.4C2,13.2,2,13,2,12.8
		c0.1-0.2,0.2-0.3,0.4-0.3l9.1-1.3l4-8.3c0.2-0.3,0.7-0.3,0.9,0l4,8.3l9.1,1.3c0.2,0,0.3,0.2,0.4,0.3c0.1,0.2,0,0.4-0.1,0.5
		l-6.6,6.4l1.6,9c0,0.2,0,0.4-0.2,0.5c-0.1,0.1-0.3,0.1-0.5,0L16,25l-8.2,4.3C7.8,29.3,7.7,29.4,7.6,29.4z M3.5,13.3l6.1,5.9
		c0.1,0.1,0.2,0.3,0.1,0.4L8.2,28l7.5-4c0.1-0.1,0.3-0.1,0.4,0l7.5,3.9l-1.5-8.3c0-0.2,0-0.3,0.1-0.4l6.1-5.9l-8.4-1.2
		c-0.2,0-0.3-0.1-0.4-0.3L16,4.2l-3.7,7.6c-0.1,0.1-0.2,0.2-0.4,0.3L3.5,13.3z"/>
</g>
</svg>
