<?xml version="1.0" encoding="utf-8"?>
<!-- Generator: Adobe Illustrator 25.2.1, SVG Export Plug-In . SVG Version: 6.00 Build 0)  -->
<svg version="1.1" id="Camada_1" xmlns="http://www.w3.org/2000/svg" xmlns:xlink="http://www.w3.org/1999/xlink" x="0px" y="0px"
	 viewBox="0 0 32 32" style="enable-background:new 0 0 32 32;" xml:space="preserve">
<style type="text/css">
	.st0{fill:#737A83;}
</style>
<g id="Icon_map-convenience-store">
	<path class="st0" d="M25.4,29.4H6.5c-1.9,0-3.4-1.5-3.4-3.4v-8.3H2v-5.1h3.5l0.1-0.1l6.5-7c0-0.1,0-0.2,0-0.4
		c-0.1-0.6,0.2-1.2,0.6-1.7c0.4-0.5,1-0.7,1.7-0.8l2.2,0c0.6,0,1.3,0.3,1.7,0.8c0.4,0.5,0.7,1.1,0.6,1.8l0,0.2c0,0,0,0.1,0,0.1
		l6.5,7c0.1,0,0.1,0.1,0.2,0.1H30v5.1h-1.3V26C28.7,27.9,27.2,29.4,25.4,29.4z M3,16.7h1.2V26c0,1.3,1.1,2.4,2.4,2.4h18.8
		c1.3,0,2.4-1.1,2.4-2.4v-9.3H29v-3.2h-4.3v-0.3l-7-7.4V5.6c0-0.2,0-0.4,0.1-0.6c0-0.4-0.1-0.7-0.4-1c-0.3-0.3-0.6-0.5-1-0.5h-2.1
		c-0.4,0-0.7,0.2-1,0.5c-0.3,0.3-0.4,0.6-0.4,1c0,0.2,0,0.2,0,0.3l0.2,0.3l-7.3,7.8H3V16.7z M24.2,27c-0.9,0-1.6-0.7-1.6-1.6v-7
		c0-0.9,0.7-1.6,1.6-1.6c0.9,0,1.6,0.7,1.6,1.6v7C25.8,26.3,25.1,27,24.2,27z M24.2,17.6c-0.4,0-0.7,0.3-0.7,0.7v7
		c0,0.4,0.3,0.7,0.7,0.7c0.4,0,0.7-0.3,0.7-0.7v-7C24.9,17.9,24.6,17.6,24.2,17.6z M19,27c-0.9,0-1.6-0.7-1.6-1.6v-7
		c0-0.9,0.7-1.6,1.6-1.6c0.9,0,1.6,0.7,1.6,1.6v7C20.6,26.3,19.9,27,19,27z M19,17.6c-0.4,0-0.7,0.3-0.7,0.7v7
		c0,0.4,0.3,0.7,0.7,0.7c0.4,0,0.7-0.3,0.7-0.7v-7C19.7,17.9,19.4,17.6,19,17.6z M13.1,27c-0.9,0-1.6-0.7-1.6-1.6v-7
		c0-0.9,0.7-1.6,1.6-1.6c0.9,0,1.6,0.7,1.6,1.6v7C14.7,26.3,14,27,13.1,27z M13.1,17.6c-0.4,0-0.7,0.3-0.7,0.7v7
		c0,0.4,0.3,0.7,0.7,0.7c0.4,0,0.7-0.3,0.7-0.7v-7C13.8,17.9,13.5,17.6,13.1,17.6z M7.8,27c-0.9,0-1.6-0.7-1.6-1.6v-7
		c0-0.9,0.7-1.6,1.6-1.6c0.9,0,1.6,0.7,1.6,1.6v7C9.4,26.3,8.7,27,7.8,27z M7.8,17.6c-0.4,0-0.7,0.3-0.7,0.7v7
		c0,0.4,0.3,0.7,0.7,0.7c0.4,0,0.7-0.3,0.7-0.7v-7C8.5,17.9,8.2,17.6,7.8,17.6z M23.2,13.5H7.6L14,6.8l0.3,0.3l0-0.4h2.3l0.2,0.2
		L23.2,13.5z M9.9,12.6H21l-4.6-4.9h-1.8L9.9,12.6z"/>
</g>
</svg>
