<?xml version="1.0" encoding="utf-8"?>
<!-- Generator: Adobe Illustrator 25.2.1, SVG Export Plug-In . SVG Version: 6.00 Build 0)  -->
<svg version="1.1" id="Camada_1" xmlns="http://www.w3.org/2000/svg" xmlns:xlink="http://www.w3.org/1999/xlink" x="0px" y="0px"
	 viewBox="0 0 233 237" style="enable-background:new 0 0 233 237;" xml:space="preserve">
<style type="text/css">
	.st0{fill:none;stroke:#737A83;stroke-width:6;}
	.st1{fill:#737A83;}
	.st2{fill:#22305E;}
	.st3{fill:#FFFFFF;}
</style>
<g id="Group_322" transform="translate(-832 -216)">
	<g id="Group_321">
		<circle class="st0" cx="948.5" cy="332.5" r="113.5"/>
		<g id="tickets" transform="translate(874.996 263.996)">
			<g id="Group_319" transform="translate(0.004 0.004)">
				<g id="Group_318" transform="translate(0 0)">
					<path id="Path_262" class="st1" d="M158.5,52.6L138.8-7.7c-0.6-1.7-2.4-2.7-4.2-2.1l0,0l-144,46.7c-1.7,0.6-2.7,2.4-2.1,4.2
						l0,0l9.3,28.6v63.7c0,1.9,1.5,3.4,3.4,3.4h151.4c1.9,0,3.4-1.5,3.4-3.4V69.9c0-1.9-1.5-3.4-3.4-3.4h-26.1l29.9-9.7
						C158.1,56.2,159,54.4,158.5,52.6z M149.3,73.3v56.9H4.4V73.3h18.4v37.1c0,1.9,1.5,3.4,3.4,3.4c1.9,0,3.4-1.5,3.4-3.4V73.3
						H149.3L149.3,73.3z M105,66.5H3.7l-7.9-24.3l17.5-5.7l6.7,20.4c0.5,1.4,1.7,2.3,3.1,2.3c0.3,0,0.7-0.1,1-0.1
						c1.7-0.6,2.7-2.4,2.1-4.2l-6.7-20.4L133.4-2.5L151,51.6L105,66.5z"/>
					<path id="Path_263" class="st1" d="M128.5,12.1c-0.6-1.7-2.4-2.7-4.2-2.1l0,0L37.6,38c-1.7,0.6-2.7,2.4-2.1,4.2l0,0
						c0.5,1.4,1.7,2.3,3.1,2.3c0.3,0,0.7-0.1,1-0.1l86.7-28.2C128.2,15.7,129.1,13.8,128.5,12.1z"/>
					<path id="Path_264" class="st1" d="M113.9,33.6l16.5-5.3c1.7-0.6,2.7-2.4,2.1-4.2s-2.4-2.7-4.2-2.1l0,0l-16.5,5.3
						c-1.7,0.6-2.7,2.4-2.1,4.2l0,0c0.5,1.4,1.7,2.3,3.1,2.3C113.2,33.9,113.6,33.7,113.9,33.6z"/>
					<path id="Path_265" class="st1" d="M127.7,48.9c0.5,1.4,1.7,2.3,3.1,2.3c0.3,0,0.7-0.1,1-0.1l5.2-1.7c1.7-0.6,2.7-2.4,2.1-4.2
						c-0.6-1.7-2.4-2.7-4.2-2.1l-5.2,1.7C128.2,45.3,127.1,47.2,127.7,48.9z"/>
					<path id="Path_266" class="st1" d="M118.3,48.6l-5.2,1.7c-1.7,0.6-2.7,2.4-2.1,4.2l0,0c0.5,1.4,1.7,2.3,3.1,2.3
						c0.3,0,0.7-0.1,1-0.1l5.2-1.9c1.7-0.6,2.7-2.4,2.1-4.2C121.9,48.9,120.1,48,118.3,48.6L118.3,48.6L118.3,48.6z"/>
					<path id="Path_267" class="st1" d="M71.9,40.3l-30.4,9.8c-1.7,0.6-2.7,2.4-2.1,4.2l0,0c0.5,1.4,1.7,2.3,3.1,2.3
						c0.3,0,0.7-0.1,1-0.1L74,46.7c1.7-0.6,2.7-2.4,2.1-4.2C75.5,40.7,73.6,39.8,71.9,40.3z"/>
					<path id="Path_268" class="st1" d="M26.2,118c-1.9,0-3.4,1.5-3.4,3.4v1.3c0,1.9,1.5,3.4,3.4,3.4s3.4-1.5,3.4-3.4l0,0v-1.3
						C29.5,119.5,28.1,118,26.2,118z"/>
					<path id="Path_269" class="st1" d="M42.1,85.5c0,1.9,1.5,3.4,3.4,3.4h91.2c1.9,0,3.4-1.5,3.4-3.4s-1.5-3.4-3.4-3.4H45.5
						C43.6,82.2,42.1,83.7,42.1,85.5C42.1,85.4,42.1,85.4,42.1,85.5z"/>
					<path id="Path_270" class="st1" d="M136.6,94.9h-17.3c-1.9,0-3.4,1.5-3.4,3.4s1.5,3.4,3.4,3.4h17.3c1.9,0,3.4-1.5,3.4-3.4
						S138.4,94.9,136.6,94.9z"/>
					<path id="Path_271" class="st1" d="M136.6,117.1h-5.4c-1.9,0-3.4,1.5-3.4,3.4s1.5,3.4,3.4,3.4h5.4c1.9,0,3.4-1.5,3.4-3.4
						S138.4,117.1,136.6,117.1z"/>
					<path id="Path_272" class="st1" d="M118.9,117.1h-5.4c-1.9,0-3.4,1.5-3.4,3.4s1.5,3.4,3.4,3.4h5.4c1.9,0,3.4-1.5,3.4-3.4
						S120.8,117.1,118.9,117.1L118.9,117.1z"/>
					<path id="Path_273" class="st1" d="M77.3,94.9h-32c-1.9,0-3.4,1.5-3.4,3.4s1.5,3.4,3.4,3.4h32c1.9,0,3.4-1.5,3.4-3.4
						S79.2,94.9,77.3,94.9z"/>
				</g>
			</g>
		</g>
	</g>
	<g id="Group_320">
		<circle id="Ellipse_55" class="st2" cx="1005.3" cy="401.3" r="51.7"/>
		<path id="check-icon" class="st3" d="M1031.8,383.7c-1.7-1.7-4.4-1.8-6.2-0.1l0,0L997.7,410l-13.3-13.6c-1.7-1.7-4.5-1.6-6.2,0.1
			c-1.6,1.7-1.7,4.3-0.1,6l16.3,16.8c1.7,1.7,4.4,1.8,6.2,0.1l31-29.5C1033.4,388.2,1033.4,385.6,1031.8,383.7z"/>
	</g>
</g>
</svg>
