<?xml version="1.0" encoding="utf-8"?>
<!-- Generator: Adobe Illustrator 25.2.1, SVG Export Plug-In . SVG Version: 6.00 Build 0)  -->
<svg version="1.1" id="Camada_1" xmlns="http://www.w3.org/2000/svg" xmlns:xlink="http://www.w3.org/1999/xlink" x="0px" y="0px"
	 viewBox="0 0 233 237" style="enable-background:new 0 0 233 237;" xml:space="preserve">
<style type="text/css">
	.st0{fill:none;}
	.st1{fill:none;stroke:#1C8D87;stroke-width:6;}
	.st2{fill:#1C8D87;}
	.st3{fill:#FFFFFF;}
</style>
<g id="Group_322_1_" transform="translate(-832 -216)">
	<g id="Group_321_1_">
		<g id="Ellipse_54" transform="translate(832 216)">
			<circle id="Elipse_80" class="st0" cx="116.5" cy="116.5" r="116.5"/>
			<circle id="Elipse_81" class="st1" cx="116.5" cy="116.5" r="113.5"/>
		</g>
		<g id="tickets_1_" transform="translate(874.996 263.996)">
			<g id="Group_319_1_" transform="translate(0.004 0.004)">
				<g id="Group_318_1_">
					<path id="Path_262_1_" class="st2" d="M146.9,54.1L129.9,2c-0.5-1.5-2.1-2.3-3.6-1.8c0,0,0,0,0,0l0,0L2,40.5
						c-1.5,0.5-2.3,2.1-1.8,3.6c0,0,0,0,0,0l0,0l8,24.7v55c0,1.6,1.3,2.9,2.9,2.9c0,0,0,0,0,0h130.7c1.6,0,2.9-1.3,2.9-2.9V69
						c0-1.6-1.3-2.9-2.9-2.9h-22.5l25.8-8.4C146.5,57.1,147.3,55.6,146.9,54.1z M138.9,71.9V121h-125V71.9h15.9v32
						c0,1.6,1.3,2.9,2.9,2.9c1.6,0,2.9-1.3,2.9-2.9c0,0,0,0,0,0v-32L138.9,71.9z M100.7,66.1H13.3l-6.8-21l15.1-4.9l5.8,17.6
						c0.4,1.2,1.5,2,2.7,2c0.3,0,0.6-0.1,0.9-0.1c1.5-0.5,2.3-2.1,1.8-3.6c0,0,0,0,0,0L27,38.5l98.2-32l15.2,46.7L100.7,66.1z"/>
					<path id="Path_263_1_" class="st2" d="M121,19.1c-0.5-1.5-2.1-2.3-3.6-1.8c0,0,0,0,0,0l0,0L42.5,41.5c-1.5,0.5-2.3,2.1-1.8,3.6
						c0,0,0,0,0,0l0,0c0.4,1.2,1.5,2,2.7,2c0.3,0,0.6-0.1,0.9-0.1l74.8-24.3c1.5-0.4,2.4-2,1.9-3.5C121,19.2,121,19.1,121,19.1z"/>
					<path id="Path_264_1_" class="st2" d="M108.4,37.7l14.2-4.6c1.5-0.5,2.3-2.1,1.8-3.6c-0.5-1.5-2.1-2.3-3.6-1.8l0,0l0,0
						l-14.2,4.6c-1.5,0.5-2.3,2.1-1.8,3.6c0,0,0,0,0,0l0,0c0.4,1.2,1.5,2,2.7,2C107.8,37.9,108.1,37.8,108.4,37.7z"/>
					<path id="Path_265_1_" class="st2" d="M120.3,50.9c0.4,1.2,1.5,2,2.7,2c0.3,0,0.6-0.1,0.9-0.1l4.5-1.5c1.5-0.5,2.3-2.1,1.8-3.6
						s-2.1-2.3-3.6-1.8l0,0l-4.5,1.5C120.6,47.9,119.8,49.4,120.3,50.9C120.3,50.9,120.3,50.9,120.3,50.9z"/>
					<path id="Path_266_1_" class="st2" d="M112.2,50.6l-4.5,1.5c-1.5,0.5-2.3,2.1-1.8,3.6c0,0,0,0,0,0l0,0c0.4,1.2,1.5,2,2.7,2
						c0.3,0,0.6-0.1,0.9-0.1L114,56c1.5-0.5,2.3-2.1,1.8-3.6C115.3,50.9,113.7,50.1,112.2,50.6z"/>
					<path id="Path_267_1_" class="st2" d="M72.1,43.5L45.9,52c-1.5,0.5-2.3,2.1-1.8,3.6c0,0,0,0,0,0l0,0c0.4,1.2,1.5,2,2.7,2
						c0.3,0,0.6-0.1,0.9-0.1L73.9,49c1.5-0.5,2.3-2.2,1.8-3.7C75.2,43.8,73.6,43,72.1,43.5z"/>
					<path id="Path_268_1_" class="st2" d="M32.7,110.5c-1.6,0-2.9,1.3-2.9,2.9l0,0v1.1c0,1.6,1.3,2.9,2.9,2.9
						c1.6,0,2.9-1.3,2.9-2.9l0,0v-1.1C35.6,111.8,34.3,110.5,32.7,110.5z"/>
					<path id="Path_269_1_" class="st2" d="M46.4,82.5c0,1.6,1.3,2.9,2.9,2.9c0,0,0,0,0,0H128c1.6,0,2.9-1.3,2.9-2.9
						s-1.3-2.9-2.9-2.9H49.3C47.7,79.6,46.4,80.9,46.4,82.5C46.4,82.5,46.4,82.5,46.4,82.5z"/>
					<path id="Path_270_1_" class="st2" d="M128,90.6h-14.9c-1.6,0-2.9,1.3-2.9,2.9s1.3,2.9,2.9,2.9l0,0H128c1.6,0,2.9-1.3,2.9-2.9
						C130.9,91.9,129.6,90.6,128,90.6z"/>
					<path id="Path_271_1_" class="st2" d="M128,109.7h-4.7c-1.6,0-2.9,1.3-2.9,2.9s1.3,2.9,2.9,2.9l0,0h4.7c1.6,0,2.9-1.3,2.9-2.9
						C130.9,111,129.6,109.7,128,109.7z"/>
					<path id="Path_272_1_" class="st2" d="M112.7,109.7H108c-1.6,0-2.9,1.3-2.9,2.9s1.3,2.9,2.9,2.9l0,0h4.7c1.6,0,2.9-1.3,2.9-2.9
						S114.3,109.7,112.7,109.7L112.7,109.7z"/>
					<path id="Path_273_1_" class="st2" d="M76.8,90.6H49.2c-1.6,0-2.9,1.3-2.9,2.9s1.3,2.9,2.9,2.9h27.6c1.6,0,2.9-1.3,2.9-2.9
						S78.4,90.6,76.8,90.6z"/>
				</g>
			</g>
		</g>
	</g>
	<g id="Group_320_1_">
		<circle id="Ellipse_55_1_" class="st2" cx="1014.5" cy="410.5" r="42.5"/>
		<path id="check-icon_1_" class="st3" d="M1036.3,396.1c-1.4-1.4-3.7-1.5-5.1-0.1l0,0l-22.9,21.7l-10.9-11.2
			c-1.4-1.4-3.7-1.3-5.1,0.1c-1.3,1.3-1.4,3.5-0.1,4.9l13.4,13.8c1.4,1.4,3.7,1.5,5.1,0.1l25.5-24.2
			C1037.6,399.8,1037.6,397.6,1036.3,396.1z"/>
	</g>
</g>
</svg>
