<?xml version="1.0" encoding="utf-8"?>
<!-- Generator: Adobe Illustrator 25.2.1, SVG Export Plug-In . SVG Version: 6.00 Build 0)  -->
<svg version="1.1" id="Camada_1" xmlns="http://www.w3.org/2000/svg" xmlns:xlink="http://www.w3.org/1999/xlink" x="0px" y="0px"
	 viewBox="0 0 32 32" style="enable-background:new 0 0 32 32;" xml:space="preserve">
<style type="text/css">
	.st0{fill:#ACC2D3;}
	.st1{fill:#FFFFFF;}
	.st2{fill:none;stroke:#737A83;}
	.st3{fill:none;stroke:#FFFFFF;}
	.st4{fill:#737A83;}
	.st5{fill:#263F62;}
	.st6{fill:none;stroke:#263F62;stroke-width:3;stroke-linecap:round;stroke-linejoin:round;}
	.st7{fill:none;stroke:#737A83;stroke-linecap:round;stroke-linejoin:round;}
	.st8{fill:#FFFFFF;stroke:#737A83;}
	.st9{fill:#747A84;}
	.st10{fill:#F78946;stroke:#FFFFFF;stroke-linecap:round;stroke-linejoin:round;}
	.st11{fill:#F78946;stroke:#FFFFFF;stroke-width:2;stroke-linecap:round;stroke-linejoin:round;}
</style>
<path id="Icon_awesome-ticket-alt" class="st0" d="M8.3,18.5l9.1-10.4l6.3,5.4l-9.1,10.4L8.3,18.5z M22.8,8.2
	C23.7,8.9,25,8.8,25.7,8l0,0l3.1,2.7c0.9,0.8,1,2.1,0.2,2.9l0,0L15.5,29.3c-0.8,0.9-2.1,1-2.9,0.2c0,0,0,0,0,0l-3.1-2.7
	c0.8-0.9,0.7-2.2-0.2-2.9l0,0C8.3,23.1,7,23.2,6.3,24l-3.1-2.7c-0.9-0.8-1-2.1-0.2-2.9L16.5,2.7c0.8-0.9,2.1-1,2.9-0.2c0,0,0,0,0,0
	l3.1,2.7C21.9,6.1,21.9,7.4,22.8,8.2z M18.1,6.8c-0.4-0.4-1.1-0.3-1.5,0.1l-9.5,11c-0.4,0.4-0.3,1.1,0.1,1.5l6.8,5.9
	c0.4,0.4,1.1,0.3,1.5-0.1l9.5-11c0.4-0.4,0.3-1.1-0.1-1.5L18.1,6.8z"/>
</svg>
