<?xml version="1.0" encoding="utf-8"?>
<!-- Generator: Adobe Illustrator 25.2.1, SVG Export Plug-In . SVG Version: 6.00 Build 0)  -->
<svg version="1.1" id="Camada_1" xmlns="http://www.w3.org/2000/svg" xmlns:xlink="http://www.w3.org/1999/xlink" x="0px" y="0px"
	 viewBox="0 0 32 32" style="enable-background:new 0 0 32 32;" xml:space="preserve">
<style type="text/css">
	.st0{fill:#737A83;}
</style>
<g id="Icon_awesome-ticket-alt-2">
	<path class="st0" d="M13.2,29.9c-0.7,0-1.3-0.2-1.8-0.7L8.1,26l0.3-0.3c0.6-0.6,0.6-1.6,0-2.2c-0.6-0.6-1.7-0.6-2.2,0l-0.3,0.3
		l-3.2-3.2c-0.9-1-0.9-2.6,0-3.6L17.2,2.7c0.9-0.9,2.7-0.9,3.6,0L24,6l-0.4,0.3c-0.3,0.3-0.5,0.7-0.5,1.1c0,0.4,0.1,0.8,0.4,1.1
		c0.6,0.6,1.6,0.6,2.2,0l0.3-0.3l3.2,3.2c1,1,1,2.6,0,3.6L14.9,29.2C14.5,29.7,13.8,29.9,13.2,29.9z M9.5,26l2.6,2.6
		c0.6,0.6,1.6,0.6,2.2,0l14.3-14.2c0.6-0.6,0.6-1.6,0-2.2L26,9.5c-1,0.6-2.4,0.5-3.2-0.3l0,0c-0.5-0.5-0.7-1.2-0.7-1.8
		c0-0.5,0.2-1,0.5-1.4L20,3.4c-0.6-0.6-1.7-0.6-2.2,0L3.4,17.7c-0.6,0.6-0.6,1.6,0,2.2L6,22.5c1-0.6,2.4-0.5,3.2,0.3
		C10,23.6,10.1,25,9.5,26z M14.1,25.5c-0.4,0-0.8-0.2-1.1-0.4l-6.2-6.2c-0.3-0.3-0.4-0.7-0.4-1.1c0-0.4,0.2-0.8,0.4-1.1l10-10
		c0.5-0.5,1.6-0.5,2.1,0v0l6.2,6.2c0.3,0.3,0.4,0.7,0.4,1.1c0,0.4-0.2,0.8-0.4,1.1l-10,10C14.9,25.4,14.5,25.5,14.1,25.5z M17.9,7.3
		c-0.1,0-0.3,0.1-0.4,0.1l-10,10c-0.1,0.1-0.1,0.2-0.1,0.4c0,0.1,0.1,0.3,0.1,0.4l6.2,6.2c0.2,0.2,0.6,0.2,0.8,0l10-10
		c0.1-0.1,0.1-0.2,0.1-0.4c0-0.1-0.1-0.3-0.1-0.4l-6.2-6.2C18.2,7.4,18.1,7.3,17.9,7.3z M14.1,24.3l-6.4-6.4L18,7.7l6.4,6.4
		L14.1,24.3z M9.1,17.9l5,5l8.8-8.8l-5-5L9.1,17.9z"/>
</g>
</svg>
