<?xml version="1.0" encoding="utf-8"?>
<!-- Generator: Adobe Illustrator 25.2.1, SVG Export Plug-In . SVG Version: 6.00 Build 0)  -->
<svg version="1.1" id="Camada_1" xmlns="http://www.w3.org/2000/svg" xmlns:xlink="http://www.w3.org/1999/xlink" x="0px" y="0px"
	 viewBox="0 0 233 91.1" style="enable-background:new 0 0 233 91.1;" xml:space="preserve">
<g id="PortaldoAdepto.cartaodoadepto_cor_400" transform="translate(0 0)">
	<path id="Caminho_179" d="M135.5,13.1c-0.2,4.7-1.8,6-6.4,5.1c-1.7-0.3-3.4-0.7-5.1-0.9c-0.7-0.1-1.4,0-2.1,0.2
		c-0.9,0.3-1.7,1.7-2.5,0.7c-0.9-1-0.1-2.4,0.5-3.5c0.4-0.6,0.9-1.1,1.4-1.5h4.9c2.4,0.2,4.7,1.2,7.1,0
		C134,13.1,134.8,13.1,135.5,13.1z"/>
	<path id="Caminho_181" d="M179,60.9c0-4.7-0.1-9.4,0-14.2c0.3-1.4-0.6-2.8-2.1-3.1c0,0-0.1,0-0.1,0c-7.3-2.2-7.3-2.3-4.9-9.3
		c1.2-3.4,1.2-3.5,4.4-2.2c7.4,3.1,15.8,3,23.1-0.4c2-0.9,2.8-0.4,3.2,1.5c0.3,1.2,0.8,2.4,1.3,3.6c1.5,4.4,1.5,4.4-2.9,6.1
		c-4.9,1.8-4.9,1.8-4.9,7c0,8.5-0.1,17.1,0,25.6c0,1.9-0.5,2.5-2.4,2.5c-4.3-0.1-8.6-0.1-12.9,0c-1.6,0-2-0.5-2-2
		C179,70.9,179,65.9,179,60.9z"/>
	<path d="M88.2,39.3c-0.1-2.2-0.5-4.2-3.3-4.9c2.9-2,4.2-5.6,3.1-9c-0.8-2.9-3.5-4.9-6.5-4.8c-5-0.2-10-0.2-15-0.2
		c-0.9,0-2.4-0.6-2.6,0.7c-0.2,1.6-1,3.6,0.6,4.8c0.7,0.4,1,1.1,1,1.9c0,3.8,0,7.6,0,11.4c0,0.7,0.1,1.3-0.9,2
		c-1.7,1.1-0.8,3.1-0.7,4.7c0.1,1.4,1.6,0.8,2.5,0.8c2.9,0.1,5.8,0.1,8.8,0c0.8,0,2.1,0.5,2.1-0.9c0.1-1.5,0.7-4-0.4-4.3
		c-2.5-0.7-1.7-2.3-1.8-3.7c0-0.7-0.5-1.9,0.7-2c1.1-0.3,2.3,0.2,2.8,1.2c0.2,0.7,0.4,1.4,0.4,2.1c0.3,2.5-1.3,6,0.8,7.3
		c1.9,1.2,5.1,0.2,7.8,0.3c1.7,0.1,2-0.5,2.2-2.1C90.2,42.3,88.2,41.1,88.2,39.3z M76.4,31.5c-2.4,0-0.7-2-1.5-2.6
		c0.4-1.2-0.8-2.9,1.6-2.9c1.9,0,2.2,1.2,2.2,2.7C78.8,30.3,78.4,31.5,76.4,31.5z"/>
	<path d="M33.3,59.7c-0.8-3.7-3.8-6.6-7.5-7.5c-2.9-0.5-5.8-0.7-8.8-0.5c-2.6,0-4.7-0.1-6.7,0c-0.8,0-2.2-0.6-2.3,0.5
		c-0.2,1.6-1,3.7,0.5,4.8c0.7,0.4,1.2,1.2,1.1,2.1c0,3.8,0,7.6,0,11.4c0.1,0.8-0.3,1.7-1.1,2c-1.4,0.9-0.6,3-0.5,4.5
		c0.1,1.5,1.6,0.8,2.4,0.8c4.1,0.1,8.2,0.1,12.3,0c5,0.2,9.5-3.1,10.7-8C34.1,66.5,34.1,63,33.3,59.7z M23.1,64.9c0,1.6,0,3.3,0,4.9
		c0,1.9-1,2.5-2.8,2.5c-2.1,0-1.4-1.5-1.4-2.5c-0.1-3.5,0-7.1,0-10.6c0-0.9-0.5-2.1,1.2-2.1c1.5,0,2.8,0.3,2.9,2.1
		C23.2,61.1,23.1,63.1,23.1,64.9L23.1,64.9z"/>
	<path d="M124,62.2c0-0.2,0-0.4,0-0.6c-0.4-5.9-5.4-10.3-11.3-9.9c-4-0.1-8-0.1-12.1,0c-0.8,0-2.2-0.6-2.4,0.4
		c-0.3,1.6-0.8,4.1,0.2,4.6c2.1,1,1.3,2.5,1.3,3.8c0.1,3.3,0.1,6.5,0,9.8c0,0.6,0.3,1.5-0.4,1.8c-2.8,1.2-1.2,3.5-1.1,5.1
		c0.1,1.3,2.2,0.4,3.4,0.5c1.6,0.1,3.3,0,4.9,0l4.4,0c9.1,0,13.4-4.4,13.2-13.5C124.2,63.7,124.1,63,124,62.2z M113.4,70.8
		c-0.1,1.5-1.7,1.6-3.1,1.5c-1.5-0.1-1-1.3-1-2.1c0-1.9,0-3.8,0-5.7c0-1.7-0.1-3.5,0-5.2c0-0.9-0.6-2.2,1.1-2.2c1.4,0,2.9,0.1,3,1.7
		C113.6,62.8,113.6,66.8,113.4,70.8z"/>
	<path d="M60.6,58.7c-1-3.9-4.2-6.9-8.2-7.5c-2.6-0.6-5.3-0.6-7.9,0c-4.6,0.7-8.2,4.3-8.8,8.9c-0.4,2-0.5,4.1-0.3,6.2
		c0.8,8,4.8,11.7,12.9,11.7c6.6,0,10.7-2.6,12.2-7.9C61.7,66.2,61.7,62.4,60.6,58.7z M50.6,64.4L50.6,64.4l0,5.1
		c0.1,1.1-0.6,2.1-1.7,2.3c-0.1,0-0.3,0-0.4,0c-1.1,0.2-2.2-0.6-2.3-1.7c0-0.2,0-0.4,0-0.6V59.2c-0.2-1.2,0.6-2.2,1.8-2.4
		c0.2,0,0.4,0,0.5,0c1.6,0,2.2,1,2.2,2.5C50.6,61,50.6,62.7,50.6,64.4z"/>
	<path d="M154.7,19.9c-8.7,0-13,4.5-13,13.5c0,9,4.3,13.5,13,13.5c8.7,0,13-4.5,13-13.5S163.4,19.9,154.7,19.9z M155.3,40.9
		c-0.2,0-0.3,0-0.5,0c-1.6,0-2.3-0.8-2.3-2.3c0-1.7,0-3.4,0-5.1v-5.1c-0.2-1.1,0.6-2.2,1.7-2.3c0.2,0,0.4,0,0.6,0
		c1.1-0.1,2,0.6,2.1,1.7c0,0.2,0,0.3,0,0.5v10.5C157.1,39.8,156.4,40.8,155.3,40.9z"/>
	<path d="M224.7,58.6c-0.7-2.9-2.7-5.2-5.4-6.5c-10.2-4.9-19.7,0.9-19.7,12c0,0.7,0,1.5,0,2.2c0.3,7,4.4,11.1,11.3,11.5
		c8.4,0.5,13.1-2.8,14.3-10.1C225.7,64.7,225.6,61.6,224.7,58.6z M214.8,69.4c0,1.4-0.7,2.5-2.3,2.4c-1.6,0-2.2-1.1-2.3-2.5
		c0-1.7,0-3.5,0-5.2c0-1.6,0-3.3,0-4.9c0-1.5,0.6-2.5,2.2-2.5c1.2-0.1,2.2,0.7,2.4,1.8c0,0.2,0,0.3,0,0.5
		C214.8,62.6,214.8,66,214.8,69.4z"/>
	<path d="M58.8,39.2c-0.8-3.2-1.7-6.3-2.6-9.4c-0.9-3-0.9-7.1-2.9-8.8c-2.2-1.8-6.3-0.3-9.5-0.6c-2.1-0.2-2.8,0.7-3.2,2.6
		c-1.3,5.3-2.8,10.5-4.3,15.7c-0.2,1-0.7,2-1.5,2.6c-1.3,1-0.6,3.1-0.4,4.6c0.2,1.4,1.6,0.7,2.5,0.8c2.2,0.1,4.4,0.1,6.6,0
		c0.9,0,2.4,0.6,2.3-1c-0.1-1.5,1.2-3.6-0.9-4.5c-1.3-0.6-0.9-1.4-0.6-1.9c1.1-1.6,2.8-0.8,4.3-0.6c0.7,0.1,0.9,1.2,0.7,2.1
		c0,0.1-0.2,0.2-0.4,0.3c-3,0.8-1.3,3.2-1.3,4.8c0,1.7,1.9,0.8,2.9,0.9c1.2,0.1,2.4,0.1,3.6,0c1.5,0,3.1-0.1,4.6,0
		c1.6,0.1,1.9-0.5,2.3-2.1C61.4,42.1,59.3,41,58.8,39.2z M46.2,34.8c-0.7,0.1-1.2-0.1-1-1.1c0.4-1.7,0.7-3.3,1.1-5
		c0.2,0,0.4-0.1,0.6-0.2c0.5,1.9,0.8,3.8,1,5.7C48,35.2,46.8,34.7,46.2,34.8z"/>
	<path d="M138.7,39.1c-1.1-3.8-2.2-7.7-3.2-11.5c-2-7.3-2-7.3-9.5-7.3c-0.9,0-1.8,0-2.7,0c-1.6-0.2-2.4,0.4-2.8,2.1
		c-1.4,5.5-3,11-4.6,16.5c-0.2,0.9-0.6,1.6-1.2,2.2c-1.4,1.2-0.8,3.2-0.5,4.8c0.2,1.3,1.7,0.6,2.6,0.7c2.2,0.1,4.4,0.1,6.6,0
		c0.8,0,2.2,0.6,2.2-0.8c0-1.6,1-3.8-0.7-4.7c-1.2-0.7-1.2-1.4-0.8-2c1-1.5,2.6-0.6,4-0.6c1,0,0.8,1,0.9,1.7c0,0.2-0.1,0.6-0.3,0.7
		c-3,1-1.4,3.5-1.3,5c0.2,1.6,2.3,0.5,3.5,0.8c0.9,0.1,1.8,0.1,2.7,0c1.6,0,3.1-0.1,4.6,0c1.6,0.1,2-0.4,2.3-2
		C141.1,42.2,139.2,41,138.7,39.1z M127.5,34.6c-0.7,0.2-1.4,0.2-2.1,0c-0.7-0.2-0.3-0.9-0.2-1.4c0.3-1.6,0.7-3.1,1.1-4.7
		c0.1,0,0.3,0,0.4-0.1c0.4,1.6,0.8,3.1,1.1,4.7C127.8,33.7,128.2,34.4,127.5,34.6z"/>
	<path d="M93.8,70.1c-1.4-5.4-3-10.8-4.4-16.2c-0.4-1.7-1.1-2.3-3-2.2c-2.7,0.2-5.5,0.2-8.2,0c-0.1,0-0.2,0-0.2,0
		c-1.1-0.1-2.1,0.8-2.2,1.9c-1.4,5.4-3,10.8-4.4,16.2c-0.2,0.7-0.2,1.8-0.7,2c-2.1,1.1-1.3,3-1.5,4.6c-0.1,1.2,0.4,1.6,1.5,1.5
		c2.6-0.1,5.3,0,8-0.1c0.7,0,2.1,0.7,2.1-0.9s1-3.4-0.6-4.5c-0.8-0.5-1.2-0.7-1-1.7c0.3-1.5,1.4-1.2,2.4-1.1
		c0.9,0.1,2.3-0.8,2.7,0.9c0.1,0.7,0.8,1.7-0.7,1.7c-0.9,0-0.9,0.6-1,1.2c-0.5,4.1-0.3,4.3,3.7,4.3h2.7c1.5,0,3.1-0.1,4.7,0
		c1.7,0.2,2.1-0.5,2.4-2.2C96.5,73.1,94.3,72,93.8,70.1z M82.5,66c-0.6,0.2-1.3,0.2-1.9,0c-0.7-0.2-0.4-0.9-0.2-1.4
		c0.3-1.6,0.6-3.2,1-4.7c0.2,0,0.3,0,0.5,0c0.3,1.6,0.7,3.1,1,4.7C83,65.1,83.3,65.8,82.5,66z"/>
	<path id="Caminho_191" d="M138,51.7c3.3,0,6.6,0,9.9,0c1.3,0,1.8,0.3,1.7,1.7c-0.1,2.3-0.1,4.5,0,6.8c0,1.2-0.3,1.9-1.7,1.8
		c-0.9-0.1-1.8-0.1-2.7,0c-2.3,0.3-3.7-0.3-3.2-3c0.3-1.8-0.9-1.8-2.2-1.8c-1.2,0-2.2,0-2,1.7c0.2,1.6-1,4,2.4,3.8
		c1.2-0.1,0.5,1.5,0.6,2.3c0.2,1-0.3,1.5-1.4,1.5c-0.6,0-1.6-0.4-1.7,0.8c0,1.6-0.5,3.4,0.3,4.8c0.5,0.9,2.1,0.4,3.1,0.2
		c1.3-0.3,0.8-1.5,0.7-2.3c-0.2-2.2,0.2-3.2,2.9-3.1c4.8,0.3,4.8,0.1,4.8,4.9c0,6,0,6-6.1,6c-4.7,0-9.5,0-14.2,0
		c-0.8,0-2.4,0.7-2.4-0.7c-0.1-1.6-1-3.6,0.7-4.6c1-0.6,0.9-1.2,0.9-2c0-3.8,0-7.6,0-11.4c0.1-0.8-0.4-1.7-1.1-2
		c-1.4-1-0.6-3-0.5-4.5c0.1-1.5,1.6-0.7,2.5-0.7C132.1,51.6,135.1,51.7,138,51.7z"/>
	<path id="Caminho_192" d="M18.4,33.6c0,1.6,0,3.3,0,4.9c0,1.4,0.6,2.5,2.2,2.5c1.6,0,2.5-1,2.3-2.4c-0.5-3.2,1.5-2.7,3.4-2.7
		c4.8,0,4.8,0,4.8,4.8c0,4.5,0,4.5-4.3,5.6c-3,0.8-6.2,0.9-9.2,0.4c-4.8-0.4-8.7-4.1-9.4-8.8c-0.5-2.3-0.6-4.7-0.3-7
		c0.7-6.8,4.6-10.4,11.4-10.9c1.6-0.1,3.3-0.1,4.9,0.1c6.4,0.6,8.5,3.5,7,9.6c-0.1,0.4-0.2,1-0.7,1c-2.3,0.1-4.6,0.2-6.8,0
		c-1-0.1-0.6-1.2-0.6-1.8c0-1.6-0.3-3-2.3-3c-2.1,0-2.3,1.4-2.3,3S18.4,32,18.4,33.6C18.4,33.6,18.4,33.6,18.4,33.6z"/>
	<path d="M168.2,51.7c-2.4-0.1-4.7,0-7.1,0c0,0,0,0,0,0c-2,0-4-0.1-6,0c-1,0-2.6-0.6-3,0.5c-0.4,1.4-0.7,4,0,4.4
		c2.7,1.6,1.2,3.8,1.4,5.7c0.2,2.6,0.2,5.2,0,7.9c0,0.9,0.2,1.6-1,2.4c-1.5,0.9-0.7,3.2-0.5,4.7c0.1,1.1,1.5,0.5,2.3,0.5
		c3.1,0.1,6.2,0.1,9.3,0c0.9,0,2.9,0.9,2.5-1.2c-0.3-1.5,2-4.4-2-4.3c-1,0-1.1-0.5-1.2-1.4c-0.4-3.3-0.2-3.5,3.2-3.5
		c0.7,0,1.5,0,2.2,0c5-0.4,7.4-3.1,7.3-8C175.7,54.6,173.2,52,168.2,51.7z M166.2,59.9c0,1.6-0.3,2.9-2,2.7
		c-2.3-0.2-0.9-2.1-1.1-3.2c-0.2-0.8-0.7-2.2,1-2.2C166,57.2,166.3,58.6,166.2,59.9z"/>
	<path id="Caminho_194" d="M102.2,20.4c3.6,0,7.1,0.1,10.7,0c1.4,0,2,0.4,1.8,1.8c-0.1,0.8-0.1,1.6,0,2.4c0,4.1,0,4.1-4.1,3.9
		c-1.1,0-2-0.1-1.9-1.6c0.1-0.7-0.3-1-1-1c-0.8,0-1.2,0.3-1.2,1.1c0,4.3,0,8.5,0,12.8c0,0.5,0.1,1,0.6,1.1c3.7,0.5,1.3,3.2,1.8,4.9
		c0.2,0.9-1,0.8-1.7,0.8c-3.6,0-7.1,0-10.7,0c-0.9,0-2.1,0.1-1.8-1.3c0.3-1.4-1.1-3.5,1-4.2c1.2-0.4,1.3-0.8,1.3-1.8
		c0-3.9,0-7.8,0-11.7c0-0.6,0.4-1.5-0.8-1.6c-1.2-0.1-1.1,0.6-1.4,1.5c-0.8,2.4-2.9,0.7-4.4,1c-1.3,0.3-1.4-0.6-1.4-1.7
		c-0.4-6.5-0.4-6.5,6-6.5C97.4,20.4,99.8,20.4,102.2,20.4z"/>
	<path id="Caminho_195" d="M187.7,31.7c-3.2,0.1-6-2.4-6.1-5.7c-0.1-3.2,2.4-6,5.7-6.1c0.1,0,0.2,0,0.3,0c3.3,0,5.9,2.6,6,5.8
		C193.6,29,191,31.7,187.7,31.7L187.7,31.7z"/>
</g>
</svg>
