<?xml version="1.0" encoding="utf-8"?>
<!-- Generator: Adobe Illustrator 25.2.1, SVG Export Plug-In . SVG Version: 6.00 Build 0)  -->
<svg version="1.1" id="Camada_1" xmlns="http://www.w3.org/2000/svg" xmlns:xlink="http://www.w3.org/1999/xlink" x="0px" y="0px"
	 viewBox="0 0 240 240" style="enable-background:new 0 0 240 240;" xml:space="preserve">
<path id="Icon_metro-bin" d="M52.6,83.3v122.5c0,6.8,5.5,12.2,12.3,12.2h110.3c6.8,0,12.2-5.5,12.3-12.3V83.3H52.6z M89.4,193.5
	H77.1v-85.8h12.3L89.4,193.5z M113.9,193.5h-12.3v-85.8h12.3L113.9,193.5z M138.4,193.5h-12.3v-85.8h12.3L138.4,193.5z M162.9,193.5
	h-12.3v-85.8h12.3L162.9,193.5z M190.4,46.5h-39.8V31.2c0-5.1-4.1-9.2-9.2-9.2H98.6c-5.1,0-9.2,4.1-9.2,9.2v15.3H49.5
	c-5,0-9.1,4.1-9.1,9.2V71h159.2V55.7C199.6,50.6,195.5,46.5,190.4,46.5z M138.4,46.5h-36.8V34.4h36.8V46.5z"/>
</svg>
