<?xml version="1.0" encoding="utf-8"?>
<!-- Generator: Adobe Illustrator 25.2.1, SVG Export Plug-In . SVG Version: 6.00 Build 0)  -->
<svg version="1.1" id="Camada_1" xmlns="http://www.w3.org/2000/svg" xmlns:xlink="http://www.w3.org/1999/xlink" x="0px" y="0px"
	 viewBox="0 0 32 32" style="enable-background:new 0 0 32 32;" xml:space="preserve">
<style type="text/css">
	.st0{fill:#ACC2D3;}
</style>
<path id="Icon_awesome-twitter" class="st0" d="M27.1,10.3c0,0.2,0,0.5,0,0.7c0,7.6-5.8,16.3-16.3,16.3c-3.1,0-6.2-0.9-8.8-2.6
	c0.5,0.1,0.9,0.1,1.4,0.1c2.6,0,5.1-0.9,7.1-2.4c-2.5,0-4.6-1.6-5.4-4c0.4,0.1,0.7,0.1,1.1,0.1c0.5,0,1-0.1,1.5-0.2
	c-2.7-0.5-4.6-2.9-4.6-5.6v-0.1c0.8,0.4,1.7,0.7,2.6,0.7c-2.5-1.7-3.3-5-1.8-7.7c2.9,3.6,7.2,5.8,11.8,6c-0.1-0.4-0.1-0.9-0.1-1.3
	c0-3.2,2.6-5.7,5.8-5.7c1.6,0,3.1,0.7,4.2,1.8c1.3-0.2,2.5-0.7,3.6-1.4c-0.4,1.3-1.3,2.5-2.5,3.2c1.1-0.1,2.3-0.4,3.3-0.9
	C29.2,8.5,28.2,9.5,27.1,10.3L27.1,10.3z"/>
</svg>
