<?xml version="1.0" encoding="utf-8"?>
<!-- Generator: Adobe Illustrator 25.2.1, SVG Export Plug-In . SVG Version: 6.00 Build 0)  -->
<svg version="1.1" id="Camada_1" xmlns="http://www.w3.org/2000/svg" xmlns:xlink="http://www.w3.org/1999/xlink" x="0px" y="0px"
	 viewBox="0 0 32 32" style="enable-background:new 0 0 32 32;" xml:space="preserve">
<style type="text/css">
	.st0{fill:#00122B;}
</style>
<path id="Icon_awesome-user" class="st0" d="M16,16c4.2,0,7.6-3.4,7.6-7.6S20.2,0.8,16,0.8c-4.2,0-7.6,3.4-7.6,7.6
	C8.4,12.6,11.8,16,16,16C16,16,16,16,16,16z M21.3,17.9h-1c-2.7,1.3-5.9,1.3-8.6,0h-1c-4.4,0-8,3.6-8,8v2.5c0,1.6,1.3,2.8,2.8,2.8
	h20.8c1.6,0,2.8-1.3,2.8-2.8v-2.5C29.3,21.5,25.7,17.9,21.3,17.9z"/>
</svg>
