<?xml version="1.0" encoding="utf-8"?>
<!-- Generator: Adobe Illustrator 25.2.1, SVG Export Plug-In . SVG Version: 6.00 Build 0)  -->
<svg version="1.1" id="Camada_1" xmlns="http://www.w3.org/2000/svg" xmlns:xlink="http://www.w3.org/1999/xlink" x="0px" y="0px"
	 viewBox="0 0 32 32" style="enable-background:new 0 0 32 32;" xml:space="preserve">
<style type="text/css">
	.st0{fill:#737A83;}
</style>
<g id="Icon_awesome-user">
	<path class="st0" d="M25.8,31.3H6.2c-2,0-3.7-1.7-3.7-3.7v-2.3c0-4.7,3.8-8.5,8.5-8.5h1.1l0.2,0.1c2.3,1.1,5,1.1,7.3,0l0.2-0.1H21
		c4.7,0,8.5,3.8,8.5,8.5v2.3C29.5,29.6,27.8,31.3,25.8,31.3z M11,18.8c-3.6,0-6.5,2.9-6.5,6.5v2.3c0,0.9,0.8,1.7,1.7,1.7h19.6
		c0.9,0,1.7-0.8,1.7-1.7v-2.3c0-3.6-2.9-6.5-6.5-6.5h-0.7c-2.7,1.2-5.8,1.2-8.6,0H11z M16,17L16,17c-2.2,0-4.2-0.8-5.8-2.4
		C8.7,13.1,7.9,11,7.9,8.9c0-4.5,3.7-8.1,8.1-8.1s8.1,3.6,8.1,8.1S20.5,17,16,17z M16,2.7c-3.4,0-6.1,2.8-6.1,6.1
		c0,3.4,2.8,6.1,6.1,6.1v1l0-1c3.4,0,6.1-2.8,6.1-6.1C22.1,5.5,19.4,2.7,16,2.7z"/>
</g>
</svg>
