<?xml version="1.0" encoding="utf-8"?>
<!-- Generator: Adobe Illustrator 25.2.1, SVG Export Plug-In . SVG Version: 6.00 Build 0)  -->
<svg version="1.1" id="Camada_1" xmlns="http://www.w3.org/2000/svg" xmlns:xlink="http://www.w3.org/1999/xlink" x="0px" y="0px"
	 viewBox="0 0 240 240" style="enable-background:new 0 0 240 240;" xml:space="preserve">
<style type="text/css">
	.st0{fill:#737A83;}
</style>
<path id="Icon_metro-eye" class="st0" d="M120,51C73.1,51.2,30.4,77.9,9.6,120c29.7,61,103.2,86.3,164.2,56.6
	c24.6-12,44.6-31.9,56.6-56.6C209.6,77.9,166.9,51.2,120,51z M174.4,87.6c13,8.3,24,19.4,32.2,32.4c-8.2,13-19.2,24.1-32.2,32.4
	c-33.2,21.2-75.7,21.2-108.9,0c-13-8.3-24-19.4-32.2-32.4c8.2-13,19.2-24.1,32.2-32.4c0.8-0.5,1.7-1.1,2.6-1.6
	c-10.4,28.6,4.4,60.3,33,70.7c28.6,10.4,60.3-4.4,70.7-33c4.4-12.2,4.4-25.5,0-37.7C172.7,86.5,173.6,87,174.4,87.6L174.4,87.6z
	 M120,99.3c0,11.4-9.3,20.7-20.7,20.7s-20.7-9.3-20.7-20.7c0-11.4,9.3-20.7,20.7-20.7l0,0C110.7,78.6,120,87.9,120,99.3z"/>
</svg>
