<?xml version="1.0" encoding="utf-8"?>
<!-- Generator: Adobe Illustrator 25.2.1, SVG Export Plug-In . SVG Version: 6.00 Build 0)  -->
<svg version="1.1" id="Camada_1" xmlns="http://www.w3.org/2000/svg" xmlns:xlink="http://www.w3.org/1999/xlink" x="0px" y="0px"
	 viewBox="0 0 32 32" style="enable-background:new 0 0 32 32;" xml:space="preserve">
<style type="text/css">
	.st0{fill-rule:evenodd;clip-rule:evenodd;fill:#737A83;}
</style>
<path id="voleibol" class="st0" d="M16,2C8.3,2,2,8.3,2,16s6.3,14,14,14s14-6.3,14-14C30,8.3,23.7,2,16,2z M17.2,27.5
	c-1.8,0.1-3.6-0.2-5.2-0.9c0.5-0.6,2.2-1.8,3-3.7c1-2,1.5-4.2,1.7-6.5c1.6-0.8,3.3-1.3,5-1.5C22.3,21.2,21.2,23.4,17.2,27.5
	L17.2,27.5z M22.8,13.5c-2.4,0-4.7,0.6-6.8,1.7c-1.5-0.9-2.8-2.2-3.8-3.6c3.6-3.3,8.7-4.2,13.2-2.4c1,1.6,1.7,3.3,2.1,5.2
	C26,13.7,24.4,13.4,22.8,13.5L22.8,13.5z M23.7,7.4c-4.4-0.5-8.4-0.4-12.2,3c-0.8-1.2-1.3-2.6-1.3-4.1C12,5.3,14,4.6,16.1,4.5
	C18.9,4.6,21.6,5.6,23.7,7.4L23.7,7.4z M9,7c0.3,1.8,1,3.5,1.9,5c1,1.9,2.6,3.4,4.5,4.4c-0.1,1.8-0.5,3.5-1.2,5.1
	c-5.3-1.6-7.5-5.6-8.6-10.1C6.4,9.7,7.5,8.2,9,7L9,7z M4.7,18.1c-0.3-1.5-0.3-3.1,0-4.6c1.1,4.4,4.4,7.8,8.7,9.1
	c-1,1.6-1.1,2.3-2.8,3.4C6.9,24,5.5,22,4.7,18.1z M19.5,26.9c3.2-3.1,4.5-7.7,3.5-12c1.6,0,3.2,0.4,4.6,1.2
	C27.4,22.3,23.6,25.4,19.5,26.9z"/>
</svg>
